G04 #@! TF.FileFunction,Copper,L2,Bot,Signal*
%FSLAX46Y46*%
G04 Gerber Fmt 4.6, Leading zero omitted, Abs format (unit mm)*
G04 Created by KiCad (PCBNEW 0.201504121001+5594~22~ubuntu14.04.1-product) date Wed 15 Apr 2015 18:38:53 NZST*
%MOMM*%
G01*
G04 APERTURE LIST*
%ADD10C,0.150000*%
%ADD11C,0.300000*%
%ADD12R,2.032000X2.032000*%
%ADD13O,2.032000X2.032000*%
%ADD14C,1.000000*%
%ADD15C,6.600000*%
%ADD16R,1.727200X1.727200*%
%ADD17O,1.727200X1.727200*%
%ADD18O,3.302000X1.524000*%
%ADD19C,1.524000*%
%ADD20C,0.762000*%
%ADD21C,0.254000*%
%ADD22C,0.177800*%
G04 APERTURE END LIST*
D10*
D11*
X89654970Y-74861029D02*
X89583541Y-74789600D01*
X89440684Y-74718171D01*
X89083541Y-74718171D01*
X88940684Y-74789600D01*
X88869255Y-74861029D01*
X88797827Y-75003886D01*
X88797827Y-75146743D01*
X88869255Y-75361029D01*
X89726398Y-76218171D01*
X88797827Y-76218171D01*
X87869256Y-74718171D02*
X87726399Y-74718171D01*
X87583542Y-74789600D01*
X87512113Y-74861029D01*
X87440684Y-75003886D01*
X87369256Y-75289600D01*
X87369256Y-75646743D01*
X87440684Y-75932457D01*
X87512113Y-76075314D01*
X87583542Y-76146743D01*
X87726399Y-76218171D01*
X87869256Y-76218171D01*
X88012113Y-76146743D01*
X88083542Y-76075314D01*
X88154970Y-75932457D01*
X88226399Y-75646743D01*
X88226399Y-75289600D01*
X88154970Y-75003886D01*
X88083542Y-74861029D01*
X88012113Y-74789600D01*
X87869256Y-74718171D01*
X85940685Y-76218171D02*
X86797828Y-76218171D01*
X86369256Y-76218171D02*
X86369256Y-74718171D01*
X86512113Y-74932457D01*
X86654971Y-75075314D01*
X86797828Y-75146743D01*
X84583542Y-74718171D02*
X85297828Y-74718171D01*
X85369257Y-75432457D01*
X85297828Y-75361029D01*
X85154971Y-75289600D01*
X84797828Y-75289600D01*
X84654971Y-75361029D01*
X84583542Y-75432457D01*
X84512114Y-75575314D01*
X84512114Y-75932457D01*
X84583542Y-76075314D01*
X84654971Y-76146743D01*
X84797828Y-76218171D01*
X85154971Y-76218171D01*
X85297828Y-76146743D01*
X85369257Y-76075314D01*
X83583543Y-74718171D02*
X83440686Y-74718171D01*
X83297829Y-74789600D01*
X83226400Y-74861029D01*
X83154971Y-75003886D01*
X83083543Y-75289600D01*
X83083543Y-75646743D01*
X83154971Y-75932457D01*
X83226400Y-76075314D01*
X83297829Y-76146743D01*
X83440686Y-76218171D01*
X83583543Y-76218171D01*
X83726400Y-76146743D01*
X83797829Y-76075314D01*
X83869257Y-75932457D01*
X83940686Y-75646743D01*
X83940686Y-75289600D01*
X83869257Y-75003886D01*
X83797829Y-74861029D01*
X83726400Y-74789600D01*
X83583543Y-74718171D01*
X81797829Y-75218171D02*
X81797829Y-76218171D01*
X82154972Y-74646743D02*
X82512115Y-75718171D01*
X81583543Y-75718171D01*
X80226401Y-76218171D02*
X81083544Y-76218171D01*
X80654972Y-76218171D02*
X80654972Y-74718171D01*
X80797829Y-74932457D01*
X80940687Y-75075314D01*
X81083544Y-75146743D01*
X78869258Y-74718171D02*
X79583544Y-74718171D01*
X79654973Y-75432457D01*
X79583544Y-75361029D01*
X79440687Y-75289600D01*
X79083544Y-75289600D01*
X78940687Y-75361029D01*
X78869258Y-75432457D01*
X78797830Y-75575314D01*
X78797830Y-75932457D01*
X78869258Y-76075314D01*
X78940687Y-76146743D01*
X79083544Y-76218171D01*
X79440687Y-76218171D01*
X79583544Y-76146743D01*
X79654973Y-76075314D01*
D12*
X158750000Y-60452000D03*
D13*
X158750000Y-57912000D03*
D14*
X163390000Y-54132000D03*
X159190000Y-54132000D03*
X159190000Y-51732000D03*
X163390000Y-51732000D03*
X161290000Y-55232000D03*
D15*
X161290000Y-52832000D03*
D14*
X161290000Y-50532000D03*
D12*
X67310000Y-74422000D03*
D13*
X64770000Y-74422000D03*
D12*
X67310000Y-50292000D03*
D13*
X64770000Y-50292000D03*
D16*
X124460000Y-73152000D03*
D17*
X124460000Y-75692000D03*
X121920000Y-73152000D03*
X121920000Y-75692000D03*
X119380000Y-73152000D03*
X119380000Y-75692000D03*
X116840000Y-73152000D03*
X116840000Y-75692000D03*
X114300000Y-73152000D03*
X114300000Y-75692000D03*
D16*
X143510000Y-74422000D03*
D17*
X140970000Y-74422000D03*
X138430000Y-74422000D03*
X135890000Y-74422000D03*
X133350000Y-74422000D03*
D18*
X73660000Y-71882000D03*
X73660000Y-69342000D03*
X73660000Y-66802000D03*
X73660000Y-64262000D03*
X73660000Y-61722000D03*
X73660000Y-59182000D03*
X73660000Y-56642000D03*
X73660000Y-54102000D03*
D14*
X51630000Y-54132000D03*
X47430000Y-54132000D03*
X47430000Y-51732000D03*
X51630000Y-51732000D03*
X49530000Y-55232000D03*
D15*
X49530000Y-52832000D03*
D14*
X49530000Y-50532000D03*
X51630000Y-73182000D03*
X47430000Y-73182000D03*
X47430000Y-70782000D03*
X51630000Y-70782000D03*
X49530000Y-74282000D03*
D15*
X49530000Y-71882000D03*
D14*
X49530000Y-69582000D03*
X163390000Y-73182000D03*
X159190000Y-73182000D03*
X159190000Y-70782000D03*
X163390000Y-70782000D03*
X161290000Y-74282000D03*
D15*
X161290000Y-71882000D03*
D14*
X161290000Y-69582000D03*
D19*
X138430000Y-65532000D03*
X135890000Y-68072000D03*
D20*
X130048000Y-72390000D03*
X120802400Y-61798200D03*
X116403051Y-60484308D03*
X81330800Y-66903600D03*
X81407000Y-64363600D03*
X129540000Y-67310000D03*
X129540000Y-68326000D03*
X121036970Y-60234052D03*
X133858000Y-60198000D03*
X122010690Y-59944000D03*
X133604000Y-59182000D03*
X120960720Y-49026000D03*
X121976720Y-49026000D03*
X122992720Y-49026000D03*
X124008720Y-49026000D03*
X125024720Y-49026000D03*
X126040720Y-49026000D03*
X154940000Y-62357000D03*
X153670000Y-62357000D03*
X152400000Y-62357000D03*
X107950000Y-49022000D03*
X109220000Y-49022000D03*
X110490000Y-49022000D03*
X116896720Y-50042000D03*
X115880720Y-50042000D03*
X114864720Y-50042000D03*
X143891000Y-71882000D03*
X142875000Y-71882000D03*
X141224000Y-66040000D03*
X136652010Y-58547000D03*
X125476000Y-66547980D03*
X132403800Y-60694672D03*
X129480484Y-65218484D03*
X104457500Y-63182500D03*
X124460000Y-61468000D03*
X121412000Y-63754000D03*
X100329479Y-71246479D03*
X100606860Y-65552318D03*
X100027740Y-59923682D03*
X117200000Y-63900000D03*
X93472000Y-66040000D03*
X151638000Y-73914000D03*
X56388000Y-64516000D03*
X70104000Y-60452000D03*
X70104000Y-59690000D03*
X70104000Y-58928000D03*
X149860000Y-52832000D03*
X150622000Y-52832000D03*
X152146000Y-51562000D03*
X153670000Y-51562000D03*
X155194000Y-51562000D03*
X116840000Y-69850000D03*
X108712000Y-69342000D03*
X110998000Y-72136000D03*
X125476000Y-56642000D03*
X125476000Y-55753000D03*
X88519000Y-69596000D03*
X88519000Y-70612000D03*
X88519000Y-72390000D03*
X88519000Y-73406000D03*
X98298000Y-71247000D03*
X91567000Y-71501000D03*
X91567000Y-72517000D03*
X91567000Y-73533000D03*
X78648558Y-61849000D03*
X78232000Y-56845200D03*
X90424000Y-61976000D03*
X90170000Y-59309000D03*
X131699000Y-69367400D03*
X141097000Y-64516010D03*
X134366000Y-62865000D03*
X141351000Y-62865000D03*
D21*
X129667001Y-72770999D02*
X130048000Y-72390000D01*
X124460000Y-75692000D02*
X126746000Y-75692000D01*
X126746000Y-75692000D02*
X129667001Y-72770999D01*
D22*
X120802400Y-61798200D02*
X117716943Y-61798200D01*
X117716943Y-61798200D02*
X116784050Y-60865307D01*
X116784050Y-60865307D02*
X116403051Y-60484308D01*
X73787000Y-71390000D02*
X74279000Y-71390000D01*
X74549000Y-71882000D02*
X73660000Y-71882000D01*
X79527400Y-66903600D02*
X74549000Y-71882000D01*
X81330800Y-66903600D02*
X79527400Y-66903600D01*
X73787000Y-68850000D02*
X74676000Y-68850000D01*
X74549000Y-69342000D02*
X73660000Y-69342000D01*
X79527400Y-64363600D02*
X74549000Y-69342000D01*
X81407000Y-64363600D02*
X79527400Y-64363600D01*
D21*
X119380000Y-73152000D02*
X120650000Y-71882000D01*
X120650000Y-71882000D02*
X123190000Y-71882000D01*
X123190000Y-71882000D02*
X123951990Y-71120010D01*
X123951990Y-71120010D02*
X123951990Y-68326010D01*
X123951990Y-68326010D02*
X124968000Y-67310000D01*
X124968000Y-67310000D02*
X129540000Y-67310000D01*
X129540000Y-68326000D02*
X129001185Y-68326000D01*
X129001185Y-68326000D02*
X128524000Y-67848815D01*
X128524000Y-67848815D02*
X125191185Y-67848815D01*
X124460000Y-68580000D02*
X124460000Y-73152000D01*
X125191185Y-67848815D02*
X124460000Y-68580000D01*
X122427999Y-60706001D02*
X122936000Y-60198000D01*
X121508919Y-60706001D02*
X122427999Y-60706001D01*
X121036970Y-60234052D02*
X121508919Y-60706001D01*
X122936000Y-60198000D02*
X123443990Y-59690010D01*
X123443990Y-59690010D02*
X132842010Y-59690010D01*
X133350000Y-60198000D02*
X133858000Y-60198000D01*
X132842010Y-59690010D02*
X133350000Y-60198000D01*
X122772690Y-59182000D02*
X133604000Y-59182000D01*
X122010690Y-59944000D02*
X122772690Y-59182000D01*
D22*
X120960720Y-49026000D02*
X121976720Y-49026000D01*
X122992720Y-49026000D02*
X124008720Y-49026000D01*
X125024720Y-49026000D02*
X126040720Y-49026000D01*
X152400000Y-62357000D02*
X153670000Y-62357000D01*
X107950000Y-49022000D02*
X109220000Y-49022000D01*
X114864720Y-50042000D02*
X115880720Y-50042000D01*
D21*
X142875000Y-71882000D02*
X143891000Y-71882000D01*
X118110000Y-74422000D02*
X116840000Y-75692000D01*
X118516401Y-76555599D02*
X118364000Y-76708000D01*
X119380000Y-75692000D02*
X118516401Y-76555599D01*
X120243599Y-74828401D02*
X120243599Y-74574401D01*
X119837198Y-74422000D02*
X118364000Y-74422000D01*
X120243599Y-74828401D02*
X119837198Y-74422000D01*
X119380000Y-75692000D02*
X120243599Y-74828401D01*
X118110000Y-76962000D02*
X120650000Y-76962000D01*
X120650000Y-76962000D02*
X119380000Y-75692000D01*
X118110000Y-76962000D02*
X115620798Y-76962000D01*
X115620798Y-76962000D02*
X115595399Y-76936601D01*
X116840000Y-75692000D02*
X118110000Y-76962000D01*
X116840000Y-75692000D02*
X115595399Y-76936601D01*
X116840000Y-75438000D02*
X115839352Y-74437352D01*
X115839352Y-74437352D02*
X115570000Y-74168000D01*
X118110000Y-74422000D02*
X115854704Y-74422000D01*
X115854704Y-74422000D02*
X115839352Y-74437352D01*
X119380000Y-75692000D02*
X118110000Y-74422000D01*
X102087682Y-65552318D02*
X100606860Y-65552318D01*
X104457500Y-63182500D02*
X102087682Y-65552318D01*
X70104000Y-60452000D02*
X70104000Y-59690000D01*
X149860000Y-52832000D02*
X150622000Y-52832000D01*
X152146000Y-51562000D02*
X153670000Y-51562000D01*
X117200000Y-69490000D02*
X116840000Y-69850000D01*
X117200000Y-63900000D02*
X117200000Y-69490000D01*
X115570000Y-71120000D02*
X116840000Y-69850000D01*
X115570000Y-74168000D02*
X115570000Y-71120000D01*
X116840000Y-75692000D02*
X116840000Y-75438000D01*
X110236000Y-71120000D02*
X108712000Y-69596000D01*
X108712000Y-69596000D02*
X108712000Y-69342000D01*
X115595399Y-76936601D02*
X112242601Y-76936601D01*
X112242601Y-73888601D02*
X112242601Y-73126601D01*
X112242601Y-73126601D02*
X111632999Y-72516999D01*
X111632999Y-72516999D02*
X111252000Y-72136000D01*
X112242601Y-76936601D02*
X111252000Y-75946000D01*
X111252000Y-75946000D02*
X111252000Y-72674815D01*
X111252000Y-72674815D02*
X111252000Y-72136000D01*
X125476000Y-56642000D02*
X125476000Y-55753000D01*
X88519000Y-69596000D02*
X88519000Y-70612000D01*
X88519000Y-72390000D02*
X88519000Y-73406000D01*
X91567000Y-71501000D02*
X91567000Y-72517000D01*
D22*
X78232000Y-56845200D02*
X78648558Y-57261758D01*
X78648558Y-57261758D02*
X78648558Y-61849000D01*
X90170000Y-59309000D02*
X90170000Y-61722000D01*
X90170000Y-61722000D02*
X90424000Y-61976000D01*
X133350000Y-68072000D02*
X135890000Y-68072000D01*
X131699000Y-69367400D02*
X132994400Y-68072000D01*
X132994400Y-68072000D02*
X133350000Y-68072000D01*
X141097000Y-64516010D02*
X140081010Y-65532000D01*
X140081010Y-65532000D02*
X138430000Y-65532000D01*
D21*
X141351000Y-62865000D02*
X134366000Y-62865000D01*
G36*
X118843626Y-77063850D02*
X117376373Y-77063850D01*
X117728490Y-76898821D01*
X118110000Y-76480847D01*
X118491510Y-76898821D01*
X118843626Y-77063850D01*
X118843626Y-77063850D01*
G37*
X118843626Y-77063850D02*
X117376373Y-77063850D01*
X117728490Y-76898821D01*
X118110000Y-76480847D01*
X118491510Y-76898821D01*
X118843626Y-77063850D01*
G36*
X119527000Y-75819000D02*
X119507000Y-75819000D01*
X119507000Y-75839000D01*
X119253000Y-75839000D01*
X119253000Y-75819000D01*
X118173817Y-75819000D01*
X118046183Y-75819000D01*
X116967000Y-75819000D01*
X116967000Y-75839000D01*
X116713000Y-75839000D01*
X116713000Y-75819000D01*
X116693000Y-75819000D01*
X116693000Y-75565000D01*
X116713000Y-75565000D01*
X116713000Y-75545000D01*
X116967000Y-75545000D01*
X116967000Y-75565000D01*
X118046183Y-75565000D01*
X118173817Y-75565000D01*
X119253000Y-75565000D01*
X119253000Y-75545000D01*
X119507000Y-75545000D01*
X119507000Y-75565000D01*
X119527000Y-75565000D01*
X119527000Y-75819000D01*
X119527000Y-75819000D01*
G37*
X119527000Y-75819000D02*
X119507000Y-75819000D01*
X119507000Y-75839000D01*
X119253000Y-75839000D01*
X119253000Y-75819000D01*
X118173817Y-75819000D01*
X118046183Y-75819000D01*
X116967000Y-75819000D01*
X116967000Y-75839000D01*
X116713000Y-75839000D01*
X116713000Y-75819000D01*
X116693000Y-75819000D01*
X116693000Y-75565000D01*
X116713000Y-75565000D01*
X116713000Y-75545000D01*
X116967000Y-75545000D01*
X116967000Y-75565000D01*
X118046183Y-75565000D01*
X118173817Y-75565000D01*
X119253000Y-75565000D01*
X119253000Y-75545000D01*
X119507000Y-75545000D01*
X119507000Y-75565000D01*
X119527000Y-75565000D01*
X119527000Y-75819000D01*
G36*
X166560570Y-72958847D02*
X166243449Y-74553116D01*
X165364810Y-75868093D01*
X164049836Y-76746729D01*
X162455566Y-77063850D01*
X161998720Y-77063850D01*
X161498720Y-77063850D01*
X160413440Y-77063850D01*
X160413440Y-61468000D01*
X160413440Y-59436000D01*
X160366463Y-59193877D01*
X160226673Y-58981073D01*
X160083106Y-58884163D01*
X160087188Y-58880379D01*
X160355983Y-58294946D01*
X160355983Y-57529054D01*
X160087188Y-56943621D01*
X159614818Y-56505615D01*
X159132944Y-56306025D01*
X158877000Y-56425164D01*
X158877000Y-57785000D01*
X160237367Y-57785000D01*
X160355983Y-57529054D01*
X160355983Y-58294946D01*
X160237367Y-58039000D01*
X158877000Y-58039000D01*
X158877000Y-58059000D01*
X158623000Y-58059000D01*
X158623000Y-58039000D01*
X158623000Y-57785000D01*
X158623000Y-56425164D01*
X158367056Y-56306025D01*
X157885182Y-56505615D01*
X157412812Y-56943621D01*
X157144017Y-57529054D01*
X157262633Y-57785000D01*
X158623000Y-57785000D01*
X158623000Y-58039000D01*
X157262633Y-58039000D01*
X157144017Y-58294946D01*
X157412812Y-58880379D01*
X157417291Y-58884532D01*
X157279073Y-58975327D01*
X157136623Y-59186360D01*
X157086560Y-59436000D01*
X157086560Y-61468000D01*
X157133537Y-61710123D01*
X157273327Y-61922927D01*
X157484360Y-62065377D01*
X157734000Y-62115440D01*
X159766000Y-62115440D01*
X160008123Y-62068463D01*
X160220927Y-61928673D01*
X160363377Y-61717640D01*
X160413440Y-61468000D01*
X160413440Y-77063850D01*
X144762064Y-77063850D01*
X144762064Y-75285600D01*
X144762064Y-73558400D01*
X144733878Y-73413126D01*
X144650004Y-73285444D01*
X144523384Y-73199974D01*
X144373600Y-73169936D01*
X142646400Y-73169936D01*
X142501126Y-73198122D01*
X142373444Y-73281996D01*
X142287974Y-73408616D01*
X142257936Y-73558400D01*
X142257936Y-75285600D01*
X142286122Y-75430874D01*
X142369996Y-75558556D01*
X142496616Y-75644026D01*
X142646400Y-75674064D01*
X144373600Y-75674064D01*
X144518874Y-75645878D01*
X144646556Y-75562004D01*
X144732026Y-75435384D01*
X144762064Y-75285600D01*
X144762064Y-77063850D01*
X142238983Y-77063850D01*
X142238983Y-74422000D01*
X142144243Y-73945712D01*
X142113132Y-73899151D01*
X142113132Y-62714094D01*
X141997368Y-62433926D01*
X141783202Y-62219385D01*
X141503236Y-62103133D01*
X141200094Y-62102868D01*
X140919926Y-62218632D01*
X140781315Y-62357000D01*
X134935576Y-62357000D01*
X134798202Y-62219385D01*
X134620132Y-62145443D01*
X134620132Y-60047094D01*
X134504368Y-59766926D01*
X134290202Y-59552385D01*
X134277477Y-59547101D01*
X134365867Y-59334236D01*
X134366132Y-59031094D01*
X134250368Y-58750926D01*
X134036202Y-58536385D01*
X133756236Y-58420133D01*
X133453094Y-58419868D01*
X133172926Y-58535632D01*
X133034315Y-58674000D01*
X122772690Y-58674000D01*
X122578287Y-58712669D01*
X122413480Y-58822790D01*
X122054232Y-59182037D01*
X121859784Y-59181868D01*
X121579616Y-59297632D01*
X121365075Y-59511798D01*
X121353240Y-59540298D01*
X121189206Y-59472185D01*
X120886064Y-59471920D01*
X120605896Y-59587684D01*
X120391355Y-59801850D01*
X120275103Y-60081816D01*
X120274838Y-60384958D01*
X120390602Y-60665126D01*
X120604768Y-60879667D01*
X120884734Y-60995919D01*
X121080588Y-60996090D01*
X121149709Y-61065211D01*
X121314516Y-61175332D01*
X121508919Y-61214001D01*
X122427999Y-61214001D01*
X122622402Y-61175332D01*
X122787209Y-61065211D01*
X123295210Y-60557210D01*
X123654410Y-60198010D01*
X132631590Y-60198010D01*
X132990790Y-60557210D01*
X133155596Y-60667331D01*
X133155597Y-60667331D01*
X133187849Y-60673746D01*
X133273166Y-60690716D01*
X133273167Y-60690717D01*
X133425798Y-60843615D01*
X133705764Y-60959867D01*
X134008906Y-60960132D01*
X134289074Y-60844368D01*
X134503615Y-60630202D01*
X134619867Y-60350236D01*
X134620132Y-60047094D01*
X134620132Y-62145443D01*
X134518236Y-62103133D01*
X134215094Y-62102868D01*
X133934926Y-62218632D01*
X133720385Y-62432798D01*
X133604133Y-62712764D01*
X133603868Y-63015906D01*
X133719632Y-63296074D01*
X133933798Y-63510615D01*
X134213764Y-63626867D01*
X134516906Y-63627132D01*
X134797074Y-63511368D01*
X134935684Y-63373000D01*
X140781423Y-63373000D01*
X140918798Y-63510615D01*
X141198764Y-63626867D01*
X141501906Y-63627132D01*
X141782074Y-63511368D01*
X141996615Y-63297202D01*
X142112867Y-63017236D01*
X142113132Y-62714094D01*
X142113132Y-73899151D01*
X141874448Y-73541935D01*
X141859132Y-73531701D01*
X141859132Y-64365104D01*
X141743368Y-64084936D01*
X141529202Y-63870395D01*
X141249236Y-63754143D01*
X140946094Y-63753878D01*
X140665926Y-63869642D01*
X140451385Y-64083808D01*
X140335133Y-64363774D01*
X140334914Y-64613556D01*
X139886371Y-65062100D01*
X139472569Y-65062100D01*
X139399554Y-64885388D01*
X139078303Y-64563577D01*
X138658354Y-64389199D01*
X138203641Y-64388802D01*
X137783388Y-64562446D01*
X137461577Y-64883697D01*
X137287199Y-65303646D01*
X137286802Y-65758359D01*
X137460446Y-66178612D01*
X137781697Y-66500423D01*
X138201646Y-66674801D01*
X138656359Y-66675198D01*
X139076612Y-66501554D01*
X139398423Y-66180303D01*
X139472502Y-66001900D01*
X140081010Y-66001900D01*
X140081010Y-66001899D01*
X140260833Y-65966131D01*
X140413279Y-65864269D01*
X140999623Y-65277924D01*
X141247906Y-65278142D01*
X141528074Y-65162378D01*
X141742615Y-64948212D01*
X141858867Y-64668246D01*
X141859132Y-64365104D01*
X141859132Y-73531701D01*
X141470671Y-73272140D01*
X140994383Y-73177400D01*
X140945617Y-73177400D01*
X140469329Y-73272140D01*
X140065552Y-73541935D01*
X139795757Y-73945712D01*
X139701017Y-74422000D01*
X139795757Y-74898288D01*
X140065552Y-75302065D01*
X140469329Y-75571860D01*
X140945617Y-75666600D01*
X140994383Y-75666600D01*
X141470671Y-75571860D01*
X141874448Y-75302065D01*
X142144243Y-74898288D01*
X142238983Y-74422000D01*
X142238983Y-77063850D01*
X139698983Y-77063850D01*
X139698983Y-74422000D01*
X139604243Y-73945712D01*
X139334448Y-73541935D01*
X138930671Y-73272140D01*
X138454383Y-73177400D01*
X138405617Y-73177400D01*
X137929329Y-73272140D01*
X137525552Y-73541935D01*
X137255757Y-73945712D01*
X137161017Y-74422000D01*
X137255757Y-74898288D01*
X137525552Y-75302065D01*
X137929329Y-75571860D01*
X138405617Y-75666600D01*
X138454383Y-75666600D01*
X138930671Y-75571860D01*
X139334448Y-75302065D01*
X139604243Y-74898288D01*
X139698983Y-74422000D01*
X139698983Y-77063850D01*
X137158983Y-77063850D01*
X137158983Y-74422000D01*
X137064243Y-73945712D01*
X137033198Y-73899249D01*
X137033198Y-67845641D01*
X136859554Y-67425388D01*
X136538303Y-67103577D01*
X136118354Y-66929199D01*
X135663641Y-66928802D01*
X135243388Y-67102446D01*
X134921577Y-67423697D01*
X134847497Y-67602100D01*
X133350000Y-67602100D01*
X132994400Y-67602100D01*
X132814577Y-67637869D01*
X132662130Y-67739731D01*
X131796376Y-68605485D01*
X131548094Y-68605268D01*
X131267926Y-68721032D01*
X131053385Y-68935198D01*
X130937133Y-69215164D01*
X130936868Y-69518306D01*
X131052632Y-69798474D01*
X131266798Y-70013015D01*
X131546764Y-70129267D01*
X131849906Y-70129532D01*
X132130074Y-70013768D01*
X132344615Y-69799602D01*
X132460867Y-69519636D01*
X132461085Y-69269852D01*
X133189038Y-68541900D01*
X133350000Y-68541900D01*
X134847430Y-68541900D01*
X134920446Y-68718612D01*
X135241697Y-69040423D01*
X135661646Y-69214801D01*
X136116359Y-69215198D01*
X136536612Y-69041554D01*
X136858423Y-68720303D01*
X137032801Y-68300354D01*
X137033198Y-67845641D01*
X137033198Y-73899249D01*
X136794448Y-73541935D01*
X136390671Y-73272140D01*
X135914383Y-73177400D01*
X135865617Y-73177400D01*
X135389329Y-73272140D01*
X134985552Y-73541935D01*
X134740840Y-73908171D01*
X134632688Y-73647053D01*
X134238490Y-73215179D01*
X133709027Y-72967032D01*
X133477000Y-73087531D01*
X133477000Y-74295000D01*
X133497000Y-74295000D01*
X133497000Y-74549000D01*
X133477000Y-74549000D01*
X133477000Y-75756469D01*
X133709027Y-75876968D01*
X134238490Y-75628821D01*
X134632688Y-75196947D01*
X134740840Y-74935828D01*
X134985552Y-75302065D01*
X135389329Y-75571860D01*
X135865617Y-75666600D01*
X135914383Y-75666600D01*
X136390671Y-75571860D01*
X136794448Y-75302065D01*
X137064243Y-74898288D01*
X137158983Y-74422000D01*
X137158983Y-77063850D01*
X133223000Y-77063850D01*
X133223000Y-75756469D01*
X133223000Y-74549000D01*
X133223000Y-74295000D01*
X133223000Y-73087531D01*
X132990973Y-72967032D01*
X132461510Y-73215179D01*
X132067312Y-73647053D01*
X131895042Y-74062974D01*
X132016183Y-74295000D01*
X133223000Y-74295000D01*
X133223000Y-74549000D01*
X132016183Y-74549000D01*
X131895042Y-74781026D01*
X132067312Y-75196947D01*
X132461510Y-75628821D01*
X132990973Y-75876968D01*
X133223000Y-75756469D01*
X133223000Y-77063850D01*
X130810132Y-77063850D01*
X130810132Y-72239094D01*
X130694368Y-71958926D01*
X130480202Y-71744385D01*
X130200236Y-71628133D01*
X129897094Y-71627868D01*
X129616926Y-71743632D01*
X129402385Y-71957798D01*
X129286133Y-72237764D01*
X129285961Y-72433618D01*
X126535579Y-75184000D01*
X125613053Y-75184000D01*
X125364448Y-74811935D01*
X124960671Y-74542140D01*
X124484383Y-74447400D01*
X124435617Y-74447400D01*
X123959329Y-74542140D01*
X123555552Y-74811935D01*
X123285757Y-75215712D01*
X123191017Y-75692000D01*
X123285757Y-76168288D01*
X123555552Y-76572065D01*
X123959329Y-76841860D01*
X124435617Y-76936600D01*
X124484383Y-76936600D01*
X124960671Y-76841860D01*
X125364448Y-76572065D01*
X125613053Y-76200000D01*
X126746000Y-76200000D01*
X126940403Y-76161331D01*
X127105210Y-76051210D01*
X130004457Y-73151962D01*
X130198906Y-73152132D01*
X130479074Y-73036368D01*
X130693615Y-72822202D01*
X130809867Y-72542236D01*
X130810132Y-72239094D01*
X130810132Y-77063850D01*
X119916373Y-77063850D01*
X120268490Y-76898821D01*
X120662688Y-76466947D01*
X120770840Y-76205828D01*
X121015552Y-76572065D01*
X121419329Y-76841860D01*
X121895617Y-76936600D01*
X121944383Y-76936600D01*
X122420671Y-76841860D01*
X122824448Y-76572065D01*
X123094243Y-76168288D01*
X123188983Y-75692000D01*
X123094243Y-75215712D01*
X122824448Y-74811935D01*
X122420671Y-74542140D01*
X121944383Y-74447400D01*
X121895617Y-74447400D01*
X121419329Y-74542140D01*
X121015552Y-74811935D01*
X120770840Y-75178171D01*
X120662688Y-74917053D01*
X120268490Y-74485179D01*
X119878338Y-74302323D01*
X119880671Y-74301860D01*
X120284448Y-74032065D01*
X120554243Y-73628288D01*
X120648983Y-73152000D01*
X120557638Y-72692781D01*
X120860420Y-72390000D01*
X120936663Y-72390000D01*
X120745757Y-72675712D01*
X120651017Y-73152000D01*
X120745757Y-73628288D01*
X121015552Y-74032065D01*
X121419329Y-74301860D01*
X121895617Y-74396600D01*
X121944383Y-74396600D01*
X122420671Y-74301860D01*
X122824448Y-74032065D01*
X123094243Y-73628288D01*
X123188983Y-73152000D01*
X123094243Y-72675712D01*
X122903336Y-72390000D01*
X123190000Y-72390000D01*
X123207936Y-72386432D01*
X123207936Y-74015600D01*
X123236122Y-74160874D01*
X123319996Y-74288556D01*
X123446616Y-74374026D01*
X123596400Y-74404064D01*
X125323600Y-74404064D01*
X125468874Y-74375878D01*
X125596556Y-74292004D01*
X125682026Y-74165384D01*
X125712064Y-74015600D01*
X125712064Y-72288400D01*
X125683878Y-72143126D01*
X125600004Y-72015444D01*
X125473384Y-71929974D01*
X125323600Y-71899936D01*
X124968000Y-71899936D01*
X124968000Y-68790420D01*
X125401605Y-68356815D01*
X128313579Y-68356815D01*
X128641974Y-68685210D01*
X128641975Y-68685210D01*
X128752095Y-68758790D01*
X128806781Y-68795330D01*
X128806782Y-68795331D01*
X128962802Y-68826365D01*
X129107798Y-68971615D01*
X129387764Y-69087867D01*
X129690906Y-69088132D01*
X129971074Y-68972368D01*
X130185615Y-68758202D01*
X130301867Y-68478236D01*
X130302132Y-68175094D01*
X130186368Y-67894926D01*
X130109630Y-67818053D01*
X130185615Y-67742202D01*
X130301867Y-67462236D01*
X130302132Y-67159094D01*
X130186368Y-66878926D01*
X129972202Y-66664385D01*
X129692236Y-66548133D01*
X129389094Y-66547868D01*
X129108926Y-66663632D01*
X128970315Y-66802000D01*
X124968000Y-66802000D01*
X124773596Y-66840669D01*
X124608790Y-66950790D01*
X123592780Y-67966800D01*
X123482659Y-68131607D01*
X123443990Y-68326010D01*
X123443990Y-70909589D01*
X122979579Y-71374000D01*
X121564532Y-71374000D01*
X121564532Y-61647294D01*
X121448768Y-61367126D01*
X121234602Y-61152585D01*
X120954636Y-61036333D01*
X120651494Y-61036068D01*
X120371326Y-61151832D01*
X120194549Y-61328300D01*
X117911581Y-61328300D01*
X117164965Y-60581684D01*
X117165183Y-60333402D01*
X117049419Y-60053234D01*
X116835253Y-59838693D01*
X116555287Y-59722441D01*
X116252145Y-59722176D01*
X115971977Y-59837940D01*
X115757436Y-60052106D01*
X115641184Y-60332072D01*
X115640919Y-60635214D01*
X115756683Y-60915382D01*
X115970849Y-61129923D01*
X116250815Y-61246175D01*
X116500598Y-61246393D01*
X117384674Y-62130470D01*
X117537120Y-62232331D01*
X117716943Y-62268100D01*
X120194790Y-62268100D01*
X120370198Y-62443815D01*
X120650164Y-62560067D01*
X120953306Y-62560332D01*
X121233474Y-62444568D01*
X121448015Y-62230402D01*
X121564267Y-61950436D01*
X121564532Y-61647294D01*
X121564532Y-71374000D01*
X120650000Y-71374000D01*
X120487849Y-71406253D01*
X120455596Y-71412669D01*
X120290790Y-71522790D01*
X119822926Y-71990653D01*
X119404383Y-71907400D01*
X119355617Y-71907400D01*
X118879329Y-72002140D01*
X118475552Y-72271935D01*
X118205757Y-72675712D01*
X118111017Y-73152000D01*
X118205757Y-73628288D01*
X118475552Y-74032065D01*
X118879329Y-74301860D01*
X118881661Y-74302323D01*
X118491510Y-74485179D01*
X118110000Y-74903152D01*
X117728490Y-74485179D01*
X117338338Y-74302323D01*
X117340671Y-74301860D01*
X117744448Y-74032065D01*
X118014243Y-73628288D01*
X118108983Y-73152000D01*
X118014243Y-72675712D01*
X117744448Y-72271935D01*
X117340671Y-72002140D01*
X116864383Y-71907400D01*
X116815617Y-71907400D01*
X116339329Y-72002140D01*
X115935552Y-72271935D01*
X115665757Y-72675712D01*
X115571017Y-73152000D01*
X115665757Y-73628288D01*
X115935552Y-74032065D01*
X116339329Y-74301860D01*
X116341661Y-74302323D01*
X115951510Y-74485179D01*
X115568983Y-74904266D01*
X115568983Y-73152000D01*
X115474243Y-72675712D01*
X115204448Y-72271935D01*
X114800671Y-72002140D01*
X114324383Y-71907400D01*
X114275617Y-71907400D01*
X113799329Y-72002140D01*
X113395552Y-72271935D01*
X113125757Y-72675712D01*
X113031017Y-73152000D01*
X113125757Y-73628288D01*
X113395552Y-74032065D01*
X113799329Y-74301860D01*
X114275617Y-74396600D01*
X114324383Y-74396600D01*
X114800671Y-74301860D01*
X115204448Y-74032065D01*
X115474243Y-73628288D01*
X115568983Y-73152000D01*
X115568983Y-74904266D01*
X115557312Y-74917053D01*
X115449159Y-75178171D01*
X115204448Y-74811935D01*
X114800671Y-74542140D01*
X114324383Y-74447400D01*
X114275617Y-74447400D01*
X113799329Y-74542140D01*
X113395552Y-74811935D01*
X113125757Y-75215712D01*
X113031017Y-75692000D01*
X113125757Y-76168288D01*
X113395552Y-76572065D01*
X113799329Y-76841860D01*
X114275617Y-76936600D01*
X114324383Y-76936600D01*
X114800671Y-76841860D01*
X115204448Y-76572065D01*
X115449159Y-76205828D01*
X115557312Y-76466947D01*
X115951510Y-76898821D01*
X116303626Y-77063850D01*
X91186132Y-77063850D01*
X91186132Y-61825094D01*
X91070368Y-61544926D01*
X90856202Y-61330385D01*
X90639900Y-61240568D01*
X90639900Y-59916609D01*
X90815615Y-59741202D01*
X90931867Y-59461236D01*
X90932132Y-59158094D01*
X90816368Y-58877926D01*
X90602202Y-58663385D01*
X90322236Y-58547133D01*
X90019094Y-58546868D01*
X89738926Y-58662632D01*
X89524385Y-58876798D01*
X89408133Y-59156764D01*
X89407868Y-59459906D01*
X89523632Y-59740074D01*
X89700100Y-59916850D01*
X89700100Y-61722000D01*
X89701489Y-61728982D01*
X89701489Y-61728983D01*
X89662133Y-61823764D01*
X89661868Y-62126906D01*
X89777632Y-62407074D01*
X89991798Y-62621615D01*
X90271764Y-62737867D01*
X90574906Y-62738132D01*
X90855074Y-62622368D01*
X91069615Y-62408202D01*
X91185867Y-62128236D01*
X91186132Y-61825094D01*
X91186132Y-77063850D01*
X90471684Y-77063850D01*
X90471684Y-73658600D01*
X82169132Y-73658600D01*
X82169132Y-64212694D01*
X82053368Y-63932526D01*
X81839202Y-63717985D01*
X81559236Y-63601733D01*
X81256094Y-63601468D01*
X80975926Y-63717232D01*
X80799149Y-63893700D01*
X79527400Y-63893700D01*
X79410690Y-63916915D01*
X79410690Y-61698094D01*
X79294926Y-61417926D01*
X79118458Y-61241149D01*
X79118458Y-57261758D01*
X79082689Y-57081935D01*
X78993909Y-56949067D01*
X78994132Y-56694294D01*
X78878368Y-56414126D01*
X78664202Y-56199585D01*
X78384236Y-56083333D01*
X78081094Y-56083068D01*
X77800926Y-56198832D01*
X77586385Y-56412998D01*
X77470133Y-56692964D01*
X77469868Y-56996106D01*
X77585632Y-57276274D01*
X77799798Y-57490815D01*
X78079764Y-57607067D01*
X78178658Y-57607153D01*
X78178658Y-61241390D01*
X78002943Y-61416798D01*
X77886691Y-61696764D01*
X77886426Y-61999906D01*
X78002190Y-62280074D01*
X78216356Y-62494615D01*
X78496322Y-62610867D01*
X78799464Y-62611132D01*
X79079632Y-62495368D01*
X79294173Y-62281202D01*
X79410425Y-62001236D01*
X79410690Y-61698094D01*
X79410690Y-63916915D01*
X79347577Y-63929469D01*
X79195131Y-64031330D01*
X75903220Y-67323241D01*
X75903220Y-56985070D01*
X75903220Y-56298930D01*
X75888260Y-56224723D01*
X75626630Y-55743974D01*
X75200941Y-55399941D01*
X75106276Y-55372000D01*
X75200941Y-55344059D01*
X75626630Y-55000026D01*
X75888260Y-54519277D01*
X75903220Y-54445070D01*
X75903220Y-53758930D01*
X75888260Y-53684723D01*
X75626630Y-53203974D01*
X75200941Y-52859941D01*
X74676000Y-52705000D01*
X73787000Y-52705000D01*
X73787000Y-53975000D01*
X75780720Y-53975000D01*
X75903220Y-53758930D01*
X75903220Y-54445070D01*
X75780720Y-54229000D01*
X73787000Y-54229000D01*
X73787000Y-55245000D01*
X73787000Y-55499000D01*
X73787000Y-56515000D01*
X75780720Y-56515000D01*
X75903220Y-56298930D01*
X75903220Y-56985070D01*
X75780720Y-56769000D01*
X73787000Y-56769000D01*
X73787000Y-56789000D01*
X73533000Y-56789000D01*
X73533000Y-56769000D01*
X73533000Y-56515000D01*
X73533000Y-55499000D01*
X73533000Y-55245000D01*
X73533000Y-54229000D01*
X73533000Y-53975000D01*
X73533000Y-52705000D01*
X72644000Y-52705000D01*
X72119059Y-52859941D01*
X71693370Y-53203974D01*
X71431740Y-53684723D01*
X71416780Y-53758930D01*
X71539280Y-53975000D01*
X73533000Y-53975000D01*
X73533000Y-54229000D01*
X71539280Y-54229000D01*
X71416780Y-54445070D01*
X71431740Y-54519277D01*
X71693370Y-55000026D01*
X72119059Y-55344059D01*
X72213723Y-55372000D01*
X72119059Y-55399941D01*
X71693370Y-55743974D01*
X71431740Y-56224723D01*
X71416780Y-56298930D01*
X71539280Y-56515000D01*
X73533000Y-56515000D01*
X73533000Y-56769000D01*
X71539280Y-56769000D01*
X71416780Y-56985070D01*
X71431740Y-57059277D01*
X71693370Y-57540026D01*
X72119059Y-57884059D01*
X72644000Y-58039000D01*
X72731191Y-58039000D01*
X72293784Y-58126006D01*
X71922968Y-58373777D01*
X71675197Y-58744593D01*
X71588191Y-59182000D01*
X71675197Y-59619407D01*
X71922968Y-59990223D01*
X72293784Y-60237994D01*
X72731191Y-60325000D01*
X74588809Y-60325000D01*
X75026216Y-60237994D01*
X75397032Y-59990223D01*
X75644803Y-59619407D01*
X75731809Y-59182000D01*
X75644803Y-58744593D01*
X75397032Y-58373777D01*
X75026216Y-58126006D01*
X74588809Y-58039000D01*
X74676000Y-58039000D01*
X75200941Y-57884059D01*
X75626630Y-57540026D01*
X75888260Y-57059277D01*
X75903220Y-56985070D01*
X75903220Y-67323241D01*
X75731809Y-67494652D01*
X75731809Y-66802000D01*
X75731809Y-64262000D01*
X75731809Y-61722000D01*
X75644803Y-61284593D01*
X75397032Y-60913777D01*
X75026216Y-60666006D01*
X74588809Y-60579000D01*
X72731191Y-60579000D01*
X72293784Y-60666006D01*
X71922968Y-60913777D01*
X71675197Y-61284593D01*
X71588191Y-61722000D01*
X71675197Y-62159407D01*
X71922968Y-62530223D01*
X72293784Y-62777994D01*
X72731191Y-62865000D01*
X74588809Y-62865000D01*
X75026216Y-62777994D01*
X75397032Y-62530223D01*
X75644803Y-62159407D01*
X75731809Y-61722000D01*
X75731809Y-64262000D01*
X75644803Y-63824593D01*
X75397032Y-63453777D01*
X75026216Y-63206006D01*
X74588809Y-63119000D01*
X72731191Y-63119000D01*
X72293784Y-63206006D01*
X71922968Y-63453777D01*
X71675197Y-63824593D01*
X71588191Y-64262000D01*
X71675197Y-64699407D01*
X71922968Y-65070223D01*
X72293784Y-65317994D01*
X72731191Y-65405000D01*
X74588809Y-65405000D01*
X75026216Y-65317994D01*
X75397032Y-65070223D01*
X75644803Y-64699407D01*
X75731809Y-64262000D01*
X75731809Y-66802000D01*
X75644803Y-66364593D01*
X75397032Y-65993777D01*
X75026216Y-65746006D01*
X74588809Y-65659000D01*
X72731191Y-65659000D01*
X72293784Y-65746006D01*
X71922968Y-65993777D01*
X71675197Y-66364593D01*
X71588191Y-66802000D01*
X71675197Y-67239407D01*
X71922968Y-67610223D01*
X72293784Y-67857994D01*
X72731191Y-67945000D01*
X74588809Y-67945000D01*
X75026216Y-67857994D01*
X75397032Y-67610223D01*
X75644803Y-67239407D01*
X75731809Y-66802000D01*
X75731809Y-67494652D01*
X74954684Y-68271777D01*
X74588809Y-68199000D01*
X72731191Y-68199000D01*
X72293784Y-68286006D01*
X71922968Y-68533777D01*
X71675197Y-68904593D01*
X71588191Y-69342000D01*
X71675197Y-69779407D01*
X71922968Y-70150223D01*
X72293784Y-70397994D01*
X72731191Y-70485000D01*
X74588809Y-70485000D01*
X75026216Y-70397994D01*
X75397032Y-70150223D01*
X75644803Y-69779407D01*
X75731809Y-69342000D01*
X75645822Y-68909716D01*
X79722038Y-64833500D01*
X80799390Y-64833500D01*
X80974798Y-65009215D01*
X81254764Y-65125467D01*
X81557906Y-65125732D01*
X81838074Y-65009968D01*
X82052615Y-64795802D01*
X82168867Y-64515836D01*
X82169132Y-64212694D01*
X82169132Y-73658600D01*
X82092932Y-73658600D01*
X82092932Y-66752694D01*
X81977168Y-66472526D01*
X81763002Y-66257985D01*
X81483036Y-66141733D01*
X81179894Y-66141468D01*
X80899726Y-66257232D01*
X80722949Y-66433700D01*
X79527400Y-66433700D01*
X79347577Y-66469469D01*
X79195131Y-66571330D01*
X74954684Y-70811777D01*
X74588809Y-70739000D01*
X72731191Y-70739000D01*
X72293784Y-70826006D01*
X71922968Y-71073777D01*
X71675197Y-71444593D01*
X71588191Y-71882000D01*
X71675197Y-72319407D01*
X71922968Y-72690223D01*
X72293784Y-72937994D01*
X72731191Y-73025000D01*
X74588809Y-73025000D01*
X75026216Y-72937994D01*
X75397032Y-72690223D01*
X75644803Y-72319407D01*
X75731809Y-71882000D01*
X75645822Y-71449716D01*
X79722038Y-67373500D01*
X80723190Y-67373500D01*
X80898598Y-67549215D01*
X81178564Y-67665467D01*
X81481706Y-67665732D01*
X81761874Y-67549968D01*
X81976415Y-67335802D01*
X82092667Y-67055836D01*
X82092932Y-66752694D01*
X82092932Y-73658600D01*
X77981116Y-73658600D01*
X77981116Y-77063850D01*
X68714464Y-77063850D01*
X68714464Y-75438000D01*
X68714464Y-73406000D01*
X68714464Y-51308000D01*
X68714464Y-49276000D01*
X68686278Y-49130726D01*
X68602404Y-49003044D01*
X68475784Y-48917574D01*
X68326000Y-48887536D01*
X66294000Y-48887536D01*
X66148726Y-48915722D01*
X66021044Y-48999596D01*
X65935574Y-49126216D01*
X65928770Y-49160140D01*
X65738379Y-48954812D01*
X65152946Y-48686017D01*
X64897000Y-48804633D01*
X64897000Y-50165000D01*
X64917000Y-50165000D01*
X64917000Y-50419000D01*
X64897000Y-50419000D01*
X64897000Y-51779367D01*
X65152946Y-51897983D01*
X65738379Y-51629188D01*
X65928145Y-51424533D01*
X65933722Y-51453274D01*
X66017596Y-51580956D01*
X66144216Y-51666426D01*
X66294000Y-51696464D01*
X68326000Y-51696464D01*
X68471274Y-51668278D01*
X68598956Y-51584404D01*
X68684426Y-51457784D01*
X68714464Y-51308000D01*
X68714464Y-73406000D01*
X68686278Y-73260726D01*
X68602404Y-73133044D01*
X68475784Y-73047574D01*
X68326000Y-73017536D01*
X66294000Y-73017536D01*
X66148726Y-73045722D01*
X66021044Y-73129596D01*
X65935574Y-73256216D01*
X65928770Y-73290140D01*
X65738379Y-73084812D01*
X65152946Y-72816017D01*
X64897000Y-72934633D01*
X64897000Y-74295000D01*
X64917000Y-74295000D01*
X64917000Y-74549000D01*
X64897000Y-74549000D01*
X64897000Y-75909367D01*
X65152946Y-76027983D01*
X65738379Y-75759188D01*
X65928145Y-75554533D01*
X65933722Y-75583274D01*
X66017596Y-75710956D01*
X66144216Y-75796426D01*
X66294000Y-75826464D01*
X68326000Y-75826464D01*
X68471274Y-75798278D01*
X68598956Y-75714404D01*
X68684426Y-75587784D01*
X68714464Y-75438000D01*
X68714464Y-77063850D01*
X64643000Y-77063850D01*
X64643000Y-75909367D01*
X64643000Y-74549000D01*
X64643000Y-74295000D01*
X64643000Y-72934633D01*
X64643000Y-51779367D01*
X64643000Y-50419000D01*
X64643000Y-50165000D01*
X64643000Y-48804633D01*
X64387054Y-48686017D01*
X63801621Y-48954812D01*
X63363615Y-49427182D01*
X63164025Y-49909056D01*
X63283164Y-50165000D01*
X64643000Y-50165000D01*
X64643000Y-50419000D01*
X63283164Y-50419000D01*
X63164025Y-50674944D01*
X63363615Y-51156818D01*
X63801621Y-51629188D01*
X64387054Y-51897983D01*
X64643000Y-51779367D01*
X64643000Y-72934633D01*
X64387054Y-72816017D01*
X63801621Y-73084812D01*
X63363615Y-73557182D01*
X63164025Y-74039056D01*
X63283164Y-74295000D01*
X64643000Y-74295000D01*
X64643000Y-74549000D01*
X63283164Y-74549000D01*
X63164025Y-74804944D01*
X63363615Y-75286818D01*
X63801621Y-75759188D01*
X64387054Y-76027983D01*
X64643000Y-75909367D01*
X64643000Y-77063850D01*
X48541872Y-77063850D01*
X46947603Y-76746729D01*
X45632626Y-75868090D01*
X44753990Y-74553116D01*
X44436870Y-72958846D01*
X44436870Y-52045153D01*
X44753990Y-50450883D01*
X45632626Y-49135909D01*
X46947603Y-48257270D01*
X48541872Y-47940150D01*
X161498720Y-47940150D01*
X161998720Y-47940150D01*
X162455566Y-47940150D01*
X164049836Y-48257270D01*
X165364810Y-49135906D01*
X166243449Y-50450883D01*
X166560570Y-52045152D01*
X166560570Y-72958847D01*
X166560570Y-72958847D01*
G37*
X166560570Y-72958847D02*
X166243449Y-74553116D01*
X165364810Y-75868093D01*
X164049836Y-76746729D01*
X162455566Y-77063850D01*
X161998720Y-77063850D01*
X161498720Y-77063850D01*
X160413440Y-77063850D01*
X160413440Y-61468000D01*
X160413440Y-59436000D01*
X160366463Y-59193877D01*
X160226673Y-58981073D01*
X160083106Y-58884163D01*
X160087188Y-58880379D01*
X160355983Y-58294946D01*
X160355983Y-57529054D01*
X160087188Y-56943621D01*
X159614818Y-56505615D01*
X159132944Y-56306025D01*
X158877000Y-56425164D01*
X158877000Y-57785000D01*
X160237367Y-57785000D01*
X160355983Y-57529054D01*
X160355983Y-58294946D01*
X160237367Y-58039000D01*
X158877000Y-58039000D01*
X158877000Y-58059000D01*
X158623000Y-58059000D01*
X158623000Y-58039000D01*
X158623000Y-57785000D01*
X158623000Y-56425164D01*
X158367056Y-56306025D01*
X157885182Y-56505615D01*
X157412812Y-56943621D01*
X157144017Y-57529054D01*
X157262633Y-57785000D01*
X158623000Y-57785000D01*
X158623000Y-58039000D01*
X157262633Y-58039000D01*
X157144017Y-58294946D01*
X157412812Y-58880379D01*
X157417291Y-58884532D01*
X157279073Y-58975327D01*
X157136623Y-59186360D01*
X157086560Y-59436000D01*
X157086560Y-61468000D01*
X157133537Y-61710123D01*
X157273327Y-61922927D01*
X157484360Y-62065377D01*
X157734000Y-62115440D01*
X159766000Y-62115440D01*
X160008123Y-62068463D01*
X160220927Y-61928673D01*
X160363377Y-61717640D01*
X160413440Y-61468000D01*
X160413440Y-77063850D01*
X144762064Y-77063850D01*
X144762064Y-75285600D01*
X144762064Y-73558400D01*
X144733878Y-73413126D01*
X144650004Y-73285444D01*
X144523384Y-73199974D01*
X144373600Y-73169936D01*
X142646400Y-73169936D01*
X142501126Y-73198122D01*
X142373444Y-73281996D01*
X142287974Y-73408616D01*
X142257936Y-73558400D01*
X142257936Y-75285600D01*
X142286122Y-75430874D01*
X142369996Y-75558556D01*
X142496616Y-75644026D01*
X142646400Y-75674064D01*
X144373600Y-75674064D01*
X144518874Y-75645878D01*
X144646556Y-75562004D01*
X144732026Y-75435384D01*
X144762064Y-75285600D01*
X144762064Y-77063850D01*
X142238983Y-77063850D01*
X142238983Y-74422000D01*
X142144243Y-73945712D01*
X142113132Y-73899151D01*
X142113132Y-62714094D01*
X141997368Y-62433926D01*
X141783202Y-62219385D01*
X141503236Y-62103133D01*
X141200094Y-62102868D01*
X140919926Y-62218632D01*
X140781315Y-62357000D01*
X134935576Y-62357000D01*
X134798202Y-62219385D01*
X134620132Y-62145443D01*
X134620132Y-60047094D01*
X134504368Y-59766926D01*
X134290202Y-59552385D01*
X134277477Y-59547101D01*
X134365867Y-59334236D01*
X134366132Y-59031094D01*
X134250368Y-58750926D01*
X134036202Y-58536385D01*
X133756236Y-58420133D01*
X133453094Y-58419868D01*
X133172926Y-58535632D01*
X133034315Y-58674000D01*
X122772690Y-58674000D01*
X122578287Y-58712669D01*
X122413480Y-58822790D01*
X122054232Y-59182037D01*
X121859784Y-59181868D01*
X121579616Y-59297632D01*
X121365075Y-59511798D01*
X121353240Y-59540298D01*
X121189206Y-59472185D01*
X120886064Y-59471920D01*
X120605896Y-59587684D01*
X120391355Y-59801850D01*
X120275103Y-60081816D01*
X120274838Y-60384958D01*
X120390602Y-60665126D01*
X120604768Y-60879667D01*
X120884734Y-60995919D01*
X121080588Y-60996090D01*
X121149709Y-61065211D01*
X121314516Y-61175332D01*
X121508919Y-61214001D01*
X122427999Y-61214001D01*
X122622402Y-61175332D01*
X122787209Y-61065211D01*
X123295210Y-60557210D01*
X123654410Y-60198010D01*
X132631590Y-60198010D01*
X132990790Y-60557210D01*
X133155596Y-60667331D01*
X133155597Y-60667331D01*
X133187849Y-60673746D01*
X133273166Y-60690716D01*
X133273167Y-60690717D01*
X133425798Y-60843615D01*
X133705764Y-60959867D01*
X134008906Y-60960132D01*
X134289074Y-60844368D01*
X134503615Y-60630202D01*
X134619867Y-60350236D01*
X134620132Y-60047094D01*
X134620132Y-62145443D01*
X134518236Y-62103133D01*
X134215094Y-62102868D01*
X133934926Y-62218632D01*
X133720385Y-62432798D01*
X133604133Y-62712764D01*
X133603868Y-63015906D01*
X133719632Y-63296074D01*
X133933798Y-63510615D01*
X134213764Y-63626867D01*
X134516906Y-63627132D01*
X134797074Y-63511368D01*
X134935684Y-63373000D01*
X140781423Y-63373000D01*
X140918798Y-63510615D01*
X141198764Y-63626867D01*
X141501906Y-63627132D01*
X141782074Y-63511368D01*
X141996615Y-63297202D01*
X142112867Y-63017236D01*
X142113132Y-62714094D01*
X142113132Y-73899151D01*
X141874448Y-73541935D01*
X141859132Y-73531701D01*
X141859132Y-64365104D01*
X141743368Y-64084936D01*
X141529202Y-63870395D01*
X141249236Y-63754143D01*
X140946094Y-63753878D01*
X140665926Y-63869642D01*
X140451385Y-64083808D01*
X140335133Y-64363774D01*
X140334914Y-64613556D01*
X139886371Y-65062100D01*
X139472569Y-65062100D01*
X139399554Y-64885388D01*
X139078303Y-64563577D01*
X138658354Y-64389199D01*
X138203641Y-64388802D01*
X137783388Y-64562446D01*
X137461577Y-64883697D01*
X137287199Y-65303646D01*
X137286802Y-65758359D01*
X137460446Y-66178612D01*
X137781697Y-66500423D01*
X138201646Y-66674801D01*
X138656359Y-66675198D01*
X139076612Y-66501554D01*
X139398423Y-66180303D01*
X139472502Y-66001900D01*
X140081010Y-66001900D01*
X140081010Y-66001899D01*
X140260833Y-65966131D01*
X140413279Y-65864269D01*
X140999623Y-65277924D01*
X141247906Y-65278142D01*
X141528074Y-65162378D01*
X141742615Y-64948212D01*
X141858867Y-64668246D01*
X141859132Y-64365104D01*
X141859132Y-73531701D01*
X141470671Y-73272140D01*
X140994383Y-73177400D01*
X140945617Y-73177400D01*
X140469329Y-73272140D01*
X140065552Y-73541935D01*
X139795757Y-73945712D01*
X139701017Y-74422000D01*
X139795757Y-74898288D01*
X140065552Y-75302065D01*
X140469329Y-75571860D01*
X140945617Y-75666600D01*
X140994383Y-75666600D01*
X141470671Y-75571860D01*
X141874448Y-75302065D01*
X142144243Y-74898288D01*
X142238983Y-74422000D01*
X142238983Y-77063850D01*
X139698983Y-77063850D01*
X139698983Y-74422000D01*
X139604243Y-73945712D01*
X139334448Y-73541935D01*
X138930671Y-73272140D01*
X138454383Y-73177400D01*
X138405617Y-73177400D01*
X137929329Y-73272140D01*
X137525552Y-73541935D01*
X137255757Y-73945712D01*
X137161017Y-74422000D01*
X137255757Y-74898288D01*
X137525552Y-75302065D01*
X137929329Y-75571860D01*
X138405617Y-75666600D01*
X138454383Y-75666600D01*
X138930671Y-75571860D01*
X139334448Y-75302065D01*
X139604243Y-74898288D01*
X139698983Y-74422000D01*
X139698983Y-77063850D01*
X137158983Y-77063850D01*
X137158983Y-74422000D01*
X137064243Y-73945712D01*
X137033198Y-73899249D01*
X137033198Y-67845641D01*
X136859554Y-67425388D01*
X136538303Y-67103577D01*
X136118354Y-66929199D01*
X135663641Y-66928802D01*
X135243388Y-67102446D01*
X134921577Y-67423697D01*
X134847497Y-67602100D01*
X133350000Y-67602100D01*
X132994400Y-67602100D01*
X132814577Y-67637869D01*
X132662130Y-67739731D01*
X131796376Y-68605485D01*
X131548094Y-68605268D01*
X131267926Y-68721032D01*
X131053385Y-68935198D01*
X130937133Y-69215164D01*
X130936868Y-69518306D01*
X131052632Y-69798474D01*
X131266798Y-70013015D01*
X131546764Y-70129267D01*
X131849906Y-70129532D01*
X132130074Y-70013768D01*
X132344615Y-69799602D01*
X132460867Y-69519636D01*
X132461085Y-69269852D01*
X133189038Y-68541900D01*
X133350000Y-68541900D01*
X134847430Y-68541900D01*
X134920446Y-68718612D01*
X135241697Y-69040423D01*
X135661646Y-69214801D01*
X136116359Y-69215198D01*
X136536612Y-69041554D01*
X136858423Y-68720303D01*
X137032801Y-68300354D01*
X137033198Y-67845641D01*
X137033198Y-73899249D01*
X136794448Y-73541935D01*
X136390671Y-73272140D01*
X135914383Y-73177400D01*
X135865617Y-73177400D01*
X135389329Y-73272140D01*
X134985552Y-73541935D01*
X134740840Y-73908171D01*
X134632688Y-73647053D01*
X134238490Y-73215179D01*
X133709027Y-72967032D01*
X133477000Y-73087531D01*
X133477000Y-74295000D01*
X133497000Y-74295000D01*
X133497000Y-74549000D01*
X133477000Y-74549000D01*
X133477000Y-75756469D01*
X133709027Y-75876968D01*
X134238490Y-75628821D01*
X134632688Y-75196947D01*
X134740840Y-74935828D01*
X134985552Y-75302065D01*
X135389329Y-75571860D01*
X135865617Y-75666600D01*
X135914383Y-75666600D01*
X136390671Y-75571860D01*
X136794448Y-75302065D01*
X137064243Y-74898288D01*
X137158983Y-74422000D01*
X137158983Y-77063850D01*
X133223000Y-77063850D01*
X133223000Y-75756469D01*
X133223000Y-74549000D01*
X133223000Y-74295000D01*
X133223000Y-73087531D01*
X132990973Y-72967032D01*
X132461510Y-73215179D01*
X132067312Y-73647053D01*
X131895042Y-74062974D01*
X132016183Y-74295000D01*
X133223000Y-74295000D01*
X133223000Y-74549000D01*
X132016183Y-74549000D01*
X131895042Y-74781026D01*
X132067312Y-75196947D01*
X132461510Y-75628821D01*
X132990973Y-75876968D01*
X133223000Y-75756469D01*
X133223000Y-77063850D01*
X130810132Y-77063850D01*
X130810132Y-72239094D01*
X130694368Y-71958926D01*
X130480202Y-71744385D01*
X130200236Y-71628133D01*
X129897094Y-71627868D01*
X129616926Y-71743632D01*
X129402385Y-71957798D01*
X129286133Y-72237764D01*
X129285961Y-72433618D01*
X126535579Y-75184000D01*
X125613053Y-75184000D01*
X125364448Y-74811935D01*
X124960671Y-74542140D01*
X124484383Y-74447400D01*
X124435617Y-74447400D01*
X123959329Y-74542140D01*
X123555552Y-74811935D01*
X123285757Y-75215712D01*
X123191017Y-75692000D01*
X123285757Y-76168288D01*
X123555552Y-76572065D01*
X123959329Y-76841860D01*
X124435617Y-76936600D01*
X124484383Y-76936600D01*
X124960671Y-76841860D01*
X125364448Y-76572065D01*
X125613053Y-76200000D01*
X126746000Y-76200000D01*
X126940403Y-76161331D01*
X127105210Y-76051210D01*
X130004457Y-73151962D01*
X130198906Y-73152132D01*
X130479074Y-73036368D01*
X130693615Y-72822202D01*
X130809867Y-72542236D01*
X130810132Y-72239094D01*
X130810132Y-77063850D01*
X119916373Y-77063850D01*
X120268490Y-76898821D01*
X120662688Y-76466947D01*
X120770840Y-76205828D01*
X121015552Y-76572065D01*
X121419329Y-76841860D01*
X121895617Y-76936600D01*
X121944383Y-76936600D01*
X122420671Y-76841860D01*
X122824448Y-76572065D01*
X123094243Y-76168288D01*
X123188983Y-75692000D01*
X123094243Y-75215712D01*
X122824448Y-74811935D01*
X122420671Y-74542140D01*
X121944383Y-74447400D01*
X121895617Y-74447400D01*
X121419329Y-74542140D01*
X121015552Y-74811935D01*
X120770840Y-75178171D01*
X120662688Y-74917053D01*
X120268490Y-74485179D01*
X119878338Y-74302323D01*
X119880671Y-74301860D01*
X120284448Y-74032065D01*
X120554243Y-73628288D01*
X120648983Y-73152000D01*
X120557638Y-72692781D01*
X120860420Y-72390000D01*
X120936663Y-72390000D01*
X120745757Y-72675712D01*
X120651017Y-73152000D01*
X120745757Y-73628288D01*
X121015552Y-74032065D01*
X121419329Y-74301860D01*
X121895617Y-74396600D01*
X121944383Y-74396600D01*
X122420671Y-74301860D01*
X122824448Y-74032065D01*
X123094243Y-73628288D01*
X123188983Y-73152000D01*
X123094243Y-72675712D01*
X122903336Y-72390000D01*
X123190000Y-72390000D01*
X123207936Y-72386432D01*
X123207936Y-74015600D01*
X123236122Y-74160874D01*
X123319996Y-74288556D01*
X123446616Y-74374026D01*
X123596400Y-74404064D01*
X125323600Y-74404064D01*
X125468874Y-74375878D01*
X125596556Y-74292004D01*
X125682026Y-74165384D01*
X125712064Y-74015600D01*
X125712064Y-72288400D01*
X125683878Y-72143126D01*
X125600004Y-72015444D01*
X125473384Y-71929974D01*
X125323600Y-71899936D01*
X124968000Y-71899936D01*
X124968000Y-68790420D01*
X125401605Y-68356815D01*
X128313579Y-68356815D01*
X128641974Y-68685210D01*
X128641975Y-68685210D01*
X128752095Y-68758790D01*
X128806781Y-68795330D01*
X128806782Y-68795331D01*
X128962802Y-68826365D01*
X129107798Y-68971615D01*
X129387764Y-69087867D01*
X129690906Y-69088132D01*
X129971074Y-68972368D01*
X130185615Y-68758202D01*
X130301867Y-68478236D01*
X130302132Y-68175094D01*
X130186368Y-67894926D01*
X130109630Y-67818053D01*
X130185615Y-67742202D01*
X130301867Y-67462236D01*
X130302132Y-67159094D01*
X130186368Y-66878926D01*
X129972202Y-66664385D01*
X129692236Y-66548133D01*
X129389094Y-66547868D01*
X129108926Y-66663632D01*
X128970315Y-66802000D01*
X124968000Y-66802000D01*
X124773596Y-66840669D01*
X124608790Y-66950790D01*
X123592780Y-67966800D01*
X123482659Y-68131607D01*
X123443990Y-68326010D01*
X123443990Y-70909589D01*
X122979579Y-71374000D01*
X121564532Y-71374000D01*
X121564532Y-61647294D01*
X121448768Y-61367126D01*
X121234602Y-61152585D01*
X120954636Y-61036333D01*
X120651494Y-61036068D01*
X120371326Y-61151832D01*
X120194549Y-61328300D01*
X117911581Y-61328300D01*
X117164965Y-60581684D01*
X117165183Y-60333402D01*
X117049419Y-60053234D01*
X116835253Y-59838693D01*
X116555287Y-59722441D01*
X116252145Y-59722176D01*
X115971977Y-59837940D01*
X115757436Y-60052106D01*
X115641184Y-60332072D01*
X115640919Y-60635214D01*
X115756683Y-60915382D01*
X115970849Y-61129923D01*
X116250815Y-61246175D01*
X116500598Y-61246393D01*
X117384674Y-62130470D01*
X117537120Y-62232331D01*
X117716943Y-62268100D01*
X120194790Y-62268100D01*
X120370198Y-62443815D01*
X120650164Y-62560067D01*
X120953306Y-62560332D01*
X121233474Y-62444568D01*
X121448015Y-62230402D01*
X121564267Y-61950436D01*
X121564532Y-61647294D01*
X121564532Y-71374000D01*
X120650000Y-71374000D01*
X120487849Y-71406253D01*
X120455596Y-71412669D01*
X120290790Y-71522790D01*
X119822926Y-71990653D01*
X119404383Y-71907400D01*
X119355617Y-71907400D01*
X118879329Y-72002140D01*
X118475552Y-72271935D01*
X118205757Y-72675712D01*
X118111017Y-73152000D01*
X118205757Y-73628288D01*
X118475552Y-74032065D01*
X118879329Y-74301860D01*
X118881661Y-74302323D01*
X118491510Y-74485179D01*
X118110000Y-74903152D01*
X117728490Y-74485179D01*
X117338338Y-74302323D01*
X117340671Y-74301860D01*
X117744448Y-74032065D01*
X118014243Y-73628288D01*
X118108983Y-73152000D01*
X118014243Y-72675712D01*
X117744448Y-72271935D01*
X117340671Y-72002140D01*
X116864383Y-71907400D01*
X116815617Y-71907400D01*
X116339329Y-72002140D01*
X115935552Y-72271935D01*
X115665757Y-72675712D01*
X115571017Y-73152000D01*
X115665757Y-73628288D01*
X115935552Y-74032065D01*
X116339329Y-74301860D01*
X116341661Y-74302323D01*
X115951510Y-74485179D01*
X115568983Y-74904266D01*
X115568983Y-73152000D01*
X115474243Y-72675712D01*
X115204448Y-72271935D01*
X114800671Y-72002140D01*
X114324383Y-71907400D01*
X114275617Y-71907400D01*
X113799329Y-72002140D01*
X113395552Y-72271935D01*
X113125757Y-72675712D01*
X113031017Y-73152000D01*
X113125757Y-73628288D01*
X113395552Y-74032065D01*
X113799329Y-74301860D01*
X114275617Y-74396600D01*
X114324383Y-74396600D01*
X114800671Y-74301860D01*
X115204448Y-74032065D01*
X115474243Y-73628288D01*
X115568983Y-73152000D01*
X115568983Y-74904266D01*
X115557312Y-74917053D01*
X115449159Y-75178171D01*
X115204448Y-74811935D01*
X114800671Y-74542140D01*
X114324383Y-74447400D01*
X114275617Y-74447400D01*
X113799329Y-74542140D01*
X113395552Y-74811935D01*
X113125757Y-75215712D01*
X113031017Y-75692000D01*
X113125757Y-76168288D01*
X113395552Y-76572065D01*
X113799329Y-76841860D01*
X114275617Y-76936600D01*
X114324383Y-76936600D01*
X114800671Y-76841860D01*
X115204448Y-76572065D01*
X115449159Y-76205828D01*
X115557312Y-76466947D01*
X115951510Y-76898821D01*
X116303626Y-77063850D01*
X91186132Y-77063850D01*
X91186132Y-61825094D01*
X91070368Y-61544926D01*
X90856202Y-61330385D01*
X90639900Y-61240568D01*
X90639900Y-59916609D01*
X90815615Y-59741202D01*
X90931867Y-59461236D01*
X90932132Y-59158094D01*
X90816368Y-58877926D01*
X90602202Y-58663385D01*
X90322236Y-58547133D01*
X90019094Y-58546868D01*
X89738926Y-58662632D01*
X89524385Y-58876798D01*
X89408133Y-59156764D01*
X89407868Y-59459906D01*
X89523632Y-59740074D01*
X89700100Y-59916850D01*
X89700100Y-61722000D01*
X89701489Y-61728982D01*
X89701489Y-61728983D01*
X89662133Y-61823764D01*
X89661868Y-62126906D01*
X89777632Y-62407074D01*
X89991798Y-62621615D01*
X90271764Y-62737867D01*
X90574906Y-62738132D01*
X90855074Y-62622368D01*
X91069615Y-62408202D01*
X91185867Y-62128236D01*
X91186132Y-61825094D01*
X91186132Y-77063850D01*
X90471684Y-77063850D01*
X90471684Y-73658600D01*
X82169132Y-73658600D01*
X82169132Y-64212694D01*
X82053368Y-63932526D01*
X81839202Y-63717985D01*
X81559236Y-63601733D01*
X81256094Y-63601468D01*
X80975926Y-63717232D01*
X80799149Y-63893700D01*
X79527400Y-63893700D01*
X79410690Y-63916915D01*
X79410690Y-61698094D01*
X79294926Y-61417926D01*
X79118458Y-61241149D01*
X79118458Y-57261758D01*
X79082689Y-57081935D01*
X78993909Y-56949067D01*
X78994132Y-56694294D01*
X78878368Y-56414126D01*
X78664202Y-56199585D01*
X78384236Y-56083333D01*
X78081094Y-56083068D01*
X77800926Y-56198832D01*
X77586385Y-56412998D01*
X77470133Y-56692964D01*
X77469868Y-56996106D01*
X77585632Y-57276274D01*
X77799798Y-57490815D01*
X78079764Y-57607067D01*
X78178658Y-57607153D01*
X78178658Y-61241390D01*
X78002943Y-61416798D01*
X77886691Y-61696764D01*
X77886426Y-61999906D01*
X78002190Y-62280074D01*
X78216356Y-62494615D01*
X78496322Y-62610867D01*
X78799464Y-62611132D01*
X79079632Y-62495368D01*
X79294173Y-62281202D01*
X79410425Y-62001236D01*
X79410690Y-61698094D01*
X79410690Y-63916915D01*
X79347577Y-63929469D01*
X79195131Y-64031330D01*
X75903220Y-67323241D01*
X75903220Y-56985070D01*
X75903220Y-56298930D01*
X75888260Y-56224723D01*
X75626630Y-55743974D01*
X75200941Y-55399941D01*
X75106276Y-55372000D01*
X75200941Y-55344059D01*
X75626630Y-55000026D01*
X75888260Y-54519277D01*
X75903220Y-54445070D01*
X75903220Y-53758930D01*
X75888260Y-53684723D01*
X75626630Y-53203974D01*
X75200941Y-52859941D01*
X74676000Y-52705000D01*
X73787000Y-52705000D01*
X73787000Y-53975000D01*
X75780720Y-53975000D01*
X75903220Y-53758930D01*
X75903220Y-54445070D01*
X75780720Y-54229000D01*
X73787000Y-54229000D01*
X73787000Y-55245000D01*
X73787000Y-55499000D01*
X73787000Y-56515000D01*
X75780720Y-56515000D01*
X75903220Y-56298930D01*
X75903220Y-56985070D01*
X75780720Y-56769000D01*
X73787000Y-56769000D01*
X73787000Y-56789000D01*
X73533000Y-56789000D01*
X73533000Y-56769000D01*
X73533000Y-56515000D01*
X73533000Y-55499000D01*
X73533000Y-55245000D01*
X73533000Y-54229000D01*
X73533000Y-53975000D01*
X73533000Y-52705000D01*
X72644000Y-52705000D01*
X72119059Y-52859941D01*
X71693370Y-53203974D01*
X71431740Y-53684723D01*
X71416780Y-53758930D01*
X71539280Y-53975000D01*
X73533000Y-53975000D01*
X73533000Y-54229000D01*
X71539280Y-54229000D01*
X71416780Y-54445070D01*
X71431740Y-54519277D01*
X71693370Y-55000026D01*
X72119059Y-55344059D01*
X72213723Y-55372000D01*
X72119059Y-55399941D01*
X71693370Y-55743974D01*
X71431740Y-56224723D01*
X71416780Y-56298930D01*
X71539280Y-56515000D01*
X73533000Y-56515000D01*
X73533000Y-56769000D01*
X71539280Y-56769000D01*
X71416780Y-56985070D01*
X71431740Y-57059277D01*
X71693370Y-57540026D01*
X72119059Y-57884059D01*
X72644000Y-58039000D01*
X72731191Y-58039000D01*
X72293784Y-58126006D01*
X71922968Y-58373777D01*
X71675197Y-58744593D01*
X71588191Y-59182000D01*
X71675197Y-59619407D01*
X71922968Y-59990223D01*
X72293784Y-60237994D01*
X72731191Y-60325000D01*
X74588809Y-60325000D01*
X75026216Y-60237994D01*
X75397032Y-59990223D01*
X75644803Y-59619407D01*
X75731809Y-59182000D01*
X75644803Y-58744593D01*
X75397032Y-58373777D01*
X75026216Y-58126006D01*
X74588809Y-58039000D01*
X74676000Y-58039000D01*
X75200941Y-57884059D01*
X75626630Y-57540026D01*
X75888260Y-57059277D01*
X75903220Y-56985070D01*
X75903220Y-67323241D01*
X75731809Y-67494652D01*
X75731809Y-66802000D01*
X75731809Y-64262000D01*
X75731809Y-61722000D01*
X75644803Y-61284593D01*
X75397032Y-60913777D01*
X75026216Y-60666006D01*
X74588809Y-60579000D01*
X72731191Y-60579000D01*
X72293784Y-60666006D01*
X71922968Y-60913777D01*
X71675197Y-61284593D01*
X71588191Y-61722000D01*
X71675197Y-62159407D01*
X71922968Y-62530223D01*
X72293784Y-62777994D01*
X72731191Y-62865000D01*
X74588809Y-62865000D01*
X75026216Y-62777994D01*
X75397032Y-62530223D01*
X75644803Y-62159407D01*
X75731809Y-61722000D01*
X75731809Y-64262000D01*
X75644803Y-63824593D01*
X75397032Y-63453777D01*
X75026216Y-63206006D01*
X74588809Y-63119000D01*
X72731191Y-63119000D01*
X72293784Y-63206006D01*
X71922968Y-63453777D01*
X71675197Y-63824593D01*
X71588191Y-64262000D01*
X71675197Y-64699407D01*
X71922968Y-65070223D01*
X72293784Y-65317994D01*
X72731191Y-65405000D01*
X74588809Y-65405000D01*
X75026216Y-65317994D01*
X75397032Y-65070223D01*
X75644803Y-64699407D01*
X75731809Y-64262000D01*
X75731809Y-66802000D01*
X75644803Y-66364593D01*
X75397032Y-65993777D01*
X75026216Y-65746006D01*
X74588809Y-65659000D01*
X72731191Y-65659000D01*
X72293784Y-65746006D01*
X71922968Y-65993777D01*
X71675197Y-66364593D01*
X71588191Y-66802000D01*
X71675197Y-67239407D01*
X71922968Y-67610223D01*
X72293784Y-67857994D01*
X72731191Y-67945000D01*
X74588809Y-67945000D01*
X75026216Y-67857994D01*
X75397032Y-67610223D01*
X75644803Y-67239407D01*
X75731809Y-66802000D01*
X75731809Y-67494652D01*
X74954684Y-68271777D01*
X74588809Y-68199000D01*
X72731191Y-68199000D01*
X72293784Y-68286006D01*
X71922968Y-68533777D01*
X71675197Y-68904593D01*
X71588191Y-69342000D01*
X71675197Y-69779407D01*
X71922968Y-70150223D01*
X72293784Y-70397994D01*
X72731191Y-70485000D01*
X74588809Y-70485000D01*
X75026216Y-70397994D01*
X75397032Y-70150223D01*
X75644803Y-69779407D01*
X75731809Y-69342000D01*
X75645822Y-68909716D01*
X79722038Y-64833500D01*
X80799390Y-64833500D01*
X80974798Y-65009215D01*
X81254764Y-65125467D01*
X81557906Y-65125732D01*
X81838074Y-65009968D01*
X82052615Y-64795802D01*
X82168867Y-64515836D01*
X82169132Y-64212694D01*
X82169132Y-73658600D01*
X82092932Y-73658600D01*
X82092932Y-66752694D01*
X81977168Y-66472526D01*
X81763002Y-66257985D01*
X81483036Y-66141733D01*
X81179894Y-66141468D01*
X80899726Y-66257232D01*
X80722949Y-66433700D01*
X79527400Y-66433700D01*
X79347577Y-66469469D01*
X79195131Y-66571330D01*
X74954684Y-70811777D01*
X74588809Y-70739000D01*
X72731191Y-70739000D01*
X72293784Y-70826006D01*
X71922968Y-71073777D01*
X71675197Y-71444593D01*
X71588191Y-71882000D01*
X71675197Y-72319407D01*
X71922968Y-72690223D01*
X72293784Y-72937994D01*
X72731191Y-73025000D01*
X74588809Y-73025000D01*
X75026216Y-72937994D01*
X75397032Y-72690223D01*
X75644803Y-72319407D01*
X75731809Y-71882000D01*
X75645822Y-71449716D01*
X79722038Y-67373500D01*
X80723190Y-67373500D01*
X80898598Y-67549215D01*
X81178564Y-67665467D01*
X81481706Y-67665732D01*
X81761874Y-67549968D01*
X81976415Y-67335802D01*
X82092667Y-67055836D01*
X82092932Y-66752694D01*
X82092932Y-73658600D01*
X77981116Y-73658600D01*
X77981116Y-77063850D01*
X68714464Y-77063850D01*
X68714464Y-75438000D01*
X68714464Y-73406000D01*
X68714464Y-51308000D01*
X68714464Y-49276000D01*
X68686278Y-49130726D01*
X68602404Y-49003044D01*
X68475784Y-48917574D01*
X68326000Y-48887536D01*
X66294000Y-48887536D01*
X66148726Y-48915722D01*
X66021044Y-48999596D01*
X65935574Y-49126216D01*
X65928770Y-49160140D01*
X65738379Y-48954812D01*
X65152946Y-48686017D01*
X64897000Y-48804633D01*
X64897000Y-50165000D01*
X64917000Y-50165000D01*
X64917000Y-50419000D01*
X64897000Y-50419000D01*
X64897000Y-51779367D01*
X65152946Y-51897983D01*
X65738379Y-51629188D01*
X65928145Y-51424533D01*
X65933722Y-51453274D01*
X66017596Y-51580956D01*
X66144216Y-51666426D01*
X66294000Y-51696464D01*
X68326000Y-51696464D01*
X68471274Y-51668278D01*
X68598956Y-51584404D01*
X68684426Y-51457784D01*
X68714464Y-51308000D01*
X68714464Y-73406000D01*
X68686278Y-73260726D01*
X68602404Y-73133044D01*
X68475784Y-73047574D01*
X68326000Y-73017536D01*
X66294000Y-73017536D01*
X66148726Y-73045722D01*
X66021044Y-73129596D01*
X65935574Y-73256216D01*
X65928770Y-73290140D01*
X65738379Y-73084812D01*
X65152946Y-72816017D01*
X64897000Y-72934633D01*
X64897000Y-74295000D01*
X64917000Y-74295000D01*
X64917000Y-74549000D01*
X64897000Y-74549000D01*
X64897000Y-75909367D01*
X65152946Y-76027983D01*
X65738379Y-75759188D01*
X65928145Y-75554533D01*
X65933722Y-75583274D01*
X66017596Y-75710956D01*
X66144216Y-75796426D01*
X66294000Y-75826464D01*
X68326000Y-75826464D01*
X68471274Y-75798278D01*
X68598956Y-75714404D01*
X68684426Y-75587784D01*
X68714464Y-75438000D01*
X68714464Y-77063850D01*
X64643000Y-77063850D01*
X64643000Y-75909367D01*
X64643000Y-74549000D01*
X64643000Y-74295000D01*
X64643000Y-72934633D01*
X64643000Y-51779367D01*
X64643000Y-50419000D01*
X64643000Y-50165000D01*
X64643000Y-48804633D01*
X64387054Y-48686017D01*
X63801621Y-48954812D01*
X63363615Y-49427182D01*
X63164025Y-49909056D01*
X63283164Y-50165000D01*
X64643000Y-50165000D01*
X64643000Y-50419000D01*
X63283164Y-50419000D01*
X63164025Y-50674944D01*
X63363615Y-51156818D01*
X63801621Y-51629188D01*
X64387054Y-51897983D01*
X64643000Y-51779367D01*
X64643000Y-72934633D01*
X64387054Y-72816017D01*
X63801621Y-73084812D01*
X63363615Y-73557182D01*
X63164025Y-74039056D01*
X63283164Y-74295000D01*
X64643000Y-74295000D01*
X64643000Y-74549000D01*
X63283164Y-74549000D01*
X63164025Y-74804944D01*
X63363615Y-75286818D01*
X63801621Y-75759188D01*
X64387054Y-76027983D01*
X64643000Y-75909367D01*
X64643000Y-77063850D01*
X48541872Y-77063850D01*
X46947603Y-76746729D01*
X45632626Y-75868090D01*
X44753990Y-74553116D01*
X44436870Y-72958846D01*
X44436870Y-52045153D01*
X44753990Y-50450883D01*
X45632626Y-49135909D01*
X46947603Y-48257270D01*
X48541872Y-47940150D01*
X161498720Y-47940150D01*
X161998720Y-47940150D01*
X162455566Y-47940150D01*
X164049836Y-48257270D01*
X165364810Y-49135906D01*
X166243449Y-50450883D01*
X166560570Y-52045152D01*
X166560570Y-72958847D01*
M02*
