G04 #@! TF.FileFunction,Legend,Top*
%FSLAX46Y46*%
G04 Gerber Fmt 4.6, Leading zero omitted, Abs format (unit mm)*
G04 Created by KiCad (PCBNEW 0.201411071246+5256~19~ubuntu14.04.1-product) date Sun 09 Nov 2014 14:56:43 NZDT*
%MOMM*%
G01*
G04 APERTURE LIST*
%ADD10C,0.150000*%
%ADD11C,0.254000*%
%ADD12C,0.196850*%
%ADD13C,0.114300*%
%ADD14C,0.381000*%
%ADD15C,0.200000*%
%ADD16C,0.203200*%
%ADD17C,0.127000*%
%ADD18C,0.149860*%
%ADD19C,0.066040*%
%ADD20C,0.101600*%
%ADD21C,0.050800*%
%ADD22C,0.000120*%
%ADD23C,0.304800*%
%ADD24C,0.500000*%
%ADD25C,0.190500*%
%ADD26R,7.498080X2.997200*%
%ADD27R,1.400000X1.200000*%
%ADD28R,0.280000X1.400000*%
%ADD29R,1.143000X0.635000*%
%ADD30R,1.800000X0.800000*%
%ADD31R,0.635000X1.143000*%
%ADD32R,1.524000X1.524000*%
%ADD33C,1.524000*%
%ADD34R,1.300480X0.299720*%
%ADD35R,0.299720X1.300480*%
%ADD36R,2.537160X1.837160*%
%ADD37R,1.198880X1.198880*%
%ADD38R,0.635000X1.016000*%
%ADD39R,1.198880X0.599440*%
%ADD40R,1.501140X1.950720*%
%ADD41R,1.950720X1.501140*%
%ADD42R,1.397000X3.810000*%
%ADD43O,3.302000X1.524000*%
%ADD44R,0.762000X0.508000*%
%ADD45R,2.199640X1.800860*%
%ADD46O,5.000000X2.199640*%
%ADD47R,1.000000X2.000000*%
%ADD48R,1.524000X0.406400*%
%ADD49R,0.406400X1.524000*%
%ADD50R,1.524000X2.199640*%
%ADD51O,1.524000X2.199640*%
%ADD52R,1.600200X3.599180*%
%ADD53R,1.000760X0.899160*%
%ADD54R,2.600960X1.600200*%
%ADD55R,0.599440X1.998980*%
%ADD56R,1.800860X2.199640*%
G04 APERTURE END LIST*
D10*
D11*
X169418000Y-67310000D02*
X168148000Y-68580000D01*
X169418000Y-67310000D02*
X168148000Y-66040000D01*
X165608000Y-67310000D02*
X169418000Y-67310000D01*
D12*
X164549667Y-65913000D02*
X163110333Y-65913000D01*
X162941000Y-65997667D01*
X162856333Y-66082334D01*
X162771667Y-66251667D01*
X162771667Y-66590334D01*
X162856333Y-66759667D01*
X162941000Y-66844334D01*
X163110333Y-66929000D01*
X164549667Y-66929000D01*
X162771667Y-67775667D02*
X164549667Y-67775667D01*
X164549667Y-68453001D01*
X164465000Y-68622334D01*
X164380333Y-68707001D01*
X164211000Y-68791667D01*
X163957000Y-68791667D01*
X163787667Y-68707001D01*
X163703000Y-68622334D01*
X163618333Y-68453001D01*
X163618333Y-67775667D01*
D13*
X118046500Y-72136000D02*
X117983000Y-72136000D01*
D14*
X137570000Y-54493762D02*
X137570000Y-51191762D01*
X139021428Y-54493762D01*
X139021428Y-51191762D01*
X139868095Y-51191762D02*
X141319523Y-51191762D01*
X140593809Y-54493762D02*
X140593809Y-51191762D01*
X142166190Y-54493762D02*
X142166190Y-51191762D01*
X143133809Y-51191762D01*
X143375714Y-51349000D01*
X143496666Y-51506238D01*
X143617618Y-51820714D01*
X143617618Y-52292429D01*
X143496666Y-52606905D01*
X143375714Y-52764143D01*
X143133809Y-52921381D01*
X142166190Y-52921381D01*
X144585238Y-54336524D02*
X144827142Y-54493762D01*
X145310952Y-54493762D01*
X145552857Y-54336524D01*
X145673809Y-54022048D01*
X145673809Y-53864810D01*
X145552857Y-53550333D01*
X145310952Y-53393095D01*
X144948095Y-53393095D01*
X144706190Y-53235857D01*
X144585238Y-52921381D01*
X144585238Y-52764143D01*
X144706190Y-52449667D01*
X144948095Y-52292429D01*
X145310952Y-52292429D01*
X145552857Y-52449667D01*
X146399523Y-52292429D02*
X147367142Y-52292429D01*
X146762380Y-51191762D02*
X146762380Y-54022048D01*
X146883332Y-54336524D01*
X147125237Y-54493762D01*
X147367142Y-54493762D01*
X148213809Y-54493762D02*
X148213809Y-52292429D01*
X148213809Y-51191762D02*
X148092857Y-51349000D01*
X148213809Y-51506238D01*
X148334761Y-51349000D01*
X148213809Y-51191762D01*
X148213809Y-51506238D01*
X150511904Y-54336524D02*
X150270000Y-54493762D01*
X149786190Y-54493762D01*
X149544285Y-54336524D01*
X149423333Y-54179286D01*
X149302381Y-53864810D01*
X149302381Y-52921381D01*
X149423333Y-52606905D01*
X149544285Y-52449667D01*
X149786190Y-52292429D01*
X150270000Y-52292429D01*
X150511904Y-52449667D01*
X151600476Y-54493762D02*
X151600476Y-51191762D01*
X151842381Y-53235857D02*
X152568095Y-54493762D01*
X152568095Y-52292429D02*
X151600476Y-53550333D01*
X156922380Y-54493762D02*
X155470952Y-54493762D01*
X156196666Y-54493762D02*
X156196666Y-51191762D01*
X155954761Y-51663476D01*
X155712856Y-51977952D01*
X155470952Y-52135190D01*
X158010952Y-54179286D02*
X158131904Y-54336524D01*
X158010952Y-54493762D01*
X157890000Y-54336524D01*
X158010952Y-54179286D01*
X158010952Y-54493762D01*
X160550952Y-54493762D02*
X159099524Y-54493762D01*
X159825238Y-54493762D02*
X159825238Y-51191762D01*
X159583333Y-51663476D01*
X159341428Y-51977952D01*
X159099524Y-52135190D01*
D13*
X78274333Y-53033507D02*
X78236837Y-52996011D01*
X78161847Y-52883526D01*
X78124352Y-52808535D01*
X78086856Y-52696050D01*
X78049361Y-52508573D01*
X78049361Y-52358592D01*
X78086856Y-52171116D01*
X78124352Y-52058630D01*
X78161847Y-51983640D01*
X78236837Y-51871154D01*
X78274333Y-51833659D01*
X79024237Y-52658554D02*
X78986742Y-52696050D01*
X78874256Y-52733545D01*
X78799266Y-52733545D01*
X78686780Y-52696050D01*
X78611789Y-52621059D01*
X78574294Y-52546069D01*
X78536799Y-52396088D01*
X78536799Y-52283602D01*
X78574294Y-52133621D01*
X78611789Y-52058630D01*
X78686780Y-51983640D01*
X78799266Y-51946145D01*
X78874256Y-51946145D01*
X78986742Y-51983640D01*
X79024237Y-52021135D01*
X79286704Y-53033507D02*
X79324199Y-52996011D01*
X79399189Y-52883526D01*
X79436685Y-52808535D01*
X79474180Y-52696050D01*
X79511675Y-52508573D01*
X79511675Y-52358592D01*
X79474180Y-52171116D01*
X79436685Y-52058630D01*
X79399189Y-51983640D01*
X79324199Y-51871154D01*
X79286704Y-51833659D01*
X80449056Y-52021135D02*
X80486551Y-51983640D01*
X80561542Y-51946145D01*
X80749018Y-51946145D01*
X80824008Y-51983640D01*
X80861504Y-52021135D01*
X80898999Y-52096126D01*
X80898999Y-52171116D01*
X80861504Y-52283602D01*
X80411561Y-52733545D01*
X80898999Y-52733545D01*
X81386437Y-51946145D02*
X81461428Y-51946145D01*
X81536418Y-51983640D01*
X81573913Y-52021135D01*
X81611409Y-52096126D01*
X81648904Y-52246107D01*
X81648904Y-52433583D01*
X81611409Y-52583564D01*
X81573913Y-52658554D01*
X81536418Y-52696050D01*
X81461428Y-52733545D01*
X81386437Y-52733545D01*
X81311447Y-52696050D01*
X81273951Y-52658554D01*
X81236456Y-52583564D01*
X81198961Y-52433583D01*
X81198961Y-52246107D01*
X81236456Y-52096126D01*
X81273951Y-52021135D01*
X81311447Y-51983640D01*
X81386437Y-51946145D01*
X82398809Y-52733545D02*
X81948866Y-52733545D01*
X82173837Y-52733545D02*
X82173837Y-51946145D01*
X82098847Y-52058630D01*
X82023856Y-52133621D01*
X81948866Y-52171116D01*
X83073723Y-52208611D02*
X83073723Y-52733545D01*
X82886247Y-51908650D02*
X82698771Y-52471078D01*
X83186209Y-52471078D01*
X84086095Y-52733545D02*
X84086095Y-51946145D01*
X84273571Y-51946145D01*
X84386057Y-51983640D01*
X84461048Y-52058630D01*
X84498543Y-52133621D01*
X84536038Y-52283602D01*
X84536038Y-52396088D01*
X84498543Y-52546069D01*
X84461048Y-52621059D01*
X84386057Y-52696050D01*
X84273571Y-52733545D01*
X84086095Y-52733545D01*
X85210952Y-52733545D02*
X85210952Y-52321097D01*
X85173457Y-52246107D01*
X85098467Y-52208611D01*
X84948486Y-52208611D01*
X84873495Y-52246107D01*
X85210952Y-52696050D02*
X85135962Y-52733545D01*
X84948486Y-52733545D01*
X84873495Y-52696050D01*
X84836000Y-52621059D01*
X84836000Y-52546069D01*
X84873495Y-52471078D01*
X84948486Y-52433583D01*
X85135962Y-52433583D01*
X85210952Y-52396088D01*
X85510915Y-52208611D02*
X85698391Y-52733545D01*
X85885867Y-52208611D01*
X86185829Y-52733545D02*
X86185829Y-52208611D01*
X86185829Y-51946145D02*
X86148334Y-51983640D01*
X86185829Y-52021135D01*
X86223324Y-51983640D01*
X86185829Y-51946145D01*
X86185829Y-52021135D01*
X86898238Y-52733545D02*
X86898238Y-51946145D01*
X86898238Y-52696050D02*
X86823248Y-52733545D01*
X86673267Y-52733545D01*
X86598276Y-52696050D01*
X86560781Y-52658554D01*
X86523286Y-52583564D01*
X86523286Y-52358592D01*
X86560781Y-52283602D01*
X86598276Y-52246107D01*
X86673267Y-52208611D01*
X86823248Y-52208611D01*
X86898238Y-52246107D01*
X87798125Y-51946145D02*
X88323058Y-51946145D01*
X87798125Y-52733545D01*
X88323058Y-52733545D01*
X88960477Y-52733545D02*
X88960477Y-52321097D01*
X88922982Y-52246107D01*
X88847992Y-52208611D01*
X88698011Y-52208611D01*
X88623020Y-52246107D01*
X88960477Y-52696050D02*
X88885487Y-52733545D01*
X88698011Y-52733545D01*
X88623020Y-52696050D01*
X88585525Y-52621059D01*
X88585525Y-52546069D01*
X88623020Y-52471078D01*
X88698011Y-52433583D01*
X88885487Y-52433583D01*
X88960477Y-52396088D01*
X89335430Y-52208611D02*
X89335430Y-52733545D01*
X89335430Y-52283602D02*
X89372925Y-52246107D01*
X89447916Y-52208611D01*
X89560402Y-52208611D01*
X89635392Y-52246107D01*
X89672887Y-52321097D01*
X89672887Y-52733545D01*
X90347802Y-52696050D02*
X90272812Y-52733545D01*
X90122831Y-52733545D01*
X90047840Y-52696050D01*
X90010345Y-52621059D01*
X90010345Y-52321097D01*
X90047840Y-52246107D01*
X90122831Y-52208611D01*
X90272812Y-52208611D01*
X90347802Y-52246107D01*
X90385297Y-52321097D01*
X90385297Y-52396088D01*
X90010345Y-52471078D01*
X90610268Y-52208611D02*
X90910230Y-52208611D01*
X90722754Y-51946145D02*
X90722754Y-52621059D01*
X90760249Y-52696050D01*
X90835240Y-52733545D01*
X90910230Y-52733545D01*
X91060211Y-52208611D02*
X91360173Y-52208611D01*
X91172697Y-51946145D02*
X91172697Y-52621059D01*
X91210192Y-52696050D01*
X91285183Y-52733545D01*
X91360173Y-52733545D01*
X91622640Y-52733545D02*
X91622640Y-52208611D01*
X91622640Y-51946145D02*
X91585145Y-51983640D01*
X91622640Y-52021135D01*
X91660135Y-51983640D01*
X91622640Y-51946145D01*
X91622640Y-52021135D01*
X79755396Y-53875214D02*
X79717901Y-53912710D01*
X79605415Y-53950205D01*
X79530425Y-53950205D01*
X79417939Y-53912710D01*
X79342948Y-53837719D01*
X79305453Y-53762729D01*
X79267958Y-53612748D01*
X79267958Y-53500262D01*
X79305453Y-53350281D01*
X79342948Y-53275290D01*
X79417939Y-53200300D01*
X79530425Y-53162805D01*
X79605415Y-53162805D01*
X79717901Y-53200300D01*
X79755396Y-53237795D01*
X80542796Y-53875214D02*
X80505301Y-53912710D01*
X80392815Y-53950205D01*
X80317825Y-53950205D01*
X80205339Y-53912710D01*
X80130348Y-53837719D01*
X80092853Y-53762729D01*
X80055358Y-53612748D01*
X80055358Y-53500262D01*
X80092853Y-53350281D01*
X80130348Y-53275290D01*
X80205339Y-53200300D01*
X80317825Y-53162805D01*
X80392815Y-53162805D01*
X80505301Y-53200300D01*
X80542796Y-53237795D01*
X80880253Y-53650243D02*
X81480177Y-53650243D01*
X81780139Y-53162805D02*
X82267577Y-53162805D01*
X82005110Y-53462767D01*
X82117596Y-53462767D01*
X82192586Y-53500262D01*
X82230082Y-53537757D01*
X82267577Y-53612748D01*
X82267577Y-53800224D01*
X82230082Y-53875214D01*
X82192586Y-53912710D01*
X82117596Y-53950205D01*
X81892624Y-53950205D01*
X81817634Y-53912710D01*
X81780139Y-53875214D01*
X82605034Y-53875214D02*
X82642529Y-53912710D01*
X82605034Y-53950205D01*
X82567539Y-53912710D01*
X82605034Y-53875214D01*
X82605034Y-53950205D01*
X83129967Y-53162805D02*
X83204958Y-53162805D01*
X83279948Y-53200300D01*
X83317443Y-53237795D01*
X83354939Y-53312786D01*
X83392434Y-53462767D01*
X83392434Y-53650243D01*
X83354939Y-53800224D01*
X83317443Y-53875214D01*
X83279948Y-53912710D01*
X83204958Y-53950205D01*
X83129967Y-53950205D01*
X83054977Y-53912710D01*
X83017481Y-53875214D01*
X82979986Y-53800224D01*
X82942491Y-53650243D01*
X82942491Y-53462767D01*
X82979986Y-53312786D01*
X83017481Y-53237795D01*
X83054977Y-53200300D01*
X83129967Y-53162805D01*
X83729891Y-53650243D02*
X84329815Y-53650243D01*
X84704767Y-53950205D02*
X84704767Y-53162805D01*
X85154710Y-53950205D01*
X85154710Y-53162805D01*
X85454672Y-53162805D02*
X85979605Y-53162805D01*
X85454672Y-53950205D01*
X85979605Y-53950205D01*
X87141958Y-53537757D02*
X87254444Y-53575252D01*
X87291939Y-53612748D01*
X87329434Y-53687738D01*
X87329434Y-53800224D01*
X87291939Y-53875214D01*
X87254444Y-53912710D01*
X87179453Y-53950205D01*
X86879491Y-53950205D01*
X86879491Y-53162805D01*
X87141958Y-53162805D01*
X87216948Y-53200300D01*
X87254444Y-53237795D01*
X87291939Y-53312786D01*
X87291939Y-53387776D01*
X87254444Y-53462767D01*
X87216948Y-53500262D01*
X87141958Y-53537757D01*
X86879491Y-53537757D01*
X87816872Y-53575252D02*
X87816872Y-53950205D01*
X87554405Y-53162805D02*
X87816872Y-53575252D01*
X88079339Y-53162805D01*
X88341805Y-53650243D02*
X88941729Y-53650243D01*
X89279186Y-53912710D02*
X89391672Y-53950205D01*
X89579148Y-53950205D01*
X89654138Y-53912710D01*
X89691634Y-53875214D01*
X89729129Y-53800224D01*
X89729129Y-53725233D01*
X89691634Y-53650243D01*
X89654138Y-53612748D01*
X89579148Y-53575252D01*
X89429167Y-53537757D01*
X89354176Y-53500262D01*
X89316681Y-53462767D01*
X89279186Y-53387776D01*
X89279186Y-53312786D01*
X89316681Y-53237795D01*
X89354176Y-53200300D01*
X89429167Y-53162805D01*
X89616643Y-53162805D01*
X89729129Y-53200300D01*
X90029091Y-53725233D02*
X90404043Y-53725233D01*
X89954100Y-53950205D02*
X90216567Y-53162805D01*
X90479034Y-53950205D01*
X79830385Y-55166865D02*
X79830385Y-54379465D01*
X80167842Y-55166865D02*
X80167842Y-54754417D01*
X80130347Y-54679427D01*
X80055357Y-54641931D01*
X79942871Y-54641931D01*
X79867880Y-54679427D01*
X79830385Y-54716922D01*
X80880252Y-55166865D02*
X80880252Y-54754417D01*
X80842757Y-54679427D01*
X80767767Y-54641931D01*
X80617786Y-54641931D01*
X80542795Y-54679427D01*
X80880252Y-55129370D02*
X80805262Y-55166865D01*
X80617786Y-55166865D01*
X80542795Y-55129370D01*
X80505300Y-55054379D01*
X80505300Y-54979389D01*
X80542795Y-54904398D01*
X80617786Y-54866903D01*
X80805262Y-54866903D01*
X80880252Y-54829408D01*
X81255205Y-55166865D02*
X81255205Y-54641931D01*
X81255205Y-54379465D02*
X81217710Y-54416960D01*
X81255205Y-54454455D01*
X81292700Y-54416960D01*
X81255205Y-54379465D01*
X81255205Y-54454455D01*
X81630157Y-55166865D02*
X81630157Y-54641931D01*
X81630157Y-54791912D02*
X81667652Y-54716922D01*
X81705148Y-54679427D01*
X81780138Y-54641931D01*
X81855129Y-54641931D01*
X82042605Y-54641931D02*
X82230081Y-55166865D01*
X82417557Y-54641931D02*
X82230081Y-55166865D01*
X82155090Y-55354341D01*
X82117595Y-55391836D01*
X82042605Y-55429331D01*
X82717519Y-55091874D02*
X82755014Y-55129370D01*
X82717519Y-55166865D01*
X82680024Y-55129370D01*
X82717519Y-55091874D01*
X82717519Y-55166865D01*
X83429928Y-54641931D02*
X83429928Y-55279350D01*
X83392433Y-55354341D01*
X83354938Y-55391836D01*
X83279947Y-55429331D01*
X83167462Y-55429331D01*
X83092471Y-55391836D01*
X83429928Y-55129370D02*
X83354938Y-55166865D01*
X83204957Y-55166865D01*
X83129966Y-55129370D01*
X83092471Y-55091874D01*
X83054976Y-55016884D01*
X83054976Y-54791912D01*
X83092471Y-54716922D01*
X83129966Y-54679427D01*
X83204957Y-54641931D01*
X83354938Y-54641931D01*
X83429928Y-54679427D01*
X84104843Y-55129370D02*
X84029853Y-55166865D01*
X83879872Y-55166865D01*
X83804881Y-55129370D01*
X83767386Y-55054379D01*
X83767386Y-54754417D01*
X83804881Y-54679427D01*
X83879872Y-54641931D01*
X84029853Y-54641931D01*
X84104843Y-54679427D01*
X84142338Y-54754417D01*
X84142338Y-54829408D01*
X83767386Y-54904398D01*
X84779757Y-55129370D02*
X84704767Y-55166865D01*
X84554786Y-55166865D01*
X84479795Y-55129370D01*
X84442300Y-55054379D01*
X84442300Y-54754417D01*
X84479795Y-54679427D01*
X84554786Y-54641931D01*
X84704767Y-54641931D01*
X84779757Y-54679427D01*
X84817252Y-54754417D01*
X84817252Y-54829408D01*
X84442300Y-54904398D01*
X85154709Y-55166865D02*
X85154709Y-54379465D01*
X85229700Y-54866903D02*
X85454671Y-55166865D01*
X85454671Y-54641931D02*
X85154709Y-54941893D01*
X85792128Y-55091874D02*
X85829623Y-55129370D01*
X85792128Y-55166865D01*
X85754633Y-55129370D01*
X85792128Y-55091874D01*
X85792128Y-55166865D01*
X86167080Y-54641931D02*
X86167080Y-55166865D01*
X86167080Y-54716922D02*
X86204575Y-54679427D01*
X86279566Y-54641931D01*
X86392052Y-54641931D01*
X86467042Y-54679427D01*
X86504537Y-54754417D01*
X86504537Y-55166865D01*
X86804500Y-54641931D02*
X87216947Y-54641931D01*
X86804500Y-55166865D01*
X87216947Y-55166865D01*
X88079338Y-54341970D02*
X87404423Y-55354341D01*
X88341804Y-54641931D02*
X88341804Y-55166865D01*
X88341804Y-54716922D02*
X88379299Y-54679427D01*
X88454290Y-54641931D01*
X88566776Y-54641931D01*
X88641766Y-54679427D01*
X88679261Y-54754417D01*
X88679261Y-55166865D01*
X88941728Y-54641931D02*
X89241690Y-54641931D01*
X89054214Y-54379465D02*
X89054214Y-55054379D01*
X89091709Y-55129370D01*
X89166700Y-55166865D01*
X89241690Y-55166865D01*
X89504157Y-54641931D02*
X89504157Y-55429331D01*
X89504157Y-54679427D02*
X89579148Y-54641931D01*
X89729129Y-54641931D01*
X89804119Y-54679427D01*
X89841614Y-54716922D01*
X89879110Y-54791912D01*
X89879110Y-55016884D01*
X89841614Y-55091874D01*
X89804119Y-55129370D01*
X89729129Y-55166865D01*
X89579148Y-55166865D01*
X89504157Y-55129370D01*
D15*
X136920000Y-63732000D02*
X136720000Y-63632000D01*
X137020000Y-63532000D02*
X136420000Y-63532000D01*
X137020000Y-64232000D02*
X136320000Y-63532000D01*
X136320000Y-63532000D02*
X136920000Y-63532000D01*
X136920000Y-63532000D02*
X136920000Y-63932000D01*
X136920000Y-63932000D02*
X136620000Y-63632000D01*
X136620000Y-63632000D02*
X136920000Y-63532000D01*
X137020000Y-63532000D02*
X137020000Y-64232000D01*
D10*
X136220000Y-64282000D02*
X133020000Y-64282000D01*
X133020000Y-64282000D02*
X133020000Y-66782000D01*
X133020000Y-66782000D02*
X136220000Y-66782000D01*
X136220000Y-66782000D02*
X136220000Y-64282000D01*
D16*
X136652000Y-59182000D02*
G75*
G03X136652000Y-59182000I-254000J0D01*
G01*
X133858000Y-58674000D02*
X136906000Y-58674000D01*
X136906000Y-58674000D02*
X136906000Y-61722000D01*
X136906000Y-61722000D02*
X133858000Y-61722000D01*
X133858000Y-61722000D02*
X133858000Y-58674000D01*
D17*
X102743000Y-54737000D02*
X102743000Y-57023000D01*
X102743000Y-57023000D02*
X101473000Y-57023000D01*
X101473000Y-57023000D02*
X101473000Y-54737000D01*
X101473000Y-54737000D02*
X102743000Y-54737000D01*
D10*
X145792000Y-56008000D02*
X157992000Y-56008000D01*
X157992000Y-56008000D02*
X157992000Y-72008000D01*
X145792000Y-72008000D02*
X157992000Y-72008000D01*
X145792000Y-56008000D02*
X145792000Y-72008000D01*
D17*
X116965000Y-66643000D02*
X116965000Y-64357000D01*
X116965000Y-64357000D02*
X118235000Y-64357000D01*
X118235000Y-64357000D02*
X118235000Y-66643000D01*
X118235000Y-66643000D02*
X116965000Y-66643000D01*
X122557000Y-55565000D02*
X124843000Y-55565000D01*
X124843000Y-55565000D02*
X124843000Y-56835000D01*
X124843000Y-56835000D02*
X122557000Y-56835000D01*
X122557000Y-56835000D02*
X122557000Y-55565000D01*
X129730500Y-73037700D02*
X127444500Y-73037700D01*
X127444500Y-73037700D02*
X127444500Y-71767700D01*
X127444500Y-71767700D02*
X129730500Y-71767700D01*
X129730500Y-71767700D02*
X129730500Y-73037700D01*
D16*
X142748000Y-60452000D02*
X142748000Y-68072000D01*
X137668000Y-68072000D02*
X137668000Y-60452000D01*
X137668000Y-60452000D02*
X142748000Y-60452000D01*
X142748000Y-68072000D02*
X137668000Y-68072000D01*
D18*
X98463100Y-58638440D02*
X98262440Y-58839100D01*
X98262440Y-59037220D02*
X98661220Y-58638440D01*
X98861880Y-58638440D02*
X98262440Y-59237880D01*
X98262440Y-59438540D02*
X99062540Y-58638440D01*
X98262440Y-59639200D02*
X98262440Y-58638440D01*
X98262440Y-58638440D02*
X99263200Y-58638440D01*
X99263200Y-58638440D02*
X98262440Y-59639200D01*
X99263200Y-66837560D02*
X98262440Y-66837560D01*
X98262440Y-66837560D02*
X98262440Y-65836800D01*
X106461560Y-65836800D02*
X106461560Y-66837560D01*
X106461560Y-66837560D02*
X105460800Y-66837560D01*
X105460800Y-58638440D02*
X106461560Y-58638440D01*
X106461560Y-58638440D02*
X106461560Y-59639200D01*
D17*
X100232981Y-60325000D02*
G75*
G03X100232981Y-60325000I-283981J0D01*
G01*
X99187000Y-66294000D02*
X98806000Y-65913000D01*
X98806000Y-65913000D02*
X98806000Y-59563000D01*
X98806000Y-59563000D02*
X99187000Y-59182000D01*
X99187000Y-59182000D02*
X105537000Y-59182000D01*
X105537000Y-59182000D02*
X105918000Y-59563000D01*
X105918000Y-59563000D02*
X105918000Y-65913000D01*
X105918000Y-65913000D02*
X105537000Y-66294000D01*
X105537000Y-66294000D02*
X99187000Y-66294000D01*
D10*
X110795000Y-60919000D02*
G75*
G03X111095000Y-60619000I0J300000D01*
G01*
X111095000Y-65619000D02*
G75*
G03X110795000Y-65319000I-300000J0D01*
G01*
X110795000Y-65319000D02*
X110795000Y-60919000D01*
X111895000Y-65619000D02*
X111095000Y-65619000D01*
X111895000Y-60619000D02*
X111095000Y-60619000D01*
X112795000Y-60819000D02*
X111995000Y-60819000D01*
X112795000Y-60819000D02*
X112895000Y-60619000D01*
X111995000Y-60819000D02*
X111895000Y-60619000D01*
X113695000Y-60619000D02*
X112895000Y-60619000D01*
X113695000Y-60619000D02*
G75*
G03X113995000Y-60919000I300000J0D01*
G01*
X113995000Y-65319000D02*
X113995000Y-60919000D01*
X113695000Y-65619000D02*
X112895000Y-65619000D01*
X113995000Y-65319000D02*
G75*
G03X113695000Y-65619000I0J-300000D01*
G01*
X112895000Y-65619000D02*
X112795000Y-65419000D01*
X111895000Y-65619000D02*
X111995000Y-65419000D01*
X112795000Y-65419000D02*
X111995000Y-65419000D01*
D17*
X109728000Y-69596000D02*
X109728000Y-67310000D01*
X109728000Y-67310000D02*
X110998000Y-67310000D01*
X110998000Y-67310000D02*
X110998000Y-69596000D01*
X110998000Y-69596000D02*
X109728000Y-69596000D01*
X115697000Y-60401200D02*
X115697000Y-62687200D01*
X115697000Y-62687200D02*
X114427000Y-62687200D01*
X114427000Y-62687200D02*
X114427000Y-60401200D01*
X114427000Y-60401200D02*
X115697000Y-60401200D01*
X114452400Y-65836800D02*
X114452400Y-63550800D01*
X114452400Y-63550800D02*
X115722400Y-63550800D01*
X115722400Y-63550800D02*
X115722400Y-65836800D01*
X115722400Y-65836800D02*
X114452400Y-65836800D01*
D19*
X106979720Y-68844160D02*
X107304840Y-68844160D01*
X107304840Y-68844160D02*
X107304840Y-68343780D01*
X106979720Y-68343780D02*
X107304840Y-68343780D01*
X106979720Y-68844160D02*
X106979720Y-68343780D01*
X106357420Y-68844160D02*
X106507280Y-68844160D01*
X106507280Y-68844160D02*
X106507280Y-68592700D01*
X106357420Y-68592700D02*
X106507280Y-68592700D01*
X106357420Y-68844160D02*
X106357420Y-68592700D01*
X106852720Y-68844160D02*
X107002580Y-68844160D01*
X107002580Y-68844160D02*
X107002580Y-68592700D01*
X106852720Y-68592700D02*
X107002580Y-68592700D01*
X106852720Y-68844160D02*
X106852720Y-68592700D01*
X106481880Y-68844160D02*
X106878120Y-68844160D01*
X106878120Y-68844160D02*
X106878120Y-68668900D01*
X106481880Y-68668900D02*
X106878120Y-68668900D01*
X106481880Y-68844160D02*
X106481880Y-68668900D01*
X106979720Y-70340220D02*
X107304840Y-70340220D01*
X107304840Y-70340220D02*
X107304840Y-69839840D01*
X106979720Y-69839840D02*
X107304840Y-69839840D01*
X106979720Y-70340220D02*
X106979720Y-69839840D01*
X106055160Y-70340220D02*
X106380280Y-70340220D01*
X106380280Y-70340220D02*
X106380280Y-69839840D01*
X106055160Y-69839840D02*
X106380280Y-69839840D01*
X106055160Y-70340220D02*
X106055160Y-69839840D01*
X106852720Y-70091300D02*
X107002580Y-70091300D01*
X107002580Y-70091300D02*
X107002580Y-69839840D01*
X106852720Y-69839840D02*
X107002580Y-69839840D01*
X106852720Y-70091300D02*
X106852720Y-69839840D01*
X106357420Y-70091300D02*
X106507280Y-70091300D01*
X106507280Y-70091300D02*
X106507280Y-69839840D01*
X106357420Y-69839840D02*
X106507280Y-69839840D01*
X106357420Y-70091300D02*
X106357420Y-69839840D01*
X106481880Y-70015100D02*
X106878120Y-70015100D01*
X106878120Y-70015100D02*
X106878120Y-69839840D01*
X106481880Y-69839840D02*
X106878120Y-69839840D01*
X106481880Y-70015100D02*
X106481880Y-69839840D01*
X106580940Y-69342000D02*
X106779060Y-69342000D01*
X106779060Y-69342000D02*
X106779060Y-69143880D01*
X106580940Y-69143880D02*
X106779060Y-69143880D01*
X106580940Y-69342000D02*
X106580940Y-69143880D01*
X106080560Y-68844160D02*
X106380280Y-68844160D01*
X106380280Y-68844160D02*
X106380280Y-68544440D01*
X106080560Y-68544440D02*
X106380280Y-68544440D01*
X106080560Y-68844160D02*
X106080560Y-68544440D01*
X106055160Y-68417440D02*
X106281220Y-68417440D01*
X106281220Y-68417440D02*
X106281220Y-68343780D01*
X106055160Y-68343780D02*
X106281220Y-68343780D01*
X106055160Y-68417440D02*
X106055160Y-68343780D01*
D20*
X107254040Y-68818760D02*
X107254040Y-69865240D01*
X106105960Y-69839840D02*
X106105960Y-68417440D01*
D21*
X106302262Y-68493640D02*
G75*
G03X106302262Y-68493640I-71842J0D01*
G01*
D20*
X106332020Y-68343780D02*
G75*
G03X107027980Y-68343780I347980J0D01*
G01*
X107027980Y-70340220D02*
G75*
G03X106332020Y-70340220I-347980J0D01*
G01*
D17*
X105537000Y-70612000D02*
X105537000Y-72898000D01*
X105537000Y-72898000D02*
X104267000Y-72898000D01*
X104267000Y-72898000D02*
X104267000Y-70612000D01*
X104267000Y-70612000D02*
X105537000Y-70612000D01*
X107315000Y-71374000D02*
X107315000Y-73660000D01*
X107315000Y-73660000D02*
X106045000Y-73660000D01*
X106045000Y-73660000D02*
X106045000Y-71374000D01*
X106045000Y-71374000D02*
X107315000Y-71374000D01*
X110236000Y-61849000D02*
X110236000Y-64135000D01*
X110236000Y-64135000D02*
X108966000Y-64135000D01*
X108966000Y-64135000D02*
X108966000Y-61849000D01*
X108966000Y-61849000D02*
X110236000Y-61849000D01*
D18*
X99387660Y-73116440D02*
X99387660Y-71917560D01*
X98986340Y-71917560D02*
X98986340Y-73116440D01*
X98087180Y-71917560D02*
X100286820Y-71917560D01*
X100286820Y-71917560D02*
X100286820Y-73116440D01*
X100286820Y-73116440D02*
X98087180Y-73116440D01*
X98087180Y-73116440D02*
X98087180Y-71917560D01*
D16*
X80878680Y-56235600D02*
X87777320Y-56235600D01*
X87777320Y-68732400D02*
X80878680Y-68732400D01*
X80878680Y-68732400D02*
X80878680Y-56235600D01*
X87777320Y-56235600D02*
X87777320Y-68732400D01*
D22*
X87274400Y-67564000D02*
G75*
G03X87274400Y-67564000I-406400J0D01*
G01*
D17*
X112953800Y-67818000D02*
X111328200Y-67818000D01*
X111328200Y-70561200D02*
X112953800Y-70561200D01*
X112953800Y-70561200D02*
X112953800Y-67360800D01*
X112953800Y-67360800D02*
X111328200Y-67360800D01*
X111328200Y-67360800D02*
X111328200Y-70561200D01*
X101219000Y-72898000D02*
X101219000Y-70612000D01*
X101219000Y-70612000D02*
X102489000Y-70612000D01*
X102489000Y-70612000D02*
X102489000Y-72898000D01*
X102489000Y-72898000D02*
X101219000Y-72898000D01*
X102743000Y-72898000D02*
X102743000Y-70612000D01*
X102743000Y-70612000D02*
X104013000Y-70612000D01*
X104013000Y-70612000D02*
X104013000Y-72898000D01*
X104013000Y-72898000D02*
X102743000Y-72898000D01*
X96139000Y-73329800D02*
X96139000Y-71704200D01*
X93395800Y-71704200D02*
X93395800Y-73329800D01*
X93395800Y-73329800D02*
X96596200Y-73329800D01*
X96596200Y-73329800D02*
X96596200Y-71704200D01*
X96596200Y-71704200D02*
X93395800Y-71704200D01*
X101219000Y-68707000D02*
X103505000Y-68707000D01*
X103505000Y-68707000D02*
X103505000Y-69977000D01*
X103505000Y-69977000D02*
X101219000Y-69977000D01*
X101219000Y-69977000D02*
X101219000Y-68707000D01*
X99441000Y-70739000D02*
X99441000Y-68453000D01*
X99441000Y-68453000D02*
X100711000Y-68453000D01*
X100711000Y-68453000D02*
X100711000Y-70739000D01*
X100711000Y-70739000D02*
X99441000Y-70739000D01*
X97663000Y-70739000D02*
X97663000Y-68453000D01*
X97663000Y-68453000D02*
X98933000Y-68453000D01*
X98933000Y-68453000D02*
X98933000Y-70739000D01*
X98933000Y-70739000D02*
X97663000Y-70739000D01*
X94742000Y-64897000D02*
X94742000Y-62611000D01*
X94742000Y-62611000D02*
X96012000Y-62611000D01*
X96012000Y-62611000D02*
X96012000Y-64897000D01*
X96012000Y-64897000D02*
X94742000Y-64897000D01*
X96139000Y-59309000D02*
X96139000Y-61595000D01*
X96139000Y-61595000D02*
X94869000Y-61595000D01*
X94869000Y-61595000D02*
X94869000Y-59309000D01*
X94869000Y-59309000D02*
X96139000Y-59309000D01*
X95885000Y-68199000D02*
X95885000Y-65913000D01*
X95885000Y-65913000D02*
X97155000Y-65913000D01*
X97155000Y-65913000D02*
X97155000Y-68199000D01*
X97155000Y-68199000D02*
X95885000Y-68199000D01*
X95631000Y-65913000D02*
X95631000Y-68199000D01*
X95631000Y-68199000D02*
X94361000Y-68199000D01*
X94361000Y-68199000D02*
X94361000Y-65913000D01*
X94361000Y-65913000D02*
X95631000Y-65913000D01*
X81332605Y-73533000D02*
G75*
G03X81332605Y-73533000I-179605J0D01*
G01*
X85979000Y-73406000D02*
X87630000Y-73406000D01*
X87630000Y-73406000D02*
X87630000Y-69342000D01*
X87630000Y-69342000D02*
X85979000Y-69342000D01*
X82931000Y-69342000D02*
X81280000Y-69342000D01*
X81280000Y-69342000D02*
X81280000Y-73406000D01*
X81280000Y-73406000D02*
X82931000Y-73406000D01*
X94234000Y-63373000D02*
X91948000Y-63373000D01*
X91948000Y-63373000D02*
X91948000Y-62103000D01*
X91948000Y-62103000D02*
X94234000Y-62103000D01*
X94234000Y-62103000D02*
X94234000Y-63373000D01*
X94234000Y-61849000D02*
X91948000Y-61849000D01*
X91948000Y-61849000D02*
X91948000Y-60579000D01*
X91948000Y-60579000D02*
X94234000Y-60579000D01*
X94234000Y-60579000D02*
X94234000Y-61849000D01*
X93091000Y-66675000D02*
X90805000Y-66675000D01*
X90805000Y-66675000D02*
X90805000Y-65405000D01*
X90805000Y-65405000D02*
X93091000Y-65405000D01*
X93091000Y-65405000D02*
X93091000Y-66675000D01*
X90043000Y-64389000D02*
X90043000Y-62103000D01*
X90043000Y-62103000D02*
X91313000Y-62103000D01*
X91313000Y-62103000D02*
X91313000Y-64389000D01*
X91313000Y-64389000D02*
X90043000Y-64389000D01*
D23*
X72517000Y-70120000D02*
X75057000Y-70120000D01*
X72517000Y-72660000D02*
X72517000Y-52340000D01*
X72517000Y-52340000D02*
X75057000Y-52340000D01*
X75057000Y-52340000D02*
X75057000Y-72660000D01*
X75057000Y-72660000D02*
X72517000Y-72660000D01*
D17*
X77774800Y-61772800D02*
X77774800Y-64058800D01*
X77774800Y-64058800D02*
X76504800Y-64058800D01*
X76504800Y-64058800D02*
X76504800Y-61772800D01*
X76504800Y-61772800D02*
X77774800Y-61772800D01*
X76454000Y-58420000D02*
X76454000Y-56134000D01*
X76454000Y-56134000D02*
X77724000Y-56134000D01*
X77724000Y-56134000D02*
X77724000Y-58420000D01*
X77724000Y-58420000D02*
X76454000Y-58420000D01*
X78892400Y-67132200D02*
X76606400Y-67132200D01*
X76606400Y-67132200D02*
X76606400Y-65862200D01*
X76606400Y-65862200D02*
X78892400Y-65862200D01*
X78892400Y-65862200D02*
X78892400Y-67132200D01*
X78892400Y-58851800D02*
X78892400Y-61137800D01*
X78892400Y-61137800D02*
X77622400Y-61137800D01*
X77622400Y-61137800D02*
X77622400Y-58851800D01*
X77622400Y-58851800D02*
X78892400Y-58851800D01*
X93091000Y-68199000D02*
X90805000Y-68199000D01*
X90805000Y-68199000D02*
X90805000Y-66929000D01*
X90805000Y-66929000D02*
X93091000Y-66929000D01*
X93091000Y-66929000D02*
X93091000Y-68199000D01*
X95275400Y-55854600D02*
X97561400Y-55854600D01*
X97561400Y-55854600D02*
X97561400Y-57124600D01*
X97561400Y-57124600D02*
X95275400Y-57124600D01*
X95275400Y-57124600D02*
X95275400Y-55854600D01*
X91948000Y-63627000D02*
X94234000Y-63627000D01*
X94234000Y-63627000D02*
X94234000Y-64897000D01*
X94234000Y-64897000D02*
X91948000Y-64897000D01*
X91948000Y-64897000D02*
X91948000Y-63627000D01*
X94234000Y-60325000D02*
X91948000Y-60325000D01*
X91948000Y-60325000D02*
X91948000Y-59055000D01*
X91948000Y-59055000D02*
X94234000Y-59055000D01*
X94234000Y-59055000D02*
X94234000Y-60325000D01*
X95275400Y-57429400D02*
X97561400Y-57429400D01*
X97561400Y-57429400D02*
X97561400Y-58699400D01*
X97561400Y-58699400D02*
X95275400Y-58699400D01*
X95275400Y-58699400D02*
X95275400Y-57429400D01*
X118911000Y-53676000D02*
X120689000Y-53676000D01*
X120689000Y-53676000D02*
X120689000Y-56724000D01*
X120689000Y-56724000D02*
X118911000Y-56724000D01*
X118911000Y-56724000D02*
X118911000Y-53676000D01*
X69088000Y-67564000D02*
X69088000Y-67767200D01*
X67183000Y-69088000D02*
X67183000Y-64516000D01*
X67183000Y-64516000D02*
X67818000Y-64516000D01*
X70993000Y-66141600D02*
X67183000Y-66141600D01*
X70993000Y-65811400D02*
X67183000Y-65811400D01*
X70358000Y-69088000D02*
X70993000Y-69088000D01*
X70993000Y-69088000D02*
X70993000Y-64516000D01*
X70993000Y-64516000D02*
X70358000Y-64516000D01*
X67818000Y-69088000D02*
X67183000Y-69088000D01*
X69088000Y-66929000D02*
X68613020Y-67564000D01*
X68613020Y-67564000D02*
X69088000Y-67564000D01*
X69088000Y-67564000D02*
X69562980Y-67564000D01*
X69562980Y-67564000D02*
X69088000Y-66929000D01*
X69088000Y-66929000D02*
X68770500Y-66929000D01*
X68770500Y-66929000D02*
X68613020Y-67086480D01*
X69088000Y-66929000D02*
X69405500Y-66929000D01*
X69405500Y-66929000D02*
X69562980Y-66771520D01*
X69088000Y-66929000D02*
X69088000Y-65819020D01*
D23*
X36270000Y-58770000D02*
X33730000Y-58770000D01*
X33730000Y-56230000D02*
X36270000Y-56230000D01*
X33730000Y-58770000D02*
X33730000Y-56230000D01*
X36270000Y-56230000D02*
X36270000Y-58770000D01*
X36270000Y-68770000D02*
X33730000Y-68770000D01*
X33730000Y-66230000D02*
X36270000Y-66230000D01*
X33730000Y-68770000D02*
X33730000Y-66230000D01*
X36270000Y-66230000D02*
X36270000Y-68770000D01*
D17*
X143891000Y-69215000D02*
X143891000Y-71501000D01*
X143891000Y-71501000D02*
X142621000Y-71501000D01*
X142621000Y-71501000D02*
X142621000Y-69215000D01*
X142621000Y-69215000D02*
X143891000Y-69215000D01*
X127050800Y-53467000D02*
X125425200Y-53467000D01*
X125425200Y-56210200D02*
X127050800Y-56210200D01*
X127050800Y-56210200D02*
X127050800Y-53009800D01*
X127050800Y-53009800D02*
X125425200Y-53009800D01*
X125425200Y-53009800D02*
X125425200Y-56210200D01*
X140335000Y-71932800D02*
X140335000Y-70307200D01*
X137591800Y-70307200D02*
X137591800Y-71932800D01*
X137591800Y-71932800D02*
X140792200Y-71932800D01*
X140792200Y-71932800D02*
X140792200Y-70307200D01*
X140792200Y-70307200D02*
X137591800Y-70307200D01*
D24*
X163993000Y-58108000D02*
X164493000Y-58108000D01*
D15*
X163743000Y-57858000D02*
X164743000Y-57858000D01*
X164743000Y-57858000D02*
X164743000Y-58358000D01*
X164743000Y-58358000D02*
X163743000Y-58358000D01*
X163743000Y-58358000D02*
X163743000Y-57858000D01*
X162743000Y-57108000D02*
X169743000Y-57108000D01*
X169743000Y-57108000D02*
X169743000Y-59108000D01*
X169743000Y-59108000D02*
X162743000Y-59108000D01*
X162743000Y-59108000D02*
X162743000Y-57108000D01*
D19*
X114254280Y-54345840D02*
X113929160Y-54345840D01*
X113929160Y-54345840D02*
X113929160Y-54846220D01*
X114254280Y-54846220D02*
X113929160Y-54846220D01*
X114254280Y-54345840D02*
X114254280Y-54846220D01*
X114876580Y-54345840D02*
X114726720Y-54345840D01*
X114726720Y-54345840D02*
X114726720Y-54597300D01*
X114876580Y-54597300D02*
X114726720Y-54597300D01*
X114876580Y-54345840D02*
X114876580Y-54597300D01*
X114381280Y-54345840D02*
X114231420Y-54345840D01*
X114231420Y-54345840D02*
X114231420Y-54597300D01*
X114381280Y-54597300D02*
X114231420Y-54597300D01*
X114381280Y-54345840D02*
X114381280Y-54597300D01*
X114752120Y-54345840D02*
X114355880Y-54345840D01*
X114355880Y-54345840D02*
X114355880Y-54521100D01*
X114752120Y-54521100D02*
X114355880Y-54521100D01*
X114752120Y-54345840D02*
X114752120Y-54521100D01*
X114254280Y-52849780D02*
X113929160Y-52849780D01*
X113929160Y-52849780D02*
X113929160Y-53350160D01*
X114254280Y-53350160D02*
X113929160Y-53350160D01*
X114254280Y-52849780D02*
X114254280Y-53350160D01*
X115178840Y-52849780D02*
X114853720Y-52849780D01*
X114853720Y-52849780D02*
X114853720Y-53350160D01*
X115178840Y-53350160D02*
X114853720Y-53350160D01*
X115178840Y-52849780D02*
X115178840Y-53350160D01*
X114381280Y-53098700D02*
X114231420Y-53098700D01*
X114231420Y-53098700D02*
X114231420Y-53350160D01*
X114381280Y-53350160D02*
X114231420Y-53350160D01*
X114381280Y-53098700D02*
X114381280Y-53350160D01*
X114876580Y-53098700D02*
X114726720Y-53098700D01*
X114726720Y-53098700D02*
X114726720Y-53350160D01*
X114876580Y-53350160D02*
X114726720Y-53350160D01*
X114876580Y-53098700D02*
X114876580Y-53350160D01*
X114752120Y-53174900D02*
X114355880Y-53174900D01*
X114355880Y-53174900D02*
X114355880Y-53350160D01*
X114752120Y-53350160D02*
X114355880Y-53350160D01*
X114752120Y-53174900D02*
X114752120Y-53350160D01*
X114653060Y-53848000D02*
X114454940Y-53848000D01*
X114454940Y-53848000D02*
X114454940Y-54046120D01*
X114653060Y-54046120D02*
X114454940Y-54046120D01*
X114653060Y-53848000D02*
X114653060Y-54046120D01*
X115153440Y-54345840D02*
X114853720Y-54345840D01*
X114853720Y-54345840D02*
X114853720Y-54645560D01*
X115153440Y-54645560D02*
X114853720Y-54645560D01*
X115153440Y-54345840D02*
X115153440Y-54645560D01*
X115178840Y-54772560D02*
X114952780Y-54772560D01*
X114952780Y-54772560D02*
X114952780Y-54846220D01*
X115178840Y-54846220D02*
X114952780Y-54846220D01*
X115178840Y-54772560D02*
X115178840Y-54846220D01*
D20*
X113979960Y-54371240D02*
X113979960Y-53324760D01*
X115128040Y-53350160D02*
X115128040Y-54772560D01*
D21*
X115075422Y-54696360D02*
G75*
G03X115075422Y-54696360I-71842J0D01*
G01*
D20*
X114901980Y-54846220D02*
G75*
G03X114206020Y-54846220I-347980J0D01*
G01*
X114206020Y-52849780D02*
G75*
G03X114901980Y-52849780I347980J0D01*
G01*
D19*
X134828280Y-54345840D02*
X134503160Y-54345840D01*
X134503160Y-54345840D02*
X134503160Y-54846220D01*
X134828280Y-54846220D02*
X134503160Y-54846220D01*
X134828280Y-54345840D02*
X134828280Y-54846220D01*
X135450580Y-54345840D02*
X135300720Y-54345840D01*
X135300720Y-54345840D02*
X135300720Y-54597300D01*
X135450580Y-54597300D02*
X135300720Y-54597300D01*
X135450580Y-54345840D02*
X135450580Y-54597300D01*
X134955280Y-54345840D02*
X134805420Y-54345840D01*
X134805420Y-54345840D02*
X134805420Y-54597300D01*
X134955280Y-54597300D02*
X134805420Y-54597300D01*
X134955280Y-54345840D02*
X134955280Y-54597300D01*
X135326120Y-54345840D02*
X134929880Y-54345840D01*
X134929880Y-54345840D02*
X134929880Y-54521100D01*
X135326120Y-54521100D02*
X134929880Y-54521100D01*
X135326120Y-54345840D02*
X135326120Y-54521100D01*
X134828280Y-52849780D02*
X134503160Y-52849780D01*
X134503160Y-52849780D02*
X134503160Y-53350160D01*
X134828280Y-53350160D02*
X134503160Y-53350160D01*
X134828280Y-52849780D02*
X134828280Y-53350160D01*
X135752840Y-52849780D02*
X135427720Y-52849780D01*
X135427720Y-52849780D02*
X135427720Y-53350160D01*
X135752840Y-53350160D02*
X135427720Y-53350160D01*
X135752840Y-52849780D02*
X135752840Y-53350160D01*
X134955280Y-53098700D02*
X134805420Y-53098700D01*
X134805420Y-53098700D02*
X134805420Y-53350160D01*
X134955280Y-53350160D02*
X134805420Y-53350160D01*
X134955280Y-53098700D02*
X134955280Y-53350160D01*
X135450580Y-53098700D02*
X135300720Y-53098700D01*
X135300720Y-53098700D02*
X135300720Y-53350160D01*
X135450580Y-53350160D02*
X135300720Y-53350160D01*
X135450580Y-53098700D02*
X135450580Y-53350160D01*
X135326120Y-53174900D02*
X134929880Y-53174900D01*
X134929880Y-53174900D02*
X134929880Y-53350160D01*
X135326120Y-53350160D02*
X134929880Y-53350160D01*
X135326120Y-53174900D02*
X135326120Y-53350160D01*
X135227060Y-53848000D02*
X135028940Y-53848000D01*
X135028940Y-53848000D02*
X135028940Y-54046120D01*
X135227060Y-54046120D02*
X135028940Y-54046120D01*
X135227060Y-53848000D02*
X135227060Y-54046120D01*
X135727440Y-54345840D02*
X135427720Y-54345840D01*
X135427720Y-54345840D02*
X135427720Y-54645560D01*
X135727440Y-54645560D02*
X135427720Y-54645560D01*
X135727440Y-54345840D02*
X135727440Y-54645560D01*
X135752840Y-54772560D02*
X135526780Y-54772560D01*
X135526780Y-54772560D02*
X135526780Y-54846220D01*
X135752840Y-54846220D02*
X135526780Y-54846220D01*
X135752840Y-54772560D02*
X135752840Y-54846220D01*
D20*
X134553960Y-54371240D02*
X134553960Y-53324760D01*
X135702040Y-53350160D02*
X135702040Y-54772560D01*
D21*
X135649422Y-54696360D02*
G75*
G03X135649422Y-54696360I-71842J0D01*
G01*
D20*
X135475980Y-54846220D02*
G75*
G03X134780020Y-54846220I-347980J0D01*
G01*
X134780020Y-52849780D02*
G75*
G03X135475980Y-52849780I347980J0D01*
G01*
D19*
X132034280Y-54345840D02*
X131709160Y-54345840D01*
X131709160Y-54345840D02*
X131709160Y-54846220D01*
X132034280Y-54846220D02*
X131709160Y-54846220D01*
X132034280Y-54345840D02*
X132034280Y-54846220D01*
X132656580Y-54345840D02*
X132506720Y-54345840D01*
X132506720Y-54345840D02*
X132506720Y-54597300D01*
X132656580Y-54597300D02*
X132506720Y-54597300D01*
X132656580Y-54345840D02*
X132656580Y-54597300D01*
X132161280Y-54345840D02*
X132011420Y-54345840D01*
X132011420Y-54345840D02*
X132011420Y-54597300D01*
X132161280Y-54597300D02*
X132011420Y-54597300D01*
X132161280Y-54345840D02*
X132161280Y-54597300D01*
X132532120Y-54345840D02*
X132135880Y-54345840D01*
X132135880Y-54345840D02*
X132135880Y-54521100D01*
X132532120Y-54521100D02*
X132135880Y-54521100D01*
X132532120Y-54345840D02*
X132532120Y-54521100D01*
X132034280Y-52849780D02*
X131709160Y-52849780D01*
X131709160Y-52849780D02*
X131709160Y-53350160D01*
X132034280Y-53350160D02*
X131709160Y-53350160D01*
X132034280Y-52849780D02*
X132034280Y-53350160D01*
X132958840Y-52849780D02*
X132633720Y-52849780D01*
X132633720Y-52849780D02*
X132633720Y-53350160D01*
X132958840Y-53350160D02*
X132633720Y-53350160D01*
X132958840Y-52849780D02*
X132958840Y-53350160D01*
X132161280Y-53098700D02*
X132011420Y-53098700D01*
X132011420Y-53098700D02*
X132011420Y-53350160D01*
X132161280Y-53350160D02*
X132011420Y-53350160D01*
X132161280Y-53098700D02*
X132161280Y-53350160D01*
X132656580Y-53098700D02*
X132506720Y-53098700D01*
X132506720Y-53098700D02*
X132506720Y-53350160D01*
X132656580Y-53350160D02*
X132506720Y-53350160D01*
X132656580Y-53098700D02*
X132656580Y-53350160D01*
X132532120Y-53174900D02*
X132135880Y-53174900D01*
X132135880Y-53174900D02*
X132135880Y-53350160D01*
X132532120Y-53350160D02*
X132135880Y-53350160D01*
X132532120Y-53174900D02*
X132532120Y-53350160D01*
X132433060Y-53848000D02*
X132234940Y-53848000D01*
X132234940Y-53848000D02*
X132234940Y-54046120D01*
X132433060Y-54046120D02*
X132234940Y-54046120D01*
X132433060Y-53848000D02*
X132433060Y-54046120D01*
X132933440Y-54345840D02*
X132633720Y-54345840D01*
X132633720Y-54345840D02*
X132633720Y-54645560D01*
X132933440Y-54645560D02*
X132633720Y-54645560D01*
X132933440Y-54345840D02*
X132933440Y-54645560D01*
X132958840Y-54772560D02*
X132732780Y-54772560D01*
X132732780Y-54772560D02*
X132732780Y-54846220D01*
X132958840Y-54846220D02*
X132732780Y-54846220D01*
X132958840Y-54772560D02*
X132958840Y-54846220D01*
D20*
X131759960Y-54371240D02*
X131759960Y-53324760D01*
X132908040Y-53350160D02*
X132908040Y-54772560D01*
D21*
X132855422Y-54696360D02*
G75*
G03X132855422Y-54696360I-71842J0D01*
G01*
D20*
X132681980Y-54846220D02*
G75*
G03X131986020Y-54846220I-347980J0D01*
G01*
X131986020Y-52849780D02*
G75*
G03X132681980Y-52849780I347980J0D01*
G01*
D17*
X109855000Y-53975000D02*
X112141000Y-53975000D01*
X112141000Y-53975000D02*
X112141000Y-55245000D01*
X112141000Y-55245000D02*
X109855000Y-55245000D01*
X109855000Y-55245000D02*
X109855000Y-53975000D01*
X122557000Y-53765000D02*
X124843000Y-53765000D01*
X124843000Y-53765000D02*
X124843000Y-55035000D01*
X124843000Y-55035000D02*
X122557000Y-55035000D01*
X122557000Y-55035000D02*
X122557000Y-53765000D01*
X115965000Y-56343000D02*
X115965000Y-54057000D01*
X115965000Y-54057000D02*
X117235000Y-54057000D01*
X117235000Y-54057000D02*
X117235000Y-56343000D01*
X117235000Y-56343000D02*
X115965000Y-56343000D01*
X127889000Y-52451000D02*
X130175000Y-52451000D01*
X130175000Y-52451000D02*
X130175000Y-53721000D01*
X130175000Y-53721000D02*
X127889000Y-53721000D01*
X127889000Y-53721000D02*
X127889000Y-52451000D01*
X127889000Y-53975000D02*
X130175000Y-53975000D01*
X130175000Y-53975000D02*
X130175000Y-55245000D01*
X130175000Y-55245000D02*
X127889000Y-55245000D01*
X127889000Y-55245000D02*
X127889000Y-53975000D01*
D23*
X130303800Y-69203800D02*
X120296200Y-69203800D01*
X120296200Y-69203800D02*
X120296200Y-59196200D01*
X129821200Y-59196200D02*
X120296200Y-59196200D01*
X130303800Y-59678800D02*
X130303800Y-69203800D01*
X129821200Y-59196200D02*
X130303800Y-59678800D01*
D16*
X129745000Y-60390000D02*
G75*
G03X129745000Y-60390000I-635000J0D01*
G01*
D17*
X134239000Y-67437000D02*
X136525000Y-67437000D01*
X136525000Y-67437000D02*
X136525000Y-68707000D01*
X136525000Y-68707000D02*
X134239000Y-68707000D01*
X134239000Y-68707000D02*
X134239000Y-67437000D01*
D23*
X124410000Y-74770000D02*
X124410000Y-72230000D01*
X114250000Y-72230000D02*
X126950000Y-72230000D01*
X126950000Y-74770000D02*
X114250000Y-74770000D01*
X126950000Y-72230000D02*
X126950000Y-74770000D01*
X114250000Y-74770000D02*
X114250000Y-72230000D01*
D17*
X54610000Y-68453000D02*
X56134000Y-68453000D01*
X56515000Y-68326000D02*
X54229000Y-68326000D01*
X53975000Y-68199000D02*
X56769000Y-68199000D01*
X57023000Y-68072000D02*
X53721000Y-68072000D01*
X53594000Y-67945000D02*
X57150000Y-67945000D01*
X58420000Y-65532000D02*
G75*
G03X58420000Y-65532000I-3048000J0D01*
G01*
X52070000Y-68834000D02*
X58674000Y-68834000D01*
X58674000Y-68834000D02*
X58674000Y-62992000D01*
X58674000Y-62992000D02*
X57912000Y-62230000D01*
X57912000Y-62230000D02*
X52832000Y-62230000D01*
X52832000Y-62230000D02*
X52070000Y-62992000D01*
X52070000Y-62992000D02*
X52070000Y-68834000D01*
X55372000Y-63373000D02*
X55372000Y-64135000D01*
X54991000Y-63754000D02*
X55753000Y-63754000D01*
X68326000Y-55753000D02*
X66802000Y-55753000D01*
X66421000Y-55880000D02*
X68707000Y-55880000D01*
X68961000Y-56007000D02*
X66167000Y-56007000D01*
X65913000Y-56134000D02*
X69215000Y-56134000D01*
X69342000Y-56261000D02*
X65786000Y-56261000D01*
X70612000Y-58674000D02*
G75*
G03X70612000Y-58674000I-3048000J0D01*
G01*
X70866000Y-55372000D02*
X64262000Y-55372000D01*
X64262000Y-55372000D02*
X64262000Y-61214000D01*
X64262000Y-61214000D02*
X65024000Y-61976000D01*
X65024000Y-61976000D02*
X70104000Y-61976000D01*
X70104000Y-61976000D02*
X70866000Y-61214000D01*
X70866000Y-61214000D02*
X70866000Y-55372000D01*
X67564000Y-60833000D02*
X67564000Y-60071000D01*
X67945000Y-60452000D02*
X67183000Y-60452000D01*
X60452000Y-55753000D02*
X58928000Y-55753000D01*
X58547000Y-55880000D02*
X60833000Y-55880000D01*
X61087000Y-56007000D02*
X58293000Y-56007000D01*
X58039000Y-56134000D02*
X61341000Y-56134000D01*
X61468000Y-56261000D02*
X57912000Y-56261000D01*
X62738000Y-58674000D02*
G75*
G03X62738000Y-58674000I-3048000J0D01*
G01*
X62992000Y-55372000D02*
X56388000Y-55372000D01*
X56388000Y-55372000D02*
X56388000Y-61214000D01*
X56388000Y-61214000D02*
X57150000Y-61976000D01*
X57150000Y-61976000D02*
X62230000Y-61976000D01*
X62230000Y-61976000D02*
X62992000Y-61214000D01*
X62992000Y-61214000D02*
X62992000Y-55372000D01*
X59690000Y-60833000D02*
X59690000Y-60071000D01*
X60071000Y-60452000D02*
X59309000Y-60452000D01*
X62484000Y-68453000D02*
X64008000Y-68453000D01*
X64389000Y-68326000D02*
X62103000Y-68326000D01*
X61849000Y-68199000D02*
X64643000Y-68199000D01*
X64897000Y-68072000D02*
X61595000Y-68072000D01*
X61468000Y-67945000D02*
X65024000Y-67945000D01*
X66294000Y-65532000D02*
G75*
G03X66294000Y-65532000I-3048000J0D01*
G01*
X59944000Y-68834000D02*
X66548000Y-68834000D01*
X66548000Y-68834000D02*
X66548000Y-62992000D01*
X66548000Y-62992000D02*
X65786000Y-62230000D01*
X65786000Y-62230000D02*
X60706000Y-62230000D01*
X60706000Y-62230000D02*
X59944000Y-62992000D01*
X59944000Y-62992000D02*
X59944000Y-68834000D01*
X63246000Y-63373000D02*
X63246000Y-64135000D01*
X62865000Y-63754000D02*
X63627000Y-63754000D01*
X44805600Y-68503800D02*
X45618400Y-68503800D01*
X45593000Y-67386200D02*
X44805600Y-67386200D01*
X45618400Y-67132200D02*
X45618400Y-68757800D01*
X45618400Y-68757800D02*
X44805600Y-68757800D01*
X44805600Y-68757800D02*
X44805600Y-67132200D01*
X44805600Y-67132200D02*
X45618400Y-67132200D01*
X44069000Y-58674000D02*
X43307000Y-58674000D01*
X43688000Y-58293000D02*
X43688000Y-59055000D01*
X43942000Y-60960000D02*
X40132000Y-60960000D01*
X44704000Y-57150000D02*
X44704000Y-60198000D01*
X43942000Y-60960000D02*
X44704000Y-60198000D01*
X43942000Y-56388000D02*
X40132000Y-56388000D01*
X43942000Y-56388000D02*
X44704000Y-57150000D01*
X40386000Y-58801000D02*
X40386000Y-58547000D01*
X40513000Y-58039000D02*
X40513000Y-59309000D01*
X40640000Y-59563000D02*
X40640000Y-57785000D01*
X40767000Y-59817000D02*
X40767000Y-57531000D01*
X40894000Y-57404000D02*
X40894000Y-59944000D01*
X41021000Y-60071000D02*
X41021000Y-57277000D01*
X41148000Y-57150000D02*
X41148000Y-60198000D01*
X41275000Y-57023000D02*
X41275000Y-60325000D01*
X44450000Y-58674000D02*
G75*
G03X44450000Y-58674000I-2032000J0D01*
G01*
X40132000Y-56388000D02*
X40132000Y-60960000D01*
X46101000Y-66090800D02*
X46101000Y-70053200D01*
X46101000Y-70053200D02*
X50927000Y-70053200D01*
X50927000Y-70053200D02*
X50927000Y-66090800D01*
X50927000Y-66090800D02*
X46101000Y-66090800D01*
X46609000Y-66090800D02*
X46609000Y-64998600D01*
X47879000Y-66090800D02*
X47879000Y-64998600D01*
X49149000Y-66090800D02*
X49149000Y-64998600D01*
X50419000Y-64998600D02*
X50419000Y-66090800D01*
X50419000Y-70053200D02*
X50419000Y-71145400D01*
X49149000Y-71145400D02*
X49149000Y-70053200D01*
X47879000Y-71145400D02*
X47879000Y-70053200D01*
X46609000Y-71145400D02*
X46609000Y-70053200D01*
X47310067Y-69316600D02*
G75*
G03X47310067Y-69316600I-472467J0D01*
G01*
X49276000Y-61722000D02*
X49479200Y-61722000D01*
X50800000Y-63627000D02*
X46228000Y-63627000D01*
X46228000Y-63627000D02*
X46228000Y-62992000D01*
X47853600Y-59817000D02*
X47853600Y-63627000D01*
X47523400Y-59817000D02*
X47523400Y-63627000D01*
X50800000Y-60452000D02*
X50800000Y-59817000D01*
X50800000Y-59817000D02*
X46228000Y-59817000D01*
X46228000Y-59817000D02*
X46228000Y-60452000D01*
X50800000Y-62992000D02*
X50800000Y-63627000D01*
X48641000Y-61722000D02*
X49276000Y-62196980D01*
X49276000Y-62196980D02*
X49276000Y-61722000D01*
X49276000Y-61722000D02*
X49276000Y-61247020D01*
X49276000Y-61247020D02*
X48641000Y-61722000D01*
X48641000Y-61722000D02*
X48641000Y-62039500D01*
X48641000Y-62039500D02*
X48798480Y-62196980D01*
X48641000Y-61722000D02*
X48641000Y-61404500D01*
X48641000Y-61404500D02*
X48483520Y-61247020D01*
X48641000Y-61722000D02*
X47531020Y-61722000D01*
X44069000Y-53594000D02*
X43307000Y-53594000D01*
X43688000Y-53213000D02*
X43688000Y-53975000D01*
X43942000Y-55880000D02*
X40132000Y-55880000D01*
X44704000Y-52070000D02*
X44704000Y-55118000D01*
X43942000Y-55880000D02*
X44704000Y-55118000D01*
X43942000Y-51308000D02*
X40132000Y-51308000D01*
X43942000Y-51308000D02*
X44704000Y-52070000D01*
X40386000Y-53721000D02*
X40386000Y-53467000D01*
X40513000Y-52959000D02*
X40513000Y-54229000D01*
X40640000Y-54483000D02*
X40640000Y-52705000D01*
X40767000Y-54737000D02*
X40767000Y-52451000D01*
X40894000Y-52324000D02*
X40894000Y-54864000D01*
X41021000Y-54991000D02*
X41021000Y-52197000D01*
X41148000Y-52070000D02*
X41148000Y-55118000D01*
X41275000Y-51943000D02*
X41275000Y-55245000D01*
X44450000Y-53594000D02*
G75*
G03X44450000Y-53594000I-2032000J0D01*
G01*
X40132000Y-51308000D02*
X40132000Y-55880000D01*
X53721000Y-73533000D02*
X51435000Y-73533000D01*
X51435000Y-73533000D02*
X51435000Y-72263000D01*
X51435000Y-72263000D02*
X53721000Y-72263000D01*
X53721000Y-72263000D02*
X53721000Y-73533000D01*
X50927000Y-73533000D02*
X48641000Y-73533000D01*
X48641000Y-73533000D02*
X48641000Y-72263000D01*
X48641000Y-72263000D02*
X50927000Y-72263000D01*
X50927000Y-72263000D02*
X50927000Y-73533000D01*
X132207000Y-63652400D02*
X132207000Y-61366400D01*
X132207000Y-61366400D02*
X133477000Y-61366400D01*
X133477000Y-61366400D02*
X133477000Y-63652400D01*
X133477000Y-63652400D02*
X132207000Y-63652400D01*
D14*
X42054780Y-72285860D02*
X42415460Y-73756520D01*
X42415460Y-73756520D02*
X42694860Y-72694800D01*
X42694860Y-72694800D02*
X43004740Y-73766680D01*
X43004740Y-73766680D02*
X43345100Y-72316340D01*
X40634920Y-72976740D02*
X41424860Y-72966580D01*
X41424860Y-72966580D02*
X41435020Y-72976740D01*
X41435020Y-72976740D02*
X41435020Y-72966580D01*
X41475660Y-72255380D02*
X41475660Y-73797160D01*
X40586660Y-72245220D02*
X40586660Y-73814940D01*
X40586660Y-73814940D02*
X40596820Y-73804780D01*
X40035480Y-72346820D02*
X39684960Y-72265540D01*
X39684960Y-72265540D02*
X39364920Y-72255380D01*
X39364920Y-72255380D02*
X39126160Y-72456040D01*
X39126160Y-72456040D02*
X39095680Y-72725280D01*
X39095680Y-72725280D02*
X39336980Y-72966580D01*
X39336980Y-72966580D02*
X39725600Y-73096120D01*
X39725600Y-73096120D02*
X39905940Y-73256140D01*
X39905940Y-73256140D02*
X39946580Y-73555860D01*
X39946580Y-73555860D02*
X39715440Y-73776840D01*
X39715440Y-73776840D02*
X39395400Y-73804780D01*
X39395400Y-73804780D02*
X39044880Y-73695560D01*
X38006020Y-72245220D02*
X37757100Y-72265540D01*
X37757100Y-72265540D02*
X37515800Y-72506840D01*
X37515800Y-72506840D02*
X37426900Y-72997060D01*
X37426900Y-72997060D02*
X37454840Y-73345040D01*
X37454840Y-73345040D02*
X37655500Y-73665080D01*
X37655500Y-73665080D02*
X37906960Y-73787000D01*
X37906960Y-73787000D02*
X38216840Y-73715880D01*
X38216840Y-73715880D02*
X38435280Y-73535540D01*
X38435280Y-73535540D02*
X38506400Y-73075800D01*
X38506400Y-73075800D02*
X38455600Y-72666860D01*
X38455600Y-72666860D02*
X38346380Y-72384920D01*
X38346380Y-72384920D02*
X37985700Y-72255380D01*
X38605460Y-70525640D02*
X38346380Y-71086980D01*
X38346380Y-71086980D02*
X38884860Y-71605140D01*
X38884860Y-71605140D02*
X39405560Y-71335900D01*
X39405560Y-71335900D02*
X39684960Y-71495920D01*
X41125140Y-71475600D02*
X41455340Y-71285100D01*
X41455340Y-71285100D02*
X41894760Y-71615300D01*
X41894760Y-71615300D02*
X42367200Y-71125080D01*
X42367200Y-71125080D02*
X42085260Y-70645020D01*
X42085260Y-70645020D02*
X42275760Y-70175120D01*
X42275760Y-70175120D02*
X42885360Y-69987160D01*
X42885360Y-69987160D02*
X42885360Y-69306440D01*
X42885360Y-69306440D02*
X42326560Y-69166740D01*
X42326560Y-69166740D02*
X42125900Y-68595240D01*
X42125900Y-68595240D02*
X42395140Y-68125340D01*
X42395140Y-68125340D02*
X41925240Y-67614800D01*
X41925240Y-67614800D02*
X41407080Y-67876420D01*
X41407080Y-67876420D02*
X40937180Y-67675760D01*
X40937180Y-67675760D02*
X40767000Y-67134740D01*
X40767000Y-67134740D02*
X40076120Y-67116960D01*
X40076120Y-67116960D02*
X39865300Y-67665600D01*
X39865300Y-67665600D02*
X39446200Y-67835780D01*
X39446200Y-67835780D02*
X38895020Y-67566540D01*
X38895020Y-67566540D02*
X38376860Y-68094860D01*
X38376860Y-68094860D02*
X38625780Y-68635880D01*
X38625780Y-68635880D02*
X38455600Y-69115940D01*
X38455600Y-69115940D02*
X37906960Y-69215000D01*
X37906960Y-69215000D02*
X37896800Y-69916040D01*
X37896800Y-69916040D02*
X38455600Y-70116700D01*
X38455600Y-70116700D02*
X38595300Y-70515480D01*
X40736520Y-70495160D02*
X41036240Y-70345300D01*
X41036240Y-70345300D02*
X41236900Y-70147180D01*
X41236900Y-70147180D02*
X41386760Y-69745860D01*
X41386760Y-69745860D02*
X41386760Y-69347080D01*
X41386760Y-69347080D02*
X41236900Y-68996560D01*
X41236900Y-68996560D02*
X40784780Y-68646040D01*
X40784780Y-68646040D02*
X40335200Y-68595240D01*
X40335200Y-68595240D02*
X39936420Y-68696840D01*
X39936420Y-68696840D02*
X39535100Y-69044820D01*
X39535100Y-69044820D02*
X39385240Y-69496940D01*
X39385240Y-69496940D02*
X39436040Y-69994780D01*
X39436040Y-69994780D02*
X39684960Y-70297040D01*
X39684960Y-70297040D02*
X40035480Y-70495160D01*
X40035480Y-70495160D02*
X39684960Y-71495920D01*
X40736520Y-70495160D02*
X41135300Y-71495920D01*
D13*
X56490205Y-54233233D02*
X56490205Y-54608186D01*
X55702805Y-54608186D01*
X55702805Y-54045757D02*
X55702805Y-53558319D01*
X56002767Y-53820786D01*
X56002767Y-53708300D01*
X56040262Y-53633310D01*
X56077757Y-53595814D01*
X56152748Y-53558319D01*
X56340224Y-53558319D01*
X56415214Y-53595814D01*
X56452710Y-53633310D01*
X56490205Y-53708300D01*
X56490205Y-53933272D01*
X56452710Y-54008262D01*
X56415214Y-54045757D01*
X132664805Y-68709419D02*
X133452205Y-68184486D01*
X132664805Y-68184486D02*
X133452205Y-68709419D01*
X132739795Y-67922019D02*
X132702300Y-67884524D01*
X132664805Y-67809533D01*
X132664805Y-67622057D01*
X132702300Y-67547067D01*
X132739795Y-67509571D01*
X132814786Y-67472076D01*
X132889776Y-67472076D01*
X133002262Y-67509571D01*
X133452205Y-67959514D01*
X133452205Y-67472076D01*
X137322076Y-57734805D02*
X137322076Y-58372224D01*
X137359571Y-58447214D01*
X137397067Y-58484710D01*
X137472057Y-58522205D01*
X137622038Y-58522205D01*
X137697029Y-58484710D01*
X137734524Y-58447214D01*
X137772019Y-58372224D01*
X137772019Y-57734805D01*
X138484428Y-57997271D02*
X138484428Y-58522205D01*
X138296952Y-57697310D02*
X138109476Y-58259738D01*
X138596914Y-58259738D01*
X102464205Y-53846186D02*
X102089252Y-54108653D01*
X102464205Y-54296129D02*
X101676805Y-54296129D01*
X101676805Y-53996167D01*
X101714300Y-53921176D01*
X101751795Y-53883681D01*
X101826786Y-53846186D01*
X101939271Y-53846186D01*
X102014262Y-53883681D01*
X102051757Y-53921176D01*
X102089252Y-53996167D01*
X102089252Y-54296129D01*
X102464205Y-53096281D02*
X102464205Y-53546224D01*
X102464205Y-53321253D02*
X101676805Y-53321253D01*
X101789290Y-53396243D01*
X101864281Y-53471234D01*
X101901776Y-53546224D01*
X102464205Y-52721329D02*
X102464205Y-52571348D01*
X102426710Y-52496357D01*
X102389214Y-52458862D01*
X102276729Y-52383871D01*
X102126748Y-52346376D01*
X101826786Y-52346376D01*
X101751795Y-52383871D01*
X101714300Y-52421367D01*
X101676805Y-52496357D01*
X101676805Y-52646338D01*
X101714300Y-52721329D01*
X101751795Y-52758824D01*
X101826786Y-52796319D01*
X102014262Y-52796319D01*
X102089252Y-52758824D01*
X102126748Y-52721329D01*
X102164243Y-52646338D01*
X102164243Y-52496357D01*
X102126748Y-52421367D01*
X102089252Y-52383871D01*
X102014262Y-52346376D01*
X157388076Y-72619205D02*
X157388076Y-73256624D01*
X157425571Y-73331614D01*
X157463067Y-73369110D01*
X157538057Y-73406605D01*
X157688038Y-73406605D01*
X157763029Y-73369110D01*
X157800524Y-73331614D01*
X157838019Y-73256624D01*
X157838019Y-72619205D01*
X158137981Y-72619205D02*
X158625419Y-72619205D01*
X158362952Y-72919167D01*
X158475438Y-72919167D01*
X158550428Y-72956662D01*
X158587924Y-72994157D01*
X158625419Y-73069148D01*
X158625419Y-73256624D01*
X158587924Y-73331614D01*
X158550428Y-73369110D01*
X158475438Y-73406605D01*
X158250466Y-73406605D01*
X158175476Y-73369110D01*
X158137981Y-73331614D01*
X117883214Y-67695233D02*
X117920710Y-67732728D01*
X117958205Y-67845214D01*
X117958205Y-67920204D01*
X117920710Y-68032690D01*
X117845719Y-68107681D01*
X117770729Y-68145176D01*
X117620748Y-68182671D01*
X117508262Y-68182671D01*
X117358281Y-68145176D01*
X117283290Y-68107681D01*
X117208300Y-68032690D01*
X117170805Y-67920204D01*
X117170805Y-67845214D01*
X117208300Y-67732728D01*
X117245795Y-67695233D01*
X117958205Y-66945328D02*
X117958205Y-67395271D01*
X117958205Y-67170300D02*
X117170805Y-67170300D01*
X117283290Y-67245290D01*
X117358281Y-67320281D01*
X117395776Y-67395271D01*
X123566767Y-53113214D02*
X123529272Y-53150710D01*
X123416786Y-53188205D01*
X123341796Y-53188205D01*
X123229310Y-53150710D01*
X123154319Y-53075719D01*
X123116824Y-53000729D01*
X123079329Y-52850748D01*
X123079329Y-52738262D01*
X123116824Y-52588281D01*
X123154319Y-52513290D01*
X123229310Y-52438300D01*
X123341796Y-52400805D01*
X123416786Y-52400805D01*
X123529272Y-52438300D01*
X123566767Y-52475795D01*
X123866729Y-52475795D02*
X123904224Y-52438300D01*
X123979215Y-52400805D01*
X124166691Y-52400805D01*
X124241681Y-52438300D01*
X124279177Y-52475795D01*
X124316672Y-52550786D01*
X124316672Y-52625776D01*
X124279177Y-52738262D01*
X123829234Y-53188205D01*
X124316672Y-53188205D01*
X128456267Y-74080914D02*
X128418772Y-74118410D01*
X128306286Y-74155905D01*
X128231296Y-74155905D01*
X128118810Y-74118410D01*
X128043819Y-74043419D01*
X128006324Y-73968429D01*
X127968829Y-73818448D01*
X127968829Y-73705962D01*
X128006324Y-73555981D01*
X128043819Y-73480990D01*
X128118810Y-73406000D01*
X128231296Y-73368505D01*
X128306286Y-73368505D01*
X128418772Y-73406000D01*
X128456267Y-73443495D01*
X128718734Y-73368505D02*
X129206172Y-73368505D01*
X128943705Y-73668467D01*
X129056191Y-73668467D01*
X129131181Y-73705962D01*
X129168677Y-73743457D01*
X129206172Y-73818448D01*
X129206172Y-74005924D01*
X129168677Y-74080914D01*
X129131181Y-74118410D01*
X129056191Y-74155905D01*
X128831219Y-74155905D01*
X128756229Y-74118410D01*
X128718734Y-74080914D01*
D16*
X144477619Y-67818000D02*
X143461619Y-67818000D01*
X143461619Y-67430953D01*
X143510000Y-67334191D01*
X143558381Y-67285810D01*
X143655143Y-67237429D01*
X143800286Y-67237429D01*
X143897048Y-67285810D01*
X143945429Y-67334191D01*
X143993810Y-67430953D01*
X143993810Y-67818000D01*
X144477619Y-66802000D02*
X143461619Y-66802000D01*
X143461619Y-66560095D01*
X143510000Y-66414953D01*
X143606762Y-66318191D01*
X143703524Y-66269810D01*
X143897048Y-66221429D01*
X144042190Y-66221429D01*
X144235714Y-66269810D01*
X144332476Y-66318191D01*
X144429238Y-66414953D01*
X144477619Y-66560095D01*
X144477619Y-66802000D01*
X144477619Y-65786000D02*
X143461619Y-65786000D01*
D13*
X98291348Y-57506205D02*
X98291348Y-56718805D01*
X99116243Y-57431214D02*
X99078748Y-57468710D01*
X98966262Y-57506205D01*
X98891272Y-57506205D01*
X98778786Y-57468710D01*
X98703795Y-57393719D01*
X98666300Y-57318729D01*
X98628805Y-57168748D01*
X98628805Y-57056262D01*
X98666300Y-56906281D01*
X98703795Y-56831290D01*
X98778786Y-56756300D01*
X98891272Y-56718805D01*
X98966262Y-56718805D01*
X99078748Y-56756300D01*
X99116243Y-56793795D01*
X99866148Y-57506205D02*
X99416205Y-57506205D01*
X99641176Y-57506205D02*
X99641176Y-56718805D01*
X99566186Y-56831290D01*
X99491195Y-56906281D01*
X99416205Y-56943776D01*
X109550805Y-61343419D02*
X110338205Y-60818486D01*
X109550805Y-60818486D02*
X110338205Y-61343419D01*
X110338205Y-60106076D02*
X110338205Y-60556019D01*
X110338205Y-60331048D02*
X109550805Y-60331048D01*
X109663290Y-60406038D01*
X109738281Y-60481029D01*
X109775776Y-60556019D01*
X110517214Y-66425233D02*
X110554710Y-66462728D01*
X110592205Y-66575214D01*
X110592205Y-66650204D01*
X110554710Y-66762690D01*
X110479719Y-66837681D01*
X110404729Y-66875176D01*
X110254748Y-66912671D01*
X110142262Y-66912671D01*
X109992281Y-66875176D01*
X109917290Y-66837681D01*
X109842300Y-66762690D01*
X109804805Y-66650204D01*
X109804805Y-66575214D01*
X109842300Y-66462728D01*
X109879795Y-66425233D01*
X109804805Y-65750319D02*
X109804805Y-65900300D01*
X109842300Y-65975290D01*
X109879795Y-66012785D01*
X109992281Y-66087776D01*
X110142262Y-66125271D01*
X110442224Y-66125271D01*
X110517214Y-66087776D01*
X110554710Y-66050281D01*
X110592205Y-65975290D01*
X110592205Y-65825309D01*
X110554710Y-65750319D01*
X110517214Y-65712823D01*
X110442224Y-65675328D01*
X110254748Y-65675328D01*
X110179757Y-65712823D01*
X110142262Y-65750319D01*
X110104767Y-65825309D01*
X110104767Y-65975290D01*
X110142262Y-66050281D01*
X110179757Y-66087776D01*
X110254748Y-66125271D01*
X115343214Y-59567233D02*
X115380710Y-59604728D01*
X115418205Y-59717214D01*
X115418205Y-59792204D01*
X115380710Y-59904690D01*
X115305719Y-59979681D01*
X115230729Y-60017176D01*
X115080748Y-60054671D01*
X114968262Y-60054671D01*
X114818281Y-60017176D01*
X114743290Y-59979681D01*
X114668300Y-59904690D01*
X114630805Y-59792204D01*
X114630805Y-59717214D01*
X114668300Y-59604728D01*
X114705795Y-59567233D01*
X114630805Y-59304766D02*
X114630805Y-58779833D01*
X115418205Y-59117290D01*
X115343214Y-66933233D02*
X115380710Y-66970728D01*
X115418205Y-67083214D01*
X115418205Y-67158204D01*
X115380710Y-67270690D01*
X115305719Y-67345681D01*
X115230729Y-67383176D01*
X115080748Y-67420671D01*
X114968262Y-67420671D01*
X114818281Y-67383176D01*
X114743290Y-67345681D01*
X114668300Y-67270690D01*
X114630805Y-67158204D01*
X114630805Y-67083214D01*
X114668300Y-66970728D01*
X114705795Y-66933233D01*
X114968262Y-66483290D02*
X114930767Y-66558281D01*
X114893271Y-66595776D01*
X114818281Y-66633271D01*
X114780786Y-66633271D01*
X114705795Y-66595776D01*
X114668300Y-66558281D01*
X114630805Y-66483290D01*
X114630805Y-66333309D01*
X114668300Y-66258319D01*
X114705795Y-66220823D01*
X114780786Y-66183328D01*
X114818281Y-66183328D01*
X114893271Y-66220823D01*
X114930767Y-66258319D01*
X114968262Y-66333309D01*
X114968262Y-66483290D01*
X115005757Y-66558281D01*
X115043252Y-66595776D01*
X115118243Y-66633271D01*
X115268224Y-66633271D01*
X115343214Y-66595776D01*
X115380710Y-66558281D01*
X115418205Y-66483290D01*
X115418205Y-66333309D01*
X115380710Y-66258319D01*
X115343214Y-66220823D01*
X115268224Y-66183328D01*
X115118243Y-66183328D01*
X115043252Y-66220823D01*
X115005757Y-66258319D01*
X114968262Y-66333309D01*
X107607705Y-67129176D02*
X106820305Y-67129176D01*
X106820305Y-66941700D01*
X106857800Y-66829214D01*
X106932790Y-66754223D01*
X107007781Y-66716728D01*
X107157762Y-66679233D01*
X107270248Y-66679233D01*
X107420229Y-66716728D01*
X107495219Y-66754223D01*
X107570210Y-66829214D01*
X107607705Y-66941700D01*
X107607705Y-67129176D01*
X107607705Y-65929328D02*
X107607705Y-66379271D01*
X107607705Y-66154300D02*
X106820305Y-66154300D01*
X106932790Y-66229290D01*
X107007781Y-66304281D01*
X107045276Y-66379271D01*
D25*
X108802714Y-71331667D02*
X108040714Y-71331667D01*
X108802714Y-70315667D01*
X108040714Y-70315667D01*
X108403571Y-69469000D02*
X108403571Y-68876333D01*
X108802714Y-68622333D02*
X108802714Y-69469000D01*
X108040714Y-69469000D01*
X108040714Y-68622333D01*
X108040714Y-68114333D02*
X108040714Y-67098333D01*
X108802714Y-67606333D02*
X108040714Y-67606333D01*
D13*
X105088267Y-74206705D02*
X104825800Y-73831752D01*
X104638324Y-74206705D02*
X104638324Y-73419305D01*
X104938286Y-73419305D01*
X105013277Y-73456800D01*
X105050772Y-73494295D01*
X105088267Y-73569286D01*
X105088267Y-73681771D01*
X105050772Y-73756762D01*
X105013277Y-73794257D01*
X104938286Y-73831752D01*
X104638324Y-73831752D01*
X105838172Y-74206705D02*
X105388229Y-74206705D01*
X105613200Y-74206705D02*
X105613200Y-73419305D01*
X105538210Y-73531790D01*
X105463219Y-73606781D01*
X105388229Y-73644276D01*
X108560205Y-72775233D02*
X108185252Y-73037700D01*
X108560205Y-73225176D02*
X107772805Y-73225176D01*
X107772805Y-72925214D01*
X107810300Y-72850223D01*
X107847795Y-72812728D01*
X107922786Y-72775233D01*
X108035271Y-72775233D01*
X108110262Y-72812728D01*
X108147757Y-72850223D01*
X108185252Y-72925214D01*
X108185252Y-73225176D01*
X108035271Y-72100319D02*
X108560205Y-72100319D01*
X107735310Y-72287795D02*
X108297738Y-72475271D01*
X108297738Y-71987833D01*
X108687205Y-63123233D02*
X108312252Y-63385700D01*
X108687205Y-63573176D02*
X107899805Y-63573176D01*
X107899805Y-63273214D01*
X107937300Y-63198223D01*
X107974795Y-63160728D01*
X108049786Y-63123233D01*
X108162271Y-63123233D01*
X108237262Y-63160728D01*
X108274757Y-63198223D01*
X108312252Y-63273214D01*
X108312252Y-63573176D01*
X107899805Y-62448319D02*
X107899805Y-62598300D01*
X107937300Y-62673290D01*
X107974795Y-62710785D01*
X108087281Y-62785776D01*
X108237262Y-62823271D01*
X108537224Y-62823271D01*
X108612214Y-62785776D01*
X108649710Y-62748281D01*
X108687205Y-62673290D01*
X108687205Y-62523309D01*
X108649710Y-62448319D01*
X108612214Y-62410823D01*
X108537224Y-62373328D01*
X108349748Y-62373328D01*
X108274757Y-62410823D01*
X108237262Y-62448319D01*
X108199767Y-62523309D01*
X108199767Y-62673290D01*
X108237262Y-62748281D01*
X108274757Y-62785776D01*
X108349748Y-62823271D01*
X99119267Y-74206705D02*
X98744314Y-74206705D01*
X98744314Y-73419305D01*
X99794181Y-74206705D02*
X99344238Y-74206705D01*
X99569209Y-74206705D02*
X99569209Y-73419305D01*
X99494219Y-73531790D01*
X99419228Y-73606781D01*
X99344238Y-73644276D01*
X114136714Y-69092233D02*
X114174210Y-69129728D01*
X114211705Y-69242214D01*
X114211705Y-69317204D01*
X114174210Y-69429690D01*
X114099219Y-69504681D01*
X114024229Y-69542176D01*
X113874248Y-69579671D01*
X113761762Y-69579671D01*
X113611781Y-69542176D01*
X113536790Y-69504681D01*
X113461800Y-69429690D01*
X113424305Y-69317204D01*
X113424305Y-69242214D01*
X113461800Y-69129728D01*
X113499295Y-69092233D01*
X113424305Y-68379823D02*
X113424305Y-68754776D01*
X113799257Y-68792271D01*
X113761762Y-68754776D01*
X113724267Y-68679785D01*
X113724267Y-68492309D01*
X113761762Y-68417319D01*
X113799257Y-68379823D01*
X113874248Y-68342328D01*
X114061724Y-68342328D01*
X114136714Y-68379823D01*
X114174210Y-68417319D01*
X114211705Y-68492309D01*
X114211705Y-68679785D01*
X114174210Y-68754776D01*
X114136714Y-68792271D01*
X100960767Y-74131714D02*
X100923272Y-74169210D01*
X100810786Y-74206705D01*
X100735796Y-74206705D01*
X100623310Y-74169210D01*
X100548319Y-74094219D01*
X100510824Y-74019229D01*
X100473329Y-73869248D01*
X100473329Y-73756762D01*
X100510824Y-73606781D01*
X100548319Y-73531790D01*
X100623310Y-73456800D01*
X100735796Y-73419305D01*
X100810786Y-73419305D01*
X100923272Y-73456800D01*
X100960767Y-73494295D01*
X101335719Y-74206705D02*
X101485700Y-74206705D01*
X101560691Y-74169210D01*
X101598186Y-74131714D01*
X101673177Y-74019229D01*
X101710672Y-73869248D01*
X101710672Y-73569286D01*
X101673177Y-73494295D01*
X101635681Y-73456800D01*
X101560691Y-73419305D01*
X101410710Y-73419305D01*
X101335719Y-73456800D01*
X101298224Y-73494295D01*
X101260729Y-73569286D01*
X101260729Y-73756762D01*
X101298224Y-73831752D01*
X101335719Y-73869248D01*
X101410710Y-73906743D01*
X101560691Y-73906743D01*
X101635681Y-73869248D01*
X101673177Y-73831752D01*
X101710672Y-73756762D01*
X102617814Y-74131714D02*
X102580319Y-74169210D01*
X102467833Y-74206705D01*
X102392843Y-74206705D01*
X102280357Y-74169210D01*
X102205366Y-74094219D01*
X102167871Y-74019229D01*
X102130376Y-73869248D01*
X102130376Y-73756762D01*
X102167871Y-73606781D01*
X102205366Y-73531790D01*
X102280357Y-73456800D01*
X102392843Y-73419305D01*
X102467833Y-73419305D01*
X102580319Y-73456800D01*
X102617814Y-73494295D01*
X103367719Y-74206705D02*
X102917776Y-74206705D01*
X103142747Y-74206705D02*
X103142747Y-73419305D01*
X103067757Y-73531790D01*
X102992766Y-73606781D01*
X102917776Y-73644276D01*
X103855157Y-73419305D02*
X103930148Y-73419305D01*
X104005138Y-73456800D01*
X104042633Y-73494295D01*
X104080129Y-73569286D01*
X104117624Y-73719267D01*
X104117624Y-73906743D01*
X104080129Y-74056724D01*
X104042633Y-74131714D01*
X104005138Y-74169210D01*
X103930148Y-74206705D01*
X103855157Y-74206705D01*
X103780167Y-74169210D01*
X103742671Y-74131714D01*
X103705176Y-74056724D01*
X103667681Y-73906743D01*
X103667681Y-73719267D01*
X103705176Y-73569286D01*
X103742671Y-73494295D01*
X103780167Y-73456800D01*
X103855157Y-73419305D01*
X94489814Y-74385714D02*
X94452319Y-74423210D01*
X94339833Y-74460705D01*
X94264843Y-74460705D01*
X94152357Y-74423210D01*
X94077366Y-74348219D01*
X94039871Y-74273229D01*
X94002376Y-74123248D01*
X94002376Y-74010762D01*
X94039871Y-73860781D01*
X94077366Y-73785790D01*
X94152357Y-73710800D01*
X94264843Y-73673305D01*
X94339833Y-73673305D01*
X94452319Y-73710800D01*
X94489814Y-73748295D01*
X95239719Y-74460705D02*
X94789776Y-74460705D01*
X95014747Y-74460705D02*
X95014747Y-73673305D01*
X94939757Y-73785790D01*
X94864766Y-73860781D01*
X94789776Y-73898276D01*
X95989624Y-74460705D02*
X95539681Y-74460705D01*
X95764652Y-74460705D02*
X95764652Y-73673305D01*
X95689662Y-73785790D01*
X95614671Y-73860781D01*
X95539681Y-73898276D01*
X104268814Y-69686714D02*
X104231319Y-69724210D01*
X104118833Y-69761705D01*
X104043843Y-69761705D01*
X103931357Y-69724210D01*
X103856366Y-69649219D01*
X103818871Y-69574229D01*
X103781376Y-69424248D01*
X103781376Y-69311762D01*
X103818871Y-69161781D01*
X103856366Y-69086790D01*
X103931357Y-69011800D01*
X104043843Y-68974305D01*
X104118833Y-68974305D01*
X104231319Y-69011800D01*
X104268814Y-69049295D01*
X105018719Y-69761705D02*
X104568776Y-69761705D01*
X104793747Y-69761705D02*
X104793747Y-68974305D01*
X104718757Y-69086790D01*
X104643766Y-69161781D01*
X104568776Y-69199276D01*
X105318681Y-69049295D02*
X105356176Y-69011800D01*
X105431167Y-68974305D01*
X105618643Y-68974305D01*
X105693633Y-69011800D01*
X105731129Y-69049295D01*
X105768624Y-69124286D01*
X105768624Y-69199276D01*
X105731129Y-69311762D01*
X105281186Y-69761705D01*
X105768624Y-69761705D01*
X97182214Y-70737186D02*
X97219710Y-70774681D01*
X97257205Y-70887167D01*
X97257205Y-70962157D01*
X97219710Y-71074643D01*
X97144719Y-71149634D01*
X97069729Y-71187129D01*
X96919748Y-71224624D01*
X96807262Y-71224624D01*
X96657281Y-71187129D01*
X96582290Y-71149634D01*
X96507300Y-71074643D01*
X96469805Y-70962157D01*
X96469805Y-70887167D01*
X96507300Y-70774681D01*
X96544795Y-70737186D01*
X97257205Y-69987281D02*
X97257205Y-70437224D01*
X97257205Y-70212253D02*
X96469805Y-70212253D01*
X96582290Y-70287243D01*
X96657281Y-70362234D01*
X96694776Y-70437224D01*
X96469805Y-69724814D02*
X96469805Y-69237376D01*
X96769767Y-69499843D01*
X96769767Y-69387357D01*
X96807262Y-69312367D01*
X96844757Y-69274871D01*
X96919748Y-69237376D01*
X97107224Y-69237376D01*
X97182214Y-69274871D01*
X97219710Y-69312367D01*
X97257205Y-69387357D01*
X97257205Y-69612329D01*
X97219710Y-69687319D01*
X97182214Y-69724814D01*
X96102714Y-70737186D02*
X96140210Y-70774681D01*
X96177705Y-70887167D01*
X96177705Y-70962157D01*
X96140210Y-71074643D01*
X96065219Y-71149634D01*
X95990229Y-71187129D01*
X95840248Y-71224624D01*
X95727762Y-71224624D01*
X95577781Y-71187129D01*
X95502790Y-71149634D01*
X95427800Y-71074643D01*
X95390305Y-70962157D01*
X95390305Y-70887167D01*
X95427800Y-70774681D01*
X95465295Y-70737186D01*
X96177705Y-69987281D02*
X96177705Y-70437224D01*
X96177705Y-70212253D02*
X95390305Y-70212253D01*
X95502790Y-70287243D01*
X95577781Y-70362234D01*
X95615276Y-70437224D01*
X95652771Y-69312367D02*
X96177705Y-69312367D01*
X95352810Y-69499843D02*
X95915238Y-69687319D01*
X95915238Y-69199881D01*
X97055214Y-64260186D02*
X97092710Y-64297681D01*
X97130205Y-64410167D01*
X97130205Y-64485157D01*
X97092710Y-64597643D01*
X97017719Y-64672634D01*
X96942729Y-64710129D01*
X96792748Y-64747624D01*
X96680262Y-64747624D01*
X96530281Y-64710129D01*
X96455290Y-64672634D01*
X96380300Y-64597643D01*
X96342805Y-64485157D01*
X96342805Y-64410167D01*
X96380300Y-64297681D01*
X96417795Y-64260186D01*
X97130205Y-63510281D02*
X97130205Y-63960224D01*
X97130205Y-63735253D02*
X96342805Y-63735253D01*
X96455290Y-63810243D01*
X96530281Y-63885234D01*
X96567776Y-63960224D01*
X96342805Y-62797871D02*
X96342805Y-63172824D01*
X96717757Y-63210319D01*
X96680262Y-63172824D01*
X96642767Y-63097833D01*
X96642767Y-62910357D01*
X96680262Y-62835367D01*
X96717757Y-62797871D01*
X96792748Y-62760376D01*
X96980224Y-62760376D01*
X97055214Y-62797871D01*
X97092710Y-62835367D01*
X97130205Y-62910357D01*
X97130205Y-63097833D01*
X97092710Y-63172824D01*
X97055214Y-63210319D01*
X97182214Y-60958186D02*
X97219710Y-60995681D01*
X97257205Y-61108167D01*
X97257205Y-61183157D01*
X97219710Y-61295643D01*
X97144719Y-61370634D01*
X97069729Y-61408129D01*
X96919748Y-61445624D01*
X96807262Y-61445624D01*
X96657281Y-61408129D01*
X96582290Y-61370634D01*
X96507300Y-61295643D01*
X96469805Y-61183157D01*
X96469805Y-61108167D01*
X96507300Y-60995681D01*
X96544795Y-60958186D01*
X97257205Y-60208281D02*
X97257205Y-60658224D01*
X97257205Y-60433253D02*
X96469805Y-60433253D01*
X96582290Y-60508243D01*
X96657281Y-60583234D01*
X96694776Y-60658224D01*
X96469805Y-59533367D02*
X96469805Y-59683348D01*
X96507300Y-59758338D01*
X96544795Y-59795833D01*
X96657281Y-59870824D01*
X96807262Y-59908319D01*
X97107224Y-59908319D01*
X97182214Y-59870824D01*
X97219710Y-59833329D01*
X97257205Y-59758338D01*
X97257205Y-59608357D01*
X97219710Y-59533367D01*
X97182214Y-59495871D01*
X97107224Y-59458376D01*
X96919748Y-59458376D01*
X96844757Y-59495871D01*
X96807262Y-59533367D01*
X96769767Y-59608357D01*
X96769767Y-59758338D01*
X96807262Y-59833329D01*
X96844757Y-59870824D01*
X96919748Y-59908319D01*
X94959714Y-69975186D02*
X94997210Y-70012681D01*
X95034705Y-70125167D01*
X95034705Y-70200157D01*
X94997210Y-70312643D01*
X94922219Y-70387634D01*
X94847229Y-70425129D01*
X94697248Y-70462624D01*
X94584762Y-70462624D01*
X94434781Y-70425129D01*
X94359790Y-70387634D01*
X94284800Y-70312643D01*
X94247305Y-70200157D01*
X94247305Y-70125167D01*
X94284800Y-70012681D01*
X94322295Y-69975186D01*
X95034705Y-69225281D02*
X95034705Y-69675224D01*
X95034705Y-69450253D02*
X94247305Y-69450253D01*
X94359790Y-69525243D01*
X94434781Y-69600234D01*
X94472276Y-69675224D01*
X94247305Y-68962814D02*
X94247305Y-68437881D01*
X95034705Y-68775338D01*
X93955205Y-69219233D02*
X93580252Y-69481700D01*
X93955205Y-69669176D02*
X93167805Y-69669176D01*
X93167805Y-69369214D01*
X93205300Y-69294223D01*
X93242795Y-69256728D01*
X93317786Y-69219233D01*
X93430271Y-69219233D01*
X93505262Y-69256728D01*
X93542757Y-69294223D01*
X93580252Y-69369214D01*
X93580252Y-69669176D01*
X93167805Y-68956766D02*
X93167805Y-68431833D01*
X93955205Y-68769290D01*
X79249814Y-73179214D02*
X79212319Y-73216710D01*
X79099833Y-73254205D01*
X79024843Y-73254205D01*
X78912357Y-73216710D01*
X78837366Y-73141719D01*
X78799871Y-73066729D01*
X78762376Y-72916748D01*
X78762376Y-72804262D01*
X78799871Y-72654281D01*
X78837366Y-72579290D01*
X78912357Y-72504300D01*
X79024843Y-72466805D01*
X79099833Y-72466805D01*
X79212319Y-72504300D01*
X79249814Y-72541795D01*
X79999719Y-73254205D02*
X79549776Y-73254205D01*
X79774747Y-73254205D02*
X79774747Y-72466805D01*
X79699757Y-72579290D01*
X79624766Y-72654281D01*
X79549776Y-72691776D01*
X80449662Y-72804262D02*
X80374671Y-72766767D01*
X80337176Y-72729271D01*
X80299681Y-72654281D01*
X80299681Y-72616786D01*
X80337176Y-72541795D01*
X80374671Y-72504300D01*
X80449662Y-72466805D01*
X80599643Y-72466805D01*
X80674633Y-72504300D01*
X80712129Y-72541795D01*
X80749624Y-72616786D01*
X80749624Y-72654281D01*
X80712129Y-72729271D01*
X80674633Y-72766767D01*
X80599643Y-72804262D01*
X80449662Y-72804262D01*
X80374671Y-72841757D01*
X80337176Y-72879252D01*
X80299681Y-72954243D01*
X80299681Y-73104224D01*
X80337176Y-73179214D01*
X80374671Y-73216710D01*
X80449662Y-73254205D01*
X80599643Y-73254205D01*
X80674633Y-73216710D01*
X80712129Y-73179214D01*
X80749624Y-73104224D01*
X80749624Y-72954243D01*
X80712129Y-72879252D01*
X80674633Y-72841757D01*
X80599643Y-72804262D01*
X92584814Y-57621714D02*
X92547319Y-57659210D01*
X92434833Y-57696705D01*
X92359843Y-57696705D01*
X92247357Y-57659210D01*
X92172366Y-57584219D01*
X92134871Y-57509229D01*
X92097376Y-57359248D01*
X92097376Y-57246762D01*
X92134871Y-57096781D01*
X92172366Y-57021790D01*
X92247357Y-56946800D01*
X92359843Y-56909305D01*
X92434833Y-56909305D01*
X92547319Y-56946800D01*
X92584814Y-56984295D01*
X93334719Y-57696705D02*
X92884776Y-57696705D01*
X93109747Y-57696705D02*
X93109747Y-56909305D01*
X93034757Y-57021790D01*
X92959766Y-57096781D01*
X92884776Y-57134276D01*
X93709671Y-57696705D02*
X93859652Y-57696705D01*
X93934643Y-57659210D01*
X93972138Y-57621714D01*
X94047129Y-57509229D01*
X94084624Y-57359248D01*
X94084624Y-57059286D01*
X94047129Y-56984295D01*
X94009633Y-56946800D01*
X93934643Y-56909305D01*
X93784662Y-56909305D01*
X93709671Y-56946800D01*
X93672176Y-56984295D01*
X93634681Y-57059286D01*
X93634681Y-57246762D01*
X93672176Y-57321752D01*
X93709671Y-57359248D01*
X93784662Y-57396743D01*
X93934643Y-57396743D01*
X94009633Y-57359248D01*
X94047129Y-57321752D01*
X94084624Y-57246762D01*
X92584814Y-56605714D02*
X92547319Y-56643210D01*
X92434833Y-56680705D01*
X92359843Y-56680705D01*
X92247357Y-56643210D01*
X92172366Y-56568219D01*
X92134871Y-56493229D01*
X92097376Y-56343248D01*
X92097376Y-56230762D01*
X92134871Y-56080781D01*
X92172366Y-56005790D01*
X92247357Y-55930800D01*
X92359843Y-55893305D01*
X92434833Y-55893305D01*
X92547319Y-55930800D01*
X92584814Y-55968295D01*
X92884776Y-55968295D02*
X92922271Y-55930800D01*
X92997262Y-55893305D01*
X93184738Y-55893305D01*
X93259728Y-55930800D01*
X93297224Y-55968295D01*
X93334719Y-56043286D01*
X93334719Y-56118276D01*
X93297224Y-56230762D01*
X92847281Y-56680705D01*
X93334719Y-56680705D01*
X93822157Y-55893305D02*
X93897148Y-55893305D01*
X93972138Y-55930800D01*
X94009633Y-55968295D01*
X94047129Y-56043286D01*
X94084624Y-56193267D01*
X94084624Y-56380743D01*
X94047129Y-56530724D01*
X94009633Y-56605714D01*
X93972138Y-56643210D01*
X93897148Y-56680705D01*
X93822157Y-56680705D01*
X93747167Y-56643210D01*
X93709671Y-56605714D01*
X93672176Y-56530724D01*
X93634681Y-56380743D01*
X93634681Y-56193267D01*
X93672176Y-56043286D01*
X93709671Y-55968295D01*
X93747167Y-55930800D01*
X93822157Y-55893305D01*
X91124314Y-69242214D02*
X91086819Y-69279710D01*
X90974333Y-69317205D01*
X90899343Y-69317205D01*
X90786857Y-69279710D01*
X90711866Y-69204719D01*
X90674371Y-69129729D01*
X90636876Y-68979748D01*
X90636876Y-68867262D01*
X90674371Y-68717281D01*
X90711866Y-68642290D01*
X90786857Y-68567300D01*
X90899343Y-68529805D01*
X90974333Y-68529805D01*
X91086819Y-68567300D01*
X91124314Y-68604795D01*
X91424276Y-68604795D02*
X91461771Y-68567300D01*
X91536762Y-68529805D01*
X91724238Y-68529805D01*
X91799228Y-68567300D01*
X91836724Y-68604795D01*
X91874219Y-68679786D01*
X91874219Y-68754776D01*
X91836724Y-68867262D01*
X91386781Y-69317205D01*
X91874219Y-69317205D01*
X92624124Y-69317205D02*
X92174181Y-69317205D01*
X92399152Y-69317205D02*
X92399152Y-68529805D01*
X92324162Y-68642290D01*
X92249171Y-68717281D01*
X92174181Y-68754776D01*
X91467214Y-61212186D02*
X91504710Y-61249681D01*
X91542205Y-61362167D01*
X91542205Y-61437157D01*
X91504710Y-61549643D01*
X91429719Y-61624634D01*
X91354729Y-61662129D01*
X91204748Y-61699624D01*
X91092262Y-61699624D01*
X90942281Y-61662129D01*
X90867290Y-61624634D01*
X90792300Y-61549643D01*
X90754805Y-61437157D01*
X90754805Y-61362167D01*
X90792300Y-61249681D01*
X90829795Y-61212186D01*
X90829795Y-60912224D02*
X90792300Y-60874729D01*
X90754805Y-60799738D01*
X90754805Y-60612262D01*
X90792300Y-60537272D01*
X90829795Y-60499776D01*
X90904786Y-60462281D01*
X90979776Y-60462281D01*
X91092262Y-60499776D01*
X91542205Y-60949719D01*
X91542205Y-60462281D01*
X90829795Y-60162319D02*
X90792300Y-60124824D01*
X90754805Y-60049833D01*
X90754805Y-59862357D01*
X90792300Y-59787367D01*
X90829795Y-59749871D01*
X90904786Y-59712376D01*
X90979776Y-59712376D01*
X91092262Y-59749871D01*
X91542205Y-60199814D01*
X91542205Y-59712376D01*
X78893005Y-63047033D02*
X78518052Y-63309500D01*
X78893005Y-63496976D02*
X78105605Y-63496976D01*
X78105605Y-63197014D01*
X78143100Y-63122023D01*
X78180595Y-63084528D01*
X78255586Y-63047033D01*
X78368071Y-63047033D01*
X78443062Y-63084528D01*
X78480557Y-63122023D01*
X78518052Y-63197014D01*
X78518052Y-63496976D01*
X78105605Y-62784566D02*
X78105605Y-62297128D01*
X78405567Y-62559595D01*
X78405567Y-62447109D01*
X78443062Y-62372119D01*
X78480557Y-62334623D01*
X78555548Y-62297128D01*
X78743024Y-62297128D01*
X78818014Y-62334623D01*
X78855510Y-62372119D01*
X78893005Y-62447109D01*
X78893005Y-62672081D01*
X78855510Y-62747071D01*
X78818014Y-62784566D01*
X78842205Y-57979733D02*
X78467252Y-58242200D01*
X78842205Y-58429676D02*
X78054805Y-58429676D01*
X78054805Y-58129714D01*
X78092300Y-58054723D01*
X78129795Y-58017228D01*
X78204786Y-57979733D01*
X78317271Y-57979733D01*
X78392262Y-58017228D01*
X78429757Y-58054723D01*
X78467252Y-58129714D01*
X78467252Y-58429676D01*
X78392262Y-57529790D02*
X78354767Y-57604781D01*
X78317271Y-57642276D01*
X78242281Y-57679771D01*
X78204786Y-57679771D01*
X78129795Y-57642276D01*
X78092300Y-57604781D01*
X78054805Y-57529790D01*
X78054805Y-57379809D01*
X78092300Y-57304819D01*
X78129795Y-57267323D01*
X78204786Y-57229828D01*
X78242281Y-57229828D01*
X78317271Y-57267323D01*
X78354767Y-57304819D01*
X78392262Y-57379809D01*
X78392262Y-57529790D01*
X78429757Y-57604781D01*
X78467252Y-57642276D01*
X78542243Y-57679771D01*
X78692224Y-57679771D01*
X78767214Y-57642276D01*
X78804710Y-57604781D01*
X78842205Y-57529790D01*
X78842205Y-57379809D01*
X78804710Y-57304819D01*
X78767214Y-57267323D01*
X78692224Y-57229828D01*
X78542243Y-57229828D01*
X78467252Y-57267323D01*
X78429757Y-57304819D01*
X78392262Y-57379809D01*
X77643567Y-65456405D02*
X77381100Y-65081452D01*
X77193624Y-65456405D02*
X77193624Y-64669005D01*
X77493586Y-64669005D01*
X77568577Y-64706500D01*
X77606072Y-64743995D01*
X77643567Y-64818986D01*
X77643567Y-64931471D01*
X77606072Y-65006462D01*
X77568577Y-65043957D01*
X77493586Y-65081452D01*
X77193624Y-65081452D01*
X78018519Y-65456405D02*
X78168500Y-65456405D01*
X78243491Y-65418910D01*
X78280986Y-65381414D01*
X78355977Y-65268929D01*
X78393472Y-65118948D01*
X78393472Y-64818986D01*
X78355977Y-64743995D01*
X78318481Y-64706500D01*
X78243491Y-64669005D01*
X78093510Y-64669005D01*
X78018519Y-64706500D01*
X77981024Y-64743995D01*
X77943529Y-64818986D01*
X77943529Y-65006462D01*
X77981024Y-65081452D01*
X78018519Y-65118948D01*
X78093510Y-65156443D01*
X78243491Y-65156443D01*
X78318481Y-65118948D01*
X78355977Y-65081452D01*
X78393472Y-65006462D01*
X77369005Y-60500986D02*
X76994052Y-60763453D01*
X77369005Y-60950929D02*
X76581605Y-60950929D01*
X76581605Y-60650967D01*
X76619100Y-60575976D01*
X76656595Y-60538481D01*
X76731586Y-60500986D01*
X76844071Y-60500986D01*
X76919062Y-60538481D01*
X76956557Y-60575976D01*
X76994052Y-60650967D01*
X76994052Y-60950929D01*
X77369005Y-59751081D02*
X77369005Y-60201024D01*
X77369005Y-59976053D02*
X76581605Y-59976053D01*
X76694090Y-60051043D01*
X76769081Y-60126034D01*
X76806576Y-60201024D01*
X76581605Y-59263643D02*
X76581605Y-59188652D01*
X76619100Y-59113662D01*
X76656595Y-59076167D01*
X76731586Y-59038671D01*
X76881567Y-59001176D01*
X77069043Y-59001176D01*
X77219024Y-59038671D01*
X77294014Y-59076167D01*
X77331510Y-59113662D01*
X77369005Y-59188652D01*
X77369005Y-59263643D01*
X77331510Y-59338633D01*
X77294014Y-59376129D01*
X77219024Y-59413624D01*
X77069043Y-59451119D01*
X76881567Y-59451119D01*
X76731586Y-59413624D01*
X76656595Y-59376129D01*
X76619100Y-59338633D01*
X76581605Y-59263643D01*
X91124314Y-70396705D02*
X90861847Y-70021752D01*
X90674371Y-70396705D02*
X90674371Y-69609305D01*
X90974333Y-69609305D01*
X91049324Y-69646800D01*
X91086819Y-69684295D01*
X91124314Y-69759286D01*
X91124314Y-69871771D01*
X91086819Y-69946762D01*
X91049324Y-69984257D01*
X90974333Y-70021752D01*
X90674371Y-70021752D01*
X91874219Y-70396705D02*
X91424276Y-70396705D01*
X91649247Y-70396705D02*
X91649247Y-69609305D01*
X91574257Y-69721790D01*
X91499266Y-69796781D01*
X91424276Y-69834276D01*
X92624124Y-70396705D02*
X92174181Y-70396705D01*
X92399152Y-70396705D02*
X92399152Y-69609305D01*
X92324162Y-69721790D01*
X92249171Y-69796781D01*
X92174181Y-69834276D01*
X95912214Y-54229605D02*
X95649747Y-53854652D01*
X95462271Y-54229605D02*
X95462271Y-53442205D01*
X95762233Y-53442205D01*
X95837224Y-53479700D01*
X95874719Y-53517195D01*
X95912214Y-53592186D01*
X95912214Y-53704671D01*
X95874719Y-53779662D01*
X95837224Y-53817157D01*
X95762233Y-53854652D01*
X95462271Y-53854652D01*
X96662119Y-54229605D02*
X96212176Y-54229605D01*
X96437147Y-54229605D02*
X96437147Y-53442205D01*
X96362157Y-53554690D01*
X96287166Y-53629681D01*
X96212176Y-53667176D01*
X96962081Y-53517195D02*
X96999576Y-53479700D01*
X97074567Y-53442205D01*
X97262043Y-53442205D01*
X97337033Y-53479700D01*
X97374529Y-53517195D01*
X97412024Y-53592186D01*
X97412024Y-53667176D01*
X97374529Y-53779662D01*
X96924586Y-54229605D01*
X97412024Y-54229605D01*
X92584814Y-58776205D02*
X92322347Y-58401252D01*
X92134871Y-58776205D02*
X92134871Y-57988805D01*
X92434833Y-57988805D01*
X92509824Y-58026300D01*
X92547319Y-58063795D01*
X92584814Y-58138786D01*
X92584814Y-58251271D01*
X92547319Y-58326262D01*
X92509824Y-58363757D01*
X92434833Y-58401252D01*
X92134871Y-58401252D01*
X93334719Y-58776205D02*
X92884776Y-58776205D01*
X93109747Y-58776205D02*
X93109747Y-57988805D01*
X93034757Y-58101290D01*
X92959766Y-58176281D01*
X92884776Y-58213776D01*
X93597186Y-57988805D02*
X94084624Y-57988805D01*
X93822157Y-58288767D01*
X93934643Y-58288767D01*
X94009633Y-58326262D01*
X94047129Y-58363757D01*
X94084624Y-58438748D01*
X94084624Y-58626224D01*
X94047129Y-58701214D01*
X94009633Y-58738710D01*
X93934643Y-58776205D01*
X93709671Y-58776205D01*
X93634681Y-58738710D01*
X93597186Y-58701214D01*
X92584814Y-55601205D02*
X92322347Y-55226252D01*
X92134871Y-55601205D02*
X92134871Y-54813805D01*
X92434833Y-54813805D01*
X92509824Y-54851300D01*
X92547319Y-54888795D01*
X92584814Y-54963786D01*
X92584814Y-55076271D01*
X92547319Y-55151262D01*
X92509824Y-55188757D01*
X92434833Y-55226252D01*
X92134871Y-55226252D01*
X93334719Y-55601205D02*
X92884776Y-55601205D01*
X93109747Y-55601205D02*
X93109747Y-54813805D01*
X93034757Y-54926290D01*
X92959766Y-55001281D01*
X92884776Y-55038776D01*
X94009633Y-55076271D02*
X94009633Y-55601205D01*
X93822157Y-54776310D02*
X93634681Y-55338738D01*
X94122119Y-55338738D01*
X95912214Y-55398005D02*
X95649747Y-55023052D01*
X95462271Y-55398005D02*
X95462271Y-54610605D01*
X95762233Y-54610605D01*
X95837224Y-54648100D01*
X95874719Y-54685595D01*
X95912214Y-54760586D01*
X95912214Y-54873071D01*
X95874719Y-54948062D01*
X95837224Y-54985557D01*
X95762233Y-55023052D01*
X95462271Y-55023052D01*
X96662119Y-55398005D02*
X96212176Y-55398005D01*
X96437147Y-55398005D02*
X96437147Y-54610605D01*
X96362157Y-54723090D01*
X96287166Y-54798081D01*
X96212176Y-54835576D01*
X97374529Y-54610605D02*
X96999576Y-54610605D01*
X96962081Y-54985557D01*
X96999576Y-54948062D01*
X97074567Y-54910567D01*
X97262043Y-54910567D01*
X97337033Y-54948062D01*
X97374529Y-54985557D01*
X97412024Y-55060548D01*
X97412024Y-55248024D01*
X97374529Y-55323014D01*
X97337033Y-55360510D01*
X97262043Y-55398005D01*
X97074567Y-55398005D01*
X96999576Y-55360510D01*
X96962081Y-55323014D01*
X119119348Y-57760205D02*
X119119348Y-56972805D01*
X119944243Y-57685214D02*
X119906748Y-57722710D01*
X119794262Y-57760205D01*
X119719272Y-57760205D01*
X119606786Y-57722710D01*
X119531795Y-57647719D01*
X119494300Y-57572729D01*
X119456805Y-57422748D01*
X119456805Y-57310262D01*
X119494300Y-57160281D01*
X119531795Y-57085290D01*
X119606786Y-57010300D01*
X119719272Y-56972805D01*
X119794262Y-56972805D01*
X119906748Y-57010300D01*
X119944243Y-57047795D01*
X120206710Y-56972805D02*
X120694148Y-56972805D01*
X120431681Y-57272767D01*
X120544167Y-57272767D01*
X120619157Y-57310262D01*
X120656653Y-57347757D01*
X120694148Y-57422748D01*
X120694148Y-57610224D01*
X120656653Y-57685214D01*
X120619157Y-57722710D01*
X120544167Y-57760205D01*
X120319195Y-57760205D01*
X120244205Y-57722710D01*
X120206710Y-57685214D01*
X69444205Y-71447176D02*
X68656805Y-71447176D01*
X68656805Y-71259700D01*
X68694300Y-71147214D01*
X68769290Y-71072223D01*
X68844281Y-71034728D01*
X68994262Y-70997233D01*
X69106748Y-70997233D01*
X69256729Y-71034728D01*
X69331719Y-71072223D01*
X69406710Y-71147214D01*
X69444205Y-71259700D01*
X69444205Y-71447176D01*
X68656805Y-70734766D02*
X68656805Y-70247328D01*
X68956767Y-70509795D01*
X68956767Y-70397309D01*
X68994262Y-70322319D01*
X69031757Y-70284823D01*
X69106748Y-70247328D01*
X69294224Y-70247328D01*
X69369214Y-70284823D01*
X69406710Y-70322319D01*
X69444205Y-70397309D01*
X69444205Y-70622281D01*
X69406710Y-70697271D01*
X69369214Y-70734766D01*
X143537214Y-73467686D02*
X143574710Y-73505181D01*
X143612205Y-73617667D01*
X143612205Y-73692657D01*
X143574710Y-73805143D01*
X143499719Y-73880134D01*
X143424729Y-73917629D01*
X143274748Y-73955124D01*
X143162262Y-73955124D01*
X143012281Y-73917629D01*
X142937290Y-73880134D01*
X142862300Y-73805143D01*
X142824805Y-73692657D01*
X142824805Y-73617667D01*
X142862300Y-73505181D01*
X142899795Y-73467686D01*
X142899795Y-73167724D02*
X142862300Y-73130229D01*
X142824805Y-73055238D01*
X142824805Y-72867762D01*
X142862300Y-72792772D01*
X142899795Y-72755276D01*
X142974786Y-72717781D01*
X143049776Y-72717781D01*
X143162262Y-72755276D01*
X143612205Y-73205219D01*
X143612205Y-72717781D01*
X142824805Y-72005371D02*
X142824805Y-72380324D01*
X143199757Y-72417819D01*
X143162262Y-72380324D01*
X143124767Y-72305333D01*
X143124767Y-72117857D01*
X143162262Y-72042867D01*
X143199757Y-72005371D01*
X143274748Y-71967876D01*
X143462224Y-71967876D01*
X143537214Y-72005371D01*
X143574710Y-72042867D01*
X143612205Y-72117857D01*
X143612205Y-72305333D01*
X143574710Y-72380324D01*
X143537214Y-72417819D01*
X125731814Y-51843214D02*
X125694319Y-51880710D01*
X125581833Y-51918205D01*
X125506843Y-51918205D01*
X125394357Y-51880710D01*
X125319366Y-51805719D01*
X125281871Y-51730729D01*
X125244376Y-51580748D01*
X125244376Y-51468262D01*
X125281871Y-51318281D01*
X125319366Y-51243290D01*
X125394357Y-51168300D01*
X125506843Y-51130805D01*
X125581833Y-51130805D01*
X125694319Y-51168300D01*
X125731814Y-51205795D01*
X126031776Y-51205795D02*
X126069271Y-51168300D01*
X126144262Y-51130805D01*
X126331738Y-51130805D01*
X126406728Y-51168300D01*
X126444224Y-51205795D01*
X126481719Y-51280786D01*
X126481719Y-51355776D01*
X126444224Y-51468262D01*
X125994281Y-51918205D01*
X126481719Y-51918205D01*
X127156633Y-51130805D02*
X127006652Y-51130805D01*
X126931662Y-51168300D01*
X126894167Y-51205795D01*
X126819176Y-51318281D01*
X126781681Y-51468262D01*
X126781681Y-51768224D01*
X126819176Y-51843214D01*
X126856671Y-51880710D01*
X126931662Y-51918205D01*
X127081643Y-51918205D01*
X127156633Y-51880710D01*
X127194129Y-51843214D01*
X127231624Y-51768224D01*
X127231624Y-51580748D01*
X127194129Y-51505757D01*
X127156633Y-51468262D01*
X127081643Y-51430767D01*
X126931662Y-51430767D01*
X126856671Y-51468262D01*
X126819176Y-51505757D01*
X126781681Y-51580748D01*
X138609614Y-73052214D02*
X138572119Y-73089710D01*
X138459633Y-73127205D01*
X138384643Y-73127205D01*
X138272157Y-73089710D01*
X138197166Y-73014719D01*
X138159671Y-72939729D01*
X138122176Y-72789748D01*
X138122176Y-72677262D01*
X138159671Y-72527281D01*
X138197166Y-72452290D01*
X138272157Y-72377300D01*
X138384643Y-72339805D01*
X138459633Y-72339805D01*
X138572119Y-72377300D01*
X138609614Y-72414795D01*
X138872081Y-72339805D02*
X139359519Y-72339805D01*
X139097052Y-72639767D01*
X139209538Y-72639767D01*
X139284528Y-72677262D01*
X139322024Y-72714757D01*
X139359519Y-72789748D01*
X139359519Y-72977224D01*
X139322024Y-73052214D01*
X139284528Y-73089710D01*
X139209538Y-73127205D01*
X138984566Y-73127205D01*
X138909576Y-73089710D01*
X138872081Y-73052214D01*
X139621986Y-72339805D02*
X140109424Y-72339805D01*
X139846957Y-72639767D01*
X139959443Y-72639767D01*
X140034433Y-72677262D01*
X140071929Y-72714757D01*
X140109424Y-72789748D01*
X140109424Y-72977224D01*
X140071929Y-73052214D01*
X140034433Y-73089710D01*
X139959443Y-73127205D01*
X139734471Y-73127205D01*
X139659481Y-73089710D01*
X139621986Y-73052214D01*
X163824558Y-60779233D02*
X164199510Y-60779233D01*
X163749567Y-61004205D02*
X164012034Y-60216805D01*
X164274501Y-61004205D01*
X164536967Y-61004205D02*
X164536967Y-60216805D01*
X164986910Y-61004205D01*
X164986910Y-60216805D01*
X165249376Y-60216805D02*
X165699319Y-60216805D01*
X165474348Y-61004205D02*
X165474348Y-60216805D01*
X165961786Y-60591757D02*
X166224253Y-60591757D01*
X166336739Y-61004205D02*
X165961786Y-61004205D01*
X165961786Y-60216805D01*
X166336739Y-60216805D01*
X166674196Y-61004205D02*
X166674196Y-60216805D01*
X167124139Y-61004205D01*
X167124139Y-60216805D01*
X167499091Y-61004205D02*
X167499091Y-60216805D01*
X167949034Y-61004205D01*
X167949034Y-60216805D01*
X168286491Y-60779233D02*
X168661443Y-60779233D01*
X168211500Y-61004205D02*
X168473967Y-60216805D01*
X168736434Y-61004205D01*
D17*
X114898714Y-56950428D02*
X114136714Y-56950428D01*
X114136714Y-56769000D01*
X114173000Y-56660143D01*
X114245571Y-56587571D01*
X114318143Y-56551286D01*
X114463286Y-56515000D01*
X114572143Y-56515000D01*
X114717286Y-56551286D01*
X114789857Y-56587571D01*
X114862429Y-56660143D01*
X114898714Y-56769000D01*
X114898714Y-56950428D01*
X114136714Y-55825571D02*
X114136714Y-56188428D01*
X114499571Y-56224714D01*
X114463286Y-56188428D01*
X114427000Y-56115857D01*
X114427000Y-55934428D01*
X114463286Y-55861857D01*
X114499571Y-55825571D01*
X114572143Y-55789286D01*
X114753571Y-55789286D01*
X114826143Y-55825571D01*
X114862429Y-55861857D01*
X114898714Y-55934428D01*
X114898714Y-56115857D01*
X114862429Y-56188428D01*
X114826143Y-56224714D01*
D25*
X113628714Y-56218667D02*
X112866714Y-56218667D01*
X112866714Y-55541333D01*
X112903000Y-55372000D01*
X112939286Y-55287333D01*
X113011857Y-55202667D01*
X113120714Y-55202667D01*
X113193286Y-55287333D01*
X113229571Y-55372000D01*
X113265857Y-55541333D01*
X113265857Y-56218667D01*
X112866714Y-54610000D02*
X113628714Y-54186667D01*
X113084429Y-53848000D01*
X113628714Y-53509333D01*
X112866714Y-53086000D01*
X113628714Y-51392667D02*
X113265857Y-51985333D01*
X113628714Y-52408667D02*
X112866714Y-52408667D01*
X112866714Y-51731333D01*
X112903000Y-51562000D01*
X112939286Y-51477333D01*
X113011857Y-51392667D01*
X113120714Y-51392667D01*
X113193286Y-51477333D01*
X113229571Y-51562000D01*
X113265857Y-51731333D01*
X113265857Y-52408667D01*
D17*
X135472714Y-56950428D02*
X134710714Y-56950428D01*
X134710714Y-56769000D01*
X134747000Y-56660143D01*
X134819571Y-56587571D01*
X134892143Y-56551286D01*
X135037286Y-56515000D01*
X135146143Y-56515000D01*
X135291286Y-56551286D01*
X135363857Y-56587571D01*
X135436429Y-56660143D01*
X135472714Y-56769000D01*
X135472714Y-56950428D01*
X134710714Y-55861857D02*
X134710714Y-56007000D01*
X134747000Y-56079571D01*
X134783286Y-56115857D01*
X134892143Y-56188428D01*
X135037286Y-56224714D01*
X135327571Y-56224714D01*
X135400143Y-56188428D01*
X135436429Y-56152143D01*
X135472714Y-56079571D01*
X135472714Y-55934428D01*
X135436429Y-55861857D01*
X135400143Y-55825571D01*
X135327571Y-55789286D01*
X135146143Y-55789286D01*
X135073571Y-55825571D01*
X135037286Y-55861857D01*
X135001000Y-55934428D01*
X135001000Y-56079571D01*
X135037286Y-56152143D01*
X135073571Y-56188428D01*
X135146143Y-56224714D01*
D25*
X134202714Y-56007000D02*
X134202714Y-56853667D01*
X133440714Y-56853667D01*
X133440714Y-55075667D02*
X133440714Y-54737000D01*
X133477000Y-54567667D01*
X133549571Y-54398334D01*
X133694714Y-54313667D01*
X133948714Y-54313667D01*
X134093857Y-54398334D01*
X134166429Y-54567667D01*
X134202714Y-54737000D01*
X134202714Y-55075667D01*
X134166429Y-55245000D01*
X134093857Y-55414334D01*
X133948714Y-55499000D01*
X133694714Y-55499000D01*
X133549571Y-55414334D01*
X133477000Y-55245000D01*
X133440714Y-55075667D01*
X134130143Y-52535667D02*
X134166429Y-52620333D01*
X134202714Y-52874333D01*
X134202714Y-53043667D01*
X134166429Y-53297667D01*
X134093857Y-53467000D01*
X134021286Y-53551667D01*
X133876143Y-53636333D01*
X133767286Y-53636333D01*
X133622143Y-53551667D01*
X133549571Y-53467000D01*
X133477000Y-53297667D01*
X133440714Y-53043667D01*
X133440714Y-52874333D01*
X133477000Y-52620333D01*
X133513286Y-52535667D01*
X134202714Y-51773667D02*
X133440714Y-51773667D01*
X134202714Y-50757667D02*
X133767286Y-51519667D01*
X133440714Y-50757667D02*
X133876143Y-51773667D01*
D17*
X132678714Y-56950428D02*
X131916714Y-56950428D01*
X131916714Y-56769000D01*
X131953000Y-56660143D01*
X132025571Y-56587571D01*
X132098143Y-56551286D01*
X132243286Y-56515000D01*
X132352143Y-56515000D01*
X132497286Y-56551286D01*
X132569857Y-56587571D01*
X132642429Y-56660143D01*
X132678714Y-56769000D01*
X132678714Y-56950428D01*
X131916714Y-56261000D02*
X131916714Y-55753000D01*
X132678714Y-56079571D01*
D25*
X131372429Y-56496857D02*
X131408714Y-56279143D01*
X131408714Y-55916286D01*
X131372429Y-55771143D01*
X131336143Y-55698572D01*
X131263571Y-55626000D01*
X131191000Y-55626000D01*
X131118429Y-55698572D01*
X131082143Y-55771143D01*
X131045857Y-55916286D01*
X131009571Y-56206572D01*
X130973286Y-56351714D01*
X130937000Y-56424286D01*
X130864429Y-56496857D01*
X130791857Y-56496857D01*
X130719286Y-56424286D01*
X130683000Y-56351714D01*
X130646714Y-56206572D01*
X130646714Y-55843714D01*
X130683000Y-55626000D01*
X131045857Y-54682571D02*
X131408714Y-54682571D01*
X130646714Y-55190571D02*
X131045857Y-54682571D01*
X130646714Y-54174571D01*
X131408714Y-53666571D02*
X130646714Y-53666571D01*
X131408714Y-52795714D01*
X130646714Y-52795714D01*
X131336143Y-51199143D02*
X131372429Y-51271714D01*
X131408714Y-51489428D01*
X131408714Y-51634571D01*
X131372429Y-51852286D01*
X131299857Y-51997428D01*
X131227286Y-52070000D01*
X131082143Y-52142571D01*
X130973286Y-52142571D01*
X130828143Y-52070000D01*
X130755571Y-51997428D01*
X130683000Y-51852286D01*
X130646714Y-51634571D01*
X130646714Y-51489428D01*
X130683000Y-51271714D01*
X130719286Y-51199143D01*
D13*
X110491814Y-56490205D02*
X110229347Y-56115252D01*
X110041871Y-56490205D02*
X110041871Y-55702805D01*
X110341833Y-55702805D01*
X110416824Y-55740300D01*
X110454319Y-55777795D01*
X110491814Y-55852786D01*
X110491814Y-55965271D01*
X110454319Y-56040262D01*
X110416824Y-56077757D01*
X110341833Y-56115252D01*
X110041871Y-56115252D01*
X111241719Y-56490205D02*
X110791776Y-56490205D01*
X111016747Y-56490205D02*
X111016747Y-55702805D01*
X110941757Y-55815290D01*
X110866766Y-55890281D01*
X110791776Y-55927776D01*
X111691662Y-56040262D02*
X111616671Y-56002767D01*
X111579176Y-55965271D01*
X111541681Y-55890281D01*
X111541681Y-55852786D01*
X111579176Y-55777795D01*
X111616671Y-55740300D01*
X111691662Y-55702805D01*
X111841643Y-55702805D01*
X111916633Y-55740300D01*
X111954129Y-55777795D01*
X111991624Y-55852786D01*
X111991624Y-55890281D01*
X111954129Y-55965271D01*
X111916633Y-56002767D01*
X111841643Y-56040262D01*
X111691662Y-56040262D01*
X111616671Y-56077757D01*
X111579176Y-56115252D01*
X111541681Y-56190243D01*
X111541681Y-56340224D01*
X111579176Y-56415214D01*
X111616671Y-56452710D01*
X111691662Y-56490205D01*
X111841643Y-56490205D01*
X111916633Y-56452710D01*
X111954129Y-56415214D01*
X111991624Y-56340224D01*
X111991624Y-56190243D01*
X111954129Y-56115252D01*
X111916633Y-56077757D01*
X111841643Y-56040262D01*
X123191814Y-51918205D02*
X122929347Y-51543252D01*
X122741871Y-51918205D02*
X122741871Y-51130805D01*
X123041833Y-51130805D01*
X123116824Y-51168300D01*
X123154319Y-51205795D01*
X123191814Y-51280786D01*
X123191814Y-51393271D01*
X123154319Y-51468262D01*
X123116824Y-51505757D01*
X123041833Y-51543252D01*
X122741871Y-51543252D01*
X123491776Y-51205795D02*
X123529271Y-51168300D01*
X123604262Y-51130805D01*
X123791738Y-51130805D01*
X123866728Y-51168300D01*
X123904224Y-51205795D01*
X123941719Y-51280786D01*
X123941719Y-51355776D01*
X123904224Y-51468262D01*
X123454281Y-51918205D01*
X123941719Y-51918205D01*
X124691624Y-51918205D02*
X124241681Y-51918205D01*
X124466652Y-51918205D02*
X124466652Y-51130805D01*
X124391662Y-51243290D01*
X124316671Y-51318281D01*
X124241681Y-51355776D01*
X116956205Y-53206186D02*
X116581252Y-53468653D01*
X116956205Y-53656129D02*
X116168805Y-53656129D01*
X116168805Y-53356167D01*
X116206300Y-53281176D01*
X116243795Y-53243681D01*
X116318786Y-53206186D01*
X116431271Y-53206186D01*
X116506262Y-53243681D01*
X116543757Y-53281176D01*
X116581252Y-53356167D01*
X116581252Y-53656129D01*
X116243795Y-52906224D02*
X116206300Y-52868729D01*
X116168805Y-52793738D01*
X116168805Y-52606262D01*
X116206300Y-52531272D01*
X116243795Y-52493776D01*
X116318786Y-52456281D01*
X116393776Y-52456281D01*
X116506262Y-52493776D01*
X116956205Y-52943719D01*
X116956205Y-52456281D01*
X116243795Y-52156319D02*
X116206300Y-52118824D01*
X116168805Y-52043833D01*
X116168805Y-51856357D01*
X116206300Y-51781367D01*
X116243795Y-51743871D01*
X116318786Y-51706376D01*
X116393776Y-51706376D01*
X116506262Y-51743871D01*
X116956205Y-52193814D01*
X116956205Y-51706376D01*
X128525814Y-56236205D02*
X128263347Y-55861252D01*
X128075871Y-56236205D02*
X128075871Y-55448805D01*
X128375833Y-55448805D01*
X128450824Y-55486300D01*
X128488319Y-55523795D01*
X128525814Y-55598786D01*
X128525814Y-55711271D01*
X128488319Y-55786262D01*
X128450824Y-55823757D01*
X128375833Y-55861252D01*
X128075871Y-55861252D01*
X129275719Y-56236205D02*
X128825776Y-56236205D01*
X129050747Y-56236205D02*
X129050747Y-55448805D01*
X128975757Y-55561290D01*
X128900766Y-55636281D01*
X128825776Y-55673776D01*
X129538186Y-55448805D02*
X130063119Y-55448805D01*
X129725662Y-56236205D01*
X128525814Y-57252205D02*
X128263347Y-56877252D01*
X128075871Y-57252205D02*
X128075871Y-56464805D01*
X128375833Y-56464805D01*
X128450824Y-56502300D01*
X128488319Y-56539795D01*
X128525814Y-56614786D01*
X128525814Y-56727271D01*
X128488319Y-56802262D01*
X128450824Y-56839757D01*
X128375833Y-56877252D01*
X128075871Y-56877252D01*
X128825776Y-56539795D02*
X128863271Y-56502300D01*
X128938262Y-56464805D01*
X129125738Y-56464805D01*
X129200728Y-56502300D01*
X129238224Y-56539795D01*
X129275719Y-56614786D01*
X129275719Y-56689776D01*
X129238224Y-56802262D01*
X128788281Y-57252205D01*
X129275719Y-57252205D01*
X129763157Y-56464805D02*
X129838148Y-56464805D01*
X129913138Y-56502300D01*
X129950633Y-56539795D01*
X129988129Y-56614786D01*
X130025624Y-56764767D01*
X130025624Y-56952243D01*
X129988129Y-57102224D01*
X129950633Y-57177214D01*
X129913138Y-57214710D01*
X129838148Y-57252205D01*
X129763157Y-57252205D01*
X129688167Y-57214710D01*
X129650671Y-57177214D01*
X129613176Y-57102224D01*
X129575681Y-56952243D01*
X129575681Y-56764767D01*
X129613176Y-56614786D01*
X129650671Y-56539795D01*
X129688167Y-56502300D01*
X129763157Y-56464805D01*
X130295348Y-58776205D02*
X130295348Y-57988805D01*
X131120243Y-58701214D02*
X131082748Y-58738710D01*
X130970262Y-58776205D01*
X130895272Y-58776205D01*
X130782786Y-58738710D01*
X130707795Y-58663719D01*
X130670300Y-58588729D01*
X130632805Y-58438748D01*
X130632805Y-58326262D01*
X130670300Y-58176281D01*
X130707795Y-58101290D01*
X130782786Y-58026300D01*
X130895272Y-57988805D01*
X130970262Y-57988805D01*
X131082748Y-58026300D01*
X131120243Y-58063795D01*
X131420205Y-58063795D02*
X131457700Y-58026300D01*
X131532691Y-57988805D01*
X131720167Y-57988805D01*
X131795157Y-58026300D01*
X131832653Y-58063795D01*
X131870148Y-58138786D01*
X131870148Y-58213776D01*
X131832653Y-58326262D01*
X131382710Y-58776205D01*
X131870148Y-58776205D01*
X134875814Y-69877214D02*
X134838319Y-69914710D01*
X134725833Y-69952205D01*
X134650843Y-69952205D01*
X134538357Y-69914710D01*
X134463366Y-69839719D01*
X134425871Y-69764729D01*
X134388376Y-69614748D01*
X134388376Y-69502262D01*
X134425871Y-69352281D01*
X134463366Y-69277290D01*
X134538357Y-69202300D01*
X134650843Y-69164805D01*
X134725833Y-69164805D01*
X134838319Y-69202300D01*
X134875814Y-69239795D01*
X135175776Y-69239795D02*
X135213271Y-69202300D01*
X135288262Y-69164805D01*
X135475738Y-69164805D01*
X135550728Y-69202300D01*
X135588224Y-69239795D01*
X135625719Y-69314786D01*
X135625719Y-69389776D01*
X135588224Y-69502262D01*
X135138281Y-69952205D01*
X135625719Y-69952205D01*
X135888186Y-69164805D02*
X136375624Y-69164805D01*
X136113157Y-69464767D01*
X136225643Y-69464767D01*
X136300633Y-69502262D01*
X136338129Y-69539757D01*
X136375624Y-69614748D01*
X136375624Y-69802224D01*
X136338129Y-69877214D01*
X136300633Y-69914710D01*
X136225643Y-69952205D01*
X136000671Y-69952205D01*
X135925681Y-69914710D01*
X135888186Y-69877214D01*
X116512824Y-71730205D02*
X116512824Y-70942805D01*
X116812786Y-70942805D01*
X116887777Y-70980300D01*
X116925272Y-71017795D01*
X116962767Y-71092786D01*
X116962767Y-71205271D01*
X116925272Y-71280262D01*
X116887777Y-71317757D01*
X116812786Y-71355252D01*
X116512824Y-71355252D01*
X117262729Y-71017795D02*
X117300224Y-70980300D01*
X117375215Y-70942805D01*
X117562691Y-70942805D01*
X117637681Y-70980300D01*
X117675177Y-71017795D01*
X117712672Y-71092786D01*
X117712672Y-71167776D01*
X117675177Y-71280262D01*
X117225234Y-71730205D01*
X117712672Y-71730205D01*
X57871214Y-70720186D02*
X57908710Y-70757681D01*
X57946205Y-70870167D01*
X57946205Y-70945157D01*
X57908710Y-71057643D01*
X57833719Y-71132634D01*
X57758729Y-71170129D01*
X57608748Y-71207624D01*
X57496262Y-71207624D01*
X57346281Y-71170129D01*
X57271290Y-71132634D01*
X57196300Y-71057643D01*
X57158805Y-70945157D01*
X57158805Y-70870167D01*
X57196300Y-70757681D01*
X57233795Y-70720186D01*
X57233795Y-70420224D02*
X57196300Y-70382729D01*
X57158805Y-70307738D01*
X57158805Y-70120262D01*
X57196300Y-70045272D01*
X57233795Y-70007776D01*
X57308786Y-69970281D01*
X57383776Y-69970281D01*
X57496262Y-70007776D01*
X57946205Y-70457719D01*
X57946205Y-69970281D01*
X57421271Y-69295367D02*
X57946205Y-69295367D01*
X57121310Y-69482843D02*
X57683738Y-69670319D01*
X57683738Y-69182881D01*
X69909214Y-54544186D02*
X69946710Y-54581681D01*
X69984205Y-54694167D01*
X69984205Y-54769157D01*
X69946710Y-54881643D01*
X69871719Y-54956634D01*
X69796729Y-54994129D01*
X69646748Y-55031624D01*
X69534262Y-55031624D01*
X69384281Y-54994129D01*
X69309290Y-54956634D01*
X69234300Y-54881643D01*
X69196805Y-54769157D01*
X69196805Y-54694167D01*
X69234300Y-54581681D01*
X69271795Y-54544186D01*
X69271795Y-54244224D02*
X69234300Y-54206729D01*
X69196805Y-54131738D01*
X69196805Y-53944262D01*
X69234300Y-53869272D01*
X69271795Y-53831776D01*
X69346786Y-53794281D01*
X69421776Y-53794281D01*
X69534262Y-53831776D01*
X69984205Y-54281719D01*
X69984205Y-53794281D01*
X69196805Y-53531814D02*
X69196805Y-53006881D01*
X69984205Y-53344338D01*
X62053214Y-54544186D02*
X62090710Y-54581681D01*
X62128205Y-54694167D01*
X62128205Y-54769157D01*
X62090710Y-54881643D01*
X62015719Y-54956634D01*
X61940729Y-54994129D01*
X61790748Y-55031624D01*
X61678262Y-55031624D01*
X61528281Y-54994129D01*
X61453290Y-54956634D01*
X61378300Y-54881643D01*
X61340805Y-54769157D01*
X61340805Y-54694167D01*
X61378300Y-54581681D01*
X61415795Y-54544186D01*
X61415795Y-54244224D02*
X61378300Y-54206729D01*
X61340805Y-54131738D01*
X61340805Y-53944262D01*
X61378300Y-53869272D01*
X61415795Y-53831776D01*
X61490786Y-53794281D01*
X61565776Y-53794281D01*
X61678262Y-53831776D01*
X62128205Y-54281719D01*
X62128205Y-53794281D01*
X61678262Y-53344338D02*
X61640767Y-53419329D01*
X61603271Y-53456824D01*
X61528281Y-53494319D01*
X61490786Y-53494319D01*
X61415795Y-53456824D01*
X61378300Y-53419329D01*
X61340805Y-53344338D01*
X61340805Y-53194357D01*
X61378300Y-53119367D01*
X61415795Y-53081871D01*
X61490786Y-53044376D01*
X61528281Y-53044376D01*
X61603271Y-53081871D01*
X61640767Y-53119367D01*
X61678262Y-53194357D01*
X61678262Y-53344338D01*
X61715757Y-53419329D01*
X61753252Y-53456824D01*
X61828243Y-53494319D01*
X61978224Y-53494319D01*
X62053214Y-53456824D01*
X62090710Y-53419329D01*
X62128205Y-53344338D01*
X62128205Y-53194357D01*
X62090710Y-53119367D01*
X62053214Y-53081871D01*
X61978224Y-53044376D01*
X61828243Y-53044376D01*
X61753252Y-53081871D01*
X61715757Y-53119367D01*
X61678262Y-53194357D01*
X65727214Y-70720186D02*
X65764710Y-70757681D01*
X65802205Y-70870167D01*
X65802205Y-70945157D01*
X65764710Y-71057643D01*
X65689719Y-71132634D01*
X65614729Y-71170129D01*
X65464748Y-71207624D01*
X65352262Y-71207624D01*
X65202281Y-71170129D01*
X65127290Y-71132634D01*
X65052300Y-71057643D01*
X65014805Y-70945157D01*
X65014805Y-70870167D01*
X65052300Y-70757681D01*
X65089795Y-70720186D01*
X65089795Y-70420224D02*
X65052300Y-70382729D01*
X65014805Y-70307738D01*
X65014805Y-70120262D01*
X65052300Y-70045272D01*
X65089795Y-70007776D01*
X65164786Y-69970281D01*
X65239776Y-69970281D01*
X65352262Y-70007776D01*
X65802205Y-70457719D01*
X65802205Y-69970281D01*
X65802205Y-69595329D02*
X65802205Y-69445348D01*
X65764710Y-69370357D01*
X65727214Y-69332862D01*
X65614729Y-69257871D01*
X65464748Y-69220376D01*
X65164786Y-69220376D01*
X65089795Y-69257871D01*
X65052300Y-69295367D01*
X65014805Y-69370357D01*
X65014805Y-69520338D01*
X65052300Y-69595329D01*
X65089795Y-69632824D01*
X65164786Y-69670319D01*
X65352262Y-69670319D01*
X65427252Y-69632824D01*
X65464748Y-69595329D01*
X65502243Y-69520338D01*
X65502243Y-69370357D01*
X65464748Y-69295367D01*
X65427252Y-69257871D01*
X65352262Y-69220376D01*
X44233214Y-68431186D02*
X44270710Y-68468681D01*
X44308205Y-68581167D01*
X44308205Y-68656157D01*
X44270710Y-68768643D01*
X44195719Y-68843634D01*
X44120729Y-68881129D01*
X43970748Y-68918624D01*
X43858262Y-68918624D01*
X43708281Y-68881129D01*
X43633290Y-68843634D01*
X43558300Y-68768643D01*
X43520805Y-68656157D01*
X43520805Y-68581167D01*
X43558300Y-68468681D01*
X43595795Y-68431186D01*
X43520805Y-68168719D02*
X43520805Y-67681281D01*
X43820767Y-67943748D01*
X43820767Y-67831262D01*
X43858262Y-67756272D01*
X43895757Y-67718776D01*
X43970748Y-67681281D01*
X44158224Y-67681281D01*
X44233214Y-67718776D01*
X44270710Y-67756272D01*
X44308205Y-67831262D01*
X44308205Y-68056234D01*
X44270710Y-68131224D01*
X44233214Y-68168719D01*
X43520805Y-67193843D02*
X43520805Y-67118852D01*
X43558300Y-67043862D01*
X43595795Y-67006367D01*
X43670786Y-66968871D01*
X43820767Y-66931376D01*
X44008243Y-66931376D01*
X44158224Y-66968871D01*
X44233214Y-67006367D01*
X44270710Y-67043862D01*
X44308205Y-67118852D01*
X44308205Y-67193843D01*
X44270710Y-67268833D01*
X44233214Y-67306329D01*
X44158224Y-67343824D01*
X44008243Y-67381319D01*
X43820767Y-67381319D01*
X43670786Y-67343824D01*
X43595795Y-67306329D01*
X43558300Y-67268833D01*
X43520805Y-67193843D01*
X38003814Y-60999214D02*
X37966319Y-61036710D01*
X37853833Y-61074205D01*
X37778843Y-61074205D01*
X37666357Y-61036710D01*
X37591366Y-60961719D01*
X37553871Y-60886729D01*
X37516376Y-60736748D01*
X37516376Y-60624262D01*
X37553871Y-60474281D01*
X37591366Y-60399290D01*
X37666357Y-60324300D01*
X37778843Y-60286805D01*
X37853833Y-60286805D01*
X37966319Y-60324300D01*
X38003814Y-60361795D01*
X38266281Y-60286805D02*
X38753719Y-60286805D01*
X38491252Y-60586767D01*
X38603738Y-60586767D01*
X38678728Y-60624262D01*
X38716224Y-60661757D01*
X38753719Y-60736748D01*
X38753719Y-60924224D01*
X38716224Y-60999214D01*
X38678728Y-61036710D01*
X38603738Y-61074205D01*
X38378766Y-61074205D01*
X38303776Y-61036710D01*
X38266281Y-60999214D01*
X39503624Y-61074205D02*
X39053681Y-61074205D01*
X39278652Y-61074205D02*
X39278652Y-60286805D01*
X39203662Y-60399290D01*
X39128671Y-60474281D01*
X39053681Y-60511776D01*
X44378076Y-70568805D02*
X44378076Y-71206224D01*
X44415571Y-71281214D01*
X44453067Y-71318710D01*
X44528057Y-71356205D01*
X44678038Y-71356205D01*
X44753029Y-71318710D01*
X44790524Y-71281214D01*
X44828019Y-71206224D01*
X44828019Y-70568805D01*
X45165476Y-70643795D02*
X45202971Y-70606300D01*
X45277962Y-70568805D01*
X45465438Y-70568805D01*
X45540428Y-70606300D01*
X45577924Y-70643795D01*
X45615419Y-70718786D01*
X45615419Y-70793776D01*
X45577924Y-70906262D01*
X45127981Y-71356205D01*
X45615419Y-71356205D01*
X43634824Y-62208205D02*
X43634824Y-61420805D01*
X43822300Y-61420805D01*
X43934786Y-61458300D01*
X44009777Y-61533290D01*
X44047272Y-61608281D01*
X44084767Y-61758262D01*
X44084767Y-61870748D01*
X44047272Y-62020729D01*
X44009777Y-62095719D01*
X43934786Y-62170710D01*
X43822300Y-62208205D01*
X43634824Y-62208205D01*
X44759681Y-61683271D02*
X44759681Y-62208205D01*
X44572205Y-61383310D02*
X44384729Y-61945738D01*
X44872167Y-61945738D01*
X38003814Y-51829214D02*
X37966319Y-51866710D01*
X37853833Y-51904205D01*
X37778843Y-51904205D01*
X37666357Y-51866710D01*
X37591366Y-51791719D01*
X37553871Y-51716729D01*
X37516376Y-51566748D01*
X37516376Y-51454262D01*
X37553871Y-51304281D01*
X37591366Y-51229290D01*
X37666357Y-51154300D01*
X37778843Y-51116805D01*
X37853833Y-51116805D01*
X37966319Y-51154300D01*
X38003814Y-51191795D01*
X38266281Y-51116805D02*
X38753719Y-51116805D01*
X38491252Y-51416767D01*
X38603738Y-51416767D01*
X38678728Y-51454262D01*
X38716224Y-51491757D01*
X38753719Y-51566748D01*
X38753719Y-51754224D01*
X38716224Y-51829214D01*
X38678728Y-51866710D01*
X38603738Y-51904205D01*
X38378766Y-51904205D01*
X38303776Y-51866710D01*
X38266281Y-51829214D01*
X39053681Y-51191795D02*
X39091176Y-51154300D01*
X39166167Y-51116805D01*
X39353643Y-51116805D01*
X39428633Y-51154300D01*
X39466129Y-51191795D01*
X39503624Y-51266786D01*
X39503624Y-51341776D01*
X39466129Y-51454262D01*
X39016186Y-51904205D01*
X39503624Y-51904205D01*
X54865814Y-73254205D02*
X54603347Y-72879252D01*
X54415871Y-73254205D02*
X54415871Y-72466805D01*
X54715833Y-72466805D01*
X54790824Y-72504300D01*
X54828319Y-72541795D01*
X54865814Y-72616786D01*
X54865814Y-72729271D01*
X54828319Y-72804262D01*
X54790824Y-72841757D01*
X54715833Y-72879252D01*
X54415871Y-72879252D01*
X55165776Y-72541795D02*
X55203271Y-72504300D01*
X55278262Y-72466805D01*
X55465738Y-72466805D01*
X55540728Y-72504300D01*
X55578224Y-72541795D01*
X55615719Y-72616786D01*
X55615719Y-72691776D01*
X55578224Y-72804262D01*
X55128281Y-73254205D01*
X55615719Y-73254205D01*
X56290633Y-72729271D02*
X56290633Y-73254205D01*
X56103157Y-72429310D02*
X55915681Y-72991738D01*
X56403119Y-72991738D01*
X46737814Y-73254205D02*
X46475347Y-72879252D01*
X46287871Y-73254205D02*
X46287871Y-72466805D01*
X46587833Y-72466805D01*
X46662824Y-72504300D01*
X46700319Y-72541795D01*
X46737814Y-72616786D01*
X46737814Y-72729271D01*
X46700319Y-72804262D01*
X46662824Y-72841757D01*
X46587833Y-72879252D01*
X46287871Y-72879252D01*
X47037776Y-72541795D02*
X47075271Y-72504300D01*
X47150262Y-72466805D01*
X47337738Y-72466805D01*
X47412728Y-72504300D01*
X47450224Y-72541795D01*
X47487719Y-72616786D01*
X47487719Y-72691776D01*
X47450224Y-72804262D01*
X47000281Y-73254205D01*
X47487719Y-73254205D01*
X48200129Y-72466805D02*
X47825176Y-72466805D01*
X47787681Y-72841757D01*
X47825176Y-72804262D01*
X47900167Y-72766767D01*
X48087643Y-72766767D01*
X48162633Y-72804262D01*
X48200129Y-72841757D01*
X48237624Y-72916748D01*
X48237624Y-73104224D01*
X48200129Y-73179214D01*
X48162633Y-73216710D01*
X48087643Y-73254205D01*
X47900167Y-73254205D01*
X47825176Y-73216710D01*
X47787681Y-73179214D01*
X133123214Y-60075233D02*
X133160710Y-60112728D01*
X133198205Y-60225214D01*
X133198205Y-60300204D01*
X133160710Y-60412690D01*
X133085719Y-60487681D01*
X133010729Y-60525176D01*
X132860748Y-60562671D01*
X132748262Y-60562671D01*
X132598281Y-60525176D01*
X132523290Y-60487681D01*
X132448300Y-60412690D01*
X132410805Y-60300204D01*
X132410805Y-60225214D01*
X132448300Y-60112728D01*
X132485795Y-60075233D01*
X132673271Y-59400319D02*
X133198205Y-59400319D01*
X132373310Y-59587795D02*
X132935738Y-59775271D01*
X132935738Y-59287833D01*
%LPC*%
D26*
X51054000Y-57617360D03*
X51054000Y-52618640D03*
D27*
X135820000Y-64582000D03*
X133420000Y-64582000D03*
X133420000Y-66482000D03*
X135820000Y-66482000D03*
D28*
X136382000Y-58058000D03*
X135882000Y-58058000D03*
X135382000Y-58058000D03*
X134882000Y-58058000D03*
X134382000Y-58058000D03*
X134382000Y-62338000D03*
X134882000Y-62338000D03*
X135382000Y-62338000D03*
X135882000Y-62338000D03*
X136382000Y-62338000D03*
D29*
X102108000Y-55118000D03*
X102108000Y-56642000D03*
D30*
X157892000Y-71008000D03*
X157892000Y-69908000D03*
X157892000Y-68808000D03*
X157892000Y-67708000D03*
X157892000Y-66608000D03*
X157892000Y-65508000D03*
X157892000Y-64408000D03*
X157892000Y-61408000D03*
X157892000Y-60308000D03*
X157892000Y-59208000D03*
X157892000Y-58108000D03*
X157892000Y-57008000D03*
X145892000Y-57008000D03*
X145892000Y-58108000D03*
X145892000Y-59208000D03*
X145892000Y-60308000D03*
X145892000Y-61408000D03*
X145892000Y-64408000D03*
X145892000Y-65508000D03*
X145892000Y-66608000D03*
X145892000Y-67708000D03*
X145892000Y-68808000D03*
X145892000Y-69908000D03*
X145892000Y-71008000D03*
D29*
X117600000Y-66262000D03*
X117600000Y-64738000D03*
D31*
X122938000Y-56200000D03*
X124462000Y-56200000D03*
X129349500Y-72402700D03*
X127825500Y-72402700D03*
D32*
X141478000Y-66802000D03*
D33*
X138938000Y-66802000D03*
X141478000Y-64262000D03*
X138938000Y-64262000D03*
X141478000Y-61722000D03*
X138938000Y-61722000D03*
D34*
X98262440Y-61488320D03*
X98262440Y-61988700D03*
X98262440Y-62489080D03*
X98262440Y-62986920D03*
X98262440Y-63487300D03*
X98262440Y-59987180D03*
X98262440Y-60487560D03*
X98262440Y-60987940D03*
D35*
X99611180Y-66837560D03*
X100111560Y-66837560D03*
X100611940Y-66837560D03*
X101112320Y-66837560D03*
X101612700Y-66837560D03*
X102113080Y-66837560D03*
X102610920Y-66837560D03*
X103111300Y-66837560D03*
D34*
X106461560Y-65488820D03*
X106461560Y-64988440D03*
X106461560Y-64488060D03*
X106461560Y-63987680D03*
X106461560Y-63487300D03*
X106461560Y-62986920D03*
X106461560Y-62489080D03*
X106461560Y-61988700D03*
D35*
X105112820Y-58638440D03*
X104612440Y-58638440D03*
X104112060Y-58638440D03*
X103611680Y-58638440D03*
X103111300Y-58638440D03*
X102610920Y-58638440D03*
X102113080Y-58638440D03*
X101612700Y-58638440D03*
D34*
X98262440Y-63987680D03*
X98262440Y-64488060D03*
X98262440Y-64988440D03*
X98262440Y-65488820D03*
D35*
X103611680Y-66837560D03*
X104112060Y-66837560D03*
X104612440Y-66837560D03*
X105112820Y-66837560D03*
D34*
X106461560Y-61488320D03*
X106461560Y-60987940D03*
X106461560Y-60487560D03*
X106461560Y-59987180D03*
D35*
X101112320Y-58638440D03*
X100611940Y-58638440D03*
X100111560Y-58638440D03*
X99611180Y-58638440D03*
D36*
X112395000Y-64969000D03*
X112395000Y-61269000D03*
D29*
X110363000Y-69215000D03*
X110363000Y-67691000D03*
X115062000Y-60782200D03*
X115062000Y-62306200D03*
X115087400Y-65455800D03*
X115087400Y-63931800D03*
D37*
X106680000Y-70391020D03*
X106680000Y-68292980D03*
D29*
X104902000Y-70993000D03*
X104902000Y-72517000D03*
X106680000Y-71755000D03*
X106680000Y-73279000D03*
X109601000Y-62230000D03*
X109601000Y-63754000D03*
D38*
X98549460Y-72517000D03*
X99824540Y-72517000D03*
D39*
X88773000Y-66929000D03*
X88773000Y-65659000D03*
X88773000Y-64389000D03*
X88773000Y-63119000D03*
X88773000Y-61849000D03*
X88773000Y-60579000D03*
X88773000Y-59309000D03*
X88773000Y-58039000D03*
X79883000Y-58039000D03*
X79883000Y-59309000D03*
X79883000Y-60579000D03*
X79883000Y-61849000D03*
X79883000Y-63119000D03*
X79883000Y-64389000D03*
X79883000Y-65659000D03*
X79883000Y-66929000D03*
D40*
X112141000Y-67586860D03*
X112141000Y-70335140D03*
D29*
X101854000Y-72517000D03*
X101854000Y-70993000D03*
X103378000Y-72517000D03*
X103378000Y-70993000D03*
D41*
X96370140Y-72517000D03*
X93621860Y-72517000D03*
D31*
X101600000Y-69342000D03*
X103124000Y-69342000D03*
D29*
X100076000Y-70358000D03*
X100076000Y-68834000D03*
X98298000Y-70358000D03*
X98298000Y-68834000D03*
X95377000Y-64516000D03*
X95377000Y-62992000D03*
X95504000Y-59690000D03*
X95504000Y-61214000D03*
X96520000Y-67818000D03*
X96520000Y-66294000D03*
X94996000Y-66294000D03*
X94996000Y-67818000D03*
D42*
X82169000Y-71374000D03*
X86741000Y-71374000D03*
D31*
X93853000Y-62738000D03*
X92329000Y-62738000D03*
X93853000Y-61214000D03*
X92329000Y-61214000D03*
X92710000Y-66040000D03*
X91186000Y-66040000D03*
D29*
X90678000Y-64008000D03*
X90678000Y-62484000D03*
D43*
X73787000Y-71390000D03*
X73787000Y-68850000D03*
X73787000Y-66310000D03*
X73787000Y-63770000D03*
X73787000Y-61230000D03*
X73787000Y-58690000D03*
X73787000Y-56150000D03*
X73787000Y-53610000D03*
D29*
X77139800Y-62153800D03*
X77139800Y-63677800D03*
X77089000Y-58039000D03*
X77089000Y-56515000D03*
D31*
X78511400Y-66497200D03*
X76987400Y-66497200D03*
D29*
X78257400Y-59232800D03*
X78257400Y-60756800D03*
D31*
X92710000Y-67564000D03*
X91186000Y-67564000D03*
X95656400Y-56489600D03*
X97180400Y-56489600D03*
X92329000Y-64262000D03*
X93853000Y-64262000D03*
X93853000Y-59690000D03*
X92329000Y-59690000D03*
X95656400Y-58064400D03*
X97180400Y-58064400D03*
D44*
X121070000Y-56152500D03*
X121070000Y-54247500D03*
X118530000Y-56152500D03*
X121070000Y-55200000D03*
X118530000Y-54247500D03*
D45*
X69088000Y-68808600D03*
X69088000Y-64795400D03*
D46*
X35000000Y-57500000D03*
X35000000Y-67500000D03*
D29*
X143256000Y-69596000D03*
X143256000Y-71120000D03*
D40*
X126238000Y-53235860D03*
X126238000Y-55984140D03*
D41*
X140566140Y-71120000D03*
X137817860Y-71120000D03*
D47*
X162743000Y-58108000D03*
X169743000Y-58108000D03*
D37*
X114554000Y-52798980D03*
X114554000Y-54897020D03*
X135128000Y-52798980D03*
X135128000Y-54897020D03*
X132334000Y-52798980D03*
X132334000Y-54897020D03*
D31*
X110236000Y-54610000D03*
X111760000Y-54610000D03*
X122938000Y-54400000D03*
X124462000Y-54400000D03*
D29*
X116600000Y-55962000D03*
X116600000Y-54438000D03*
D31*
X128270000Y-53086000D03*
X129794000Y-53086000D03*
X128270000Y-54610000D03*
X129794000Y-54610000D03*
D48*
X131015000Y-64200000D03*
X131015000Y-63399900D03*
X131015000Y-62599800D03*
X131015000Y-61799700D03*
X131015000Y-60999600D03*
X131015000Y-60199500D03*
X131015000Y-65000100D03*
X131015000Y-65800200D03*
X131015000Y-66600300D03*
X131015000Y-67400400D03*
X131015000Y-68200500D03*
X119585000Y-64200000D03*
X119585000Y-63399900D03*
X119585000Y-62599800D03*
X119585000Y-61799700D03*
X119585000Y-60999600D03*
X119585000Y-60199500D03*
X119585000Y-65000100D03*
X119585000Y-65800200D03*
X119585000Y-66600300D03*
X119585000Y-67400400D03*
X119585000Y-68200500D03*
D49*
X125300000Y-58485000D03*
X125300000Y-69915000D03*
X124499900Y-58485000D03*
X124499900Y-69915000D03*
X123699800Y-69915000D03*
X123699800Y-58485000D03*
X122899700Y-58485000D03*
X122899700Y-69915000D03*
X122099600Y-69915000D03*
X122099600Y-58485000D03*
X121299500Y-58485000D03*
X121299500Y-69915000D03*
X126100100Y-69915000D03*
X126100100Y-58485000D03*
X126900200Y-58485000D03*
X126900200Y-69915000D03*
X127700300Y-69915000D03*
X127700300Y-58485000D03*
X128500400Y-58485000D03*
X128500400Y-69915000D03*
X129300500Y-69915000D03*
X129300500Y-58485000D03*
D31*
X134620000Y-68072000D03*
X136144000Y-68072000D03*
D50*
X125680000Y-73500000D03*
D51*
X123140000Y-73500000D03*
X120600000Y-73500000D03*
X118060000Y-73500000D03*
X115520000Y-73500000D03*
D52*
X55372000Y-62781180D03*
X55372000Y-68282820D03*
X67564000Y-61424820D03*
X67564000Y-55923180D03*
X59690000Y-61424820D03*
X59690000Y-55923180D03*
X63246000Y-62781180D03*
X63246000Y-68282820D03*
D53*
X45212000Y-68696840D03*
X45212000Y-67193160D03*
D54*
X44218860Y-58674000D03*
X40617140Y-58674000D03*
D55*
X46609000Y-70866000D03*
X47879000Y-70866000D03*
X49149000Y-70866000D03*
X50419000Y-70866000D03*
X50419000Y-65278000D03*
X49149000Y-65278000D03*
X47879000Y-65278000D03*
X46609000Y-65278000D03*
D56*
X50520600Y-61722000D03*
X46507400Y-61722000D03*
D54*
X44218860Y-53594000D03*
X40617140Y-53594000D03*
D31*
X53340000Y-72898000D03*
X51816000Y-72898000D03*
X50546000Y-72898000D03*
X49022000Y-72898000D03*
D29*
X132842000Y-63271400D03*
X132842000Y-61747400D03*
M02*
