G04 #@! TF.FileFunction,Soldermask,Bot*
%FSLAX46Y46*%
G04 Gerber Fmt 4.6, Leading zero omitted, Abs format (unit mm)*
G04 Created by KiCad (PCBNEW 0.201504121001+5594~22~ubuntu14.04.1-product) date Wed 15 Apr 2015 18:38:53 NZST*
%MOMM*%
G01*
G04 APERTURE LIST*
%ADD10C,0.150000*%
%ADD11R,2.032000X2.032000*%
%ADD12O,2.032000X2.032000*%
%ADD13C,1.000000*%
%ADD14C,6.600000*%
%ADD15R,1.727200X1.727200*%
%ADD16O,1.727200X1.727200*%
%ADD17O,3.302000X1.524000*%
%ADD18C,1.524000*%
G04 APERTURE END LIST*
D10*
D11*
X158750000Y-60452000D03*
D12*
X158750000Y-57912000D03*
D13*
X163390000Y-54132000D03*
X159190000Y-54132000D03*
X159190000Y-51732000D03*
X163390000Y-51732000D03*
X161290000Y-55232000D03*
D14*
X161290000Y-52832000D03*
D13*
X161290000Y-50532000D03*
D11*
X67310000Y-74422000D03*
D12*
X64770000Y-74422000D03*
D11*
X67310000Y-50292000D03*
D12*
X64770000Y-50292000D03*
D15*
X124460000Y-73152000D03*
D16*
X124460000Y-75692000D03*
X121920000Y-73152000D03*
X121920000Y-75692000D03*
X119380000Y-73152000D03*
X119380000Y-75692000D03*
X116840000Y-73152000D03*
X116840000Y-75692000D03*
X114300000Y-73152000D03*
X114300000Y-75692000D03*
D15*
X143510000Y-74422000D03*
D16*
X140970000Y-74422000D03*
X138430000Y-74422000D03*
X135890000Y-74422000D03*
X133350000Y-74422000D03*
D17*
X73660000Y-71882000D03*
X73660000Y-69342000D03*
X73660000Y-66802000D03*
X73660000Y-64262000D03*
X73660000Y-61722000D03*
X73660000Y-59182000D03*
X73660000Y-56642000D03*
X73660000Y-54102000D03*
D13*
X51630000Y-54132000D03*
X47430000Y-54132000D03*
X47430000Y-51732000D03*
X51630000Y-51732000D03*
X49530000Y-55232000D03*
D14*
X49530000Y-52832000D03*
D13*
X49530000Y-50532000D03*
X51630000Y-73182000D03*
X47430000Y-73182000D03*
X47430000Y-70782000D03*
X51630000Y-70782000D03*
X49530000Y-74282000D03*
D14*
X49530000Y-71882000D03*
D13*
X49530000Y-69582000D03*
X163390000Y-73182000D03*
X159190000Y-73182000D03*
X159190000Y-70782000D03*
X163390000Y-70782000D03*
X161290000Y-74282000D03*
D14*
X161290000Y-71882000D03*
D13*
X161290000Y-69582000D03*
D18*
X138430000Y-65532000D03*
X135890000Y-68072000D03*
M02*
