G04 #@! TF.FileFunction,Legend,Bot*
%FSLAX46Y46*%
G04 Gerber Fmt 4.6, Leading zero omitted, Abs format (unit mm)*
G04 Created by KiCad (PCBNEW 0.201504121001+5594~22~ubuntu14.04.1-product) date Wed 15 Apr 2015 18:38:53 NZST*
%MOMM*%
G01*
G04 APERTURE LIST*
%ADD10C,0.150000*%
%ADD11C,0.118400*%
%ADD12C,1.270000*%
%ADD13C,0.114300*%
%ADD14C,0.300000*%
%ADD15R,2.032000X2.032000*%
%ADD16O,2.032000X2.032000*%
%ADD17C,1.000000*%
%ADD18C,6.600000*%
%ADD19R,1.727200X1.727200*%
%ADD20O,1.727200X1.727200*%
%ADD21O,3.302000X1.524000*%
%ADD22C,1.524000*%
G04 APERTURE END LIST*
D10*
D11*
X138786205Y-66989476D02*
X137998805Y-66989476D01*
X137998805Y-67176952D01*
X138036300Y-67289438D01*
X138111290Y-67364429D01*
X138186281Y-67401924D01*
X138336262Y-67439419D01*
X138448748Y-67439419D01*
X138598729Y-67401924D01*
X138673719Y-67364429D01*
X138748710Y-67289438D01*
X138786205Y-67176952D01*
X138786205Y-66989476D01*
X138561233Y-67739381D02*
X138561233Y-68114333D01*
X138786205Y-67664390D02*
X137998805Y-67926857D01*
X138786205Y-68189324D01*
X138711214Y-68901733D02*
X138748710Y-68864238D01*
X138786205Y-68751752D01*
X138786205Y-68676762D01*
X138748710Y-68564276D01*
X138673719Y-68489285D01*
X138598729Y-68451790D01*
X138448748Y-68414295D01*
X138336262Y-68414295D01*
X138186281Y-68451790D01*
X138111290Y-68489285D01*
X138036300Y-68564276D01*
X137998805Y-68676762D01*
X137998805Y-68751752D01*
X138036300Y-68864238D01*
X138073795Y-68901733D01*
X135458805Y-69679457D02*
X135458805Y-69829438D01*
X135496300Y-69904429D01*
X135571290Y-69979419D01*
X135721271Y-70016914D01*
X135983738Y-70016914D01*
X136133719Y-69979419D01*
X136208710Y-69904429D01*
X136246205Y-69829438D01*
X136246205Y-69679457D01*
X136208710Y-69604467D01*
X136133719Y-69529476D01*
X135983738Y-69491981D01*
X135721271Y-69491981D01*
X135571290Y-69529476D01*
X135496300Y-69604467D01*
X135458805Y-69679457D01*
X136208710Y-70316876D02*
X136246205Y-70429362D01*
X136246205Y-70616838D01*
X136208710Y-70691828D01*
X136171214Y-70729324D01*
X136096224Y-70766819D01*
X136021233Y-70766819D01*
X135946243Y-70729324D01*
X135908748Y-70691828D01*
X135871252Y-70616838D01*
X135833757Y-70466857D01*
X135796262Y-70391866D01*
X135758767Y-70354371D01*
X135683776Y-70316876D01*
X135608786Y-70316876D01*
X135533795Y-70354371D01*
X135496300Y-70391866D01*
X135458805Y-70466857D01*
X135458805Y-70654333D01*
X135496300Y-70766819D01*
X136171214Y-71554219D02*
X136208710Y-71516724D01*
X136246205Y-71404238D01*
X136246205Y-71329248D01*
X136208710Y-71216762D01*
X136133719Y-71141771D01*
X136058729Y-71104276D01*
X135908748Y-71066781D01*
X135796262Y-71066781D01*
X135646281Y-71104276D01*
X135571290Y-71141771D01*
X135496300Y-71216762D01*
X135458805Y-71329248D01*
X135458805Y-71404238D01*
X135496300Y-71516724D01*
X135533795Y-71554219D01*
D12*
X151523095Y-68737238D02*
X151523095Y-56037238D01*
X147894524Y-68737238D01*
X147894524Y-56037238D01*
X145777857Y-56037238D02*
X142149286Y-56037238D01*
X143963571Y-68737238D02*
X143963571Y-56037238D01*
X140032619Y-68737238D02*
X140032619Y-56037238D01*
X137613572Y-56037238D01*
X137008810Y-56642000D01*
X136706429Y-57246762D01*
X136404048Y-58456286D01*
X136404048Y-60270571D01*
X136706429Y-61480095D01*
X137008810Y-62084857D01*
X137613572Y-62689619D01*
X140032619Y-62689619D01*
X133985000Y-68132476D02*
X133380238Y-68737238D01*
X132170714Y-68737238D01*
X131565953Y-68132476D01*
X131263572Y-66922952D01*
X131263572Y-66318190D01*
X131565953Y-65108667D01*
X132170714Y-64503905D01*
X133077857Y-64503905D01*
X133682619Y-63899143D01*
X133985000Y-62689619D01*
X133985000Y-62084857D01*
X133682619Y-60875333D01*
X133077857Y-60270571D01*
X132170714Y-60270571D01*
X131565953Y-60875333D01*
X129449286Y-60270571D02*
X127030238Y-60270571D01*
X128542143Y-56037238D02*
X128542143Y-66922952D01*
X128239762Y-68132476D01*
X127635000Y-68737238D01*
X127030238Y-68737238D01*
X124913572Y-68737238D02*
X124913572Y-60270571D01*
X124913572Y-56037238D02*
X125215953Y-56642000D01*
X124913572Y-57246762D01*
X124611191Y-56642000D01*
X124913572Y-56037238D01*
X124913572Y-57246762D01*
X119168334Y-68132476D02*
X119773096Y-68737238D01*
X120982619Y-68737238D01*
X121587381Y-68132476D01*
X121889762Y-67527714D01*
X122192143Y-66318190D01*
X122192143Y-62689619D01*
X121889762Y-61480095D01*
X121587381Y-60875333D01*
X120982619Y-60270571D01*
X119773096Y-60270571D01*
X119168334Y-60875333D01*
X116446905Y-68737238D02*
X116446905Y-56037238D01*
X115842143Y-63899143D02*
X114027858Y-68737238D01*
X114027858Y-60270571D02*
X116446905Y-65108667D01*
X103142144Y-68737238D02*
X106770715Y-68737238D01*
X104956429Y-68737238D02*
X104956429Y-56037238D01*
X105561191Y-57851524D01*
X106165953Y-59061048D01*
X106770715Y-59665810D01*
X100420715Y-67527714D02*
X100118334Y-68132476D01*
X100420715Y-68737238D01*
X100723096Y-68132476D01*
X100420715Y-67527714D01*
X100420715Y-68737238D01*
X97699286Y-57246762D02*
X97396905Y-56642000D01*
X96792143Y-56037238D01*
X95280239Y-56037238D01*
X94675477Y-56642000D01*
X94373096Y-57246762D01*
X94070715Y-58456286D01*
X94070715Y-59665810D01*
X94373096Y-61480095D01*
X98001667Y-68737238D01*
X94070715Y-68737238D01*
D13*
X125603000Y-76835000D02*
X125603000Y-76962000D01*
D14*
X70262857Y-53994857D02*
X70048571Y-54066286D01*
X69977143Y-54137714D01*
X69905714Y-54280571D01*
X69905714Y-54494857D01*
X69977143Y-54637714D01*
X70048571Y-54709143D01*
X70191429Y-54780571D01*
X70762857Y-54780571D01*
X70762857Y-53280571D01*
X70262857Y-53280571D01*
X70120000Y-53352000D01*
X70048571Y-53423429D01*
X69977143Y-53566286D01*
X69977143Y-53709143D01*
X70048571Y-53852000D01*
X70120000Y-53923429D01*
X70262857Y-53994857D01*
X70762857Y-53994857D01*
X68405714Y-54780571D02*
X68905714Y-54066286D01*
X69262857Y-54780571D02*
X69262857Y-53280571D01*
X68691429Y-53280571D01*
X68548571Y-53352000D01*
X68477143Y-53423429D01*
X68405714Y-53566286D01*
X68405714Y-53780571D01*
X68477143Y-53923429D01*
X68548571Y-53994857D01*
X68691429Y-54066286D01*
X69262857Y-54066286D01*
X67762857Y-54780571D02*
X67762857Y-53280571D01*
X66905714Y-54780571D01*
X66905714Y-53280571D01*
X77057142Y-53923429D02*
X77200000Y-53852000D01*
X77271428Y-53780571D01*
X77342857Y-53637714D01*
X77342857Y-53566286D01*
X77271428Y-53423429D01*
X77200000Y-53352000D01*
X77057142Y-53280571D01*
X76771428Y-53280571D01*
X76628571Y-53352000D01*
X76557142Y-53423429D01*
X76485714Y-53566286D01*
X76485714Y-53637714D01*
X76557142Y-53780571D01*
X76628571Y-53852000D01*
X76771428Y-53923429D01*
X77057142Y-53923429D01*
X77200000Y-53994857D01*
X77271428Y-54066286D01*
X77342857Y-54209143D01*
X77342857Y-54494857D01*
X77271428Y-54637714D01*
X77200000Y-54709143D01*
X77057142Y-54780571D01*
X76771428Y-54780571D01*
X76628571Y-54709143D01*
X76557142Y-54637714D01*
X76485714Y-54494857D01*
X76485714Y-54209143D01*
X76557142Y-54066286D01*
X76628571Y-53994857D01*
X76771428Y-53923429D01*
X76485714Y-72560571D02*
X77342857Y-72560571D01*
X76914285Y-72560571D02*
X76914285Y-71060571D01*
X77057142Y-71274857D01*
X77200000Y-71417714D01*
X77342857Y-71489143D01*
X63349429Y-70198285D02*
X63349429Y-69341142D01*
X61849429Y-69769713D02*
X63349429Y-69769713D01*
X61849429Y-68841142D02*
X63349429Y-68841142D01*
X62278000Y-68198285D02*
X62278000Y-67483999D01*
X61849429Y-68341142D02*
X63349429Y-67841142D01*
X61849429Y-67341142D01*
X63420857Y-65769714D02*
X61492286Y-67055428D01*
X62635143Y-65269713D02*
X62635143Y-64769713D01*
X61849429Y-64555427D02*
X61849429Y-65269713D01*
X63349429Y-65269713D01*
X63349429Y-64555427D01*
X61849429Y-63912570D02*
X63349429Y-63912570D01*
X62278000Y-63269713D02*
X62278000Y-62555427D01*
X61849429Y-63412570D02*
X63349429Y-62912570D01*
X61849429Y-62412570D01*
X62420857Y-61912570D02*
X62420857Y-60769713D01*
X63349429Y-59341141D02*
X63349429Y-60055427D01*
X62635143Y-60126856D01*
X62706571Y-60055427D01*
X62778000Y-59912570D01*
X62778000Y-59555427D01*
X62706571Y-59412570D01*
X62635143Y-59341141D01*
X62492286Y-59269713D01*
X62135143Y-59269713D01*
X61992286Y-59341141D01*
X61920857Y-59412570D01*
X61849429Y-59555427D01*
X61849429Y-59912570D01*
X61920857Y-60055427D01*
X61992286Y-60126856D01*
X63349429Y-57983999D02*
X63349429Y-58269713D01*
X63278000Y-58412570D01*
X63206571Y-58483999D01*
X62992286Y-58626856D01*
X62706571Y-58698285D01*
X62135143Y-58698285D01*
X61992286Y-58626856D01*
X61920857Y-58555428D01*
X61849429Y-58412570D01*
X61849429Y-58126856D01*
X61920857Y-57983999D01*
X61992286Y-57912570D01*
X62135143Y-57841142D01*
X62492286Y-57841142D01*
X62635143Y-57912570D01*
X62706571Y-57983999D01*
X62778000Y-58126856D01*
X62778000Y-58412570D01*
X62706571Y-58555428D01*
X62635143Y-58626856D01*
X62492286Y-58698285D01*
X62706571Y-56983999D02*
X62778000Y-57126857D01*
X62849429Y-57198285D01*
X62992286Y-57269714D01*
X63063714Y-57269714D01*
X63206571Y-57198285D01*
X63278000Y-57126857D01*
X63349429Y-56983999D01*
X63349429Y-56698285D01*
X63278000Y-56555428D01*
X63206571Y-56483999D01*
X63063714Y-56412571D01*
X62992286Y-56412571D01*
X62849429Y-56483999D01*
X62778000Y-56555428D01*
X62706571Y-56698285D01*
X62706571Y-56983999D01*
X62635143Y-57126857D01*
X62563714Y-57198285D01*
X62420857Y-57269714D01*
X62135143Y-57269714D01*
X61992286Y-57198285D01*
X61920857Y-57126857D01*
X61849429Y-56983999D01*
X61849429Y-56698285D01*
X61920857Y-56555428D01*
X61992286Y-56483999D01*
X62135143Y-56412571D01*
X62420857Y-56412571D01*
X62563714Y-56483999D01*
X62635143Y-56555428D01*
X62706571Y-56698285D01*
X62635143Y-55269714D02*
X62563714Y-55055428D01*
X62492286Y-54984000D01*
X62349429Y-54912571D01*
X62135143Y-54912571D01*
X61992286Y-54984000D01*
X61920857Y-55055428D01*
X61849429Y-55198286D01*
X61849429Y-55769714D01*
X63349429Y-55769714D01*
X63349429Y-55269714D01*
X63278000Y-55126857D01*
X63206571Y-55055428D01*
X63063714Y-54984000D01*
X62920857Y-54984000D01*
X62778000Y-55055428D01*
X62706571Y-55126857D01*
X62635143Y-55269714D01*
X62635143Y-55769714D01*
X57620857Y-70198286D02*
X57620857Y-69055429D01*
X57049429Y-69626858D02*
X58192286Y-69626858D01*
X58549429Y-68555429D02*
X57049429Y-68055429D01*
X58549429Y-67555429D01*
X57835143Y-65412572D02*
X57763714Y-65198286D01*
X57692286Y-65126858D01*
X57549429Y-65055429D01*
X57335143Y-65055429D01*
X57192286Y-65126858D01*
X57120857Y-65198286D01*
X57049429Y-65341144D01*
X57049429Y-65912572D01*
X58549429Y-65912572D01*
X58549429Y-65412572D01*
X58478000Y-65269715D01*
X58406571Y-65198286D01*
X58263714Y-65126858D01*
X58120857Y-65126858D01*
X57978000Y-65198286D01*
X57906571Y-65269715D01*
X57835143Y-65412572D01*
X57835143Y-65912572D01*
X57049429Y-63698286D02*
X57049429Y-64412572D01*
X58549429Y-64412572D01*
X58549429Y-63198286D02*
X57335143Y-63198286D01*
X57192286Y-63126858D01*
X57120857Y-63055429D01*
X57049429Y-62912572D01*
X57049429Y-62626858D01*
X57120857Y-62484000D01*
X57192286Y-62412572D01*
X57335143Y-62341143D01*
X58549429Y-62341143D01*
X58620857Y-60555429D02*
X56692286Y-61841143D01*
X57835143Y-59555428D02*
X57763714Y-59341142D01*
X57692286Y-59269714D01*
X57549429Y-59198285D01*
X57335143Y-59198285D01*
X57192286Y-59269714D01*
X57120857Y-59341142D01*
X57049429Y-59484000D01*
X57049429Y-60055428D01*
X58549429Y-60055428D01*
X58549429Y-59555428D01*
X58478000Y-59412571D01*
X58406571Y-59341142D01*
X58263714Y-59269714D01*
X58120857Y-59269714D01*
X57978000Y-59341142D01*
X57906571Y-59412571D01*
X57835143Y-59555428D01*
X57835143Y-60055428D01*
X57049429Y-57841142D02*
X57049429Y-58555428D01*
X58549429Y-58555428D01*
X58549429Y-57341142D02*
X57335143Y-57341142D01*
X57192286Y-57269714D01*
X57120857Y-57198285D01*
X57049429Y-57055428D01*
X57049429Y-56769714D01*
X57120857Y-56626856D01*
X57192286Y-56555428D01*
X57335143Y-56483999D01*
X58549429Y-56483999D01*
X58549429Y-55912570D02*
X57049429Y-55555427D01*
X58120857Y-55269713D01*
X57049429Y-54983999D01*
X58549429Y-54626856D01*
X56078000Y-70412572D02*
X56149429Y-70555429D01*
X56149429Y-70769715D01*
X56078000Y-70984000D01*
X55935143Y-71126858D01*
X55792286Y-71198286D01*
X55506571Y-71269715D01*
X55292286Y-71269715D01*
X55006571Y-71198286D01*
X54863714Y-71126858D01*
X54720857Y-70984000D01*
X54649429Y-70769715D01*
X54649429Y-70626858D01*
X54720857Y-70412572D01*
X54792286Y-70341143D01*
X55292286Y-70341143D01*
X55292286Y-70626858D01*
X54649429Y-69698286D02*
X56149429Y-69698286D01*
X54649429Y-68841143D01*
X56149429Y-68841143D01*
X54649429Y-68126857D02*
X56149429Y-68126857D01*
X56149429Y-67769714D01*
X56078000Y-67555429D01*
X55935143Y-67412571D01*
X55792286Y-67341143D01*
X55506571Y-67269714D01*
X55292286Y-67269714D01*
X55006571Y-67341143D01*
X54863714Y-67412571D01*
X54720857Y-67555429D01*
X54649429Y-67769714D01*
X54649429Y-68126857D01*
X55435143Y-64984000D02*
X55363714Y-64769714D01*
X55292286Y-64698286D01*
X55149429Y-64626857D01*
X54935143Y-64626857D01*
X54792286Y-64698286D01*
X54720857Y-64769714D01*
X54649429Y-64912572D01*
X54649429Y-65484000D01*
X56149429Y-65484000D01*
X56149429Y-64984000D01*
X56078000Y-64841143D01*
X56006571Y-64769714D01*
X55863714Y-64698286D01*
X55720857Y-64698286D01*
X55578000Y-64769714D01*
X55506571Y-64841143D01*
X55435143Y-64984000D01*
X55435143Y-65484000D01*
X54649429Y-63126857D02*
X55363714Y-63626857D01*
X54649429Y-63984000D02*
X56149429Y-63984000D01*
X56149429Y-63412572D01*
X56078000Y-63269714D01*
X56006571Y-63198286D01*
X55863714Y-63126857D01*
X55649429Y-63126857D01*
X55506571Y-63198286D01*
X55435143Y-63269714D01*
X55363714Y-63412572D01*
X55363714Y-63984000D01*
X54649429Y-62484000D02*
X56149429Y-62484000D01*
X54649429Y-61626857D01*
X56149429Y-61626857D01*
X56220857Y-59841143D02*
X54292286Y-61126857D01*
X55435143Y-58841142D02*
X55363714Y-58626856D01*
X55292286Y-58555428D01*
X55149429Y-58483999D01*
X54935143Y-58483999D01*
X54792286Y-58555428D01*
X54720857Y-58626856D01*
X54649429Y-58769714D01*
X54649429Y-59341142D01*
X56149429Y-59341142D01*
X56149429Y-58841142D01*
X56078000Y-58698285D01*
X56006571Y-58626856D01*
X55863714Y-58555428D01*
X55720857Y-58555428D01*
X55578000Y-58626856D01*
X55506571Y-58698285D01*
X55435143Y-58841142D01*
X55435143Y-59341142D01*
X54649429Y-56983999D02*
X55363714Y-57483999D01*
X54649429Y-57841142D02*
X56149429Y-57841142D01*
X56149429Y-57269714D01*
X56078000Y-57126856D01*
X56006571Y-57055428D01*
X55863714Y-56983999D01*
X55649429Y-56983999D01*
X55506571Y-57055428D01*
X55435143Y-57126856D01*
X55363714Y-57269714D01*
X55363714Y-57841142D01*
X54649429Y-56341142D02*
X56149429Y-56341142D01*
X54649429Y-55483999D01*
X56149429Y-55483999D01*
X56149429Y-54912570D02*
X54649429Y-54555427D01*
X55720857Y-54269713D01*
X54649429Y-53983999D01*
X56149429Y-53626856D01*
X70262857Y-56534857D02*
X70048571Y-56606286D01*
X69977143Y-56677714D01*
X69905714Y-56820571D01*
X69905714Y-57034857D01*
X69977143Y-57177714D01*
X70048571Y-57249143D01*
X70191429Y-57320571D01*
X70762857Y-57320571D01*
X70762857Y-55820571D01*
X70262857Y-55820571D01*
X70120000Y-55892000D01*
X70048571Y-55963429D01*
X69977143Y-56106286D01*
X69977143Y-56249143D01*
X70048571Y-56392000D01*
X70120000Y-56463429D01*
X70262857Y-56534857D01*
X70762857Y-56534857D01*
X68405714Y-57320571D02*
X68905714Y-56606286D01*
X69262857Y-57320571D02*
X69262857Y-55820571D01*
X68691429Y-55820571D01*
X68548571Y-55892000D01*
X68477143Y-55963429D01*
X68405714Y-56106286D01*
X68405714Y-56320571D01*
X68477143Y-56463429D01*
X68548571Y-56534857D01*
X68691429Y-56606286D01*
X69262857Y-56606286D01*
X67762857Y-57320571D02*
X67762857Y-55820571D01*
X66905714Y-57320571D01*
X66905714Y-55820571D01*
X66334285Y-55820571D02*
X65977142Y-57320571D01*
X65691428Y-56249143D01*
X65405714Y-57320571D01*
X65048571Y-55820571D01*
X69977143Y-58432000D02*
X70120000Y-58360571D01*
X70334286Y-58360571D01*
X70548571Y-58432000D01*
X70691429Y-58574857D01*
X70762857Y-58717714D01*
X70834286Y-59003429D01*
X70834286Y-59217714D01*
X70762857Y-59503429D01*
X70691429Y-59646286D01*
X70548571Y-59789143D01*
X70334286Y-59860571D01*
X70191429Y-59860571D01*
X69977143Y-59789143D01*
X69905714Y-59717714D01*
X69905714Y-59217714D01*
X70191429Y-59217714D01*
X68405714Y-59860571D02*
X68905714Y-59146286D01*
X69262857Y-59860571D02*
X69262857Y-58360571D01*
X68691429Y-58360571D01*
X68548571Y-58432000D01*
X68477143Y-58503429D01*
X68405714Y-58646286D01*
X68405714Y-58860571D01*
X68477143Y-59003429D01*
X68548571Y-59074857D01*
X68691429Y-59146286D01*
X69262857Y-59146286D01*
X67762857Y-59860571D02*
X67762857Y-58360571D01*
X66905714Y-59860571D01*
X66905714Y-58360571D01*
X70262857Y-61614857D02*
X70048571Y-61686286D01*
X69977143Y-61757714D01*
X69905714Y-61900571D01*
X69905714Y-62114857D01*
X69977143Y-62257714D01*
X70048571Y-62329143D01*
X70191429Y-62400571D01*
X70762857Y-62400571D01*
X70762857Y-60900571D01*
X70262857Y-60900571D01*
X70120000Y-60972000D01*
X70048571Y-61043429D01*
X69977143Y-61186286D01*
X69977143Y-61329143D01*
X70048571Y-61472000D01*
X70120000Y-61543429D01*
X70262857Y-61614857D01*
X70762857Y-61614857D01*
X68548571Y-62400571D02*
X69262857Y-62400571D01*
X69262857Y-60900571D01*
X68048571Y-60900571D02*
X68048571Y-62114857D01*
X67977143Y-62257714D01*
X67905714Y-62329143D01*
X67762857Y-62400571D01*
X67477143Y-62400571D01*
X67334285Y-62329143D01*
X67262857Y-62257714D01*
X67191428Y-62114857D01*
X67191428Y-60900571D01*
X66619999Y-60900571D02*
X66262856Y-62400571D01*
X65977142Y-61329143D01*
X65691428Y-62400571D01*
X65334285Y-60900571D01*
X70262857Y-64154857D02*
X70048571Y-64226286D01*
X69977143Y-64297714D01*
X69905714Y-64440571D01*
X69905714Y-64654857D01*
X69977143Y-64797714D01*
X70048571Y-64869143D01*
X70191429Y-64940571D01*
X70762857Y-64940571D01*
X70762857Y-63440571D01*
X70262857Y-63440571D01*
X70120000Y-63512000D01*
X70048571Y-63583429D01*
X69977143Y-63726286D01*
X69977143Y-63869143D01*
X70048571Y-64012000D01*
X70120000Y-64083429D01*
X70262857Y-64154857D01*
X70762857Y-64154857D01*
X68548571Y-64940571D02*
X69262857Y-64940571D01*
X69262857Y-63440571D01*
X68048571Y-63440571D02*
X68048571Y-64654857D01*
X67977143Y-64797714D01*
X67905714Y-64869143D01*
X67762857Y-64940571D01*
X67477143Y-64940571D01*
X67334285Y-64869143D01*
X67262857Y-64797714D01*
X67191428Y-64654857D01*
X67191428Y-63440571D01*
X69977143Y-66052000D02*
X70120000Y-65980571D01*
X70334286Y-65980571D01*
X70548571Y-66052000D01*
X70691429Y-66194857D01*
X70762857Y-66337714D01*
X70834286Y-66623429D01*
X70834286Y-66837714D01*
X70762857Y-67123429D01*
X70691429Y-67266286D01*
X70548571Y-67409143D01*
X70334286Y-67480571D01*
X70191429Y-67480571D01*
X69977143Y-67409143D01*
X69905714Y-67337714D01*
X69905714Y-66837714D01*
X70191429Y-66837714D01*
X68405714Y-67480571D02*
X68905714Y-66766286D01*
X69262857Y-67480571D02*
X69262857Y-65980571D01*
X68691429Y-65980571D01*
X68548571Y-66052000D01*
X68477143Y-66123429D01*
X68405714Y-66266286D01*
X68405714Y-66480571D01*
X68477143Y-66623429D01*
X68548571Y-66694857D01*
X68691429Y-66766286D01*
X69262857Y-66766286D01*
X67762857Y-67480571D02*
X67762857Y-65980571D01*
X66905714Y-67480571D01*
X66905714Y-65980571D01*
X66334285Y-65980571D02*
X65977142Y-67480571D01*
X65691428Y-66409143D01*
X65405714Y-67480571D01*
X65048571Y-65980571D01*
X70477143Y-68520571D02*
X70191429Y-68520571D01*
X70048571Y-68592000D01*
X69905714Y-68734857D01*
X69834286Y-69020571D01*
X69834286Y-69520571D01*
X69905714Y-69806286D01*
X70048571Y-69949143D01*
X70191429Y-70020571D01*
X70477143Y-70020571D01*
X70620000Y-69949143D01*
X70762857Y-69806286D01*
X70834286Y-69520571D01*
X70834286Y-69020571D01*
X70762857Y-68734857D01*
X70620000Y-68592000D01*
X70477143Y-68520571D01*
X68334285Y-70020571D02*
X68834285Y-69306286D01*
X69191428Y-70020571D02*
X69191428Y-68520571D01*
X68620000Y-68520571D01*
X68477142Y-68592000D01*
X68405714Y-68663429D01*
X68334285Y-68806286D01*
X68334285Y-69020571D01*
X68405714Y-69163429D01*
X68477142Y-69234857D01*
X68620000Y-69306286D01*
X69191428Y-69306286D01*
X66905714Y-68592000D02*
X67048571Y-68520571D01*
X67262857Y-68520571D01*
X67477142Y-68592000D01*
X67620000Y-68734857D01*
X67691428Y-68877714D01*
X67762857Y-69163429D01*
X67762857Y-69377714D01*
X67691428Y-69663429D01*
X67620000Y-69806286D01*
X67477142Y-69949143D01*
X67262857Y-70020571D01*
X67120000Y-70020571D01*
X66905714Y-69949143D01*
X66834285Y-69877714D01*
X66834285Y-69377714D01*
X67120000Y-69377714D01*
X70477143Y-71060571D02*
X70191429Y-71060571D01*
X70048571Y-71132000D01*
X69905714Y-71274857D01*
X69834286Y-71560571D01*
X69834286Y-72060571D01*
X69905714Y-72346286D01*
X70048571Y-72489143D01*
X70191429Y-72560571D01*
X70477143Y-72560571D01*
X70620000Y-72489143D01*
X70762857Y-72346286D01*
X70834286Y-72060571D01*
X70834286Y-71560571D01*
X70762857Y-71274857D01*
X70620000Y-71132000D01*
X70477143Y-71060571D01*
X68334285Y-72560571D02*
X68834285Y-71846286D01*
X69191428Y-72560571D02*
X69191428Y-71060571D01*
X68620000Y-71060571D01*
X68477142Y-71132000D01*
X68405714Y-71203429D01*
X68334285Y-71346286D01*
X68334285Y-71560571D01*
X68405714Y-71703429D01*
X68477142Y-71774857D01*
X68620000Y-71846286D01*
X69191428Y-71846286D01*
X66905714Y-71132000D02*
X67048571Y-71060571D01*
X67262857Y-71060571D01*
X67477142Y-71132000D01*
X67620000Y-71274857D01*
X67691428Y-71417714D01*
X67762857Y-71703429D01*
X67762857Y-71917714D01*
X67691428Y-72203429D01*
X67620000Y-72346286D01*
X67477142Y-72489143D01*
X67262857Y-72560571D01*
X67120000Y-72560571D01*
X66905714Y-72489143D01*
X66834285Y-72417714D01*
X66834285Y-71917714D01*
X67120000Y-71917714D01*
X66334285Y-71060571D02*
X65977142Y-72560571D01*
X65691428Y-71489143D01*
X65405714Y-72560571D01*
X65048571Y-71060571D01*
D10*
X78328000Y-48960000D02*
X80328000Y-48960000D01*
X90328000Y-50960000D02*
X90328000Y-48960000D01*
X78328000Y-50960000D02*
X78328000Y-48960000D01*
X88328000Y-72960000D02*
X90328000Y-72960000D01*
X78328000Y-72960000D02*
X80328000Y-72960000D01*
X90328000Y-72960000D02*
X90328000Y-70960000D01*
X90328000Y-48960000D02*
X88328000Y-48960000D01*
X78328000Y-72960000D02*
X78328000Y-70960000D01*
%LPC*%
D15*
X158750000Y-60452000D03*
D16*
X158750000Y-57912000D03*
D17*
X163390000Y-54132000D03*
X159190000Y-54132000D03*
X159190000Y-51732000D03*
X163390000Y-51732000D03*
X161290000Y-55232000D03*
D18*
X161290000Y-52832000D03*
D17*
X161290000Y-50532000D03*
D15*
X67310000Y-74422000D03*
D16*
X64770000Y-74422000D03*
D15*
X67310000Y-50292000D03*
D16*
X64770000Y-50292000D03*
D19*
X124460000Y-73152000D03*
D20*
X124460000Y-75692000D03*
X121920000Y-73152000D03*
X121920000Y-75692000D03*
X119380000Y-73152000D03*
X119380000Y-75692000D03*
X116840000Y-73152000D03*
X116840000Y-75692000D03*
X114300000Y-73152000D03*
X114300000Y-75692000D03*
D19*
X143510000Y-74422000D03*
D20*
X140970000Y-74422000D03*
X138430000Y-74422000D03*
X135890000Y-74422000D03*
X133350000Y-74422000D03*
D21*
X73660000Y-71882000D03*
X73660000Y-69342000D03*
X73660000Y-66802000D03*
X73660000Y-64262000D03*
X73660000Y-61722000D03*
X73660000Y-59182000D03*
X73660000Y-56642000D03*
X73660000Y-54102000D03*
D17*
X51630000Y-54132000D03*
X47430000Y-54132000D03*
X47430000Y-51732000D03*
X51630000Y-51732000D03*
X49530000Y-55232000D03*
D18*
X49530000Y-52832000D03*
D17*
X49530000Y-50532000D03*
X51630000Y-73182000D03*
X47430000Y-73182000D03*
X47430000Y-70782000D03*
X51630000Y-70782000D03*
X49530000Y-74282000D03*
D18*
X49530000Y-71882000D03*
D17*
X49530000Y-69582000D03*
X163390000Y-73182000D03*
X159190000Y-73182000D03*
X159190000Y-70782000D03*
X163390000Y-70782000D03*
X161290000Y-74282000D03*
D18*
X161290000Y-71882000D03*
D17*
X161290000Y-69582000D03*
D22*
X138430000Y-65532000D03*
X135890000Y-68072000D03*
M02*
