G04 #@! TF.FileFunction,Legend,Bot*
%FSLAX46Y46*%
G04 Gerber Fmt 4.6, Leading zero omitted, Abs format (unit mm)*
G04 Created by KiCad (PCBNEW 0.201411071246+5256~19~ubuntu14.04.1-product) date Tue 11 Nov 2014 19:19:08 NZDT*
%MOMM*%
G01*
G04 APERTURE LIST*
%ADD10C,0.150000*%
%ADD11C,0.300000*%
%ADD12C,0.165100*%
%ADD13R,1.524000X1.524000*%
%ADD14C,1.524000*%
%ADD15O,3.302000X1.524000*%
%ADD16O,5.000000X2.199640*%
%ADD17R,1.524000X2.199640*%
%ADD18O,1.524000X2.199640*%
G04 APERTURE END LIST*
D10*
D11*
X76930142Y-53415429D02*
X77073000Y-53344000D01*
X77144428Y-53272571D01*
X77215857Y-53129714D01*
X77215857Y-53058286D01*
X77144428Y-52915429D01*
X77073000Y-52844000D01*
X76930142Y-52772571D01*
X76644428Y-52772571D01*
X76501571Y-52844000D01*
X76430142Y-52915429D01*
X76358714Y-53058286D01*
X76358714Y-53129714D01*
X76430142Y-53272571D01*
X76501571Y-53344000D01*
X76644428Y-53415429D01*
X76930142Y-53415429D01*
X77073000Y-53486857D01*
X77144428Y-53558286D01*
X77215857Y-53701143D01*
X77215857Y-53986857D01*
X77144428Y-54129714D01*
X77073000Y-54201143D01*
X76930142Y-54272571D01*
X76644428Y-54272571D01*
X76501571Y-54201143D01*
X76430142Y-54129714D01*
X76358714Y-53986857D01*
X76358714Y-53701143D01*
X76430142Y-53558286D01*
X76501571Y-53486857D01*
X76644428Y-53415429D01*
X76358714Y-71989071D02*
X77215857Y-71989071D01*
X76787285Y-71989071D02*
X76787285Y-70489071D01*
X76930142Y-70703357D01*
X77073000Y-70846214D01*
X77215857Y-70917643D01*
D12*
X118046500Y-71183500D02*
X118046500Y-72136000D01*
X115506500Y-71183500D02*
X118046500Y-71183500D01*
X115506500Y-72136000D02*
X115506500Y-71183500D01*
D11*
X62721429Y-70114285D02*
X62721429Y-69257142D01*
X61221429Y-69685713D02*
X62721429Y-69685713D01*
X61221429Y-68757142D02*
X62721429Y-68757142D01*
X61650000Y-68114285D02*
X61650000Y-67399999D01*
X61221429Y-68257142D02*
X62721429Y-67757142D01*
X61221429Y-67257142D01*
X62792857Y-65685714D02*
X60864286Y-66971428D01*
X62007143Y-65185713D02*
X62007143Y-64685713D01*
X61221429Y-64471427D02*
X61221429Y-65185713D01*
X62721429Y-65185713D01*
X62721429Y-64471427D01*
X61221429Y-63828570D02*
X62721429Y-63828570D01*
X61650000Y-63185713D02*
X61650000Y-62471427D01*
X61221429Y-63328570D02*
X62721429Y-62828570D01*
X61221429Y-62328570D01*
X61792857Y-61828570D02*
X61792857Y-60685713D01*
X62721429Y-59257141D02*
X62721429Y-59971427D01*
X62007143Y-60042856D01*
X62078571Y-59971427D01*
X62150000Y-59828570D01*
X62150000Y-59471427D01*
X62078571Y-59328570D01*
X62007143Y-59257141D01*
X61864286Y-59185713D01*
X61507143Y-59185713D01*
X61364286Y-59257141D01*
X61292857Y-59328570D01*
X61221429Y-59471427D01*
X61221429Y-59828570D01*
X61292857Y-59971427D01*
X61364286Y-60042856D01*
X62721429Y-57899999D02*
X62721429Y-58185713D01*
X62650000Y-58328570D01*
X62578571Y-58399999D01*
X62364286Y-58542856D01*
X62078571Y-58614285D01*
X61507143Y-58614285D01*
X61364286Y-58542856D01*
X61292857Y-58471428D01*
X61221429Y-58328570D01*
X61221429Y-58042856D01*
X61292857Y-57899999D01*
X61364286Y-57828570D01*
X61507143Y-57757142D01*
X61864286Y-57757142D01*
X62007143Y-57828570D01*
X62078571Y-57899999D01*
X62150000Y-58042856D01*
X62150000Y-58328570D01*
X62078571Y-58471428D01*
X62007143Y-58542856D01*
X61864286Y-58614285D01*
X62078571Y-56899999D02*
X62150000Y-57042857D01*
X62221429Y-57114285D01*
X62364286Y-57185714D01*
X62435714Y-57185714D01*
X62578571Y-57114285D01*
X62650000Y-57042857D01*
X62721429Y-56899999D01*
X62721429Y-56614285D01*
X62650000Y-56471428D01*
X62578571Y-56399999D01*
X62435714Y-56328571D01*
X62364286Y-56328571D01*
X62221429Y-56399999D01*
X62150000Y-56471428D01*
X62078571Y-56614285D01*
X62078571Y-56899999D01*
X62007143Y-57042857D01*
X61935714Y-57114285D01*
X61792857Y-57185714D01*
X61507143Y-57185714D01*
X61364286Y-57114285D01*
X61292857Y-57042857D01*
X61221429Y-56899999D01*
X61221429Y-56614285D01*
X61292857Y-56471428D01*
X61364286Y-56399999D01*
X61507143Y-56328571D01*
X61792857Y-56328571D01*
X61935714Y-56399999D01*
X62007143Y-56471428D01*
X62078571Y-56614285D01*
X62007143Y-55185714D02*
X61935714Y-54971428D01*
X61864286Y-54900000D01*
X61721429Y-54828571D01*
X61507143Y-54828571D01*
X61364286Y-54900000D01*
X61292857Y-54971428D01*
X61221429Y-55114286D01*
X61221429Y-55685714D01*
X62721429Y-55685714D01*
X62721429Y-55185714D01*
X62650000Y-55042857D01*
X62578571Y-54971428D01*
X62435714Y-54900000D01*
X62292857Y-54900000D01*
X62150000Y-54971428D01*
X62078571Y-55042857D01*
X62007143Y-55185714D01*
X62007143Y-55685714D01*
X56421429Y-67828570D02*
X57921429Y-67828570D01*
X57921429Y-67471427D01*
X57850000Y-67257142D01*
X57707143Y-67114284D01*
X57564286Y-67042856D01*
X57278571Y-66971427D01*
X57064286Y-66971427D01*
X56778571Y-67042856D01*
X56635714Y-67114284D01*
X56492857Y-67257142D01*
X56421429Y-67471427D01*
X56421429Y-67828570D01*
X56564286Y-65471427D02*
X56492857Y-65542856D01*
X56421429Y-65757142D01*
X56421429Y-65899999D01*
X56492857Y-66114284D01*
X56635714Y-66257142D01*
X56778571Y-66328570D01*
X57064286Y-66399999D01*
X57278571Y-66399999D01*
X57564286Y-66328570D01*
X57707143Y-66257142D01*
X57850000Y-66114284D01*
X57921429Y-65899999D01*
X57921429Y-65757142D01*
X57850000Y-65542856D01*
X57778571Y-65471427D01*
X57921429Y-63828570D02*
X57921429Y-62828570D01*
X56421429Y-63471427D01*
X56992857Y-62257142D02*
X56992857Y-61114285D01*
X57921429Y-60542856D02*
X57921429Y-59614285D01*
X57350000Y-60114285D01*
X57350000Y-59899999D01*
X57278571Y-59757142D01*
X57207143Y-59685713D01*
X57064286Y-59614285D01*
X56707143Y-59614285D01*
X56564286Y-59685713D01*
X56492857Y-59757142D01*
X56421429Y-59899999D01*
X56421429Y-60328571D01*
X56492857Y-60471428D01*
X56564286Y-60542856D01*
X57921429Y-58328571D02*
X57921429Y-58614285D01*
X57850000Y-58757142D01*
X57778571Y-58828571D01*
X57564286Y-58971428D01*
X57278571Y-59042857D01*
X56707143Y-59042857D01*
X56564286Y-58971428D01*
X56492857Y-58900000D01*
X56421429Y-58757142D01*
X56421429Y-58471428D01*
X56492857Y-58328571D01*
X56564286Y-58257142D01*
X56707143Y-58185714D01*
X57064286Y-58185714D01*
X57207143Y-58257142D01*
X57278571Y-58328571D01*
X57350000Y-58471428D01*
X57350000Y-58757142D01*
X57278571Y-58900000D01*
X57207143Y-58971428D01*
X57064286Y-59042857D01*
X57921429Y-57757143D02*
X56421429Y-57257143D01*
X57921429Y-56757143D01*
X54592857Y-70114286D02*
X54592857Y-68971429D01*
X54021429Y-69542858D02*
X55164286Y-69542858D01*
X55521429Y-68471429D02*
X54021429Y-67971429D01*
X55521429Y-67471429D01*
X54807143Y-65328572D02*
X54735714Y-65114286D01*
X54664286Y-65042858D01*
X54521429Y-64971429D01*
X54307143Y-64971429D01*
X54164286Y-65042858D01*
X54092857Y-65114286D01*
X54021429Y-65257144D01*
X54021429Y-65828572D01*
X55521429Y-65828572D01*
X55521429Y-65328572D01*
X55450000Y-65185715D01*
X55378571Y-65114286D01*
X55235714Y-65042858D01*
X55092857Y-65042858D01*
X54950000Y-65114286D01*
X54878571Y-65185715D01*
X54807143Y-65328572D01*
X54807143Y-65828572D01*
X54021429Y-63614286D02*
X54021429Y-64328572D01*
X55521429Y-64328572D01*
X55521429Y-63114286D02*
X54307143Y-63114286D01*
X54164286Y-63042858D01*
X54092857Y-62971429D01*
X54021429Y-62828572D01*
X54021429Y-62542858D01*
X54092857Y-62400000D01*
X54164286Y-62328572D01*
X54307143Y-62257143D01*
X55521429Y-62257143D01*
X55592857Y-60471429D02*
X53664286Y-61757143D01*
X54807143Y-59471428D02*
X54735714Y-59257142D01*
X54664286Y-59185714D01*
X54521429Y-59114285D01*
X54307143Y-59114285D01*
X54164286Y-59185714D01*
X54092857Y-59257142D01*
X54021429Y-59400000D01*
X54021429Y-59971428D01*
X55521429Y-59971428D01*
X55521429Y-59471428D01*
X55450000Y-59328571D01*
X55378571Y-59257142D01*
X55235714Y-59185714D01*
X55092857Y-59185714D01*
X54950000Y-59257142D01*
X54878571Y-59328571D01*
X54807143Y-59471428D01*
X54807143Y-59971428D01*
X54021429Y-57757142D02*
X54021429Y-58471428D01*
X55521429Y-58471428D01*
X55521429Y-57257142D02*
X54307143Y-57257142D01*
X54164286Y-57185714D01*
X54092857Y-57114285D01*
X54021429Y-56971428D01*
X54021429Y-56685714D01*
X54092857Y-56542856D01*
X54164286Y-56471428D01*
X54307143Y-56399999D01*
X55521429Y-56399999D01*
X55521429Y-55828570D02*
X54021429Y-55471427D01*
X55092857Y-55185713D01*
X54021429Y-54899999D01*
X55521429Y-54542856D01*
X53050000Y-70328572D02*
X53121429Y-70471429D01*
X53121429Y-70685715D01*
X53050000Y-70900000D01*
X52907143Y-71042858D01*
X52764286Y-71114286D01*
X52478571Y-71185715D01*
X52264286Y-71185715D01*
X51978571Y-71114286D01*
X51835714Y-71042858D01*
X51692857Y-70900000D01*
X51621429Y-70685715D01*
X51621429Y-70542858D01*
X51692857Y-70328572D01*
X51764286Y-70257143D01*
X52264286Y-70257143D01*
X52264286Y-70542858D01*
X51621429Y-69614286D02*
X53121429Y-69614286D01*
X51621429Y-68757143D01*
X53121429Y-68757143D01*
X51621429Y-68042857D02*
X53121429Y-68042857D01*
X53121429Y-67685714D01*
X53050000Y-67471429D01*
X52907143Y-67328571D01*
X52764286Y-67257143D01*
X52478571Y-67185714D01*
X52264286Y-67185714D01*
X51978571Y-67257143D01*
X51835714Y-67328571D01*
X51692857Y-67471429D01*
X51621429Y-67685714D01*
X51621429Y-68042857D01*
X52407143Y-64900000D02*
X52335714Y-64685714D01*
X52264286Y-64614286D01*
X52121429Y-64542857D01*
X51907143Y-64542857D01*
X51764286Y-64614286D01*
X51692857Y-64685714D01*
X51621429Y-64828572D01*
X51621429Y-65400000D01*
X53121429Y-65400000D01*
X53121429Y-64900000D01*
X53050000Y-64757143D01*
X52978571Y-64685714D01*
X52835714Y-64614286D01*
X52692857Y-64614286D01*
X52550000Y-64685714D01*
X52478571Y-64757143D01*
X52407143Y-64900000D01*
X52407143Y-65400000D01*
X51621429Y-63042857D02*
X52335714Y-63542857D01*
X51621429Y-63900000D02*
X53121429Y-63900000D01*
X53121429Y-63328572D01*
X53050000Y-63185714D01*
X52978571Y-63114286D01*
X52835714Y-63042857D01*
X52621429Y-63042857D01*
X52478571Y-63114286D01*
X52407143Y-63185714D01*
X52335714Y-63328572D01*
X52335714Y-63900000D01*
X51621429Y-62400000D02*
X53121429Y-62400000D01*
X51621429Y-61542857D01*
X53121429Y-61542857D01*
X53192857Y-59757143D02*
X51264286Y-61042857D01*
X52407143Y-58757142D02*
X52335714Y-58542856D01*
X52264286Y-58471428D01*
X52121429Y-58399999D01*
X51907143Y-58399999D01*
X51764286Y-58471428D01*
X51692857Y-58542856D01*
X51621429Y-58685714D01*
X51621429Y-59257142D01*
X53121429Y-59257142D01*
X53121429Y-58757142D01*
X53050000Y-58614285D01*
X52978571Y-58542856D01*
X52835714Y-58471428D01*
X52692857Y-58471428D01*
X52550000Y-58542856D01*
X52478571Y-58614285D01*
X52407143Y-58757142D01*
X52407143Y-59257142D01*
X51621429Y-56899999D02*
X52335714Y-57399999D01*
X51621429Y-57757142D02*
X53121429Y-57757142D01*
X53121429Y-57185714D01*
X53050000Y-57042856D01*
X52978571Y-56971428D01*
X52835714Y-56899999D01*
X52621429Y-56899999D01*
X52478571Y-56971428D01*
X52407143Y-57042856D01*
X52335714Y-57185714D01*
X52335714Y-57757142D01*
X51621429Y-56257142D02*
X53121429Y-56257142D01*
X51621429Y-55399999D01*
X53121429Y-55399999D01*
X53121429Y-54828570D02*
X51621429Y-54471427D01*
X52692857Y-54185713D01*
X51621429Y-53899999D01*
X53121429Y-53542856D01*
X112450714Y-74148071D02*
X112950714Y-73433786D01*
X113307857Y-74148071D02*
X113307857Y-72648071D01*
X112736429Y-72648071D01*
X112593571Y-72719500D01*
X112522143Y-72790929D01*
X112450714Y-72933786D01*
X112450714Y-73148071D01*
X112522143Y-73290929D01*
X112593571Y-73362357D01*
X112736429Y-73433786D01*
X113307857Y-73433786D01*
X111807857Y-73362357D02*
X111307857Y-73362357D01*
X111093571Y-74148071D02*
X111807857Y-74148071D01*
X111807857Y-72648071D01*
X111093571Y-72648071D01*
X110522143Y-74076643D02*
X110307857Y-74148071D01*
X109950714Y-74148071D01*
X109807857Y-74076643D01*
X109736428Y-74005214D01*
X109665000Y-73862357D01*
X109665000Y-73719500D01*
X109736428Y-73576643D01*
X109807857Y-73505214D01*
X109950714Y-73433786D01*
X110236428Y-73362357D01*
X110379286Y-73290929D01*
X110450714Y-73219500D01*
X110522143Y-73076643D01*
X110522143Y-72933786D01*
X110450714Y-72790929D01*
X110379286Y-72719500D01*
X110236428Y-72648071D01*
X109879286Y-72648071D01*
X109665000Y-72719500D01*
X109022143Y-73362357D02*
X108522143Y-73362357D01*
X108307857Y-74148071D02*
X109022143Y-74148071D01*
X109022143Y-72648071D01*
X108307857Y-72648071D01*
X107879286Y-72648071D02*
X107022143Y-72648071D01*
X107450714Y-74148071D02*
X107450714Y-72648071D01*
X70770857Y-53613857D02*
X70556571Y-53685286D01*
X70485143Y-53756714D01*
X70413714Y-53899571D01*
X70413714Y-54113857D01*
X70485143Y-54256714D01*
X70556571Y-54328143D01*
X70699429Y-54399571D01*
X71270857Y-54399571D01*
X71270857Y-52899571D01*
X70770857Y-52899571D01*
X70628000Y-52971000D01*
X70556571Y-53042429D01*
X70485143Y-53185286D01*
X70485143Y-53328143D01*
X70556571Y-53471000D01*
X70628000Y-53542429D01*
X70770857Y-53613857D01*
X71270857Y-53613857D01*
X68913714Y-54399571D02*
X69413714Y-53685286D01*
X69770857Y-54399571D02*
X69770857Y-52899571D01*
X69199429Y-52899571D01*
X69056571Y-52971000D01*
X68985143Y-53042429D01*
X68913714Y-53185286D01*
X68913714Y-53399571D01*
X68985143Y-53542429D01*
X69056571Y-53613857D01*
X69199429Y-53685286D01*
X69770857Y-53685286D01*
X68270857Y-54399571D02*
X68270857Y-52899571D01*
X67413714Y-54399571D01*
X67413714Y-52899571D01*
X70770857Y-56153857D02*
X70556571Y-56225286D01*
X70485143Y-56296714D01*
X70413714Y-56439571D01*
X70413714Y-56653857D01*
X70485143Y-56796714D01*
X70556571Y-56868143D01*
X70699429Y-56939571D01*
X71270857Y-56939571D01*
X71270857Y-55439571D01*
X70770857Y-55439571D01*
X70628000Y-55511000D01*
X70556571Y-55582429D01*
X70485143Y-55725286D01*
X70485143Y-55868143D01*
X70556571Y-56011000D01*
X70628000Y-56082429D01*
X70770857Y-56153857D01*
X71270857Y-56153857D01*
X68913714Y-56939571D02*
X69413714Y-56225286D01*
X69770857Y-56939571D02*
X69770857Y-55439571D01*
X69199429Y-55439571D01*
X69056571Y-55511000D01*
X68985143Y-55582429D01*
X68913714Y-55725286D01*
X68913714Y-55939571D01*
X68985143Y-56082429D01*
X69056571Y-56153857D01*
X69199429Y-56225286D01*
X69770857Y-56225286D01*
X68270857Y-56939571D02*
X68270857Y-55439571D01*
X67413714Y-56939571D01*
X67413714Y-55439571D01*
X66842285Y-55439571D02*
X66485142Y-56939571D01*
X66199428Y-55868143D01*
X65913714Y-56939571D01*
X65556571Y-55439571D01*
X70485143Y-57924000D02*
X70628000Y-57852571D01*
X70842286Y-57852571D01*
X71056571Y-57924000D01*
X71199429Y-58066857D01*
X71270857Y-58209714D01*
X71342286Y-58495429D01*
X71342286Y-58709714D01*
X71270857Y-58995429D01*
X71199429Y-59138286D01*
X71056571Y-59281143D01*
X70842286Y-59352571D01*
X70699429Y-59352571D01*
X70485143Y-59281143D01*
X70413714Y-59209714D01*
X70413714Y-58709714D01*
X70699429Y-58709714D01*
X68913714Y-59352571D02*
X69413714Y-58638286D01*
X69770857Y-59352571D02*
X69770857Y-57852571D01*
X69199429Y-57852571D01*
X69056571Y-57924000D01*
X68985143Y-57995429D01*
X68913714Y-58138286D01*
X68913714Y-58352571D01*
X68985143Y-58495429D01*
X69056571Y-58566857D01*
X69199429Y-58638286D01*
X69770857Y-58638286D01*
X68270857Y-59352571D02*
X68270857Y-57852571D01*
X67413714Y-59352571D01*
X67413714Y-57852571D01*
X70770857Y-61233857D02*
X70556571Y-61305286D01*
X70485143Y-61376714D01*
X70413714Y-61519571D01*
X70413714Y-61733857D01*
X70485143Y-61876714D01*
X70556571Y-61948143D01*
X70699429Y-62019571D01*
X71270857Y-62019571D01*
X71270857Y-60519571D01*
X70770857Y-60519571D01*
X70628000Y-60591000D01*
X70556571Y-60662429D01*
X70485143Y-60805286D01*
X70485143Y-60948143D01*
X70556571Y-61091000D01*
X70628000Y-61162429D01*
X70770857Y-61233857D01*
X71270857Y-61233857D01*
X69056571Y-62019571D02*
X69770857Y-62019571D01*
X69770857Y-60519571D01*
X68556571Y-60519571D02*
X68556571Y-61733857D01*
X68485143Y-61876714D01*
X68413714Y-61948143D01*
X68270857Y-62019571D01*
X67985143Y-62019571D01*
X67842285Y-61948143D01*
X67770857Y-61876714D01*
X67699428Y-61733857D01*
X67699428Y-60519571D01*
X67127999Y-60519571D02*
X66770856Y-62019571D01*
X66485142Y-60948143D01*
X66199428Y-62019571D01*
X65842285Y-60519571D01*
X70770857Y-63773857D02*
X70556571Y-63845286D01*
X70485143Y-63916714D01*
X70413714Y-64059571D01*
X70413714Y-64273857D01*
X70485143Y-64416714D01*
X70556571Y-64488143D01*
X70699429Y-64559571D01*
X71270857Y-64559571D01*
X71270857Y-63059571D01*
X70770857Y-63059571D01*
X70628000Y-63131000D01*
X70556571Y-63202429D01*
X70485143Y-63345286D01*
X70485143Y-63488143D01*
X70556571Y-63631000D01*
X70628000Y-63702429D01*
X70770857Y-63773857D01*
X71270857Y-63773857D01*
X69056571Y-64559571D02*
X69770857Y-64559571D01*
X69770857Y-63059571D01*
X68556571Y-63059571D02*
X68556571Y-64273857D01*
X68485143Y-64416714D01*
X68413714Y-64488143D01*
X68270857Y-64559571D01*
X67985143Y-64559571D01*
X67842285Y-64488143D01*
X67770857Y-64416714D01*
X67699428Y-64273857D01*
X67699428Y-63059571D01*
X70485143Y-65544000D02*
X70628000Y-65472571D01*
X70842286Y-65472571D01*
X71056571Y-65544000D01*
X71199429Y-65686857D01*
X71270857Y-65829714D01*
X71342286Y-66115429D01*
X71342286Y-66329714D01*
X71270857Y-66615429D01*
X71199429Y-66758286D01*
X71056571Y-66901143D01*
X70842286Y-66972571D01*
X70699429Y-66972571D01*
X70485143Y-66901143D01*
X70413714Y-66829714D01*
X70413714Y-66329714D01*
X70699429Y-66329714D01*
X68913714Y-66972571D02*
X69413714Y-66258286D01*
X69770857Y-66972571D02*
X69770857Y-65472571D01*
X69199429Y-65472571D01*
X69056571Y-65544000D01*
X68985143Y-65615429D01*
X68913714Y-65758286D01*
X68913714Y-65972571D01*
X68985143Y-66115429D01*
X69056571Y-66186857D01*
X69199429Y-66258286D01*
X69770857Y-66258286D01*
X68270857Y-66972571D02*
X68270857Y-65472571D01*
X67413714Y-66972571D01*
X67413714Y-65472571D01*
X66842285Y-65472571D02*
X66485142Y-66972571D01*
X66199428Y-65901143D01*
X65913714Y-66972571D01*
X65556571Y-65472571D01*
X70985143Y-68012571D02*
X70699429Y-68012571D01*
X70556571Y-68084000D01*
X70413714Y-68226857D01*
X70342286Y-68512571D01*
X70342286Y-69012571D01*
X70413714Y-69298286D01*
X70556571Y-69441143D01*
X70699429Y-69512571D01*
X70985143Y-69512571D01*
X71128000Y-69441143D01*
X71270857Y-69298286D01*
X71342286Y-69012571D01*
X71342286Y-68512571D01*
X71270857Y-68226857D01*
X71128000Y-68084000D01*
X70985143Y-68012571D01*
X68842285Y-69512571D02*
X69342285Y-68798286D01*
X69699428Y-69512571D02*
X69699428Y-68012571D01*
X69128000Y-68012571D01*
X68985142Y-68084000D01*
X68913714Y-68155429D01*
X68842285Y-68298286D01*
X68842285Y-68512571D01*
X68913714Y-68655429D01*
X68985142Y-68726857D01*
X69128000Y-68798286D01*
X69699428Y-68798286D01*
X67413714Y-68084000D02*
X67556571Y-68012571D01*
X67770857Y-68012571D01*
X67985142Y-68084000D01*
X68128000Y-68226857D01*
X68199428Y-68369714D01*
X68270857Y-68655429D01*
X68270857Y-68869714D01*
X68199428Y-69155429D01*
X68128000Y-69298286D01*
X67985142Y-69441143D01*
X67770857Y-69512571D01*
X67628000Y-69512571D01*
X67413714Y-69441143D01*
X67342285Y-69369714D01*
X67342285Y-68869714D01*
X67628000Y-68869714D01*
X70985143Y-70552571D02*
X70699429Y-70552571D01*
X70556571Y-70624000D01*
X70413714Y-70766857D01*
X70342286Y-71052571D01*
X70342286Y-71552571D01*
X70413714Y-71838286D01*
X70556571Y-71981143D01*
X70699429Y-72052571D01*
X70985143Y-72052571D01*
X71128000Y-71981143D01*
X71270857Y-71838286D01*
X71342286Y-71552571D01*
X71342286Y-71052571D01*
X71270857Y-70766857D01*
X71128000Y-70624000D01*
X70985143Y-70552571D01*
X68842285Y-72052571D02*
X69342285Y-71338286D01*
X69699428Y-72052571D02*
X69699428Y-70552571D01*
X69128000Y-70552571D01*
X68985142Y-70624000D01*
X68913714Y-70695429D01*
X68842285Y-70838286D01*
X68842285Y-71052571D01*
X68913714Y-71195429D01*
X68985142Y-71266857D01*
X69128000Y-71338286D01*
X69699428Y-71338286D01*
X67413714Y-70624000D02*
X67556571Y-70552571D01*
X67770857Y-70552571D01*
X67985142Y-70624000D01*
X68128000Y-70766857D01*
X68199428Y-70909714D01*
X68270857Y-71195429D01*
X68270857Y-71409714D01*
X68199428Y-71695429D01*
X68128000Y-71838286D01*
X67985142Y-71981143D01*
X67770857Y-72052571D01*
X67628000Y-72052571D01*
X67413714Y-71981143D01*
X67342285Y-71909714D01*
X67342285Y-71409714D01*
X67628000Y-71409714D01*
X66842285Y-70552571D02*
X66485142Y-72052571D01*
X66199428Y-70981143D01*
X65913714Y-72052571D01*
X65556571Y-70552571D01*
%LPC*%
D13*
X141300200Y-61264800D03*
D14*
X138760200Y-61264800D03*
X141300200Y-58724800D03*
X138760200Y-58724800D03*
X141300200Y-56184800D03*
X138760200Y-56184800D03*
D15*
X73787000Y-71390000D03*
X73787000Y-68850000D03*
X73787000Y-66310000D03*
X73787000Y-63770000D03*
X73787000Y-61230000D03*
X73787000Y-58690000D03*
X73787000Y-56150000D03*
X73787000Y-53610000D03*
D16*
X35000000Y-57500000D03*
X35000000Y-67500000D03*
D17*
X125680000Y-73500000D03*
D18*
X123140000Y-73500000D03*
X120600000Y-73500000D03*
X118060000Y-73500000D03*
X115520000Y-73500000D03*
M02*
