G04 #@! TF.FileFunction,Copper,L2,Bot,Signal*
%FSLAX46Y46*%
G04 Gerber Fmt 4.6, Leading zero omitted, Abs format (unit mm)*
G04 Created by KiCad (PCBNEW 0.201411071246+5256~19~ubuntu14.04.1-product) date Tue 11 Nov 2014 19:19:08 NZDT*
%MOMM*%
G01*
G04 APERTURE LIST*
%ADD10C,0.150000*%
%ADD11C,0.300000*%
%ADD12R,1.524000X1.524000*%
%ADD13C,1.524000*%
%ADD14O,3.302000X1.524000*%
%ADD15O,5.000000X2.199640*%
%ADD16R,1.524000X2.199640*%
%ADD17O,1.524000X2.199640*%
%ADD18C,0.762000*%
%ADD19C,0.254000*%
%ADD20C,0.177800*%
G04 APERTURE END LIST*
D10*
D11*
X43020570Y-72727429D02*
X42949141Y-72656000D01*
X42806284Y-72584571D01*
X42449141Y-72584571D01*
X42306284Y-72656000D01*
X42234855Y-72727429D01*
X42163427Y-72870286D01*
X42163427Y-73013143D01*
X42234855Y-73227429D01*
X43091998Y-74084571D01*
X42163427Y-74084571D01*
X41234856Y-72584571D02*
X41091999Y-72584571D01*
X40949142Y-72656000D01*
X40877713Y-72727429D01*
X40806284Y-72870286D01*
X40734856Y-73156000D01*
X40734856Y-73513143D01*
X40806284Y-73798857D01*
X40877713Y-73941714D01*
X40949142Y-74013143D01*
X41091999Y-74084571D01*
X41234856Y-74084571D01*
X41377713Y-74013143D01*
X41449142Y-73941714D01*
X41520570Y-73798857D01*
X41591999Y-73513143D01*
X41591999Y-73156000D01*
X41520570Y-72870286D01*
X41449142Y-72727429D01*
X41377713Y-72656000D01*
X41234856Y-72584571D01*
X39306285Y-74084571D02*
X40163428Y-74084571D01*
X39734856Y-74084571D02*
X39734856Y-72584571D01*
X39877713Y-72798857D01*
X40020571Y-72941714D01*
X40163428Y-73013143D01*
X38020571Y-73084571D02*
X38020571Y-74084571D01*
X38377714Y-72513143D02*
X38734857Y-73584571D01*
X37806285Y-73584571D01*
X36449143Y-74084571D02*
X37306286Y-74084571D01*
X36877714Y-74084571D02*
X36877714Y-72584571D01*
X37020571Y-72798857D01*
X37163429Y-72941714D01*
X37306286Y-73013143D01*
X35020572Y-74084571D02*
X35877715Y-74084571D01*
X35449143Y-74084571D02*
X35449143Y-72584571D01*
X35592000Y-72798857D01*
X35734858Y-72941714D01*
X35877715Y-73013143D01*
X34092001Y-72584571D02*
X33949144Y-72584571D01*
X33806287Y-72656000D01*
X33734858Y-72727429D01*
X33663429Y-72870286D01*
X33592001Y-73156000D01*
X33592001Y-73513143D01*
X33663429Y-73798857D01*
X33734858Y-73941714D01*
X33806287Y-74013143D01*
X33949144Y-74084571D01*
X34092001Y-74084571D01*
X34234858Y-74013143D01*
X34306287Y-73941714D01*
X34377715Y-73798857D01*
X34449144Y-73513143D01*
X34449144Y-73156000D01*
X34377715Y-72870286D01*
X34306287Y-72727429D01*
X34234858Y-72656000D01*
X34092001Y-72584571D01*
X33092001Y-72584571D02*
X32092001Y-72584571D01*
X32734858Y-74084571D01*
D12*
X141300200Y-61264800D03*
D13*
X138760200Y-61264800D03*
X141300200Y-58724800D03*
X138760200Y-58724800D03*
X141300200Y-56184800D03*
X138760200Y-56184800D03*
D14*
X73787000Y-71390000D03*
X73787000Y-68850000D03*
X73787000Y-66310000D03*
X73787000Y-63770000D03*
X73787000Y-61230000D03*
X73787000Y-58690000D03*
X73787000Y-56150000D03*
X73787000Y-53610000D03*
D15*
X35000000Y-57500000D03*
X35000000Y-67500000D03*
D16*
X125680000Y-73500000D03*
D17*
X123140000Y-73500000D03*
X120600000Y-73500000D03*
X118060000Y-73500000D03*
X115520000Y-73500000D03*
D18*
X122834400Y-71323200D03*
X116687600Y-68757800D03*
X120802400Y-61798200D03*
X116403051Y-60484308D03*
X81330800Y-66903600D03*
X81407000Y-64363600D03*
X129590800Y-66751200D03*
X129458258Y-67758519D03*
X132987831Y-58730688D03*
X121005773Y-59857828D03*
X133667500Y-57975500D03*
X122010690Y-60007500D03*
X129480484Y-65218484D03*
X135864600Y-71805800D03*
X135864600Y-70942200D03*
X132842000Y-60960000D03*
X104457500Y-63182500D03*
X136207500Y-56832500D03*
X124460000Y-61468000D03*
X121412000Y-63754000D03*
X100329479Y-71246479D03*
X100606860Y-65552318D03*
X100027740Y-59923682D03*
X64262000Y-71120000D03*
X63246000Y-71120000D03*
X62230000Y-71120000D03*
X68580000Y-53086000D03*
X67564000Y-53086000D03*
X66548000Y-53086000D03*
X60706000Y-53086000D03*
X59690000Y-53086000D03*
X58674000Y-53086000D03*
X56388000Y-71120000D03*
X55372000Y-71120000D03*
X54356000Y-71120000D03*
X38608000Y-58166000D03*
X38608000Y-59182000D03*
X38608000Y-54102000D03*
X38608000Y-53086000D03*
X53340000Y-60198000D03*
X53340000Y-61468000D03*
X52324000Y-61468000D03*
X52324000Y-60198000D03*
X109220000Y-54610000D03*
X119888000Y-54610000D03*
X98298000Y-71247000D03*
X110363000Y-70231000D03*
X110363000Y-71247000D03*
X110363000Y-72263000D03*
X91567000Y-71501000D03*
X91567000Y-72517000D03*
X91567000Y-73533000D03*
X88519000Y-69596000D03*
X88519000Y-70612000D03*
X88519000Y-72390000D03*
X88519000Y-73406000D03*
X117200000Y-63900000D03*
X115000000Y-63100000D03*
X125222000Y-57087998D03*
X127264813Y-57108856D03*
X126746000Y-68326000D03*
X160782000Y-59251010D03*
X160020000Y-59251010D03*
X159255266Y-59250090D03*
X159258000Y-56964580D03*
X160020000Y-56964990D03*
X160782000Y-56964990D03*
X147828000Y-56896000D03*
X149352000Y-56896000D03*
X150876000Y-56896000D03*
X152400000Y-56896000D03*
X153924000Y-56896000D03*
X155448000Y-56896000D03*
X148336000Y-58420000D03*
X149860000Y-58420000D03*
X151384000Y-58420000D03*
X152908000Y-58420000D03*
X154432000Y-58420000D03*
X155956000Y-58420000D03*
X155448000Y-59944000D03*
X153924000Y-59944000D03*
X152400000Y-59944000D03*
X150876000Y-59944000D03*
X149352000Y-59944000D03*
X147828000Y-59944000D03*
X148336000Y-61468000D03*
X149860000Y-61468000D03*
X151384000Y-61468000D03*
X152908000Y-61468000D03*
X154432000Y-61468000D03*
X155956000Y-61468000D03*
X155448000Y-62992000D03*
X153924000Y-62992000D03*
X152400000Y-62992000D03*
X150876000Y-62992000D03*
X149352000Y-62992000D03*
X147828000Y-62992000D03*
X148336000Y-64516000D03*
X149860000Y-64516000D03*
X151384000Y-64516000D03*
X152908000Y-64516000D03*
X154432000Y-64516000D03*
X155956000Y-64516000D03*
X142240000Y-71120000D03*
X144272000Y-68580000D03*
X93472000Y-66040000D03*
X78648558Y-61849000D03*
X78232000Y-56845200D03*
X90424000Y-61976000D03*
X90170000Y-59309000D03*
D19*
X125680000Y-73162180D02*
X125680000Y-73500000D01*
X119253000Y-71323200D02*
X116687600Y-68757800D01*
X122834400Y-71323200D02*
X119253000Y-71323200D01*
D20*
X120802400Y-61798200D02*
X117716943Y-61798200D01*
X117716943Y-61798200D02*
X116784050Y-60865307D01*
X116784050Y-60865307D02*
X116403051Y-60484308D01*
X73787000Y-71390000D02*
X74279000Y-71390000D01*
X74279000Y-71390000D02*
X78765400Y-66903600D01*
X78765400Y-66903600D02*
X81330800Y-66903600D01*
X73787000Y-68850000D02*
X74676000Y-68850000D01*
X74676000Y-68850000D02*
X79162400Y-64363600D01*
X79162400Y-64363600D02*
X81407000Y-64363600D01*
X131978400Y-59461400D02*
X130759200Y-60680600D01*
X136194800Y-59461400D02*
X131978400Y-59461400D01*
X138036301Y-57619899D02*
X136194800Y-59461400D01*
X139865101Y-57619899D02*
X138036301Y-57619899D01*
X130759200Y-65582800D02*
X129590800Y-66751200D01*
X130759200Y-60680600D02*
X130759200Y-65582800D01*
X139865101Y-57619899D02*
X141300200Y-56184800D01*
X141300200Y-61264800D02*
X141300200Y-60477400D01*
X141300200Y-60477400D02*
X140716000Y-59893200D01*
X129654855Y-67758519D02*
X129458258Y-67758519D01*
X140716000Y-59893200D02*
X140715990Y-59893210D01*
X140715990Y-59893210D02*
X132157260Y-59893210D01*
X132157260Y-59893210D02*
X131191010Y-60859460D01*
X131191010Y-60859460D02*
X131191010Y-66222364D01*
X131191010Y-66222364D02*
X129654855Y-67758519D01*
X124760365Y-58407310D02*
X132664453Y-58407310D01*
X132664453Y-58407310D02*
X132987831Y-58730688D01*
X122436274Y-60731401D02*
X124760365Y-58407310D01*
X121005773Y-59857828D02*
X121005773Y-60073957D01*
X121005773Y-60073957D02*
X121663217Y-60731401D01*
X121663217Y-60731401D02*
X122436274Y-60731401D01*
X122010690Y-60007500D02*
X122549505Y-60007500D01*
X122549505Y-60007500D02*
X124581505Y-57975500D01*
X124581505Y-57975500D02*
X133667500Y-57975500D01*
X135864600Y-70942200D02*
X135864600Y-71805800D01*
D19*
X62230000Y-71120000D02*
X63246000Y-71120000D01*
X66548000Y-53086000D02*
X67564000Y-53086000D01*
X58674000Y-53086000D02*
X59690000Y-53086000D01*
X54356000Y-71120000D02*
X55372000Y-71120000D01*
X38608000Y-59182000D02*
X38608000Y-58166000D01*
X38608000Y-53086000D02*
X38608000Y-54102000D01*
X53340000Y-61468000D02*
X53340000Y-60198000D01*
X52324000Y-60198000D02*
X52324000Y-61468000D01*
X110363000Y-70231000D02*
X110363000Y-71247000D01*
X91567000Y-71501000D02*
X91567000Y-72517000D01*
X88519000Y-69596000D02*
X88519000Y-70612000D01*
X88519000Y-72390000D02*
X88519000Y-73406000D01*
X127243955Y-57087998D02*
X127264813Y-57108856D01*
X125222000Y-57087998D02*
X127243955Y-57087998D01*
D20*
X159256186Y-59251010D02*
X159255266Y-59250090D01*
X160020000Y-59251010D02*
X159256186Y-59251010D01*
X160017925Y-56967065D02*
X160020000Y-56964990D01*
X159258000Y-56964580D02*
X160017925Y-56967065D01*
X160401001Y-58870011D02*
X160782000Y-59251010D01*
X160401001Y-57345989D02*
X160401001Y-58870011D01*
X160782000Y-56964990D02*
X160401001Y-57345989D01*
X147828000Y-56896000D02*
X149352000Y-56896000D01*
X150876000Y-56896000D02*
X152400000Y-56896000D01*
X153924000Y-56896000D02*
X155448000Y-56896000D01*
X148336000Y-58420000D02*
X149860000Y-58420000D01*
X151384000Y-58420000D02*
X152908000Y-58420000D01*
X154432000Y-58420000D02*
X155956000Y-58420000D01*
X155448000Y-59944000D02*
X153924000Y-59944000D01*
X152400000Y-59944000D02*
X150876000Y-59944000D01*
X149352000Y-59944000D02*
X147828000Y-59944000D01*
X148336000Y-61468000D02*
X149860000Y-61468000D01*
X151384000Y-61468000D02*
X152908000Y-61468000D01*
X154432000Y-61468000D02*
X155956000Y-61468000D01*
X155448000Y-62992000D02*
X153924000Y-62992000D01*
X152400000Y-62992000D02*
X150876000Y-62992000D01*
X149352000Y-62992000D02*
X147828000Y-62992000D01*
X148336000Y-64516000D02*
X149860000Y-64516000D01*
X151384000Y-64516000D02*
X152908000Y-64516000D01*
X154432000Y-64516000D02*
X155956000Y-64516000D01*
D19*
X144272000Y-69088000D02*
X144272000Y-68580000D01*
X142240000Y-71120000D02*
X144272000Y-69088000D01*
X122365998Y-57087998D02*
X119888000Y-54610000D01*
X125222000Y-57087998D02*
X122365998Y-57087998D01*
X115000000Y-60390000D02*
X109220000Y-54610000D01*
X115000000Y-63100000D02*
X115000000Y-60390000D01*
X102087682Y-65552318D02*
X100606860Y-65552318D01*
X104457500Y-63182500D02*
X102087682Y-65552318D01*
X144272000Y-68580000D02*
X148336000Y-64516000D01*
D20*
X78232000Y-56845200D02*
X78648558Y-57261758D01*
X78648558Y-57261758D02*
X78648558Y-61849000D01*
X90170000Y-59309000D02*
X90170000Y-61722000D01*
X90170000Y-61722000D02*
X90424000Y-61976000D01*
D19*
G36*
X161163000Y-74569000D02*
X142443398Y-74569000D01*
X142443398Y-58498441D01*
X142269754Y-58078188D01*
X141948503Y-57756377D01*
X141528554Y-57581999D01*
X141073841Y-57581602D01*
X140653588Y-57755246D01*
X140331777Y-58076497D01*
X140157399Y-58496446D01*
X140157002Y-58951159D01*
X140330646Y-59371412D01*
X140382453Y-59423310D01*
X139678328Y-59423310D01*
X139728623Y-59373103D01*
X139903001Y-58953154D01*
X139903398Y-58498441D01*
X139734551Y-58089799D01*
X139865101Y-58089799D01*
X139865101Y-58089798D01*
X140044924Y-58054030D01*
X140197370Y-57952168D01*
X140895261Y-57254276D01*
X141071846Y-57327601D01*
X141526559Y-57327998D01*
X141946812Y-57154354D01*
X142268623Y-56833103D01*
X142443001Y-56413154D01*
X142443398Y-55958441D01*
X142269754Y-55538188D01*
X141948503Y-55216377D01*
X141528554Y-55041999D01*
X141073841Y-55041602D01*
X140653588Y-55215246D01*
X140331777Y-55536497D01*
X140157399Y-55956446D01*
X140157229Y-56150460D01*
X140141562Y-55837432D01*
X139982597Y-55453657D01*
X139740413Y-55384192D01*
X139560808Y-55563797D01*
X139560808Y-55204587D01*
X139491343Y-54962403D01*
X138967898Y-54775656D01*
X138412832Y-54803438D01*
X138029057Y-54962403D01*
X137959592Y-55204587D01*
X138760200Y-56005195D01*
X139560808Y-55204587D01*
X139560808Y-55563797D01*
X138939805Y-56184800D01*
X138953947Y-56198942D01*
X138774342Y-56378547D01*
X138760200Y-56364405D01*
X138580595Y-56544010D01*
X138580595Y-56184800D01*
X137779987Y-55384192D01*
X137537803Y-55453657D01*
X137351056Y-55977102D01*
X137378838Y-56532168D01*
X137537803Y-56915943D01*
X137779987Y-56985408D01*
X138580595Y-56184800D01*
X138580595Y-56544010D01*
X137959592Y-57165013D01*
X137959658Y-57165244D01*
X137856478Y-57185768D01*
X137704032Y-57287629D01*
X136000161Y-58991500D01*
X133704613Y-58991500D01*
X133749698Y-58882924D01*
X133749825Y-58737572D01*
X133818406Y-58737632D01*
X134098574Y-58621868D01*
X134313115Y-58407702D01*
X134429367Y-58127736D01*
X134429632Y-57824594D01*
X134313868Y-57544426D01*
X134099702Y-57329885D01*
X133819736Y-57213633D01*
X133516594Y-57213368D01*
X133236426Y-57329132D01*
X133059649Y-57505600D01*
X124581505Y-57505600D01*
X124401682Y-57541369D01*
X124249236Y-57643230D01*
X122486698Y-59405768D01*
X122442892Y-59361885D01*
X122162926Y-59245633D01*
X121859784Y-59245368D01*
X121584584Y-59359079D01*
X121437975Y-59212213D01*
X121158009Y-59095961D01*
X120854867Y-59095696D01*
X120574699Y-59211460D01*
X120360158Y-59425626D01*
X120243906Y-59705592D01*
X120243641Y-60008734D01*
X120359405Y-60288902D01*
X120573571Y-60503443D01*
X120853537Y-60619695D01*
X120887001Y-60619724D01*
X121330947Y-61063670D01*
X121330948Y-61063670D01*
X121483394Y-61165532D01*
X121663217Y-61201301D01*
X122436274Y-61201301D01*
X122436274Y-61201300D01*
X122616097Y-61165532D01*
X122768543Y-61063670D01*
X124955003Y-58877210D01*
X132225702Y-58877210D01*
X132225699Y-58881594D01*
X132271111Y-58991500D01*
X131978400Y-58991500D01*
X131798577Y-59027269D01*
X131646130Y-59129131D01*
X130426931Y-60348331D01*
X130325069Y-60500777D01*
X130289300Y-60680600D01*
X130289300Y-65388161D01*
X129688176Y-65989285D01*
X129439894Y-65989068D01*
X129159726Y-66104832D01*
X128945185Y-66318998D01*
X128828933Y-66598964D01*
X128828668Y-66902106D01*
X128944432Y-67182274D01*
X128950674Y-67188527D01*
X128812643Y-67326317D01*
X128696391Y-67606283D01*
X128696126Y-67909425D01*
X128811890Y-68189593D01*
X129026056Y-68404134D01*
X129306022Y-68520386D01*
X129609164Y-68520651D01*
X129889332Y-68404887D01*
X130103873Y-68190721D01*
X130220125Y-67910755D01*
X130220171Y-67857740D01*
X131523279Y-66554634D01*
X131523279Y-66554633D01*
X131625141Y-66402187D01*
X131660909Y-66222364D01*
X131660910Y-66222364D01*
X131660910Y-61054098D01*
X132351898Y-60363110D01*
X138045605Y-60363110D01*
X137791777Y-60616497D01*
X137617399Y-61036446D01*
X137617002Y-61491159D01*
X137790646Y-61911412D01*
X138111897Y-62233223D01*
X138531846Y-62407601D01*
X138986559Y-62407998D01*
X139406812Y-62234354D01*
X139728623Y-61913103D01*
X139903001Y-61493154D01*
X139903398Y-61038441D01*
X139729754Y-60618188D01*
X139475119Y-60363110D01*
X140183670Y-60363110D01*
X140157200Y-60427015D01*
X140157200Y-60578586D01*
X140157200Y-62102586D01*
X140215204Y-62242620D01*
X140322381Y-62349796D01*
X140462415Y-62407800D01*
X140613986Y-62407800D01*
X142137986Y-62407800D01*
X142278020Y-62349796D01*
X142385196Y-62242619D01*
X142443200Y-62102585D01*
X142443200Y-61951014D01*
X142443200Y-60427014D01*
X142385196Y-60286980D01*
X142278019Y-60179804D01*
X142137985Y-60121800D01*
X141986414Y-60121800D01*
X141609138Y-60121800D01*
X141355186Y-59867848D01*
X141526559Y-59867998D01*
X141946812Y-59694354D01*
X142268623Y-59373103D01*
X142443001Y-58953154D01*
X142443398Y-58498441D01*
X142443398Y-74569000D01*
X126823000Y-74569000D01*
X126823000Y-74524034D01*
X126823000Y-72324394D01*
X126764996Y-72184360D01*
X126657819Y-72077184D01*
X126517785Y-72019180D01*
X126366214Y-72019180D01*
X124842214Y-72019180D01*
X124702180Y-72077184D01*
X124595004Y-72184361D01*
X124537000Y-72324395D01*
X124537000Y-72475966D01*
X124537000Y-74569000D01*
X124019085Y-74569000D01*
X124195994Y-74304238D01*
X124283000Y-73866831D01*
X124283000Y-73133169D01*
X124195994Y-72695762D01*
X123948223Y-72324946D01*
X123577407Y-72077175D01*
X123191043Y-72000322D01*
X123265474Y-71969568D01*
X123480015Y-71755402D01*
X123596267Y-71475436D01*
X123596532Y-71172294D01*
X123480768Y-70892126D01*
X123266602Y-70677585D01*
X122986636Y-70561333D01*
X122683494Y-70561068D01*
X122403326Y-70676832D01*
X122264715Y-70815200D01*
X121564532Y-70815200D01*
X121564532Y-61647294D01*
X121448768Y-61367126D01*
X121234602Y-61152585D01*
X120954636Y-61036333D01*
X120651494Y-61036068D01*
X120371326Y-61151832D01*
X120194549Y-61328300D01*
X117911581Y-61328300D01*
X117164965Y-60581684D01*
X117165183Y-60333402D01*
X117049419Y-60053234D01*
X116835253Y-59838693D01*
X116555287Y-59722441D01*
X116252145Y-59722176D01*
X115971977Y-59837940D01*
X115757436Y-60052106D01*
X115641184Y-60332072D01*
X115640919Y-60635214D01*
X115756683Y-60915382D01*
X115970849Y-61129923D01*
X116250815Y-61246175D01*
X116500598Y-61246393D01*
X117384674Y-62130470D01*
X117537120Y-62232331D01*
X117716943Y-62268100D01*
X120194790Y-62268100D01*
X120370198Y-62443815D01*
X120650164Y-62560067D01*
X120953306Y-62560332D01*
X121233474Y-62444568D01*
X121448015Y-62230402D01*
X121564267Y-61950436D01*
X121564532Y-61647294D01*
X121564532Y-70815200D01*
X119463420Y-70815200D01*
X117449562Y-68801341D01*
X117449732Y-68606894D01*
X117333968Y-68326726D01*
X117119802Y-68112185D01*
X116839836Y-67995933D01*
X116536694Y-67995668D01*
X116256526Y-68111432D01*
X116041985Y-68325598D01*
X115925733Y-68605564D01*
X115925468Y-68908706D01*
X116041232Y-69188874D01*
X116255398Y-69403415D01*
X116535364Y-69519667D01*
X116731218Y-69519838D01*
X118893789Y-71682410D01*
X118893790Y-71682410D01*
X119003910Y-71755990D01*
X119058596Y-71792530D01*
X119058597Y-71792531D01*
X119253000Y-71831200D01*
X122264823Y-71831200D01*
X122402198Y-71968815D01*
X122682164Y-72085067D01*
X122690770Y-72085074D01*
X122331777Y-72324946D01*
X122084006Y-72695762D01*
X121997000Y-73133169D01*
X121997000Y-73866831D01*
X122084006Y-74304238D01*
X122260914Y-74569000D01*
X121479085Y-74569000D01*
X121655994Y-74304238D01*
X121743000Y-73866831D01*
X121743000Y-73133169D01*
X121655994Y-72695762D01*
X121408223Y-72324946D01*
X121037407Y-72077175D01*
X120600000Y-71990169D01*
X120162593Y-72077175D01*
X119791777Y-72324946D01*
X119544006Y-72695762D01*
X119457000Y-73133169D01*
X119457000Y-73866831D01*
X119544006Y-74304238D01*
X119720914Y-74569000D01*
X118939085Y-74569000D01*
X119115994Y-74304238D01*
X119203000Y-73866831D01*
X119203000Y-73133169D01*
X119115994Y-72695762D01*
X118868223Y-72324946D01*
X118497407Y-72077175D01*
X118060000Y-71990169D01*
X117622593Y-72077175D01*
X117251777Y-72324946D01*
X117004006Y-72695762D01*
X116917000Y-73133169D01*
X116917000Y-73035180D01*
X116762059Y-72510239D01*
X116418026Y-72084550D01*
X115937277Y-71822920D01*
X115863070Y-71807960D01*
X115647000Y-71930460D01*
X115647000Y-73373000D01*
X115667000Y-73373000D01*
X115667000Y-73627000D01*
X115647000Y-73627000D01*
X115647000Y-73647000D01*
X115393000Y-73647000D01*
X115393000Y-73627000D01*
X115393000Y-73373000D01*
X115393000Y-71930460D01*
X115176930Y-71807960D01*
X115102723Y-71822920D01*
X114621974Y-72084550D01*
X114277941Y-72510239D01*
X114123000Y-73035180D01*
X114123000Y-73373000D01*
X115393000Y-73373000D01*
X115393000Y-73627000D01*
X114123000Y-73627000D01*
X114123000Y-73964820D01*
X114277941Y-74489761D01*
X114341980Y-74569000D01*
X91186132Y-74569000D01*
X91186132Y-61825094D01*
X91070368Y-61544926D01*
X90856202Y-61330385D01*
X90639900Y-61240568D01*
X90639900Y-59916609D01*
X90815615Y-59741202D01*
X90931867Y-59461236D01*
X90932132Y-59158094D01*
X90816368Y-58877926D01*
X90602202Y-58663385D01*
X90322236Y-58547133D01*
X90019094Y-58546868D01*
X89738926Y-58662632D01*
X89524385Y-58876798D01*
X89408133Y-59156764D01*
X89407868Y-59459906D01*
X89523632Y-59740074D01*
X89700100Y-59916850D01*
X89700100Y-61722000D01*
X89701489Y-61728982D01*
X89701489Y-61728983D01*
X89662133Y-61823764D01*
X89661868Y-62126906D01*
X89777632Y-62407074D01*
X89991798Y-62621615D01*
X90271764Y-62737867D01*
X90574906Y-62738132D01*
X90855074Y-62622368D01*
X91069615Y-62408202D01*
X91185867Y-62128236D01*
X91186132Y-61825094D01*
X91186132Y-74569000D01*
X82169132Y-74569000D01*
X82169132Y-64212694D01*
X82053368Y-63932526D01*
X81839202Y-63717985D01*
X81559236Y-63601733D01*
X81256094Y-63601468D01*
X80975926Y-63717232D01*
X80799149Y-63893700D01*
X79410690Y-63893700D01*
X79410690Y-61698094D01*
X79294926Y-61417926D01*
X79118458Y-61241149D01*
X79118458Y-57261758D01*
X79082689Y-57081935D01*
X78993909Y-56949067D01*
X78994132Y-56694294D01*
X78878368Y-56414126D01*
X78664202Y-56199585D01*
X78384236Y-56083333D01*
X78081094Y-56083068D01*
X77800926Y-56198832D01*
X77586385Y-56412998D01*
X77470133Y-56692964D01*
X77469868Y-56996106D01*
X77585632Y-57276274D01*
X77799798Y-57490815D01*
X78079764Y-57607067D01*
X78178658Y-57607153D01*
X78178658Y-61241390D01*
X78002943Y-61416798D01*
X77886691Y-61696764D01*
X77886426Y-61999906D01*
X78002190Y-62280074D01*
X78216356Y-62494615D01*
X78496322Y-62610867D01*
X78799464Y-62611132D01*
X79079632Y-62495368D01*
X79294173Y-62281202D01*
X79410425Y-62001236D01*
X79410690Y-61698094D01*
X79410690Y-63893700D01*
X79162400Y-63893700D01*
X78982577Y-63929469D01*
X78830131Y-64031330D01*
X76030220Y-66831241D01*
X76030220Y-56493070D01*
X76030220Y-55806930D01*
X76015260Y-55732723D01*
X75753630Y-55251974D01*
X75327941Y-54907941D01*
X75233276Y-54880000D01*
X75327941Y-54852059D01*
X75753630Y-54508026D01*
X76015260Y-54027277D01*
X76030220Y-53953070D01*
X76030220Y-53266930D01*
X76015260Y-53192723D01*
X75753630Y-52711974D01*
X75327941Y-52367941D01*
X74803000Y-52213000D01*
X73914000Y-52213000D01*
X73914000Y-53483000D01*
X75907720Y-53483000D01*
X76030220Y-53266930D01*
X76030220Y-53953070D01*
X75907720Y-53737000D01*
X73914000Y-53737000D01*
X73914000Y-54753000D01*
X73914000Y-55007000D01*
X73914000Y-56023000D01*
X75907720Y-56023000D01*
X76030220Y-55806930D01*
X76030220Y-56493070D01*
X75907720Y-56277000D01*
X73914000Y-56277000D01*
X73914000Y-56297000D01*
X73660000Y-56297000D01*
X73660000Y-56277000D01*
X73660000Y-56023000D01*
X73660000Y-55007000D01*
X73660000Y-54753000D01*
X73660000Y-53737000D01*
X73660000Y-53483000D01*
X73660000Y-52213000D01*
X72771000Y-52213000D01*
X72246059Y-52367941D01*
X71820370Y-52711974D01*
X71558740Y-53192723D01*
X71543780Y-53266930D01*
X71666280Y-53483000D01*
X73660000Y-53483000D01*
X73660000Y-53737000D01*
X71666280Y-53737000D01*
X71543780Y-53953070D01*
X71558740Y-54027277D01*
X71820370Y-54508026D01*
X72246059Y-54852059D01*
X72340723Y-54880000D01*
X72246059Y-54907941D01*
X71820370Y-55251974D01*
X71558740Y-55732723D01*
X71543780Y-55806930D01*
X71666280Y-56023000D01*
X73660000Y-56023000D01*
X73660000Y-56277000D01*
X71666280Y-56277000D01*
X71543780Y-56493070D01*
X71558740Y-56567277D01*
X71820370Y-57048026D01*
X72246059Y-57392059D01*
X72771000Y-57547000D01*
X72858191Y-57547000D01*
X72420784Y-57634006D01*
X72049968Y-57881777D01*
X71802197Y-58252593D01*
X71715191Y-58690000D01*
X71802197Y-59127407D01*
X72049968Y-59498223D01*
X72420784Y-59745994D01*
X72858191Y-59833000D01*
X74715809Y-59833000D01*
X75153216Y-59745994D01*
X75524032Y-59498223D01*
X75771803Y-59127407D01*
X75858809Y-58690000D01*
X75771803Y-58252593D01*
X75524032Y-57881777D01*
X75153216Y-57634006D01*
X74715809Y-57547000D01*
X74803000Y-57547000D01*
X75327941Y-57392059D01*
X75753630Y-57048026D01*
X76015260Y-56567277D01*
X76030220Y-56493070D01*
X76030220Y-66831241D01*
X75858809Y-67002652D01*
X75858809Y-66310000D01*
X75858809Y-63770000D01*
X75858809Y-61230000D01*
X75771803Y-60792593D01*
X75524032Y-60421777D01*
X75153216Y-60174006D01*
X74715809Y-60087000D01*
X72858191Y-60087000D01*
X72420784Y-60174006D01*
X72049968Y-60421777D01*
X71802197Y-60792593D01*
X71715191Y-61230000D01*
X71802197Y-61667407D01*
X72049968Y-62038223D01*
X72420784Y-62285994D01*
X72858191Y-62373000D01*
X74715809Y-62373000D01*
X75153216Y-62285994D01*
X75524032Y-62038223D01*
X75771803Y-61667407D01*
X75858809Y-61230000D01*
X75858809Y-63770000D01*
X75771803Y-63332593D01*
X75524032Y-62961777D01*
X75153216Y-62714006D01*
X74715809Y-62627000D01*
X72858191Y-62627000D01*
X72420784Y-62714006D01*
X72049968Y-62961777D01*
X71802197Y-63332593D01*
X71715191Y-63770000D01*
X71802197Y-64207407D01*
X72049968Y-64578223D01*
X72420784Y-64825994D01*
X72858191Y-64913000D01*
X74715809Y-64913000D01*
X75153216Y-64825994D01*
X75524032Y-64578223D01*
X75771803Y-64207407D01*
X75858809Y-63770000D01*
X75858809Y-66310000D01*
X75771803Y-65872593D01*
X75524032Y-65501777D01*
X75153216Y-65254006D01*
X74715809Y-65167000D01*
X72858191Y-65167000D01*
X72420784Y-65254006D01*
X72049968Y-65501777D01*
X71802197Y-65872593D01*
X71715191Y-66310000D01*
X71802197Y-66747407D01*
X72049968Y-67118223D01*
X72420784Y-67365994D01*
X72858191Y-67453000D01*
X74715809Y-67453000D01*
X75153216Y-67365994D01*
X75524032Y-67118223D01*
X75771803Y-66747407D01*
X75858809Y-66310000D01*
X75858809Y-67002652D01*
X75081684Y-67779777D01*
X74715809Y-67707000D01*
X72858191Y-67707000D01*
X72420784Y-67794006D01*
X72049968Y-68041777D01*
X71802197Y-68412593D01*
X71715191Y-68850000D01*
X71802197Y-69287407D01*
X72049968Y-69658223D01*
X72420784Y-69905994D01*
X72858191Y-69993000D01*
X74715809Y-69993000D01*
X75084873Y-69919588D01*
X74750551Y-70253910D01*
X74715809Y-70247000D01*
X72858191Y-70247000D01*
X72420784Y-70334006D01*
X72049968Y-70581777D01*
X71802197Y-70952593D01*
X71715191Y-71390000D01*
X71802197Y-71827407D01*
X72049968Y-72198223D01*
X72420784Y-72445994D01*
X72858191Y-72533000D01*
X74715809Y-72533000D01*
X75153216Y-72445994D01*
X75524032Y-72198223D01*
X75771803Y-71827407D01*
X75858809Y-71390000D01*
X75771803Y-70952593D01*
X75615247Y-70718290D01*
X78960038Y-67373500D01*
X80723190Y-67373500D01*
X80898598Y-67549215D01*
X81178564Y-67665467D01*
X81481706Y-67665732D01*
X81761874Y-67549968D01*
X81976415Y-67335802D01*
X82092667Y-67055836D01*
X82092932Y-66752694D01*
X81977168Y-66472526D01*
X81763002Y-66257985D01*
X81483036Y-66141733D01*
X81179894Y-66141468D01*
X80899726Y-66257232D01*
X80722949Y-66433700D01*
X78765400Y-66433700D01*
X78585577Y-66469469D01*
X78433131Y-66571330D01*
X75785397Y-69219064D01*
X75858809Y-68850000D01*
X75772822Y-68417716D01*
X79357038Y-64833500D01*
X80799390Y-64833500D01*
X80974798Y-65009215D01*
X81254764Y-65125467D01*
X81557906Y-65125732D01*
X81838074Y-65009968D01*
X82052615Y-64795802D01*
X82168867Y-64515836D01*
X82169132Y-64212694D01*
X82169132Y-74569000D01*
X43837284Y-74569000D01*
X43837284Y-71525000D01*
X37937442Y-71525000D01*
X37937442Y-67500000D01*
X37937442Y-57500000D01*
X37824721Y-56933315D01*
X37503720Y-56452902D01*
X37023307Y-56131901D01*
X36456622Y-56019180D01*
X33543378Y-56019180D01*
X32976693Y-56131901D01*
X32496280Y-56452902D01*
X32175279Y-56933315D01*
X32062558Y-57500000D01*
X32175279Y-58066685D01*
X32496280Y-58547098D01*
X32976693Y-58868099D01*
X33543378Y-58980820D01*
X36456622Y-58980820D01*
X37023307Y-58868099D01*
X37503720Y-58547098D01*
X37824721Y-58066685D01*
X37937442Y-57500000D01*
X37937442Y-67500000D01*
X37824721Y-66933315D01*
X37503720Y-66452902D01*
X37023307Y-66131901D01*
X36456622Y-66019180D01*
X33543378Y-66019180D01*
X32976693Y-66131901D01*
X32496280Y-66452902D01*
X32175279Y-66933315D01*
X32062558Y-67500000D01*
X32175279Y-68066685D01*
X32496280Y-68547098D01*
X32976693Y-68868099D01*
X33543378Y-68980820D01*
X36456622Y-68980820D01*
X37023307Y-68868099D01*
X37503720Y-68547098D01*
X37824721Y-68066685D01*
X37937442Y-67500000D01*
X37937442Y-71525000D01*
X31431000Y-71525000D01*
X31431000Y-50431000D01*
X161163000Y-50431000D01*
X161163000Y-74569000D01*
X161163000Y-74569000D01*
G37*
X161163000Y-74569000D02*
X142443398Y-74569000D01*
X142443398Y-58498441D01*
X142269754Y-58078188D01*
X141948503Y-57756377D01*
X141528554Y-57581999D01*
X141073841Y-57581602D01*
X140653588Y-57755246D01*
X140331777Y-58076497D01*
X140157399Y-58496446D01*
X140157002Y-58951159D01*
X140330646Y-59371412D01*
X140382453Y-59423310D01*
X139678328Y-59423310D01*
X139728623Y-59373103D01*
X139903001Y-58953154D01*
X139903398Y-58498441D01*
X139734551Y-58089799D01*
X139865101Y-58089799D01*
X139865101Y-58089798D01*
X140044924Y-58054030D01*
X140197370Y-57952168D01*
X140895261Y-57254276D01*
X141071846Y-57327601D01*
X141526559Y-57327998D01*
X141946812Y-57154354D01*
X142268623Y-56833103D01*
X142443001Y-56413154D01*
X142443398Y-55958441D01*
X142269754Y-55538188D01*
X141948503Y-55216377D01*
X141528554Y-55041999D01*
X141073841Y-55041602D01*
X140653588Y-55215246D01*
X140331777Y-55536497D01*
X140157399Y-55956446D01*
X140157229Y-56150460D01*
X140141562Y-55837432D01*
X139982597Y-55453657D01*
X139740413Y-55384192D01*
X139560808Y-55563797D01*
X139560808Y-55204587D01*
X139491343Y-54962403D01*
X138967898Y-54775656D01*
X138412832Y-54803438D01*
X138029057Y-54962403D01*
X137959592Y-55204587D01*
X138760200Y-56005195D01*
X139560808Y-55204587D01*
X139560808Y-55563797D01*
X138939805Y-56184800D01*
X138953947Y-56198942D01*
X138774342Y-56378547D01*
X138760200Y-56364405D01*
X138580595Y-56544010D01*
X138580595Y-56184800D01*
X137779987Y-55384192D01*
X137537803Y-55453657D01*
X137351056Y-55977102D01*
X137378838Y-56532168D01*
X137537803Y-56915943D01*
X137779987Y-56985408D01*
X138580595Y-56184800D01*
X138580595Y-56544010D01*
X137959592Y-57165013D01*
X137959658Y-57165244D01*
X137856478Y-57185768D01*
X137704032Y-57287629D01*
X136000161Y-58991500D01*
X133704613Y-58991500D01*
X133749698Y-58882924D01*
X133749825Y-58737572D01*
X133818406Y-58737632D01*
X134098574Y-58621868D01*
X134313115Y-58407702D01*
X134429367Y-58127736D01*
X134429632Y-57824594D01*
X134313868Y-57544426D01*
X134099702Y-57329885D01*
X133819736Y-57213633D01*
X133516594Y-57213368D01*
X133236426Y-57329132D01*
X133059649Y-57505600D01*
X124581505Y-57505600D01*
X124401682Y-57541369D01*
X124249236Y-57643230D01*
X122486698Y-59405768D01*
X122442892Y-59361885D01*
X122162926Y-59245633D01*
X121859784Y-59245368D01*
X121584584Y-59359079D01*
X121437975Y-59212213D01*
X121158009Y-59095961D01*
X120854867Y-59095696D01*
X120574699Y-59211460D01*
X120360158Y-59425626D01*
X120243906Y-59705592D01*
X120243641Y-60008734D01*
X120359405Y-60288902D01*
X120573571Y-60503443D01*
X120853537Y-60619695D01*
X120887001Y-60619724D01*
X121330947Y-61063670D01*
X121330948Y-61063670D01*
X121483394Y-61165532D01*
X121663217Y-61201301D01*
X122436274Y-61201301D01*
X122436274Y-61201300D01*
X122616097Y-61165532D01*
X122768543Y-61063670D01*
X124955003Y-58877210D01*
X132225702Y-58877210D01*
X132225699Y-58881594D01*
X132271111Y-58991500D01*
X131978400Y-58991500D01*
X131798577Y-59027269D01*
X131646130Y-59129131D01*
X130426931Y-60348331D01*
X130325069Y-60500777D01*
X130289300Y-60680600D01*
X130289300Y-65388161D01*
X129688176Y-65989285D01*
X129439894Y-65989068D01*
X129159726Y-66104832D01*
X128945185Y-66318998D01*
X128828933Y-66598964D01*
X128828668Y-66902106D01*
X128944432Y-67182274D01*
X128950674Y-67188527D01*
X128812643Y-67326317D01*
X128696391Y-67606283D01*
X128696126Y-67909425D01*
X128811890Y-68189593D01*
X129026056Y-68404134D01*
X129306022Y-68520386D01*
X129609164Y-68520651D01*
X129889332Y-68404887D01*
X130103873Y-68190721D01*
X130220125Y-67910755D01*
X130220171Y-67857740D01*
X131523279Y-66554634D01*
X131523279Y-66554633D01*
X131625141Y-66402187D01*
X131660909Y-66222364D01*
X131660910Y-66222364D01*
X131660910Y-61054098D01*
X132351898Y-60363110D01*
X138045605Y-60363110D01*
X137791777Y-60616497D01*
X137617399Y-61036446D01*
X137617002Y-61491159D01*
X137790646Y-61911412D01*
X138111897Y-62233223D01*
X138531846Y-62407601D01*
X138986559Y-62407998D01*
X139406812Y-62234354D01*
X139728623Y-61913103D01*
X139903001Y-61493154D01*
X139903398Y-61038441D01*
X139729754Y-60618188D01*
X139475119Y-60363110D01*
X140183670Y-60363110D01*
X140157200Y-60427015D01*
X140157200Y-60578586D01*
X140157200Y-62102586D01*
X140215204Y-62242620D01*
X140322381Y-62349796D01*
X140462415Y-62407800D01*
X140613986Y-62407800D01*
X142137986Y-62407800D01*
X142278020Y-62349796D01*
X142385196Y-62242619D01*
X142443200Y-62102585D01*
X142443200Y-61951014D01*
X142443200Y-60427014D01*
X142385196Y-60286980D01*
X142278019Y-60179804D01*
X142137985Y-60121800D01*
X141986414Y-60121800D01*
X141609138Y-60121800D01*
X141355186Y-59867848D01*
X141526559Y-59867998D01*
X141946812Y-59694354D01*
X142268623Y-59373103D01*
X142443001Y-58953154D01*
X142443398Y-58498441D01*
X142443398Y-74569000D01*
X126823000Y-74569000D01*
X126823000Y-74524034D01*
X126823000Y-72324394D01*
X126764996Y-72184360D01*
X126657819Y-72077184D01*
X126517785Y-72019180D01*
X126366214Y-72019180D01*
X124842214Y-72019180D01*
X124702180Y-72077184D01*
X124595004Y-72184361D01*
X124537000Y-72324395D01*
X124537000Y-72475966D01*
X124537000Y-74569000D01*
X124019085Y-74569000D01*
X124195994Y-74304238D01*
X124283000Y-73866831D01*
X124283000Y-73133169D01*
X124195994Y-72695762D01*
X123948223Y-72324946D01*
X123577407Y-72077175D01*
X123191043Y-72000322D01*
X123265474Y-71969568D01*
X123480015Y-71755402D01*
X123596267Y-71475436D01*
X123596532Y-71172294D01*
X123480768Y-70892126D01*
X123266602Y-70677585D01*
X122986636Y-70561333D01*
X122683494Y-70561068D01*
X122403326Y-70676832D01*
X122264715Y-70815200D01*
X121564532Y-70815200D01*
X121564532Y-61647294D01*
X121448768Y-61367126D01*
X121234602Y-61152585D01*
X120954636Y-61036333D01*
X120651494Y-61036068D01*
X120371326Y-61151832D01*
X120194549Y-61328300D01*
X117911581Y-61328300D01*
X117164965Y-60581684D01*
X117165183Y-60333402D01*
X117049419Y-60053234D01*
X116835253Y-59838693D01*
X116555287Y-59722441D01*
X116252145Y-59722176D01*
X115971977Y-59837940D01*
X115757436Y-60052106D01*
X115641184Y-60332072D01*
X115640919Y-60635214D01*
X115756683Y-60915382D01*
X115970849Y-61129923D01*
X116250815Y-61246175D01*
X116500598Y-61246393D01*
X117384674Y-62130470D01*
X117537120Y-62232331D01*
X117716943Y-62268100D01*
X120194790Y-62268100D01*
X120370198Y-62443815D01*
X120650164Y-62560067D01*
X120953306Y-62560332D01*
X121233474Y-62444568D01*
X121448015Y-62230402D01*
X121564267Y-61950436D01*
X121564532Y-61647294D01*
X121564532Y-70815200D01*
X119463420Y-70815200D01*
X117449562Y-68801341D01*
X117449732Y-68606894D01*
X117333968Y-68326726D01*
X117119802Y-68112185D01*
X116839836Y-67995933D01*
X116536694Y-67995668D01*
X116256526Y-68111432D01*
X116041985Y-68325598D01*
X115925733Y-68605564D01*
X115925468Y-68908706D01*
X116041232Y-69188874D01*
X116255398Y-69403415D01*
X116535364Y-69519667D01*
X116731218Y-69519838D01*
X118893789Y-71682410D01*
X118893790Y-71682410D01*
X119003910Y-71755990D01*
X119058596Y-71792530D01*
X119058597Y-71792531D01*
X119253000Y-71831200D01*
X122264823Y-71831200D01*
X122402198Y-71968815D01*
X122682164Y-72085067D01*
X122690770Y-72085074D01*
X122331777Y-72324946D01*
X122084006Y-72695762D01*
X121997000Y-73133169D01*
X121997000Y-73866831D01*
X122084006Y-74304238D01*
X122260914Y-74569000D01*
X121479085Y-74569000D01*
X121655994Y-74304238D01*
X121743000Y-73866831D01*
X121743000Y-73133169D01*
X121655994Y-72695762D01*
X121408223Y-72324946D01*
X121037407Y-72077175D01*
X120600000Y-71990169D01*
X120162593Y-72077175D01*
X119791777Y-72324946D01*
X119544006Y-72695762D01*
X119457000Y-73133169D01*
X119457000Y-73866831D01*
X119544006Y-74304238D01*
X119720914Y-74569000D01*
X118939085Y-74569000D01*
X119115994Y-74304238D01*
X119203000Y-73866831D01*
X119203000Y-73133169D01*
X119115994Y-72695762D01*
X118868223Y-72324946D01*
X118497407Y-72077175D01*
X118060000Y-71990169D01*
X117622593Y-72077175D01*
X117251777Y-72324946D01*
X117004006Y-72695762D01*
X116917000Y-73133169D01*
X116917000Y-73035180D01*
X116762059Y-72510239D01*
X116418026Y-72084550D01*
X115937277Y-71822920D01*
X115863070Y-71807960D01*
X115647000Y-71930460D01*
X115647000Y-73373000D01*
X115667000Y-73373000D01*
X115667000Y-73627000D01*
X115647000Y-73627000D01*
X115647000Y-73647000D01*
X115393000Y-73647000D01*
X115393000Y-73627000D01*
X115393000Y-73373000D01*
X115393000Y-71930460D01*
X115176930Y-71807960D01*
X115102723Y-71822920D01*
X114621974Y-72084550D01*
X114277941Y-72510239D01*
X114123000Y-73035180D01*
X114123000Y-73373000D01*
X115393000Y-73373000D01*
X115393000Y-73627000D01*
X114123000Y-73627000D01*
X114123000Y-73964820D01*
X114277941Y-74489761D01*
X114341980Y-74569000D01*
X91186132Y-74569000D01*
X91186132Y-61825094D01*
X91070368Y-61544926D01*
X90856202Y-61330385D01*
X90639900Y-61240568D01*
X90639900Y-59916609D01*
X90815615Y-59741202D01*
X90931867Y-59461236D01*
X90932132Y-59158094D01*
X90816368Y-58877926D01*
X90602202Y-58663385D01*
X90322236Y-58547133D01*
X90019094Y-58546868D01*
X89738926Y-58662632D01*
X89524385Y-58876798D01*
X89408133Y-59156764D01*
X89407868Y-59459906D01*
X89523632Y-59740074D01*
X89700100Y-59916850D01*
X89700100Y-61722000D01*
X89701489Y-61728982D01*
X89701489Y-61728983D01*
X89662133Y-61823764D01*
X89661868Y-62126906D01*
X89777632Y-62407074D01*
X89991798Y-62621615D01*
X90271764Y-62737867D01*
X90574906Y-62738132D01*
X90855074Y-62622368D01*
X91069615Y-62408202D01*
X91185867Y-62128236D01*
X91186132Y-61825094D01*
X91186132Y-74569000D01*
X82169132Y-74569000D01*
X82169132Y-64212694D01*
X82053368Y-63932526D01*
X81839202Y-63717985D01*
X81559236Y-63601733D01*
X81256094Y-63601468D01*
X80975926Y-63717232D01*
X80799149Y-63893700D01*
X79410690Y-63893700D01*
X79410690Y-61698094D01*
X79294926Y-61417926D01*
X79118458Y-61241149D01*
X79118458Y-57261758D01*
X79082689Y-57081935D01*
X78993909Y-56949067D01*
X78994132Y-56694294D01*
X78878368Y-56414126D01*
X78664202Y-56199585D01*
X78384236Y-56083333D01*
X78081094Y-56083068D01*
X77800926Y-56198832D01*
X77586385Y-56412998D01*
X77470133Y-56692964D01*
X77469868Y-56996106D01*
X77585632Y-57276274D01*
X77799798Y-57490815D01*
X78079764Y-57607067D01*
X78178658Y-57607153D01*
X78178658Y-61241390D01*
X78002943Y-61416798D01*
X77886691Y-61696764D01*
X77886426Y-61999906D01*
X78002190Y-62280074D01*
X78216356Y-62494615D01*
X78496322Y-62610867D01*
X78799464Y-62611132D01*
X79079632Y-62495368D01*
X79294173Y-62281202D01*
X79410425Y-62001236D01*
X79410690Y-61698094D01*
X79410690Y-63893700D01*
X79162400Y-63893700D01*
X78982577Y-63929469D01*
X78830131Y-64031330D01*
X76030220Y-66831241D01*
X76030220Y-56493070D01*
X76030220Y-55806930D01*
X76015260Y-55732723D01*
X75753630Y-55251974D01*
X75327941Y-54907941D01*
X75233276Y-54880000D01*
X75327941Y-54852059D01*
X75753630Y-54508026D01*
X76015260Y-54027277D01*
X76030220Y-53953070D01*
X76030220Y-53266930D01*
X76015260Y-53192723D01*
X75753630Y-52711974D01*
X75327941Y-52367941D01*
X74803000Y-52213000D01*
X73914000Y-52213000D01*
X73914000Y-53483000D01*
X75907720Y-53483000D01*
X76030220Y-53266930D01*
X76030220Y-53953070D01*
X75907720Y-53737000D01*
X73914000Y-53737000D01*
X73914000Y-54753000D01*
X73914000Y-55007000D01*
X73914000Y-56023000D01*
X75907720Y-56023000D01*
X76030220Y-55806930D01*
X76030220Y-56493070D01*
X75907720Y-56277000D01*
X73914000Y-56277000D01*
X73914000Y-56297000D01*
X73660000Y-56297000D01*
X73660000Y-56277000D01*
X73660000Y-56023000D01*
X73660000Y-55007000D01*
X73660000Y-54753000D01*
X73660000Y-53737000D01*
X73660000Y-53483000D01*
X73660000Y-52213000D01*
X72771000Y-52213000D01*
X72246059Y-52367941D01*
X71820370Y-52711974D01*
X71558740Y-53192723D01*
X71543780Y-53266930D01*
X71666280Y-53483000D01*
X73660000Y-53483000D01*
X73660000Y-53737000D01*
X71666280Y-53737000D01*
X71543780Y-53953070D01*
X71558740Y-54027277D01*
X71820370Y-54508026D01*
X72246059Y-54852059D01*
X72340723Y-54880000D01*
X72246059Y-54907941D01*
X71820370Y-55251974D01*
X71558740Y-55732723D01*
X71543780Y-55806930D01*
X71666280Y-56023000D01*
X73660000Y-56023000D01*
X73660000Y-56277000D01*
X71666280Y-56277000D01*
X71543780Y-56493070D01*
X71558740Y-56567277D01*
X71820370Y-57048026D01*
X72246059Y-57392059D01*
X72771000Y-57547000D01*
X72858191Y-57547000D01*
X72420784Y-57634006D01*
X72049968Y-57881777D01*
X71802197Y-58252593D01*
X71715191Y-58690000D01*
X71802197Y-59127407D01*
X72049968Y-59498223D01*
X72420784Y-59745994D01*
X72858191Y-59833000D01*
X74715809Y-59833000D01*
X75153216Y-59745994D01*
X75524032Y-59498223D01*
X75771803Y-59127407D01*
X75858809Y-58690000D01*
X75771803Y-58252593D01*
X75524032Y-57881777D01*
X75153216Y-57634006D01*
X74715809Y-57547000D01*
X74803000Y-57547000D01*
X75327941Y-57392059D01*
X75753630Y-57048026D01*
X76015260Y-56567277D01*
X76030220Y-56493070D01*
X76030220Y-66831241D01*
X75858809Y-67002652D01*
X75858809Y-66310000D01*
X75858809Y-63770000D01*
X75858809Y-61230000D01*
X75771803Y-60792593D01*
X75524032Y-60421777D01*
X75153216Y-60174006D01*
X74715809Y-60087000D01*
X72858191Y-60087000D01*
X72420784Y-60174006D01*
X72049968Y-60421777D01*
X71802197Y-60792593D01*
X71715191Y-61230000D01*
X71802197Y-61667407D01*
X72049968Y-62038223D01*
X72420784Y-62285994D01*
X72858191Y-62373000D01*
X74715809Y-62373000D01*
X75153216Y-62285994D01*
X75524032Y-62038223D01*
X75771803Y-61667407D01*
X75858809Y-61230000D01*
X75858809Y-63770000D01*
X75771803Y-63332593D01*
X75524032Y-62961777D01*
X75153216Y-62714006D01*
X74715809Y-62627000D01*
X72858191Y-62627000D01*
X72420784Y-62714006D01*
X72049968Y-62961777D01*
X71802197Y-63332593D01*
X71715191Y-63770000D01*
X71802197Y-64207407D01*
X72049968Y-64578223D01*
X72420784Y-64825994D01*
X72858191Y-64913000D01*
X74715809Y-64913000D01*
X75153216Y-64825994D01*
X75524032Y-64578223D01*
X75771803Y-64207407D01*
X75858809Y-63770000D01*
X75858809Y-66310000D01*
X75771803Y-65872593D01*
X75524032Y-65501777D01*
X75153216Y-65254006D01*
X74715809Y-65167000D01*
X72858191Y-65167000D01*
X72420784Y-65254006D01*
X72049968Y-65501777D01*
X71802197Y-65872593D01*
X71715191Y-66310000D01*
X71802197Y-66747407D01*
X72049968Y-67118223D01*
X72420784Y-67365994D01*
X72858191Y-67453000D01*
X74715809Y-67453000D01*
X75153216Y-67365994D01*
X75524032Y-67118223D01*
X75771803Y-66747407D01*
X75858809Y-66310000D01*
X75858809Y-67002652D01*
X75081684Y-67779777D01*
X74715809Y-67707000D01*
X72858191Y-67707000D01*
X72420784Y-67794006D01*
X72049968Y-68041777D01*
X71802197Y-68412593D01*
X71715191Y-68850000D01*
X71802197Y-69287407D01*
X72049968Y-69658223D01*
X72420784Y-69905994D01*
X72858191Y-69993000D01*
X74715809Y-69993000D01*
X75084873Y-69919588D01*
X74750551Y-70253910D01*
X74715809Y-70247000D01*
X72858191Y-70247000D01*
X72420784Y-70334006D01*
X72049968Y-70581777D01*
X71802197Y-70952593D01*
X71715191Y-71390000D01*
X71802197Y-71827407D01*
X72049968Y-72198223D01*
X72420784Y-72445994D01*
X72858191Y-72533000D01*
X74715809Y-72533000D01*
X75153216Y-72445994D01*
X75524032Y-72198223D01*
X75771803Y-71827407D01*
X75858809Y-71390000D01*
X75771803Y-70952593D01*
X75615247Y-70718290D01*
X78960038Y-67373500D01*
X80723190Y-67373500D01*
X80898598Y-67549215D01*
X81178564Y-67665467D01*
X81481706Y-67665732D01*
X81761874Y-67549968D01*
X81976415Y-67335802D01*
X82092667Y-67055836D01*
X82092932Y-66752694D01*
X81977168Y-66472526D01*
X81763002Y-66257985D01*
X81483036Y-66141733D01*
X81179894Y-66141468D01*
X80899726Y-66257232D01*
X80722949Y-66433700D01*
X78765400Y-66433700D01*
X78585577Y-66469469D01*
X78433131Y-66571330D01*
X75785397Y-69219064D01*
X75858809Y-68850000D01*
X75772822Y-68417716D01*
X79357038Y-64833500D01*
X80799390Y-64833500D01*
X80974798Y-65009215D01*
X81254764Y-65125467D01*
X81557906Y-65125732D01*
X81838074Y-65009968D01*
X82052615Y-64795802D01*
X82168867Y-64515836D01*
X82169132Y-64212694D01*
X82169132Y-74569000D01*
X43837284Y-74569000D01*
X43837284Y-71525000D01*
X37937442Y-71525000D01*
X37937442Y-67500000D01*
X37937442Y-57500000D01*
X37824721Y-56933315D01*
X37503720Y-56452902D01*
X37023307Y-56131901D01*
X36456622Y-56019180D01*
X33543378Y-56019180D01*
X32976693Y-56131901D01*
X32496280Y-56452902D01*
X32175279Y-56933315D01*
X32062558Y-57500000D01*
X32175279Y-58066685D01*
X32496280Y-58547098D01*
X32976693Y-58868099D01*
X33543378Y-58980820D01*
X36456622Y-58980820D01*
X37023307Y-58868099D01*
X37503720Y-58547098D01*
X37824721Y-58066685D01*
X37937442Y-57500000D01*
X37937442Y-67500000D01*
X37824721Y-66933315D01*
X37503720Y-66452902D01*
X37023307Y-66131901D01*
X36456622Y-66019180D01*
X33543378Y-66019180D01*
X32976693Y-66131901D01*
X32496280Y-66452902D01*
X32175279Y-66933315D01*
X32062558Y-67500000D01*
X32175279Y-68066685D01*
X32496280Y-68547098D01*
X32976693Y-68868099D01*
X33543378Y-68980820D01*
X36456622Y-68980820D01*
X37023307Y-68868099D01*
X37503720Y-68547098D01*
X37824721Y-68066685D01*
X37937442Y-67500000D01*
X37937442Y-71525000D01*
X31431000Y-71525000D01*
X31431000Y-50431000D01*
X161163000Y-50431000D01*
X161163000Y-74569000D01*
M02*
