M48
;DRILL file {kicad 0.201504121001+5594~22~ubuntu14.04.1-product} date Wed 15 Apr 2015 18:38:14 NZST
;FORMAT={-:-/ absolute / inch / decimal}
FMAT,2
INCH,TZ
T1C0.015
T2C0.020
T3C0.040
T4C0.126
%
G90
G05
M72
T1
X2.22Y-2.54
X2.76Y-2.32
X2.76Y-2.35
X2.76Y-2.38
X3.08Y-2.238
X3.0964Y-2.435
X3.202Y-2.634
X3.205Y-2.534
X3.485Y-2.74
X3.485Y-2.78
X3.485Y-2.85
X3.485Y-2.89
X3.55Y-2.335
X3.56Y-2.44
X3.605Y-2.815
X3.605Y-2.855
X3.605Y-2.895
X3.68Y-2.6
X3.87Y-2.805
X3.9381Y-2.3592
X3.95Y-2.805
X3.9609Y-2.5808
X4.1125Y-2.4875
X4.25Y-1.93
X4.28Y-2.73
X4.3Y-1.93
X4.35Y-1.93
X4.37Y-2.84
X4.5222Y-1.9702
X4.5622Y-1.9702
X4.5828Y-2.3813
X4.6Y-2.75
X4.6022Y-1.9702
X4.6142Y-2.5157
X4.756Y-2.433
X4.7622Y-1.9302
X4.7652Y-2.3714
X4.78Y-2.51
X4.8022Y-1.9302
X4.8036Y-2.36
X4.8422Y-1.9302
X4.8822Y-1.9302
X4.9Y-2.42
X4.9222Y-1.9302
X4.94Y-2.195
X4.94Y-2.23
X4.94Y-2.62
X4.9622Y-1.9302
X5.0977Y-2.5677
X5.1Y-2.65
X5.1Y-2.69
X5.12Y-2.85
X5.185Y-2.731
X5.2127Y-2.3896
X5.26Y-2.33
X5.27Y-2.37
X5.29Y-2.475
X5.38Y-2.305
X5.555Y-2.54
X5.56Y-2.6
X5.565Y-2.475
X5.625Y-2.83
X5.665Y-2.83
X5.9Y-2.08
X5.93Y-2.08
X5.97Y-2.91
X5.99Y-2.03
X6.Y-2.455
X6.05Y-2.03
X6.05Y-2.455
X6.1Y-2.455
X6.11Y-2.03
T2
X1.8673Y-2.0367
X1.8673Y-2.1312
X1.8673Y-2.7867
X1.8673Y-2.8812
X1.95Y-1.9894
X1.95Y-2.1745
X1.95Y-2.7394
X1.95Y-2.9245
X2.0327Y-2.0367
X2.0327Y-2.1312
X2.0327Y-2.7867
X2.0327Y-2.8812
X6.2673Y-2.0367
X6.2673Y-2.1312
X6.2673Y-2.7867
X6.2673Y-2.8812
X6.35Y-1.9894
X6.35Y-2.1745
X6.35Y-2.7394
X6.35Y-2.9245
X6.4327Y-2.0367
X6.4327Y-2.1312
X6.4327Y-2.7867
X6.4327Y-2.8812
T3
X2.55Y-1.98
X2.55Y-2.93
X2.65Y-1.98
X2.65Y-2.93
X2.9Y-2.13
X2.9Y-2.23
X2.9Y-2.33
X2.9Y-2.43
X2.9Y-2.53
X2.9Y-2.63
X2.9Y-2.73
X2.9Y-2.83
X4.5Y-2.88
X4.5Y-2.98
X4.6Y-2.88
X4.6Y-2.98
X4.7Y-2.88
X4.7Y-2.98
X4.8Y-2.88
X4.8Y-2.98
X4.9Y-2.88
X4.9Y-2.98
X5.25Y-2.93
X5.35Y-2.93
X5.45Y-2.93
X5.55Y-2.93
X5.65Y-2.93
X6.25Y-2.28
X6.25Y-2.38
T4
X1.95Y-2.08
X1.95Y-2.83
X6.35Y-2.08
X6.35Y-2.83
T0
M30
