M48
;DRILL file {kicad 0.201411071246+5256~19~ubuntu14.04.1-product} date Tue 11 Nov 2014 19:19:12 NZDT
;FORMAT={-:-/ absolute / inch / decimal}
FMAT,2
INCH,TZ
T1C0.015
T2C0.039
T3C0.040
%
G90
G05
M72
T1
X1.52Y-2.09
X1.52Y-2.13
X1.52Y-2.29
X1.52Y-2.33
X2.06Y-2.37
X2.06Y-2.42
X2.1Y-2.37
X2.1Y-2.42
X2.14Y-2.8
X2.18Y-2.8
X2.22Y-2.8
X2.31Y-2.09
X2.35Y-2.09
X2.39Y-2.09
X2.45Y-2.8
X2.49Y-2.8
X2.53Y-2.8
X2.62Y-2.09
X2.66Y-2.09
X2.7Y-2.09
X3.08Y-2.238
X3.0964Y-2.435
X3.202Y-2.634
X3.205Y-2.534
X3.485Y-2.74
X3.485Y-2.78
X3.485Y-2.85
X3.485Y-2.89
X3.55Y-2.335
X3.56Y-2.44
X3.605Y-2.815
X3.605Y-2.855
X3.605Y-2.895
X3.68Y-2.6
X3.87Y-2.805
X3.9381Y-2.3592
X3.95Y-2.805
X3.9609Y-2.5808
X4.1125Y-2.4875
X4.3Y-2.15
X4.345Y-2.765
X4.345Y-2.805
X4.345Y-2.845
X4.5276Y-2.4843
X4.5828Y-2.3813
X4.594Y-2.707
X4.6142Y-2.5157
X4.72Y-2.15
X4.756Y-2.433
X4.764Y-2.3566
X4.78Y-2.51
X4.8036Y-2.3625
X4.836Y-2.808
X4.9Y-2.42
X4.93Y-2.2476
X4.99Y-2.69
X5.0104Y-2.2484
X5.0968Y-2.6677
X5.0977Y-2.5677
X5.102Y-2.628
X5.23Y-2.4
X5.2357Y-2.3122
X5.2625Y-2.2825
X5.349Y-2.793
X5.349Y-2.827
X5.3625Y-2.2375
X5.6Y-2.8
X5.68Y-2.7
X5.82Y-2.24
X5.82Y-2.36
X5.82Y-2.48
X5.84Y-2.3
X5.84Y-2.42
X5.84Y-2.54
X5.88Y-2.24
X5.88Y-2.36
X5.88Y-2.48
X5.9Y-2.3
X5.9Y-2.42
X5.9Y-2.54
X5.94Y-2.24
X5.94Y-2.36
X5.94Y-2.48
X5.96Y-2.3
X5.96Y-2.42
X5.96Y-2.54
X6.Y-2.24
X6.Y-2.36
X6.Y-2.48
X6.02Y-2.3
X6.02Y-2.42
X6.02Y-2.54
X6.06Y-2.24
X6.06Y-2.36
X6.06Y-2.48
X6.08Y-2.3
X6.08Y-2.42
X6.08Y-2.54
X6.12Y-2.24
X6.12Y-2.36
X6.12Y-2.48
X6.14Y-2.3
X6.14Y-2.42
X6.14Y-2.54
X6.2699Y-2.3327
X6.27Y-2.2427
X6.3Y-2.2427
X6.3Y-2.3327
X6.33Y-2.2427
X6.33Y-2.3327
T3
X2.905Y-2.1106
X2.905Y-2.2106
X2.905Y-2.3106
X2.905Y-2.4106
X2.905Y-2.5106
X2.905Y-2.6106
X2.905Y-2.7106
X2.905Y-2.8106
X4.548Y-2.8937
X4.648Y-2.8937
X4.748Y-2.8937
X4.848Y-2.8937
X4.948Y-2.8937
X5.463Y-2.212
X5.463Y-2.312
X5.463Y-2.412
X5.563Y-2.212
X5.563Y-2.312
X5.563Y-2.412
T2
X1.3189Y-2.2638G85X1.437Y-2.2638
G05
X1.3189Y-2.6575G85X1.437Y-2.6575
G05
T0
M30
