M48
;DRILL file {kicad 0.201503271001+5542~22~ubuntu14.04.1-product} date Sun 29 Mar 2015 17:31:30 NZDT
;FORMAT={-:-/ absolute / inch / decimal}
FMAT,2
INCH,TZ
T1C0.015
T2C0.020
T3C0.040
T4C0.126
%
G90
G05
M72
T1
X2.22Y-2.54
X2.76Y-2.32
X2.76Y-2.35
X2.76Y-2.38
X3.08Y-2.238
X3.0964Y-2.435
X3.202Y-2.634
X3.205Y-2.534
X3.485Y-2.74
X3.485Y-2.78
X3.485Y-2.85
X3.485Y-2.89
X3.55Y-2.335
X3.56Y-2.44
X3.605Y-2.815
X3.605Y-2.855
X3.605Y-2.895
X3.68Y-2.6
X3.87Y-2.805
X3.9381Y-2.3592
X3.95Y-2.805
X3.9609Y-2.5808
X4.1125Y-2.4875
X4.22Y-1.95
X4.26Y-1.95
X4.28Y-2.73
X4.3Y-1.95
X4.34Y-1.95
X4.37Y-2.84
X4.38Y-1.95
X4.5828Y-2.3813
X4.6Y-2.75
X4.6142Y-2.5157
X4.756Y-2.433
X4.7652Y-2.3714
X4.78Y-2.51
X4.8036Y-2.36
X4.87Y-1.94
X4.9Y-1.94
X4.9Y-2.42
X4.93Y-1.94
X4.94Y-2.195
X4.94Y-2.23
X4.94Y-2.62
X5.0977Y-2.5677
X5.1Y-2.65
X5.1Y-2.69
X5.12Y-2.86
X5.2127Y-2.3896
X5.26Y-2.33
X5.27Y-2.37
X5.305Y-2.065
X5.345Y-2.065
X5.38Y-2.3
X5.61Y-2.74
X5.65Y-2.74
X5.69Y-2.74
X5.9Y-2.08
X5.93Y-2.08
X5.97Y-2.91
X5.99Y-2.03
X6.01Y-2.44
X6.05Y-2.03
X6.05Y-2.44
X6.09Y-2.44
X6.11Y-2.03
T2
X4.6173Y-2.0367
X4.6173Y-2.1312
X4.7Y-1.9894
X4.7Y-2.1745
X4.7827Y-2.0367
X4.7827Y-2.1312
T3
X2.55Y-2.
X2.55Y-2.9
X2.65Y-2.
X2.65Y-2.9
X2.905Y-2.1106
X2.905Y-2.2106
X2.905Y-2.3106
X2.905Y-2.4106
X2.905Y-2.5106
X2.905Y-2.6106
X2.905Y-2.7106
X2.905Y-2.8106
X4.5Y-2.88
X4.5Y-2.98
X4.6Y-2.88
X4.6Y-2.98
X4.7Y-2.88
X4.7Y-2.98
X4.8Y-2.88
X4.8Y-2.98
X4.9Y-2.88
X4.9Y-2.98
X5.23Y-2.91
X5.33Y-2.91
X5.43Y-2.91
X5.53Y-2.91
X5.63Y-2.91
T4
X4.7Y-2.08
T0
M30
