G04 #@! TF.FileFunction,Soldermask,Top*
%FSLAX46Y46*%
G04 Gerber Fmt 4.6, Leading zero omitted, Abs format (unit mm)*
G04 Created by KiCad (PCBNEW 0.201504121001+5594~22~ubuntu14.04.1-product) date Wed 15 Apr 2015 18:38:53 NZST*
%MOMM*%
G01*
G04 APERTURE LIST*
%ADD10C,0.150000*%
%ADD11R,2.032000X2.032000*%
%ADD12O,2.032000X2.032000*%
%ADD13C,1.000000*%
%ADD14C,6.600000*%
%ADD15R,0.800000X1.800000*%
%ADD16R,0.700000X1.800000*%
%ADD17R,1.727200X1.727200*%
%ADD18O,1.727200X1.727200*%
%ADD19R,0.635000X1.143000*%
%ADD20R,1.143000X0.635000*%
%ADD21R,1.300480X0.299720*%
%ADD22R,0.299720X1.300480*%
%ADD23R,2.537160X1.837160*%
%ADD24R,1.198880X1.198880*%
%ADD25R,1.198880X0.599440*%
%ADD26R,1.501140X1.950720*%
%ADD27R,1.950720X1.501140*%
%ADD28R,1.397000X3.810000*%
%ADD29O,3.302000X1.524000*%
%ADD30R,0.762000X0.508000*%
%ADD31R,1.524000X0.406400*%
%ADD32R,0.406400X1.524000*%
%ADD33R,1.800000X2.000000*%
%ADD34R,1.190000X2.340000*%
%ADD35R,1.140000X1.190000*%
%ADD36R,1.270000X2.540000*%
%ADD37R,1.000760X0.701040*%
%ADD38R,2.032000X3.657600*%
%ADD39R,2.032000X1.016000*%
%ADD40R,2.100580X1.699260*%
%ADD41R,4.000000X1.500000*%
%ADD42C,3.000000*%
%ADD43R,1.803400X1.600200*%
G04 APERTURE END LIST*
D10*
D11*
X158750000Y-60452000D03*
D12*
X158750000Y-57912000D03*
D13*
X163390000Y-54132000D03*
X159190000Y-54132000D03*
X159190000Y-51732000D03*
X163390000Y-51732000D03*
X161290000Y-55232000D03*
D14*
X161290000Y-52832000D03*
D13*
X161290000Y-50532000D03*
D15*
X150368000Y-60147000D03*
X151468000Y-60147000D03*
X152568000Y-60147000D03*
X153668000Y-60147000D03*
D16*
X154768000Y-60147000D03*
D15*
X149268000Y-60147000D03*
X148168000Y-60147000D03*
X147068000Y-60147000D03*
D16*
X145968000Y-60147000D03*
X145968000Y-69647000D03*
D15*
X147068000Y-69647000D03*
X148168000Y-69647000D03*
X149268000Y-69647000D03*
X150368000Y-69647000D03*
X151468000Y-69647000D03*
D16*
X152568000Y-69647000D03*
D15*
X153668000Y-69647000D03*
D16*
X154768000Y-69647000D03*
D11*
X67310000Y-74422000D03*
D12*
X64770000Y-74422000D03*
D11*
X67310000Y-50292000D03*
D12*
X64770000Y-50292000D03*
D17*
X124460000Y-73152000D03*
D18*
X124460000Y-75692000D03*
X121920000Y-73152000D03*
X121920000Y-75692000D03*
X119380000Y-73152000D03*
X119380000Y-75692000D03*
X116840000Y-73152000D03*
X116840000Y-75692000D03*
X114300000Y-73152000D03*
X114300000Y-75692000D03*
D17*
X143510000Y-74422000D03*
D18*
X140970000Y-74422000D03*
X138430000Y-74422000D03*
X135890000Y-74422000D03*
X133350000Y-74422000D03*
D19*
X107569000Y-57277000D03*
X106045000Y-57277000D03*
D20*
X117600000Y-66262000D03*
X117600000Y-64738000D03*
D19*
X122938000Y-56200000D03*
X124462000Y-56200000D03*
X129349500Y-72402700D03*
X127825500Y-72402700D03*
D21*
X98262440Y-61488320D03*
X98262440Y-61988700D03*
X98262440Y-62489080D03*
X98262440Y-62986920D03*
X98262440Y-63487300D03*
X98262440Y-59987180D03*
X98262440Y-60487560D03*
X98262440Y-60987940D03*
D22*
X99611180Y-66837560D03*
X100111560Y-66837560D03*
X100611940Y-66837560D03*
X101112320Y-66837560D03*
X101612700Y-66837560D03*
X102113080Y-66837560D03*
X102610920Y-66837560D03*
X103111300Y-66837560D03*
D21*
X106461560Y-65488820D03*
X106461560Y-64988440D03*
X106461560Y-64488060D03*
X106461560Y-63987680D03*
X106461560Y-63487300D03*
X106461560Y-62986920D03*
X106461560Y-62489080D03*
X106461560Y-61988700D03*
D22*
X105112820Y-58638440D03*
X104612440Y-58638440D03*
X104112060Y-58638440D03*
X103611680Y-58638440D03*
X103111300Y-58638440D03*
X102610920Y-58638440D03*
X102113080Y-58638440D03*
X101612700Y-58638440D03*
D21*
X98262440Y-63987680D03*
X98262440Y-64488060D03*
X98262440Y-64988440D03*
X98262440Y-65488820D03*
D22*
X103611680Y-66837560D03*
X104112060Y-66837560D03*
X104612440Y-66837560D03*
X105112820Y-66837560D03*
D21*
X106461560Y-61488320D03*
X106461560Y-60987940D03*
X106461560Y-60487560D03*
X106461560Y-59987180D03*
D22*
X101112320Y-58638440D03*
X100611940Y-58638440D03*
X100111560Y-58638440D03*
X99611180Y-58638440D03*
D23*
X112395000Y-64969000D03*
X112395000Y-61269000D03*
D20*
X110363000Y-69215000D03*
X110363000Y-67691000D03*
X115062000Y-60782200D03*
X115062000Y-62306200D03*
X115087400Y-65455800D03*
X115087400Y-63931800D03*
D24*
X109507020Y-72136000D03*
X107408980Y-72136000D03*
D20*
X104902000Y-70993000D03*
X104902000Y-72517000D03*
X106680000Y-67818000D03*
X106680000Y-69342000D03*
X109601000Y-62230000D03*
X109601000Y-63754000D03*
D25*
X88773000Y-66929000D03*
X88773000Y-65659000D03*
X88773000Y-64389000D03*
X88773000Y-63119000D03*
X88773000Y-61849000D03*
X88773000Y-60579000D03*
X88773000Y-59309000D03*
X88773000Y-58039000D03*
X79883000Y-58039000D03*
X79883000Y-59309000D03*
X79883000Y-60579000D03*
X79883000Y-61849000D03*
X79883000Y-63119000D03*
X79883000Y-64389000D03*
X79883000Y-65659000D03*
X79883000Y-66929000D03*
D26*
X112141000Y-67586860D03*
X112141000Y-70335140D03*
D20*
X101854000Y-72517000D03*
X101854000Y-70993000D03*
X103378000Y-72517000D03*
X103378000Y-70993000D03*
D27*
X96370140Y-72517000D03*
X93621860Y-72517000D03*
D19*
X101600000Y-69342000D03*
X103124000Y-69342000D03*
D20*
X100076000Y-70358000D03*
X100076000Y-68834000D03*
X98298000Y-70358000D03*
X98298000Y-68834000D03*
X95377000Y-64516000D03*
X95377000Y-62992000D03*
X95504000Y-59690000D03*
X95504000Y-61214000D03*
X96520000Y-67818000D03*
X96520000Y-66294000D03*
X94996000Y-66294000D03*
X94996000Y-67818000D03*
D28*
X82169000Y-71374000D03*
X86741000Y-71374000D03*
D19*
X93853000Y-62738000D03*
X92329000Y-62738000D03*
X93853000Y-61214000D03*
X92329000Y-61214000D03*
X92710000Y-66040000D03*
X91186000Y-66040000D03*
D20*
X90678000Y-64008000D03*
X90678000Y-62484000D03*
D29*
X73660000Y-71882000D03*
X73660000Y-69342000D03*
X73660000Y-66802000D03*
X73660000Y-64262000D03*
X73660000Y-61722000D03*
X73660000Y-59182000D03*
X73660000Y-56642000D03*
X73660000Y-54102000D03*
D20*
X77139800Y-62153800D03*
X77139800Y-63677800D03*
X77089000Y-58039000D03*
X77089000Y-56515000D03*
D19*
X78511400Y-66497200D03*
X76987400Y-66497200D03*
D20*
X78257400Y-59232800D03*
X78257400Y-60756800D03*
D19*
X92710000Y-67564000D03*
X91186000Y-67564000D03*
X95656400Y-56489600D03*
X97180400Y-56489600D03*
X92329000Y-64262000D03*
X93853000Y-64262000D03*
X93853000Y-59690000D03*
X92329000Y-59690000D03*
X95656400Y-58064400D03*
X97180400Y-58064400D03*
D30*
X137668000Y-58864500D03*
X137668000Y-56959500D03*
X135128000Y-58864500D03*
X137668000Y-57912000D03*
X135128000Y-56959500D03*
D24*
X143797020Y-52959000D03*
X141698980Y-52959000D03*
X143797020Y-55880000D03*
X141698980Y-55880000D03*
X143670020Y-58674000D03*
X141571980Y-58674000D03*
D19*
X128524000Y-52578000D03*
X130048000Y-52578000D03*
D20*
X133604000Y-56388000D03*
X133604000Y-57912000D03*
X132080000Y-56388000D03*
X132080000Y-57912000D03*
D19*
X128524000Y-54356000D03*
X130048000Y-54356000D03*
X128524000Y-56134000D03*
X130048000Y-56134000D03*
D31*
X131015000Y-64200000D03*
X131015000Y-63399900D03*
X131015000Y-62599800D03*
X131015000Y-61799700D03*
X131015000Y-60999600D03*
X131015000Y-60199500D03*
X131015000Y-65000100D03*
X131015000Y-65800200D03*
X131015000Y-66600300D03*
X131015000Y-67400400D03*
X131015000Y-68200500D03*
X119585000Y-64200000D03*
X119585000Y-63399900D03*
X119585000Y-62599800D03*
X119585000Y-61799700D03*
X119585000Y-60999600D03*
X119585000Y-60199500D03*
X119585000Y-65000100D03*
X119585000Y-65800200D03*
X119585000Y-66600300D03*
X119585000Y-67400400D03*
X119585000Y-68200500D03*
D32*
X125300000Y-58485000D03*
X125300000Y-69915000D03*
X124499900Y-58485000D03*
X124499900Y-69915000D03*
X123699800Y-69915000D03*
X123699800Y-58485000D03*
X122899700Y-58485000D03*
X122899700Y-69915000D03*
X122099600Y-69915000D03*
X122099600Y-58485000D03*
X121299500Y-58485000D03*
X121299500Y-69915000D03*
X126100100Y-69915000D03*
X126100100Y-58485000D03*
X126900200Y-58485000D03*
X126900200Y-69915000D03*
X127700300Y-69915000D03*
X127700300Y-58485000D03*
X128500400Y-58485000D03*
X128500400Y-69915000D03*
X129300500Y-69915000D03*
X129300500Y-58485000D03*
D20*
X141224000Y-67310000D03*
X141224000Y-68834000D03*
X133096000Y-62992000D03*
X133096000Y-61468000D03*
D33*
X138938000Y-64956000D03*
X136398000Y-64956000D03*
X133858000Y-64956000D03*
X133858000Y-69156000D03*
X136398000Y-69156000D03*
X138938000Y-69156000D03*
D34*
X152195000Y-53721000D03*
X155145000Y-53721000D03*
D35*
X153670000Y-55246000D03*
D19*
X153162000Y-72390000D03*
X151638000Y-72390000D03*
D36*
X64984000Y-64770000D03*
X68032000Y-64770000D03*
D20*
X150241000Y-55499000D03*
X150241000Y-53975000D03*
D37*
X62444000Y-62801500D03*
X62444000Y-63754000D03*
X62444000Y-64706500D03*
X59904000Y-64706500D03*
X59904000Y-63754000D03*
X59904000Y-62801500D03*
D20*
X146431000Y-73660000D03*
X146431000Y-72136000D03*
X148082000Y-73660000D03*
X148082000Y-72136000D03*
X149733000Y-73660000D03*
X149733000Y-72136000D03*
D19*
X149479000Y-57277000D03*
X151003000Y-57277000D03*
D20*
X57872000Y-64516000D03*
X57872000Y-66040000D03*
D19*
X59396000Y-66548000D03*
X60920000Y-66548000D03*
D38*
X119182720Y-52328000D03*
D39*
X112578720Y-52328000D03*
X112578720Y-54614000D03*
X112578720Y-50042000D03*
D19*
X56642000Y-62992000D03*
X58166000Y-62992000D03*
D20*
X62698000Y-66294000D03*
X62698000Y-67818000D03*
D26*
X143764000Y-69954140D03*
X143764000Y-67205860D03*
X109276720Y-50953860D03*
X109276720Y-53702140D03*
D24*
X143797020Y-50038000D03*
X141698980Y-50038000D03*
D19*
X137922000Y-50038000D03*
X139446000Y-50038000D03*
D40*
X65072260Y-68326000D03*
X68531740Y-68326000D03*
X64818260Y-61468000D03*
X68277740Y-61468000D03*
D37*
X135128000Y-62420500D03*
X135128000Y-61468000D03*
X135128000Y-60515500D03*
X137668000Y-60515500D03*
X137668000Y-61468000D03*
X137668000Y-62420500D03*
D41*
X60706000Y-60982000D03*
X60706000Y-57382000D03*
D42*
X55880000Y-71882000D03*
D43*
X65024000Y-55499000D03*
X65024000Y-58293000D03*
X67564000Y-55499000D03*
X67564000Y-58293000D03*
D20*
X143764000Y-62103000D03*
X143764000Y-60579000D03*
D19*
X99949000Y-72517000D03*
X98425000Y-72517000D03*
X152146000Y-57277000D03*
X153670000Y-57277000D03*
D20*
X143764000Y-63754000D03*
X143764000Y-65278000D03*
X141986000Y-60579000D03*
X141986000Y-62103000D03*
X140208000Y-60579000D03*
X140208000Y-62103000D03*
D13*
X51630000Y-54132000D03*
X47430000Y-54132000D03*
X47430000Y-51732000D03*
X51630000Y-51732000D03*
X49530000Y-55232000D03*
D14*
X49530000Y-52832000D03*
D13*
X49530000Y-50532000D03*
X51630000Y-73182000D03*
X47430000Y-73182000D03*
X47430000Y-70782000D03*
X51630000Y-70782000D03*
X49530000Y-74282000D03*
D14*
X49530000Y-71882000D03*
D13*
X49530000Y-69582000D03*
X163390000Y-73182000D03*
X159190000Y-73182000D03*
X159190000Y-70782000D03*
X163390000Y-70782000D03*
X161290000Y-74282000D03*
D14*
X161290000Y-71882000D03*
D13*
X161290000Y-69582000D03*
D26*
X124587000Y-50822860D03*
X124587000Y-53571140D03*
X122174000Y-50822860D03*
X122174000Y-53571140D03*
M02*
