G04 #@! TF.FileFunction,Legend,Top*
%FSLAX46Y46*%
G04 Gerber Fmt 4.6, Leading zero omitted, Abs format (unit mm)*
G04 Created by KiCad (PCBNEW 0.201504121001+5594~22~ubuntu14.04.1-product) date Wed 15 Apr 2015 18:38:53 NZST*
%MOMM*%
G01*
G04 APERTURE LIST*
%ADD10C,0.150000*%
%ADD11C,0.118400*%
%ADD12C,0.114300*%
%ADD13C,0.117400*%
%ADD14C,0.100000*%
%ADD15C,0.196850*%
%ADD16C,0.200000*%
%ADD17C,0.200014*%
%ADD18C,0.200140*%
%ADD19C,0.127000*%
%ADD20C,0.149860*%
%ADD21C,0.066040*%
%ADD22C,0.101600*%
%ADD23C,0.050800*%
%ADD24C,0.203200*%
%ADD25C,0.000120*%
%ADD26C,0.304800*%
%ADD27C,0.002540*%
%ADD28C,0.190500*%
%ADD29C,0.120000*%
%ADD30R,2.032000X2.032000*%
%ADD31O,2.032000X2.032000*%
%ADD32C,1.000000*%
%ADD33C,6.600000*%
%ADD34R,0.800000X1.800000*%
%ADD35R,0.700000X1.800000*%
%ADD36R,1.727200X1.727200*%
%ADD37O,1.727200X1.727200*%
%ADD38R,0.635000X1.143000*%
%ADD39R,1.143000X0.635000*%
%ADD40R,1.300480X0.299720*%
%ADD41R,0.299720X1.300480*%
%ADD42R,2.537160X1.837160*%
%ADD43R,1.198880X1.198880*%
%ADD44R,1.198880X0.599440*%
%ADD45R,1.501140X1.950720*%
%ADD46R,1.950720X1.501140*%
%ADD47R,1.397000X3.810000*%
%ADD48O,3.302000X1.524000*%
%ADD49R,0.762000X0.508000*%
%ADD50R,1.524000X0.406400*%
%ADD51R,0.406400X1.524000*%
%ADD52R,1.800000X2.000000*%
%ADD53R,1.190000X2.340000*%
%ADD54R,1.140000X1.190000*%
%ADD55R,1.270000X2.540000*%
%ADD56R,1.000760X0.701040*%
%ADD57R,2.032000X3.657600*%
%ADD58R,2.032000X1.016000*%
%ADD59R,2.100580X1.699260*%
%ADD60R,4.000000X1.500000*%
%ADD61C,3.000000*%
%ADD62R,1.803400X1.600200*%
G04 APERTURE END LIST*
D10*
D11*
X161254924Y-57518300D02*
X161179933Y-57480805D01*
X161067448Y-57480805D01*
X160954962Y-57518300D01*
X160879971Y-57593290D01*
X160842476Y-57668281D01*
X160804981Y-57818262D01*
X160804981Y-57930748D01*
X160842476Y-58080729D01*
X160879971Y-58155719D01*
X160954962Y-58230710D01*
X161067448Y-58268205D01*
X161142438Y-58268205D01*
X161254924Y-58230710D01*
X161292419Y-58193214D01*
X161292419Y-57930748D01*
X161142438Y-57930748D01*
X161629876Y-58268205D02*
X161629876Y-57480805D01*
X162079819Y-58268205D01*
X162079819Y-57480805D01*
X162454771Y-58268205D02*
X162454771Y-57480805D01*
X162642247Y-57480805D01*
X162754733Y-57518300D01*
X162829724Y-57593290D01*
X162867219Y-57668281D01*
X162904714Y-57818262D01*
X162904714Y-57930748D01*
X162867219Y-58080729D01*
X162829724Y-58155719D01*
X162754733Y-58230710D01*
X162642247Y-58268205D01*
X162454771Y-58268205D01*
X160804981Y-60583233D02*
X161179933Y-60583233D01*
X160729990Y-60808205D02*
X160992457Y-60020805D01*
X161254924Y-60808205D01*
X161517390Y-60808205D02*
X161517390Y-60020805D01*
X161967333Y-60808205D01*
X161967333Y-60020805D01*
X162229799Y-60020805D02*
X162679742Y-60020805D01*
X162454771Y-60808205D02*
X162454771Y-60020805D01*
D12*
X132207000Y-73279000D02*
X144653000Y-73279000D01*
X132207000Y-75565000D02*
X132207000Y-73279000D01*
X144653000Y-75565000D02*
X132207000Y-75565000D01*
X144653000Y-73279000D02*
X144653000Y-75565000D01*
D11*
X137867572Y-72123300D02*
X137792581Y-72085805D01*
X137680096Y-72085805D01*
X137567610Y-72123300D01*
X137492619Y-72198290D01*
X137455124Y-72273281D01*
X137417629Y-72423262D01*
X137417629Y-72535748D01*
X137455124Y-72685729D01*
X137492619Y-72760719D01*
X137567610Y-72835710D01*
X137680096Y-72873205D01*
X137755086Y-72873205D01*
X137867572Y-72835710D01*
X137905067Y-72798214D01*
X137905067Y-72535748D01*
X137755086Y-72535748D01*
X138242524Y-72873205D02*
X138242524Y-72085805D01*
X138542486Y-72085805D01*
X138617477Y-72123300D01*
X138654972Y-72160795D01*
X138692467Y-72235786D01*
X138692467Y-72348271D01*
X138654972Y-72423262D01*
X138617477Y-72460757D01*
X138542486Y-72498252D01*
X138242524Y-72498252D01*
X138992429Y-72835710D02*
X139104915Y-72873205D01*
X139292391Y-72873205D01*
X139367381Y-72835710D01*
X139404877Y-72798214D01*
X139442372Y-72723224D01*
X139442372Y-72648233D01*
X139404877Y-72573243D01*
X139367381Y-72535748D01*
X139292391Y-72498252D01*
X139142410Y-72460757D01*
X139067419Y-72423262D01*
X139029924Y-72385767D01*
X138992429Y-72310776D01*
X138992429Y-72235786D01*
X139029924Y-72160795D01*
X139067419Y-72123300D01*
X139142410Y-72085805D01*
X139329886Y-72085805D01*
X139442372Y-72123300D01*
D12*
X133096000Y-60833000D02*
X133096000Y-60071000D01*
X143764000Y-62992000D02*
X143764000Y-62738000D01*
X143129000Y-62992000D02*
X143764000Y-62992000D01*
X99822000Y-71247000D02*
X99822000Y-70993000D01*
X97409000Y-71247000D02*
X99822000Y-71247000D01*
X93599000Y-67056000D02*
X93980000Y-67056000D01*
X93599000Y-68199000D02*
X93599000Y-67056000D01*
X96520000Y-68834000D02*
X96520000Y-68580000D01*
X95377000Y-68834000D02*
X96520000Y-68834000D01*
X142240000Y-69215000D02*
X142240000Y-68580000D01*
X142240000Y-68580000D02*
X142494000Y-68580000D01*
X141986000Y-59690000D02*
X141986000Y-59944000D01*
X140843000Y-59690000D02*
X141986000Y-59690000D01*
D11*
X132918805Y-76779362D02*
X132918805Y-76704371D01*
X132956300Y-76629381D01*
X132993795Y-76591886D01*
X133068786Y-76554390D01*
X133218767Y-76516895D01*
X133406243Y-76516895D01*
X133556224Y-76554390D01*
X133631214Y-76591886D01*
X133668710Y-76629381D01*
X133706205Y-76704371D01*
X133706205Y-76779362D01*
X133668710Y-76854352D01*
X133631214Y-76891848D01*
X133556224Y-76929343D01*
X133406243Y-76966838D01*
X133218767Y-76966838D01*
X133068786Y-76929343D01*
X132993795Y-76891848D01*
X132956300Y-76854352D01*
X132918805Y-76779362D01*
X132918805Y-76291924D02*
X133706205Y-76029457D01*
X132918805Y-75766990D01*
D13*
X79347785Y-54940805D02*
X79347785Y-54153405D01*
X79685242Y-54940805D02*
X79685242Y-54528357D01*
X79647747Y-54453367D01*
X79572757Y-54415871D01*
X79460271Y-54415871D01*
X79385280Y-54453367D01*
X79347785Y-54490862D01*
X80397652Y-54940805D02*
X80397652Y-54528357D01*
X80360157Y-54453367D01*
X80285167Y-54415871D01*
X80135186Y-54415871D01*
X80060195Y-54453367D01*
X80397652Y-54903310D02*
X80322662Y-54940805D01*
X80135186Y-54940805D01*
X80060195Y-54903310D01*
X80022700Y-54828319D01*
X80022700Y-54753329D01*
X80060195Y-54678338D01*
X80135186Y-54640843D01*
X80322662Y-54640843D01*
X80397652Y-54603348D01*
X80772605Y-54940805D02*
X80772605Y-54415871D01*
X80772605Y-54153405D02*
X80735110Y-54190900D01*
X80772605Y-54228395D01*
X80810100Y-54190900D01*
X80772605Y-54153405D01*
X80772605Y-54228395D01*
X81147557Y-54940805D02*
X81147557Y-54415871D01*
X81147557Y-54565852D02*
X81185052Y-54490862D01*
X81222548Y-54453367D01*
X81297538Y-54415871D01*
X81372529Y-54415871D01*
X81560005Y-54415871D02*
X81747481Y-54940805D01*
X81934957Y-54415871D02*
X81747481Y-54940805D01*
X81672490Y-55128281D01*
X81634995Y-55165776D01*
X81560005Y-55203271D01*
X82234919Y-54865814D02*
X82272414Y-54903310D01*
X82234919Y-54940805D01*
X82197424Y-54903310D01*
X82234919Y-54865814D01*
X82234919Y-54940805D01*
X82947328Y-54415871D02*
X82947328Y-55053290D01*
X82909833Y-55128281D01*
X82872338Y-55165776D01*
X82797347Y-55203271D01*
X82684862Y-55203271D01*
X82609871Y-55165776D01*
X82947328Y-54903310D02*
X82872338Y-54940805D01*
X82722357Y-54940805D01*
X82647366Y-54903310D01*
X82609871Y-54865814D01*
X82572376Y-54790824D01*
X82572376Y-54565852D01*
X82609871Y-54490862D01*
X82647366Y-54453367D01*
X82722357Y-54415871D01*
X82872338Y-54415871D01*
X82947328Y-54453367D01*
X83622243Y-54903310D02*
X83547253Y-54940805D01*
X83397272Y-54940805D01*
X83322281Y-54903310D01*
X83284786Y-54828319D01*
X83284786Y-54528357D01*
X83322281Y-54453367D01*
X83397272Y-54415871D01*
X83547253Y-54415871D01*
X83622243Y-54453367D01*
X83659738Y-54528357D01*
X83659738Y-54603348D01*
X83284786Y-54678338D01*
X84297157Y-54903310D02*
X84222167Y-54940805D01*
X84072186Y-54940805D01*
X83997195Y-54903310D01*
X83959700Y-54828319D01*
X83959700Y-54528357D01*
X83997195Y-54453367D01*
X84072186Y-54415871D01*
X84222167Y-54415871D01*
X84297157Y-54453367D01*
X84334652Y-54528357D01*
X84334652Y-54603348D01*
X83959700Y-54678338D01*
X84672109Y-54940805D02*
X84672109Y-54153405D01*
X84747100Y-54640843D02*
X84972071Y-54940805D01*
X84972071Y-54415871D02*
X84672109Y-54715833D01*
X85309528Y-54865814D02*
X85347023Y-54903310D01*
X85309528Y-54940805D01*
X85272033Y-54903310D01*
X85309528Y-54865814D01*
X85309528Y-54940805D01*
X85684480Y-54415871D02*
X85684480Y-54940805D01*
X85684480Y-54490862D02*
X85721975Y-54453367D01*
X85796966Y-54415871D01*
X85909452Y-54415871D01*
X85984442Y-54453367D01*
X86021937Y-54528357D01*
X86021937Y-54940805D01*
X86321900Y-54415871D02*
X86734347Y-54415871D01*
X86321900Y-54940805D01*
X86734347Y-54940805D01*
X87596738Y-54115910D02*
X86921823Y-55128281D01*
X87859204Y-54415871D02*
X87859204Y-54940805D01*
X87859204Y-54490862D02*
X87896699Y-54453367D01*
X87971690Y-54415871D01*
X88084176Y-54415871D01*
X88159166Y-54453367D01*
X88196661Y-54528357D01*
X88196661Y-54940805D01*
X88459128Y-54415871D02*
X88759090Y-54415871D01*
X88571614Y-54153405D02*
X88571614Y-54828319D01*
X88609109Y-54903310D01*
X88684100Y-54940805D01*
X88759090Y-54940805D01*
X89021557Y-54415871D02*
X89021557Y-55203271D01*
X89021557Y-54453367D02*
X89096548Y-54415871D01*
X89246529Y-54415871D01*
X89321519Y-54453367D01*
X89359014Y-54490862D01*
X89396510Y-54565852D01*
X89396510Y-54790824D01*
X89359014Y-54865814D01*
X89321519Y-54903310D01*
X89246529Y-54940805D01*
X89096548Y-54940805D01*
X89021557Y-54903310D01*
D14*
X87222058Y-50570581D02*
X87293487Y-50594390D01*
X87412534Y-50594390D01*
X87460153Y-50570581D01*
X87483963Y-50546771D01*
X87507772Y-50499152D01*
X87507772Y-50451533D01*
X87483963Y-50403914D01*
X87460153Y-50380105D01*
X87412534Y-50356295D01*
X87317296Y-50332486D01*
X87269677Y-50308676D01*
X87245868Y-50284867D01*
X87222058Y-50237248D01*
X87222058Y-50189629D01*
X87245868Y-50142010D01*
X87269677Y-50118200D01*
X87317296Y-50094390D01*
X87436344Y-50094390D01*
X87507772Y-50118200D01*
X87698248Y-50451533D02*
X87936343Y-50451533D01*
X87650629Y-50594390D02*
X87817296Y-50094390D01*
X87983962Y-50594390D01*
X85292429Y-50332486D02*
X85363858Y-50356295D01*
X85387667Y-50380105D01*
X85411477Y-50427724D01*
X85411477Y-50499152D01*
X85387667Y-50546771D01*
X85363858Y-50570581D01*
X85316239Y-50594390D01*
X85125763Y-50594390D01*
X85125763Y-50094390D01*
X85292429Y-50094390D01*
X85340048Y-50118200D01*
X85363858Y-50142010D01*
X85387667Y-50189629D01*
X85387667Y-50237248D01*
X85363858Y-50284867D01*
X85340048Y-50308676D01*
X85292429Y-50332486D01*
X85125763Y-50332486D01*
X85721001Y-50356295D02*
X85721001Y-50594390D01*
X85554334Y-50094390D02*
X85721001Y-50356295D01*
X85887667Y-50094390D01*
X82766068Y-53066190D02*
X83075591Y-53066190D01*
X82908925Y-53256667D01*
X82980353Y-53256667D01*
X83027972Y-53280476D01*
X83051782Y-53304286D01*
X83075591Y-53351905D01*
X83075591Y-53470952D01*
X83051782Y-53518571D01*
X83027972Y-53542381D01*
X82980353Y-53566190D01*
X82837496Y-53566190D01*
X82789877Y-53542381D01*
X82766068Y-53518571D01*
X83289877Y-53518571D02*
X83313686Y-53542381D01*
X83289877Y-53566190D01*
X83266067Y-53542381D01*
X83289877Y-53518571D01*
X83289877Y-53566190D01*
X83623210Y-53066190D02*
X83670829Y-53066190D01*
X83718448Y-53090000D01*
X83742257Y-53113810D01*
X83766067Y-53161429D01*
X83789876Y-53256667D01*
X83789876Y-53375714D01*
X83766067Y-53470952D01*
X83742257Y-53518571D01*
X83718448Y-53542381D01*
X83670829Y-53566190D01*
X83623210Y-53566190D01*
X83575591Y-53542381D01*
X83551781Y-53518571D01*
X83527972Y-53470952D01*
X83504162Y-53375714D01*
X83504162Y-53256667D01*
X83527972Y-53161429D01*
X83551781Y-53113810D01*
X83575591Y-53090000D01*
X83623210Y-53066190D01*
X84004162Y-53375714D02*
X84385114Y-53375714D01*
X84623210Y-53566190D02*
X84623210Y-53066190D01*
X84908924Y-53566190D01*
X84908924Y-53066190D01*
X85099401Y-53066190D02*
X85432734Y-53066190D01*
X85099401Y-53566190D01*
X85432734Y-53566190D01*
D11*
X110543824Y-73687214D02*
X110506329Y-73724710D01*
X110393843Y-73762205D01*
X110318853Y-73762205D01*
X110206367Y-73724710D01*
X110131376Y-73649719D01*
X110093881Y-73574729D01*
X110056386Y-73424748D01*
X110056386Y-73312262D01*
X110093881Y-73162281D01*
X110131376Y-73087290D01*
X110206367Y-73012300D01*
X110318853Y-72974805D01*
X110393843Y-72974805D01*
X110506329Y-73012300D01*
X110543824Y-73049795D01*
X111031262Y-72974805D02*
X111181243Y-72974805D01*
X111256234Y-73012300D01*
X111331224Y-73087290D01*
X111368719Y-73237271D01*
X111368719Y-73499738D01*
X111331224Y-73649719D01*
X111256234Y-73724710D01*
X111181243Y-73762205D01*
X111031262Y-73762205D01*
X110956272Y-73724710D01*
X110881281Y-73649719D01*
X110843786Y-73499738D01*
X110843786Y-73237271D01*
X110881281Y-73087290D01*
X110956272Y-73012300D01*
X111031262Y-72974805D01*
X111706176Y-73762205D02*
X111706176Y-72974805D01*
X112156119Y-73762205D01*
X112156119Y-72974805D01*
D12*
X113157000Y-74168000D02*
X113030000Y-74168000D01*
X113157000Y-75565000D02*
X113157000Y-74168000D01*
X113030000Y-75565000D02*
X113157000Y-75565000D01*
X113157000Y-75565000D02*
X113030000Y-75565000D01*
X113157000Y-76962000D02*
X113157000Y-75565000D01*
X113030000Y-76962000D02*
X113157000Y-76962000D01*
X113030000Y-74168000D02*
X112903000Y-74168000D01*
X112903000Y-75565000D02*
X113030000Y-75565000D01*
X113030000Y-75565000D02*
X112903000Y-75565000D01*
X112903000Y-76962000D02*
X113030000Y-76962000D01*
X111125000Y-76962000D02*
X112903000Y-76962000D01*
X111125000Y-75565000D02*
X109093000Y-75565000D01*
X109093000Y-74168000D02*
X111125000Y-74168000D01*
X109093000Y-76962000D02*
X109093000Y-74168000D01*
X109220000Y-76962000D02*
X109093000Y-76962000D01*
X111125000Y-76962000D02*
X109220000Y-76962000D01*
X111125000Y-76835000D02*
X111125000Y-76962000D01*
X111125000Y-75565000D02*
X111125000Y-76835000D01*
D11*
X111766048Y-75895805D02*
X111841039Y-75895805D01*
X111916029Y-75933300D01*
X111953524Y-75970795D01*
X111991020Y-76045786D01*
X112028515Y-76195767D01*
X112028515Y-76383243D01*
X111991020Y-76533224D01*
X111953524Y-76608214D01*
X111916029Y-76645710D01*
X111841039Y-76683205D01*
X111766048Y-76683205D01*
X111691058Y-76645710D01*
X111653562Y-76608214D01*
X111616067Y-76533224D01*
X111578572Y-76383243D01*
X111578572Y-76195767D01*
X111616067Y-76045786D01*
X111653562Y-75970795D01*
X111691058Y-75933300D01*
X111766048Y-75895805D01*
X112253486Y-75895805D02*
X112515953Y-76683205D01*
X112778420Y-75895805D01*
X109369981Y-76408643D02*
X109969905Y-76408643D01*
X109669943Y-76708605D02*
X109669943Y-76108681D01*
X110232371Y-75921205D02*
X110494838Y-76708605D01*
X110757305Y-75921205D01*
X109977767Y-75286205D02*
X109715300Y-74911252D01*
X109527824Y-75286205D02*
X109527824Y-74498805D01*
X109827786Y-74498805D01*
X109902777Y-74536300D01*
X109940272Y-74573795D01*
X109977767Y-74648786D01*
X109977767Y-74761271D01*
X109940272Y-74836262D01*
X109902777Y-74873757D01*
X109827786Y-74911252D01*
X109527824Y-74911252D01*
X110240234Y-74498805D02*
X110765167Y-75286205D01*
X110765167Y-74498805D02*
X110240234Y-75286205D01*
D12*
X111125000Y-75565000D02*
X111125000Y-74168000D01*
X112903000Y-75565000D02*
X111125000Y-75565000D01*
X111125000Y-74168000D02*
X112903000Y-74168000D01*
D11*
X111541076Y-74498805D02*
X111991019Y-74498805D01*
X111766048Y-75286205D02*
X111766048Y-74498805D01*
X112178496Y-74498805D02*
X112703429Y-75286205D01*
X112703429Y-74498805D02*
X112178496Y-75286205D01*
D12*
X113157000Y-76962000D02*
X118110000Y-76962000D01*
X113157000Y-72009000D02*
X113157000Y-76962000D01*
X118110000Y-72009000D02*
X113157000Y-72009000D01*
D11*
X126924405Y-76565276D02*
X126137005Y-76565276D01*
X126137005Y-76265314D01*
X126174500Y-76190323D01*
X126211995Y-76152828D01*
X126286986Y-76115333D01*
X126399471Y-76115333D01*
X126474462Y-76152828D01*
X126511957Y-76190323D01*
X126549452Y-76265314D01*
X126549452Y-76565276D01*
X126924405Y-75777876D02*
X126137005Y-75777876D01*
X126137005Y-75590400D01*
X126174500Y-75477914D01*
X126249490Y-75402923D01*
X126324481Y-75365428D01*
X126474462Y-75327933D01*
X126586948Y-75327933D01*
X126736929Y-75365428D01*
X126811919Y-75402923D01*
X126886910Y-75477914D01*
X126924405Y-75590400D01*
X126924405Y-75777876D01*
X126924405Y-74990476D02*
X126137005Y-74990476D01*
D12*
X125603000Y-76962000D02*
X118110000Y-76962000D01*
X125603000Y-72009000D02*
X125603000Y-76835000D01*
X118110000Y-72009000D02*
X125603000Y-72009000D01*
X118110000Y-76962000D02*
X118110000Y-72009000D01*
D11*
X135946243Y-77154314D02*
X135946243Y-76554390D01*
X136246205Y-76854352D02*
X135646281Y-76854352D01*
X135458805Y-76291924D02*
X136246205Y-76029457D01*
X135458805Y-75766990D01*
X137998805Y-77004334D02*
X137998805Y-76554391D01*
X138786205Y-76779362D02*
X137998805Y-76779362D01*
X138786205Y-76291924D02*
X137998805Y-76291924D01*
X137998805Y-75991962D01*
X138036300Y-75916971D01*
X138073795Y-75879476D01*
X138148786Y-75841981D01*
X138261271Y-75841981D01*
X138336262Y-75879476D01*
X138373757Y-75916971D01*
X138411252Y-75991962D01*
X138411252Y-76291924D01*
X140538805Y-76966839D02*
X140538805Y-76516896D01*
X141326205Y-76741867D02*
X140538805Y-76741867D01*
X140538805Y-76329419D02*
X141326205Y-75804486D01*
X140538805Y-75804486D02*
X141326205Y-76329419D01*
X143866205Y-76591886D02*
X143491252Y-76854353D01*
X143866205Y-77041829D02*
X143078805Y-77041829D01*
X143078805Y-76741867D01*
X143116300Y-76666876D01*
X143153795Y-76629381D01*
X143228786Y-76591886D01*
X143341271Y-76591886D01*
X143416262Y-76629381D01*
X143453757Y-76666876D01*
X143491252Y-76741867D01*
X143491252Y-77041829D01*
X143078805Y-76329419D02*
X143866205Y-75804486D01*
X143078805Y-75804486D02*
X143866205Y-76329419D01*
D12*
X126619000Y-73152000D02*
X126746000Y-73025000D01*
X126746000Y-73279000D02*
X126619000Y-73152000D01*
X126746000Y-72898000D02*
X126746000Y-73279000D01*
X126492000Y-73152000D02*
X126746000Y-72898000D01*
X126746000Y-73406000D02*
X126492000Y-73152000D01*
X126746000Y-72771000D02*
X126746000Y-73406000D01*
X126365000Y-73152000D02*
X126746000Y-72771000D01*
X126746000Y-73533000D02*
X126365000Y-73152000D01*
X126746000Y-73660000D02*
X126746000Y-73533000D01*
X126238000Y-73152000D02*
X126746000Y-73660000D01*
X126746000Y-72644000D02*
X126238000Y-73152000D01*
X126619000Y-72644000D02*
X126746000Y-72644000D01*
X126492000Y-72771000D02*
X126619000Y-72644000D01*
X126746000Y-72771000D02*
X126492000Y-72771000D01*
X126746000Y-72898000D02*
X126746000Y-72771000D01*
X126365000Y-72898000D02*
X126746000Y-72898000D01*
X126238000Y-73025000D02*
X126365000Y-72898000D01*
X126746000Y-73025000D02*
X126238000Y-73025000D01*
X126746000Y-73152000D02*
X126746000Y-73025000D01*
X126111000Y-73152000D02*
X126746000Y-73152000D01*
X126746000Y-73787000D02*
X126111000Y-73152000D01*
X126746000Y-72517000D02*
X126746000Y-73787000D01*
X126111000Y-73152000D02*
X126746000Y-72517000D01*
D15*
X147699186Y-49519628D02*
X148074138Y-49519628D01*
X147624195Y-49744600D02*
X147886662Y-48957200D01*
X148149129Y-49744600D01*
X148411595Y-49744600D02*
X148411595Y-48957200D01*
X148861538Y-49744600D01*
X148861538Y-48957200D01*
X149124004Y-48957200D02*
X149573947Y-48957200D01*
X149348976Y-49744600D02*
X149348976Y-48957200D01*
X150398843Y-49707105D02*
X150511329Y-49744600D01*
X150698805Y-49744600D01*
X150773795Y-49707105D01*
X150811291Y-49669609D01*
X150848786Y-49594619D01*
X150848786Y-49519628D01*
X150811291Y-49444638D01*
X150773795Y-49407143D01*
X150698805Y-49369647D01*
X150548824Y-49332152D01*
X150473833Y-49294657D01*
X150436338Y-49257162D01*
X150398843Y-49182171D01*
X150398843Y-49107181D01*
X150436338Y-49032190D01*
X150473833Y-48994695D01*
X150548824Y-48957200D01*
X150736300Y-48957200D01*
X150848786Y-48994695D01*
X151186243Y-48957200D02*
X151186243Y-49594619D01*
X151223738Y-49669609D01*
X151261234Y-49707105D01*
X151336224Y-49744600D01*
X151486205Y-49744600D01*
X151561196Y-49707105D01*
X151598691Y-49669609D01*
X151636186Y-49594619D01*
X151636186Y-48957200D01*
X152011138Y-49744600D02*
X152011138Y-48957200D01*
X152311100Y-48957200D01*
X152386091Y-48994695D01*
X152423586Y-49032190D01*
X152461081Y-49107181D01*
X152461081Y-49219666D01*
X152423586Y-49294657D01*
X152386091Y-49332152D01*
X152311100Y-49369647D01*
X152011138Y-49369647D01*
X152798538Y-49744600D02*
X152798538Y-48957200D01*
X153098500Y-48957200D01*
X153173491Y-48994695D01*
X153210986Y-49032190D01*
X153248481Y-49107181D01*
X153248481Y-49219666D01*
X153210986Y-49294657D01*
X153173491Y-49332152D01*
X153098500Y-49369647D01*
X152798538Y-49369647D01*
X153960891Y-49744600D02*
X153585938Y-49744600D01*
X153585938Y-48957200D01*
X154373338Y-49369647D02*
X154373338Y-49744600D01*
X154110871Y-48957200D02*
X154373338Y-49369647D01*
X154635805Y-48957200D01*
X147530457Y-50256410D02*
X148017895Y-50256410D01*
X147755428Y-50556372D01*
X147867914Y-50556372D01*
X147942904Y-50593867D01*
X147980400Y-50631362D01*
X148017895Y-50706353D01*
X148017895Y-50893829D01*
X147980400Y-50968819D01*
X147942904Y-51006315D01*
X147867914Y-51043810D01*
X147642942Y-51043810D01*
X147567952Y-51006315D01*
X147530457Y-50968819D01*
X148242866Y-50256410D02*
X148505333Y-51043810D01*
X148767800Y-50256410D01*
X149630190Y-51043810D02*
X149630190Y-50256410D01*
X149817666Y-50256410D01*
X149930152Y-50293905D01*
X150005143Y-50368895D01*
X150042638Y-50443886D01*
X150080133Y-50593867D01*
X150080133Y-50706353D01*
X150042638Y-50856334D01*
X150005143Y-50931324D01*
X149930152Y-51006315D01*
X149817666Y-51043810D01*
X149630190Y-51043810D01*
X150867533Y-50968819D02*
X150830038Y-51006315D01*
X150717552Y-51043810D01*
X150642562Y-51043810D01*
X150530076Y-51006315D01*
X150455085Y-50931324D01*
X150417590Y-50856334D01*
X150380095Y-50706353D01*
X150380095Y-50593867D01*
X150417590Y-50443886D01*
X150455085Y-50368895D01*
X150530076Y-50293905D01*
X150642562Y-50256410D01*
X150717552Y-50256410D01*
X150830038Y-50293905D01*
X150867533Y-50331400D01*
X152179867Y-50256410D02*
X151804914Y-50256410D01*
X151767419Y-50631362D01*
X151804914Y-50593867D01*
X151879905Y-50556372D01*
X152067381Y-50556372D01*
X152142371Y-50593867D01*
X152179867Y-50631362D01*
X152217362Y-50706353D01*
X152217362Y-50893829D01*
X152179867Y-50968819D01*
X152142371Y-51006315D01*
X152067381Y-51043810D01*
X151879905Y-51043810D01*
X151804914Y-51006315D01*
X151767419Y-50968819D01*
X152704800Y-50256410D02*
X152779791Y-50256410D01*
X152854781Y-50293905D01*
X152892276Y-50331400D01*
X152929772Y-50406391D01*
X152967267Y-50556372D01*
X152967267Y-50743848D01*
X152929772Y-50893829D01*
X152892276Y-50968819D01*
X152854781Y-51006315D01*
X152779791Y-51043810D01*
X152704800Y-51043810D01*
X152629810Y-51006315D01*
X152592314Y-50968819D01*
X152554819Y-50893829D01*
X152517324Y-50743848D01*
X152517324Y-50556372D01*
X152554819Y-50406391D01*
X152592314Y-50331400D01*
X152629810Y-50293905D01*
X152704800Y-50256410D01*
X153304724Y-51043810D02*
X153304724Y-50518876D01*
X153304724Y-50593867D02*
X153342219Y-50556372D01*
X153417210Y-50518876D01*
X153529696Y-50518876D01*
X153604686Y-50556372D01*
X153642181Y-50631362D01*
X153642181Y-51043810D01*
X153642181Y-50631362D02*
X153679677Y-50556372D01*
X153754667Y-50518876D01*
X153867153Y-50518876D01*
X153942143Y-50556372D01*
X153979638Y-50631362D01*
X153979638Y-51043810D01*
X154317096Y-50818838D02*
X154692048Y-50818838D01*
X154242105Y-51043810D02*
X154504572Y-50256410D01*
X154767039Y-51043810D01*
D10*
X87198200Y-51727100D02*
X87210900Y-51587400D01*
X87185500Y-51739800D02*
X87185500Y-51765200D01*
D14*
X87058500Y-51701700D02*
X87325200Y-51701700D01*
X87185500Y-51841400D02*
X87058500Y-51701700D01*
X87185500Y-51841400D02*
X87325200Y-51701700D01*
D10*
X87210900Y-52070000D02*
G75*
G03X87833200Y-52235100I393700J228600D01*
G01*
X87858600Y-51435000D02*
G75*
G03X87210900Y-51574700I-254000J-393700D01*
G01*
X87591900Y-52298600D02*
G75*
G03X88074500Y-51841400I12700J469900D01*
G01*
X88074500Y-51828700D02*
G75*
G03X87604600Y-51358800I-469900J0D01*
G01*
D16*
X88454600Y-51841400D02*
G75*
G03X88454600Y-51841400I-850000J0D01*
G01*
D17*
X146284228Y-67897000D02*
G75*
G03X146284228Y-67897000I-316228J0D01*
G01*
X155418000Y-60047000D02*
X155418000Y-69747000D01*
D18*
X155418000Y-69747000D02*
X145318000Y-69747000D01*
X145318000Y-69747000D02*
X145318000Y-60047000D01*
X145318000Y-60047000D02*
X155418000Y-60047000D01*
D19*
X107950000Y-57912000D02*
X105664000Y-57912000D01*
X105664000Y-57912000D02*
X105664000Y-56642000D01*
X105664000Y-56642000D02*
X107950000Y-56642000D01*
X107950000Y-56642000D02*
X107950000Y-57912000D01*
X116965000Y-66643000D02*
X116965000Y-64357000D01*
X116965000Y-64357000D02*
X118235000Y-64357000D01*
X118235000Y-64357000D02*
X118235000Y-66643000D01*
X118235000Y-66643000D02*
X116965000Y-66643000D01*
X122557000Y-55565000D02*
X124843000Y-55565000D01*
X124843000Y-55565000D02*
X124843000Y-56835000D01*
X124843000Y-56835000D02*
X122557000Y-56835000D01*
X122557000Y-56835000D02*
X122557000Y-55565000D01*
X129730500Y-73037700D02*
X127444500Y-73037700D01*
X127444500Y-73037700D02*
X127444500Y-71767700D01*
X127444500Y-71767700D02*
X129730500Y-71767700D01*
X129730500Y-71767700D02*
X129730500Y-73037700D01*
D20*
X98463100Y-58638440D02*
X98262440Y-58839100D01*
X98262440Y-59037220D02*
X98661220Y-58638440D01*
X98861880Y-58638440D02*
X98262440Y-59237880D01*
X98262440Y-59438540D02*
X99062540Y-58638440D01*
X98262440Y-59639200D02*
X98262440Y-58638440D01*
X98262440Y-58638440D02*
X99263200Y-58638440D01*
X99263200Y-58638440D02*
X98262440Y-59639200D01*
X99263200Y-66837560D02*
X98262440Y-66837560D01*
X98262440Y-66837560D02*
X98262440Y-65836800D01*
X106461560Y-65836800D02*
X106461560Y-66837560D01*
X106461560Y-66837560D02*
X105460800Y-66837560D01*
X105460800Y-58638440D02*
X106461560Y-58638440D01*
X106461560Y-58638440D02*
X106461560Y-59639200D01*
D19*
X100232981Y-60325000D02*
G75*
G03X100232981Y-60325000I-283981J0D01*
G01*
X99187000Y-66294000D02*
X98806000Y-65913000D01*
X98806000Y-65913000D02*
X98806000Y-59563000D01*
X98806000Y-59563000D02*
X99187000Y-59182000D01*
X99187000Y-59182000D02*
X105537000Y-59182000D01*
X105537000Y-59182000D02*
X105918000Y-59563000D01*
X105918000Y-59563000D02*
X105918000Y-65913000D01*
X105918000Y-65913000D02*
X105537000Y-66294000D01*
X105537000Y-66294000D02*
X99187000Y-66294000D01*
D10*
X110795000Y-60919000D02*
G75*
G03X111095000Y-60619000I0J300000D01*
G01*
X111095000Y-65619000D02*
G75*
G03X110795000Y-65319000I-300000J0D01*
G01*
X110795000Y-65319000D02*
X110795000Y-60919000D01*
X111895000Y-65619000D02*
X111095000Y-65619000D01*
X111895000Y-60619000D02*
X111095000Y-60619000D01*
X112795000Y-60819000D02*
X111995000Y-60819000D01*
X112795000Y-60819000D02*
X112895000Y-60619000D01*
X111995000Y-60819000D02*
X111895000Y-60619000D01*
X113695000Y-60619000D02*
X112895000Y-60619000D01*
X113695000Y-60619000D02*
G75*
G03X113995000Y-60919000I300000J0D01*
G01*
X113995000Y-65319000D02*
X113995000Y-60919000D01*
X113695000Y-65619000D02*
X112895000Y-65619000D01*
X113995000Y-65319000D02*
G75*
G03X113695000Y-65619000I0J-300000D01*
G01*
X112895000Y-65619000D02*
X112795000Y-65419000D01*
X111895000Y-65619000D02*
X111995000Y-65419000D01*
X112795000Y-65419000D02*
X111995000Y-65419000D01*
D19*
X109728000Y-69596000D02*
X109728000Y-67310000D01*
X109728000Y-67310000D02*
X110998000Y-67310000D01*
X110998000Y-67310000D02*
X110998000Y-69596000D01*
X110998000Y-69596000D02*
X109728000Y-69596000D01*
X115697000Y-60401200D02*
X115697000Y-62687200D01*
X115697000Y-62687200D02*
X114427000Y-62687200D01*
X114427000Y-62687200D02*
X114427000Y-60401200D01*
X114427000Y-60401200D02*
X115697000Y-60401200D01*
X114452400Y-65836800D02*
X114452400Y-63550800D01*
X114452400Y-63550800D02*
X115722400Y-63550800D01*
X115722400Y-63550800D02*
X115722400Y-65836800D01*
X115722400Y-65836800D02*
X114452400Y-65836800D01*
D21*
X107960160Y-71836280D02*
X107960160Y-71511160D01*
X107960160Y-71511160D02*
X107459780Y-71511160D01*
X107459780Y-71836280D02*
X107459780Y-71511160D01*
X107960160Y-71836280D02*
X107459780Y-71836280D01*
X107960160Y-72458580D02*
X107960160Y-72308720D01*
X107960160Y-72308720D02*
X107708700Y-72308720D01*
X107708700Y-72458580D02*
X107708700Y-72308720D01*
X107960160Y-72458580D02*
X107708700Y-72458580D01*
X107960160Y-71963280D02*
X107960160Y-71813420D01*
X107960160Y-71813420D02*
X107708700Y-71813420D01*
X107708700Y-71963280D02*
X107708700Y-71813420D01*
X107960160Y-71963280D02*
X107708700Y-71963280D01*
X107960160Y-72334120D02*
X107960160Y-71937880D01*
X107960160Y-71937880D02*
X107784900Y-71937880D01*
X107784900Y-72334120D02*
X107784900Y-71937880D01*
X107960160Y-72334120D02*
X107784900Y-72334120D01*
X109456220Y-71836280D02*
X109456220Y-71511160D01*
X109456220Y-71511160D02*
X108955840Y-71511160D01*
X108955840Y-71836280D02*
X108955840Y-71511160D01*
X109456220Y-71836280D02*
X108955840Y-71836280D01*
X109456220Y-72760840D02*
X109456220Y-72435720D01*
X109456220Y-72435720D02*
X108955840Y-72435720D01*
X108955840Y-72760840D02*
X108955840Y-72435720D01*
X109456220Y-72760840D02*
X108955840Y-72760840D01*
X109207300Y-71963280D02*
X109207300Y-71813420D01*
X109207300Y-71813420D02*
X108955840Y-71813420D01*
X108955840Y-71963280D02*
X108955840Y-71813420D01*
X109207300Y-71963280D02*
X108955840Y-71963280D01*
X109207300Y-72458580D02*
X109207300Y-72308720D01*
X109207300Y-72308720D02*
X108955840Y-72308720D01*
X108955840Y-72458580D02*
X108955840Y-72308720D01*
X109207300Y-72458580D02*
X108955840Y-72458580D01*
X109131100Y-72334120D02*
X109131100Y-71937880D01*
X109131100Y-71937880D02*
X108955840Y-71937880D01*
X108955840Y-72334120D02*
X108955840Y-71937880D01*
X109131100Y-72334120D02*
X108955840Y-72334120D01*
X108458000Y-72235060D02*
X108458000Y-72036940D01*
X108458000Y-72036940D02*
X108259880Y-72036940D01*
X108259880Y-72235060D02*
X108259880Y-72036940D01*
X108458000Y-72235060D02*
X108259880Y-72235060D01*
X107960160Y-72735440D02*
X107960160Y-72435720D01*
X107960160Y-72435720D02*
X107660440Y-72435720D01*
X107660440Y-72735440D02*
X107660440Y-72435720D01*
X107960160Y-72735440D02*
X107660440Y-72735440D01*
X107533440Y-72760840D02*
X107533440Y-72534780D01*
X107533440Y-72534780D02*
X107459780Y-72534780D01*
X107459780Y-72760840D02*
X107459780Y-72534780D01*
X107533440Y-72760840D02*
X107459780Y-72760840D01*
D22*
X107934760Y-71561960D02*
X108981240Y-71561960D01*
X108955840Y-72710040D02*
X107533440Y-72710040D01*
D23*
X107681482Y-72585580D02*
G75*
G03X107681482Y-72585580I-71842J0D01*
G01*
D22*
X107459780Y-72483980D02*
G75*
G03X107459780Y-71788020I0J347980D01*
G01*
X109456220Y-71788020D02*
G75*
G03X109456220Y-72483980I0J-347980D01*
G01*
D19*
X105537000Y-70612000D02*
X105537000Y-72898000D01*
X105537000Y-72898000D02*
X104267000Y-72898000D01*
X104267000Y-72898000D02*
X104267000Y-70612000D01*
X104267000Y-70612000D02*
X105537000Y-70612000D01*
X107315000Y-67437000D02*
X107315000Y-69723000D01*
X107315000Y-69723000D02*
X106045000Y-69723000D01*
X106045000Y-69723000D02*
X106045000Y-67437000D01*
X106045000Y-67437000D02*
X107315000Y-67437000D01*
X110236000Y-61849000D02*
X110236000Y-64135000D01*
X110236000Y-64135000D02*
X108966000Y-64135000D01*
X108966000Y-64135000D02*
X108966000Y-61849000D01*
X108966000Y-61849000D02*
X110236000Y-61849000D01*
D24*
X80878680Y-56235600D02*
X87777320Y-56235600D01*
X87777320Y-68732400D02*
X80878680Y-68732400D01*
X80878680Y-68732400D02*
X80878680Y-56235600D01*
X87777320Y-56235600D02*
X87777320Y-68732400D01*
D25*
X87274400Y-67564000D02*
G75*
G03X87274400Y-67564000I-406400J0D01*
G01*
D19*
X112953800Y-67818000D02*
X111328200Y-67818000D01*
X111328200Y-70561200D02*
X112953800Y-70561200D01*
X112953800Y-70561200D02*
X112953800Y-67360800D01*
X112953800Y-67360800D02*
X111328200Y-67360800D01*
X111328200Y-67360800D02*
X111328200Y-70561200D01*
X101219000Y-72898000D02*
X101219000Y-70612000D01*
X101219000Y-70612000D02*
X102489000Y-70612000D01*
X102489000Y-70612000D02*
X102489000Y-72898000D01*
X102489000Y-72898000D02*
X101219000Y-72898000D01*
X102743000Y-72898000D02*
X102743000Y-70612000D01*
X102743000Y-70612000D02*
X104013000Y-70612000D01*
X104013000Y-70612000D02*
X104013000Y-72898000D01*
X104013000Y-72898000D02*
X102743000Y-72898000D01*
X96139000Y-73329800D02*
X96139000Y-71704200D01*
X93395800Y-71704200D02*
X93395800Y-73329800D01*
X93395800Y-73329800D02*
X96596200Y-73329800D01*
X96596200Y-73329800D02*
X96596200Y-71704200D01*
X96596200Y-71704200D02*
X93395800Y-71704200D01*
X101219000Y-68707000D02*
X103505000Y-68707000D01*
X103505000Y-68707000D02*
X103505000Y-69977000D01*
X103505000Y-69977000D02*
X101219000Y-69977000D01*
X101219000Y-69977000D02*
X101219000Y-68707000D01*
X99441000Y-70739000D02*
X99441000Y-68453000D01*
X99441000Y-68453000D02*
X100711000Y-68453000D01*
X100711000Y-68453000D02*
X100711000Y-70739000D01*
X100711000Y-70739000D02*
X99441000Y-70739000D01*
X97663000Y-70739000D02*
X97663000Y-68453000D01*
X97663000Y-68453000D02*
X98933000Y-68453000D01*
X98933000Y-68453000D02*
X98933000Y-70739000D01*
X98933000Y-70739000D02*
X97663000Y-70739000D01*
X94742000Y-64897000D02*
X94742000Y-62611000D01*
X94742000Y-62611000D02*
X96012000Y-62611000D01*
X96012000Y-62611000D02*
X96012000Y-64897000D01*
X96012000Y-64897000D02*
X94742000Y-64897000D01*
X96139000Y-59309000D02*
X96139000Y-61595000D01*
X96139000Y-61595000D02*
X94869000Y-61595000D01*
X94869000Y-61595000D02*
X94869000Y-59309000D01*
X94869000Y-59309000D02*
X96139000Y-59309000D01*
X95885000Y-68199000D02*
X95885000Y-65913000D01*
X95885000Y-65913000D02*
X97155000Y-65913000D01*
X97155000Y-65913000D02*
X97155000Y-68199000D01*
X97155000Y-68199000D02*
X95885000Y-68199000D01*
X95631000Y-65913000D02*
X95631000Y-68199000D01*
X95631000Y-68199000D02*
X94361000Y-68199000D01*
X94361000Y-68199000D02*
X94361000Y-65913000D01*
X94361000Y-65913000D02*
X95631000Y-65913000D01*
X81332605Y-73533000D02*
G75*
G03X81332605Y-73533000I-179605J0D01*
G01*
X85979000Y-73406000D02*
X87630000Y-73406000D01*
X87630000Y-73406000D02*
X87630000Y-69342000D01*
X87630000Y-69342000D02*
X85979000Y-69342000D01*
X82931000Y-69342000D02*
X81280000Y-69342000D01*
X81280000Y-69342000D02*
X81280000Y-73406000D01*
X81280000Y-73406000D02*
X82931000Y-73406000D01*
X94234000Y-63373000D02*
X91948000Y-63373000D01*
X91948000Y-63373000D02*
X91948000Y-62103000D01*
X91948000Y-62103000D02*
X94234000Y-62103000D01*
X94234000Y-62103000D02*
X94234000Y-63373000D01*
X94234000Y-61849000D02*
X91948000Y-61849000D01*
X91948000Y-61849000D02*
X91948000Y-60579000D01*
X91948000Y-60579000D02*
X94234000Y-60579000D01*
X94234000Y-60579000D02*
X94234000Y-61849000D01*
X93091000Y-66675000D02*
X90805000Y-66675000D01*
X90805000Y-66675000D02*
X90805000Y-65405000D01*
X90805000Y-65405000D02*
X93091000Y-65405000D01*
X93091000Y-65405000D02*
X93091000Y-66675000D01*
X90043000Y-64389000D02*
X90043000Y-62103000D01*
X90043000Y-62103000D02*
X91313000Y-62103000D01*
X91313000Y-62103000D02*
X91313000Y-64389000D01*
X91313000Y-64389000D02*
X90043000Y-64389000D01*
D26*
X72390000Y-70612000D02*
X74930000Y-70612000D01*
X72390000Y-73152000D02*
X72390000Y-52832000D01*
X72390000Y-52832000D02*
X74930000Y-52832000D01*
X74930000Y-52832000D02*
X74930000Y-73152000D01*
X74930000Y-73152000D02*
X72390000Y-73152000D01*
D19*
X77774800Y-61772800D02*
X77774800Y-64058800D01*
X77774800Y-64058800D02*
X76504800Y-64058800D01*
X76504800Y-64058800D02*
X76504800Y-61772800D01*
X76504800Y-61772800D02*
X77774800Y-61772800D01*
X76454000Y-58420000D02*
X76454000Y-56134000D01*
X76454000Y-56134000D02*
X77724000Y-56134000D01*
X77724000Y-56134000D02*
X77724000Y-58420000D01*
X77724000Y-58420000D02*
X76454000Y-58420000D01*
X78892400Y-67132200D02*
X76606400Y-67132200D01*
X76606400Y-67132200D02*
X76606400Y-65862200D01*
X76606400Y-65862200D02*
X78892400Y-65862200D01*
X78892400Y-65862200D02*
X78892400Y-67132200D01*
X78892400Y-58851800D02*
X78892400Y-61137800D01*
X78892400Y-61137800D02*
X77622400Y-61137800D01*
X77622400Y-61137800D02*
X77622400Y-58851800D01*
X77622400Y-58851800D02*
X78892400Y-58851800D01*
X93091000Y-68199000D02*
X90805000Y-68199000D01*
X90805000Y-68199000D02*
X90805000Y-66929000D01*
X90805000Y-66929000D02*
X93091000Y-66929000D01*
X93091000Y-66929000D02*
X93091000Y-68199000D01*
X95275400Y-55854600D02*
X97561400Y-55854600D01*
X97561400Y-55854600D02*
X97561400Y-57124600D01*
X97561400Y-57124600D02*
X95275400Y-57124600D01*
X95275400Y-57124600D02*
X95275400Y-55854600D01*
X91948000Y-63627000D02*
X94234000Y-63627000D01*
X94234000Y-63627000D02*
X94234000Y-64897000D01*
X94234000Y-64897000D02*
X91948000Y-64897000D01*
X91948000Y-64897000D02*
X91948000Y-63627000D01*
X94234000Y-60325000D02*
X91948000Y-60325000D01*
X91948000Y-60325000D02*
X91948000Y-59055000D01*
X91948000Y-59055000D02*
X94234000Y-59055000D01*
X94234000Y-59055000D02*
X94234000Y-60325000D01*
X95275400Y-57429400D02*
X97561400Y-57429400D01*
X97561400Y-57429400D02*
X97561400Y-58699400D01*
X97561400Y-58699400D02*
X95275400Y-58699400D01*
X95275400Y-58699400D02*
X95275400Y-57429400D01*
X135509000Y-56388000D02*
X137287000Y-56388000D01*
X137287000Y-56388000D02*
X137287000Y-59436000D01*
X137287000Y-59436000D02*
X135509000Y-59436000D01*
X135509000Y-59436000D02*
X135509000Y-56388000D01*
D21*
X142250160Y-52659280D02*
X142250160Y-52334160D01*
X142250160Y-52334160D02*
X141749780Y-52334160D01*
X141749780Y-52659280D02*
X141749780Y-52334160D01*
X142250160Y-52659280D02*
X141749780Y-52659280D01*
X142250160Y-53281580D02*
X142250160Y-53131720D01*
X142250160Y-53131720D02*
X141998700Y-53131720D01*
X141998700Y-53281580D02*
X141998700Y-53131720D01*
X142250160Y-53281580D02*
X141998700Y-53281580D01*
X142250160Y-52786280D02*
X142250160Y-52636420D01*
X142250160Y-52636420D02*
X141998700Y-52636420D01*
X141998700Y-52786280D02*
X141998700Y-52636420D01*
X142250160Y-52786280D02*
X141998700Y-52786280D01*
X142250160Y-53157120D02*
X142250160Y-52760880D01*
X142250160Y-52760880D02*
X142074900Y-52760880D01*
X142074900Y-53157120D02*
X142074900Y-52760880D01*
X142250160Y-53157120D02*
X142074900Y-53157120D01*
X143746220Y-52659280D02*
X143746220Y-52334160D01*
X143746220Y-52334160D02*
X143245840Y-52334160D01*
X143245840Y-52659280D02*
X143245840Y-52334160D01*
X143746220Y-52659280D02*
X143245840Y-52659280D01*
X143746220Y-53583840D02*
X143746220Y-53258720D01*
X143746220Y-53258720D02*
X143245840Y-53258720D01*
X143245840Y-53583840D02*
X143245840Y-53258720D01*
X143746220Y-53583840D02*
X143245840Y-53583840D01*
X143497300Y-52786280D02*
X143497300Y-52636420D01*
X143497300Y-52636420D02*
X143245840Y-52636420D01*
X143245840Y-52786280D02*
X143245840Y-52636420D01*
X143497300Y-52786280D02*
X143245840Y-52786280D01*
X143497300Y-53281580D02*
X143497300Y-53131720D01*
X143497300Y-53131720D02*
X143245840Y-53131720D01*
X143245840Y-53281580D02*
X143245840Y-53131720D01*
X143497300Y-53281580D02*
X143245840Y-53281580D01*
X143421100Y-53157120D02*
X143421100Y-52760880D01*
X143421100Y-52760880D02*
X143245840Y-52760880D01*
X143245840Y-53157120D02*
X143245840Y-52760880D01*
X143421100Y-53157120D02*
X143245840Y-53157120D01*
X142748000Y-53058060D02*
X142748000Y-52859940D01*
X142748000Y-52859940D02*
X142549880Y-52859940D01*
X142549880Y-53058060D02*
X142549880Y-52859940D01*
X142748000Y-53058060D02*
X142549880Y-53058060D01*
X142250160Y-53558440D02*
X142250160Y-53258720D01*
X142250160Y-53258720D02*
X141950440Y-53258720D01*
X141950440Y-53558440D02*
X141950440Y-53258720D01*
X142250160Y-53558440D02*
X141950440Y-53558440D01*
X141823440Y-53583840D02*
X141823440Y-53357780D01*
X141823440Y-53357780D02*
X141749780Y-53357780D01*
X141749780Y-53583840D02*
X141749780Y-53357780D01*
X141823440Y-53583840D02*
X141749780Y-53583840D01*
D22*
X142224760Y-52384960D02*
X143271240Y-52384960D01*
X143245840Y-53533040D02*
X141823440Y-53533040D01*
D23*
X141971482Y-53408580D02*
G75*
G03X141971482Y-53408580I-71842J0D01*
G01*
D22*
X141749780Y-53306980D02*
G75*
G03X141749780Y-52611020I0J347980D01*
G01*
X143746220Y-52611020D02*
G75*
G03X143746220Y-53306980I0J-347980D01*
G01*
D21*
X142250160Y-55580280D02*
X142250160Y-55255160D01*
X142250160Y-55255160D02*
X141749780Y-55255160D01*
X141749780Y-55580280D02*
X141749780Y-55255160D01*
X142250160Y-55580280D02*
X141749780Y-55580280D01*
X142250160Y-56202580D02*
X142250160Y-56052720D01*
X142250160Y-56052720D02*
X141998700Y-56052720D01*
X141998700Y-56202580D02*
X141998700Y-56052720D01*
X142250160Y-56202580D02*
X141998700Y-56202580D01*
X142250160Y-55707280D02*
X142250160Y-55557420D01*
X142250160Y-55557420D02*
X141998700Y-55557420D01*
X141998700Y-55707280D02*
X141998700Y-55557420D01*
X142250160Y-55707280D02*
X141998700Y-55707280D01*
X142250160Y-56078120D02*
X142250160Y-55681880D01*
X142250160Y-55681880D02*
X142074900Y-55681880D01*
X142074900Y-56078120D02*
X142074900Y-55681880D01*
X142250160Y-56078120D02*
X142074900Y-56078120D01*
X143746220Y-55580280D02*
X143746220Y-55255160D01*
X143746220Y-55255160D02*
X143245840Y-55255160D01*
X143245840Y-55580280D02*
X143245840Y-55255160D01*
X143746220Y-55580280D02*
X143245840Y-55580280D01*
X143746220Y-56504840D02*
X143746220Y-56179720D01*
X143746220Y-56179720D02*
X143245840Y-56179720D01*
X143245840Y-56504840D02*
X143245840Y-56179720D01*
X143746220Y-56504840D02*
X143245840Y-56504840D01*
X143497300Y-55707280D02*
X143497300Y-55557420D01*
X143497300Y-55557420D02*
X143245840Y-55557420D01*
X143245840Y-55707280D02*
X143245840Y-55557420D01*
X143497300Y-55707280D02*
X143245840Y-55707280D01*
X143497300Y-56202580D02*
X143497300Y-56052720D01*
X143497300Y-56052720D02*
X143245840Y-56052720D01*
X143245840Y-56202580D02*
X143245840Y-56052720D01*
X143497300Y-56202580D02*
X143245840Y-56202580D01*
X143421100Y-56078120D02*
X143421100Y-55681880D01*
X143421100Y-55681880D02*
X143245840Y-55681880D01*
X143245840Y-56078120D02*
X143245840Y-55681880D01*
X143421100Y-56078120D02*
X143245840Y-56078120D01*
X142748000Y-55979060D02*
X142748000Y-55780940D01*
X142748000Y-55780940D02*
X142549880Y-55780940D01*
X142549880Y-55979060D02*
X142549880Y-55780940D01*
X142748000Y-55979060D02*
X142549880Y-55979060D01*
X142250160Y-56479440D02*
X142250160Y-56179720D01*
X142250160Y-56179720D02*
X141950440Y-56179720D01*
X141950440Y-56479440D02*
X141950440Y-56179720D01*
X142250160Y-56479440D02*
X141950440Y-56479440D01*
X141823440Y-56504840D02*
X141823440Y-56278780D01*
X141823440Y-56278780D02*
X141749780Y-56278780D01*
X141749780Y-56504840D02*
X141749780Y-56278780D01*
X141823440Y-56504840D02*
X141749780Y-56504840D01*
D22*
X142224760Y-55305960D02*
X143271240Y-55305960D01*
X143245840Y-56454040D02*
X141823440Y-56454040D01*
D23*
X141971482Y-56329580D02*
G75*
G03X141971482Y-56329580I-71842J0D01*
G01*
D22*
X141749780Y-56227980D02*
G75*
G03X141749780Y-55532020I0J347980D01*
G01*
X143746220Y-55532020D02*
G75*
G03X143746220Y-56227980I0J-347980D01*
G01*
D21*
X142123160Y-58374280D02*
X142123160Y-58049160D01*
X142123160Y-58049160D02*
X141622780Y-58049160D01*
X141622780Y-58374280D02*
X141622780Y-58049160D01*
X142123160Y-58374280D02*
X141622780Y-58374280D01*
X142123160Y-58996580D02*
X142123160Y-58846720D01*
X142123160Y-58846720D02*
X141871700Y-58846720D01*
X141871700Y-58996580D02*
X141871700Y-58846720D01*
X142123160Y-58996580D02*
X141871700Y-58996580D01*
X142123160Y-58501280D02*
X142123160Y-58351420D01*
X142123160Y-58351420D02*
X141871700Y-58351420D01*
X141871700Y-58501280D02*
X141871700Y-58351420D01*
X142123160Y-58501280D02*
X141871700Y-58501280D01*
X142123160Y-58872120D02*
X142123160Y-58475880D01*
X142123160Y-58475880D02*
X141947900Y-58475880D01*
X141947900Y-58872120D02*
X141947900Y-58475880D01*
X142123160Y-58872120D02*
X141947900Y-58872120D01*
X143619220Y-58374280D02*
X143619220Y-58049160D01*
X143619220Y-58049160D02*
X143118840Y-58049160D01*
X143118840Y-58374280D02*
X143118840Y-58049160D01*
X143619220Y-58374280D02*
X143118840Y-58374280D01*
X143619220Y-59298840D02*
X143619220Y-58973720D01*
X143619220Y-58973720D02*
X143118840Y-58973720D01*
X143118840Y-59298840D02*
X143118840Y-58973720D01*
X143619220Y-59298840D02*
X143118840Y-59298840D01*
X143370300Y-58501280D02*
X143370300Y-58351420D01*
X143370300Y-58351420D02*
X143118840Y-58351420D01*
X143118840Y-58501280D02*
X143118840Y-58351420D01*
X143370300Y-58501280D02*
X143118840Y-58501280D01*
X143370300Y-58996580D02*
X143370300Y-58846720D01*
X143370300Y-58846720D02*
X143118840Y-58846720D01*
X143118840Y-58996580D02*
X143118840Y-58846720D01*
X143370300Y-58996580D02*
X143118840Y-58996580D01*
X143294100Y-58872120D02*
X143294100Y-58475880D01*
X143294100Y-58475880D02*
X143118840Y-58475880D01*
X143118840Y-58872120D02*
X143118840Y-58475880D01*
X143294100Y-58872120D02*
X143118840Y-58872120D01*
X142621000Y-58773060D02*
X142621000Y-58574940D01*
X142621000Y-58574940D02*
X142422880Y-58574940D01*
X142422880Y-58773060D02*
X142422880Y-58574940D01*
X142621000Y-58773060D02*
X142422880Y-58773060D01*
X142123160Y-59273440D02*
X142123160Y-58973720D01*
X142123160Y-58973720D02*
X141823440Y-58973720D01*
X141823440Y-59273440D02*
X141823440Y-58973720D01*
X142123160Y-59273440D02*
X141823440Y-59273440D01*
X141696440Y-59298840D02*
X141696440Y-59072780D01*
X141696440Y-59072780D02*
X141622780Y-59072780D01*
X141622780Y-59298840D02*
X141622780Y-59072780D01*
X141696440Y-59298840D02*
X141622780Y-59298840D01*
D22*
X142097760Y-58099960D02*
X143144240Y-58099960D01*
X143118840Y-59248040D02*
X141696440Y-59248040D01*
D23*
X141844482Y-59123580D02*
G75*
G03X141844482Y-59123580I-71842J0D01*
G01*
D22*
X141622780Y-59021980D02*
G75*
G03X141622780Y-58326020I0J347980D01*
G01*
X143619220Y-58326020D02*
G75*
G03X143619220Y-59021980I0J-347980D01*
G01*
D19*
X128143000Y-51943000D02*
X130429000Y-51943000D01*
X130429000Y-51943000D02*
X130429000Y-53213000D01*
X130429000Y-53213000D02*
X128143000Y-53213000D01*
X128143000Y-53213000D02*
X128143000Y-51943000D01*
X134239000Y-56007000D02*
X134239000Y-58293000D01*
X134239000Y-58293000D02*
X132969000Y-58293000D01*
X132969000Y-58293000D02*
X132969000Y-56007000D01*
X132969000Y-56007000D02*
X134239000Y-56007000D01*
X132715000Y-56007000D02*
X132715000Y-58293000D01*
X132715000Y-58293000D02*
X131445000Y-58293000D01*
X131445000Y-58293000D02*
X131445000Y-56007000D01*
X131445000Y-56007000D02*
X132715000Y-56007000D01*
X128143000Y-53721000D02*
X130429000Y-53721000D01*
X130429000Y-53721000D02*
X130429000Y-54991000D01*
X130429000Y-54991000D02*
X128143000Y-54991000D01*
X128143000Y-54991000D02*
X128143000Y-53721000D01*
X128143000Y-55499000D02*
X130429000Y-55499000D01*
X130429000Y-55499000D02*
X130429000Y-56769000D01*
X130429000Y-56769000D02*
X128143000Y-56769000D01*
X128143000Y-56769000D02*
X128143000Y-55499000D01*
D26*
X130303800Y-69203800D02*
X120296200Y-69203800D01*
X120296200Y-69203800D02*
X120296200Y-59196200D01*
X129821200Y-59196200D02*
X120296200Y-59196200D01*
X130303800Y-59678800D02*
X130303800Y-69203800D01*
X129821200Y-59196200D02*
X130303800Y-59678800D01*
D24*
X129745000Y-60390000D02*
G75*
G03X129745000Y-60390000I-635000J0D01*
G01*
D19*
X141859000Y-66929000D02*
X141859000Y-69215000D01*
X141859000Y-69215000D02*
X140589000Y-69215000D01*
X140589000Y-69215000D02*
X140589000Y-66929000D01*
X140589000Y-66929000D02*
X141859000Y-66929000D01*
X132461000Y-63373000D02*
X132461000Y-61087000D01*
X132461000Y-61087000D02*
X133731000Y-61087000D01*
X133731000Y-61087000D02*
X133731000Y-63373000D01*
X133731000Y-63373000D02*
X132461000Y-63373000D01*
D16*
X140898000Y-63956000D02*
G75*
G03X140898000Y-63956000I-100000J0D01*
G01*
X141080843Y-63956000D02*
G75*
G03X141080843Y-63956000I-282843J0D01*
G01*
X141222264Y-63956000D02*
G75*
G03X141222264Y-63956000I-424264J0D01*
G01*
X140148000Y-69656000D02*
X132648000Y-69656000D01*
X132648000Y-69656000D02*
X132648000Y-64456000D01*
X140148000Y-64456000D02*
X132648000Y-64456000D01*
X140148000Y-64456000D02*
X140148000Y-69656000D01*
D10*
X153770000Y-53721000D02*
G75*
G03X153770000Y-53721000I-100000J0D01*
G01*
X154670000Y-53721000D02*
G75*
G03X154670000Y-53721000I-1000000J0D01*
G01*
X152370000Y-54721000D02*
X152370000Y-52721000D01*
X154670000Y-55021000D02*
X152670000Y-55021000D01*
X154970000Y-52721000D02*
X154970000Y-54721000D01*
X152670000Y-52421000D02*
X154670000Y-52421000D01*
X152370000Y-54721000D02*
G75*
G03X152670000Y-55021000I300000J0D01*
G01*
X154670000Y-55021000D02*
G75*
G03X154970000Y-54721000I0J300000D01*
G01*
X154970000Y-52721000D02*
G75*
G03X154670000Y-52421000I-300000J0D01*
G01*
X152670000Y-52421000D02*
G75*
G03X152370000Y-52721000I0J-300000D01*
G01*
D19*
X153543000Y-73025000D02*
X151257000Y-73025000D01*
X151257000Y-73025000D02*
X151257000Y-71755000D01*
X151257000Y-71755000D02*
X153543000Y-71755000D01*
X153543000Y-71755000D02*
X153543000Y-73025000D01*
X64274605Y-66294000D02*
G75*
G03X64274605Y-66294000I-179605J0D01*
G01*
X65746000Y-63373000D02*
X64222000Y-63373000D01*
X64222000Y-63373000D02*
X64222000Y-66167000D01*
X64222000Y-66167000D02*
X65746000Y-66167000D01*
X67270000Y-66167000D02*
X68794000Y-66167000D01*
X68794000Y-66167000D02*
X68794000Y-63373000D01*
X68794000Y-63373000D02*
X67270000Y-63373000D01*
X149606000Y-55880000D02*
X149606000Y-53594000D01*
X149606000Y-53594000D02*
X150876000Y-53594000D01*
X150876000Y-53594000D02*
X150876000Y-55880000D01*
X150876000Y-55880000D02*
X149606000Y-55880000D01*
X60412000Y-63246000D02*
X60920000Y-62484000D01*
X60412000Y-65024000D02*
X60412000Y-62420500D01*
X60412000Y-62420500D02*
X61936000Y-62420500D01*
X61936000Y-62420500D02*
X61936000Y-65024000D01*
X61936000Y-65024000D02*
X60412000Y-65024000D01*
X145796000Y-74041000D02*
X145796000Y-71755000D01*
X145796000Y-71755000D02*
X147066000Y-71755000D01*
X147066000Y-71755000D02*
X147066000Y-74041000D01*
X147066000Y-74041000D02*
X145796000Y-74041000D01*
X147447000Y-74041000D02*
X147447000Y-71755000D01*
X147447000Y-71755000D02*
X148717000Y-71755000D01*
X148717000Y-71755000D02*
X148717000Y-74041000D01*
X148717000Y-74041000D02*
X147447000Y-74041000D01*
X149098000Y-74041000D02*
X149098000Y-71755000D01*
X149098000Y-71755000D02*
X150368000Y-71755000D01*
X150368000Y-71755000D02*
X150368000Y-74041000D01*
X150368000Y-74041000D02*
X149098000Y-74041000D01*
X149098000Y-56642000D02*
X151384000Y-56642000D01*
X151384000Y-56642000D02*
X151384000Y-57912000D01*
X151384000Y-57912000D02*
X149098000Y-57912000D01*
X149098000Y-57912000D02*
X149098000Y-56642000D01*
X58507000Y-64135000D02*
X58507000Y-66421000D01*
X58507000Y-66421000D02*
X57237000Y-66421000D01*
X57237000Y-66421000D02*
X57237000Y-64135000D01*
X57237000Y-64135000D02*
X58507000Y-64135000D01*
X59015000Y-65913000D02*
X61301000Y-65913000D01*
X61301000Y-65913000D02*
X61301000Y-67183000D01*
X61301000Y-67183000D02*
X59015000Y-67183000D01*
X59015000Y-67183000D02*
X59015000Y-65913000D01*
D24*
X114356720Y-48772000D02*
X111308720Y-48772000D01*
X111308720Y-48772000D02*
X111308720Y-55884000D01*
X111308720Y-55884000D02*
X114356720Y-55884000D01*
X117404720Y-48772000D02*
X118166720Y-48772000D01*
X118166720Y-48772000D02*
X120452720Y-50296000D01*
X120452720Y-50296000D02*
X120452720Y-54360000D01*
X120452720Y-54360000D02*
X118166720Y-55884000D01*
X118166720Y-55884000D02*
X117404720Y-55884000D01*
D19*
X56261000Y-62357000D02*
X58547000Y-62357000D01*
X58547000Y-62357000D02*
X58547000Y-63627000D01*
X58547000Y-63627000D02*
X56261000Y-63627000D01*
X56261000Y-63627000D02*
X56261000Y-62357000D01*
X63333000Y-65913000D02*
X63333000Y-68199000D01*
X63333000Y-68199000D02*
X62063000Y-68199000D01*
X62063000Y-68199000D02*
X62063000Y-65913000D01*
X62063000Y-65913000D02*
X63333000Y-65913000D01*
X142951200Y-69723000D02*
X144576800Y-69723000D01*
X144576800Y-66979800D02*
X142951200Y-66979800D01*
X142951200Y-66979800D02*
X142951200Y-70180200D01*
X142951200Y-70180200D02*
X144576800Y-70180200D01*
X144576800Y-70180200D02*
X144576800Y-66979800D01*
X110089520Y-51185000D02*
X108463920Y-51185000D01*
X108463920Y-53928200D02*
X110089520Y-53928200D01*
X110089520Y-53928200D02*
X110089520Y-50727800D01*
X110089520Y-50727800D02*
X108463920Y-50727800D01*
X108463920Y-50727800D02*
X108463920Y-53928200D01*
D21*
X142250160Y-49738280D02*
X142250160Y-49413160D01*
X142250160Y-49413160D02*
X141749780Y-49413160D01*
X141749780Y-49738280D02*
X141749780Y-49413160D01*
X142250160Y-49738280D02*
X141749780Y-49738280D01*
X142250160Y-50360580D02*
X142250160Y-50210720D01*
X142250160Y-50210720D02*
X141998700Y-50210720D01*
X141998700Y-50360580D02*
X141998700Y-50210720D01*
X142250160Y-50360580D02*
X141998700Y-50360580D01*
X142250160Y-49865280D02*
X142250160Y-49715420D01*
X142250160Y-49715420D02*
X141998700Y-49715420D01*
X141998700Y-49865280D02*
X141998700Y-49715420D01*
X142250160Y-49865280D02*
X141998700Y-49865280D01*
X142250160Y-50236120D02*
X142250160Y-49839880D01*
X142250160Y-49839880D02*
X142074900Y-49839880D01*
X142074900Y-50236120D02*
X142074900Y-49839880D01*
X142250160Y-50236120D02*
X142074900Y-50236120D01*
X143746220Y-49738280D02*
X143746220Y-49413160D01*
X143746220Y-49413160D02*
X143245840Y-49413160D01*
X143245840Y-49738280D02*
X143245840Y-49413160D01*
X143746220Y-49738280D02*
X143245840Y-49738280D01*
X143746220Y-50662840D02*
X143746220Y-50337720D01*
X143746220Y-50337720D02*
X143245840Y-50337720D01*
X143245840Y-50662840D02*
X143245840Y-50337720D01*
X143746220Y-50662840D02*
X143245840Y-50662840D01*
X143497300Y-49865280D02*
X143497300Y-49715420D01*
X143497300Y-49715420D02*
X143245840Y-49715420D01*
X143245840Y-49865280D02*
X143245840Y-49715420D01*
X143497300Y-49865280D02*
X143245840Y-49865280D01*
X143497300Y-50360580D02*
X143497300Y-50210720D01*
X143497300Y-50210720D02*
X143245840Y-50210720D01*
X143245840Y-50360580D02*
X143245840Y-50210720D01*
X143497300Y-50360580D02*
X143245840Y-50360580D01*
X143421100Y-50236120D02*
X143421100Y-49839880D01*
X143421100Y-49839880D02*
X143245840Y-49839880D01*
X143245840Y-50236120D02*
X143245840Y-49839880D01*
X143421100Y-50236120D02*
X143245840Y-50236120D01*
X142748000Y-50137060D02*
X142748000Y-49938940D01*
X142748000Y-49938940D02*
X142549880Y-49938940D01*
X142549880Y-50137060D02*
X142549880Y-49938940D01*
X142748000Y-50137060D02*
X142549880Y-50137060D01*
X142250160Y-50637440D02*
X142250160Y-50337720D01*
X142250160Y-50337720D02*
X141950440Y-50337720D01*
X141950440Y-50637440D02*
X141950440Y-50337720D01*
X142250160Y-50637440D02*
X141950440Y-50637440D01*
X141823440Y-50662840D02*
X141823440Y-50436780D01*
X141823440Y-50436780D02*
X141749780Y-50436780D01*
X141749780Y-50662840D02*
X141749780Y-50436780D01*
X141823440Y-50662840D02*
X141749780Y-50662840D01*
D22*
X142224760Y-49463960D02*
X143271240Y-49463960D01*
X143245840Y-50612040D02*
X141823440Y-50612040D01*
D23*
X141971482Y-50487580D02*
G75*
G03X141971482Y-50487580I-71842J0D01*
G01*
D22*
X141749780Y-50385980D02*
G75*
G03X141749780Y-49690020I0J347980D01*
G01*
X143746220Y-49690020D02*
G75*
G03X143746220Y-50385980I0J-347980D01*
G01*
D19*
X137541000Y-49403000D02*
X139827000Y-49403000D01*
X139827000Y-49403000D02*
X139827000Y-50673000D01*
X139827000Y-50673000D02*
X137541000Y-50673000D01*
X137541000Y-50673000D02*
X137541000Y-49403000D01*
X64701420Y-66926460D02*
X64701420Y-69725540D01*
X64803020Y-69725540D02*
X64803020Y-66926460D01*
X64902080Y-66926460D02*
X64902080Y-69725540D01*
X65001140Y-69725540D02*
X65001140Y-66926460D01*
X65102740Y-69725540D02*
X65102740Y-66926460D01*
X64602360Y-69725540D02*
X69001640Y-69725540D01*
X69001640Y-69725540D02*
X69001640Y-66926460D01*
X69001640Y-66926460D02*
X64602360Y-66926460D01*
X64602360Y-66926460D02*
X64602360Y-69725540D01*
X64447420Y-60068460D02*
X64447420Y-62867540D01*
X64549020Y-62867540D02*
X64549020Y-60068460D01*
X64648080Y-60068460D02*
X64648080Y-62867540D01*
X64747140Y-62867540D02*
X64747140Y-60068460D01*
X64848740Y-62867540D02*
X64848740Y-60068460D01*
X64348360Y-62867540D02*
X68747640Y-62867540D01*
X68747640Y-62867540D02*
X68747640Y-60068460D01*
X68747640Y-60068460D02*
X64348360Y-60068460D01*
X64348360Y-60068460D02*
X64348360Y-62867540D01*
X137160000Y-61976000D02*
X136652000Y-62738000D01*
X137160000Y-60198000D02*
X137160000Y-62801500D01*
X137160000Y-62801500D02*
X135636000Y-62801500D01*
X135636000Y-62801500D02*
X135636000Y-60198000D01*
X135636000Y-60198000D02*
X137160000Y-60198000D01*
D16*
X63206000Y-61682000D02*
X58206000Y-61682000D01*
X63206000Y-56682000D02*
X63206000Y-61682000D01*
X63206000Y-56682000D02*
X58206000Y-56682000D01*
X58206000Y-56682000D02*
X58206000Y-61682000D01*
D19*
X65836800Y-55753000D02*
X64211200Y-55753000D01*
X64211200Y-58039000D02*
X65836800Y-58039000D01*
X64211200Y-58496200D02*
X65836800Y-58496200D01*
X65836800Y-58496200D02*
X65836800Y-55295800D01*
X65836800Y-55295800D02*
X64211200Y-55295800D01*
X64211200Y-55295800D02*
X64211200Y-58496200D01*
X68376800Y-55753000D02*
X66751200Y-55753000D01*
X66751200Y-58039000D02*
X68376800Y-58039000D01*
X66751200Y-58496200D02*
X68376800Y-58496200D01*
X68376800Y-58496200D02*
X68376800Y-55295800D01*
X68376800Y-55295800D02*
X66751200Y-55295800D01*
X66751200Y-55295800D02*
X66751200Y-58496200D01*
X143129000Y-62484000D02*
X143129000Y-60198000D01*
X143129000Y-60198000D02*
X144399000Y-60198000D01*
X144399000Y-60198000D02*
X144399000Y-62484000D01*
X144399000Y-62484000D02*
X143129000Y-62484000D01*
D16*
X84136600Y-51841400D02*
G75*
G03X84136600Y-51841400I-850000J0D01*
G01*
D10*
X85509100Y-51993800D02*
X85509100Y-52298600D01*
X85509100Y-52298600D02*
X85420200Y-52298600D01*
X85445600Y-52298600D02*
X85382100Y-52298600D01*
X85382100Y-52298600D02*
X85382100Y-52019200D01*
X85445600Y-51612800D02*
X85293200Y-51612800D01*
X85293200Y-51612800D02*
X85293200Y-51943000D01*
X85293200Y-51943000D02*
X85585300Y-51943000D01*
X85585300Y-51943000D02*
X85598000Y-51943000D01*
X85598000Y-51943000D02*
X85598000Y-51612800D01*
X85598000Y-51612800D02*
X85458300Y-51612800D01*
X85458300Y-51612800D02*
X85534500Y-51841400D01*
X85534500Y-51841400D02*
X85369400Y-51841400D01*
X85369400Y-51841400D02*
X85369400Y-51714400D01*
X85445600Y-51612800D02*
X85445600Y-52298600D01*
X85502396Y-51371500D02*
G75*
G03X85502396Y-51371500I-56796J0D01*
G01*
D16*
X86295600Y-51841400D02*
G75*
G03X86295600Y-51841400I-850000J0D01*
G01*
D27*
G36*
X80421480Y-52661820D02*
X80431640Y-52656740D01*
X80454500Y-52641500D01*
X80487520Y-52621180D01*
X80528160Y-52593240D01*
X80566260Y-52567840D01*
X80599280Y-52544980D01*
X80622140Y-52529740D01*
X80632300Y-52524660D01*
X80637380Y-52527200D01*
X80655160Y-52537360D01*
X80683100Y-52550060D01*
X80698340Y-52557680D01*
X80723740Y-52570380D01*
X80736440Y-52572920D01*
X80738980Y-52567840D01*
X80749140Y-52550060D01*
X80761840Y-52517040D01*
X80782160Y-52473860D01*
X80802480Y-52423060D01*
X80825340Y-52367180D01*
X80848200Y-52311300D01*
X80871060Y-52257960D01*
X80891380Y-52209700D01*
X80906620Y-52171600D01*
X80916780Y-52143660D01*
X80921860Y-52133500D01*
X80919320Y-52130960D01*
X80906620Y-52118260D01*
X80886300Y-52103020D01*
X80838040Y-52062380D01*
X80792320Y-52003960D01*
X80761840Y-51937920D01*
X80754220Y-51864260D01*
X80761840Y-51798220D01*
X80787240Y-51734720D01*
X80832960Y-51673760D01*
X80888840Y-51630580D01*
X80954880Y-51602640D01*
X81026000Y-51595020D01*
X81094580Y-51602640D01*
X81160620Y-51628040D01*
X81221580Y-51673760D01*
X81244440Y-51701700D01*
X81280000Y-51762660D01*
X81300320Y-51823620D01*
X81300320Y-51838860D01*
X81297780Y-51909980D01*
X81277460Y-51978560D01*
X81241900Y-52036980D01*
X81188560Y-52087780D01*
X81183480Y-52092860D01*
X81158080Y-52110640D01*
X81142840Y-52120800D01*
X81130140Y-52130960D01*
X81219040Y-52346860D01*
X81234280Y-52382420D01*
X81259680Y-52440840D01*
X81280000Y-52491640D01*
X81297780Y-52532280D01*
X81310480Y-52557680D01*
X81315560Y-52570380D01*
X81315560Y-52570380D01*
X81323180Y-52570380D01*
X81338420Y-52565300D01*
X81368900Y-52550060D01*
X81389220Y-52539900D01*
X81412080Y-52529740D01*
X81422240Y-52524660D01*
X81432400Y-52529740D01*
X81452720Y-52544980D01*
X81485740Y-52565300D01*
X81523840Y-52590700D01*
X81559400Y-52616100D01*
X81594960Y-52638960D01*
X81617820Y-52654200D01*
X81630520Y-52661820D01*
X81633060Y-52661820D01*
X81643220Y-52654200D01*
X81663540Y-52638960D01*
X81691480Y-52611020D01*
X81732120Y-52570380D01*
X81739740Y-52565300D01*
X81772760Y-52529740D01*
X81800700Y-52499260D01*
X81821020Y-52478940D01*
X81826100Y-52471320D01*
X81826100Y-52471320D01*
X81821020Y-52458620D01*
X81805780Y-52433220D01*
X81782920Y-52400200D01*
X81754980Y-52359560D01*
X81683860Y-52255420D01*
X81724500Y-52158900D01*
X81734660Y-52128420D01*
X81749900Y-52092860D01*
X81762600Y-52067460D01*
X81767680Y-52054760D01*
X81777840Y-52052220D01*
X81805780Y-52044600D01*
X81843880Y-52036980D01*
X81889600Y-52029360D01*
X81935320Y-52019200D01*
X81973420Y-52011580D01*
X82003900Y-52006500D01*
X82016600Y-52003960D01*
X82019140Y-52001420D01*
X82021680Y-51996340D01*
X82024220Y-51983640D01*
X82024220Y-51958240D01*
X82024220Y-51920140D01*
X82024220Y-51864260D01*
X82024220Y-51859180D01*
X82024220Y-51805840D01*
X82024220Y-51765200D01*
X82021680Y-51739800D01*
X82019140Y-51729640D01*
X82019140Y-51729640D01*
X82006440Y-51724560D01*
X81978500Y-51719480D01*
X81940400Y-51711860D01*
X81892140Y-51701700D01*
X81889600Y-51701700D01*
X81841340Y-51694080D01*
X81803240Y-51683920D01*
X81775300Y-51678840D01*
X81762600Y-51673760D01*
X81760060Y-51671220D01*
X81749900Y-51653440D01*
X81737200Y-51622960D01*
X81721960Y-51587400D01*
X81706720Y-51551840D01*
X81691480Y-51516280D01*
X81683860Y-51493420D01*
X81681320Y-51480720D01*
X81681320Y-51480720D01*
X81688940Y-51470560D01*
X81704180Y-51445160D01*
X81727040Y-51412140D01*
X81754980Y-51371500D01*
X81757520Y-51366420D01*
X81785460Y-51328320D01*
X81805780Y-51292760D01*
X81821020Y-51269900D01*
X81826100Y-51259740D01*
X81826100Y-51257200D01*
X81818480Y-51247040D01*
X81798160Y-51224180D01*
X81767680Y-51193700D01*
X81732120Y-51158140D01*
X81721960Y-51147980D01*
X81683860Y-51109880D01*
X81655920Y-51084480D01*
X81638140Y-51071780D01*
X81630520Y-51066700D01*
X81630520Y-51069240D01*
X81617820Y-51074320D01*
X81592420Y-51092100D01*
X81559400Y-51114960D01*
X81518760Y-51142900D01*
X81516220Y-51145440D01*
X81475580Y-51170840D01*
X81442560Y-51193700D01*
X81419700Y-51208940D01*
X81409540Y-51216560D01*
X81407000Y-51216560D01*
X81391760Y-51211480D01*
X81361280Y-51201320D01*
X81328260Y-51188620D01*
X81290160Y-51173380D01*
X81257140Y-51158140D01*
X81231740Y-51147980D01*
X81219040Y-51140360D01*
X81219040Y-51140360D01*
X81213960Y-51125120D01*
X81208880Y-51094640D01*
X81198720Y-51054000D01*
X81191100Y-51005740D01*
X81188560Y-50998120D01*
X81180940Y-50949860D01*
X81173320Y-50911760D01*
X81165700Y-50883820D01*
X81163160Y-50871120D01*
X81158080Y-50871120D01*
X81132680Y-50868580D01*
X81097120Y-50868580D01*
X81053940Y-50868580D01*
X81010760Y-50868580D01*
X80967580Y-50868580D01*
X80929480Y-50871120D01*
X80904080Y-50871120D01*
X80891380Y-50873660D01*
X80891380Y-50876200D01*
X80886300Y-50888900D01*
X80881220Y-50919380D01*
X80871060Y-50960020D01*
X80863440Y-51010820D01*
X80860900Y-51018440D01*
X80853280Y-51066700D01*
X80843120Y-51104800D01*
X80838040Y-51132740D01*
X80835500Y-51142900D01*
X80830420Y-51145440D01*
X80812640Y-51153060D01*
X80779620Y-51165760D01*
X80738980Y-51183540D01*
X80647540Y-51219100D01*
X80535780Y-51142900D01*
X80525620Y-51135280D01*
X80484980Y-51107340D01*
X80451960Y-51087020D01*
X80429100Y-51071780D01*
X80418940Y-51066700D01*
X80418940Y-51066700D01*
X80408780Y-51076860D01*
X80385920Y-51097180D01*
X80355440Y-51127660D01*
X80319880Y-51160680D01*
X80294480Y-51188620D01*
X80264000Y-51219100D01*
X80243680Y-51239420D01*
X80233520Y-51254660D01*
X80228440Y-51262280D01*
X80230980Y-51267360D01*
X80236060Y-51280060D01*
X80253840Y-51302920D01*
X80276700Y-51338480D01*
X80304640Y-51376580D01*
X80327500Y-51412140D01*
X80350360Y-51447700D01*
X80365600Y-51475640D01*
X80373220Y-51488340D01*
X80370680Y-51493420D01*
X80363060Y-51516280D01*
X80350360Y-51549300D01*
X80332580Y-51589940D01*
X80294480Y-51678840D01*
X80236060Y-51689000D01*
X80200500Y-51696620D01*
X80149700Y-51704240D01*
X80103980Y-51714400D01*
X80030320Y-51729640D01*
X80027780Y-51996340D01*
X80037940Y-52001420D01*
X80050640Y-52006500D01*
X80076040Y-52011580D01*
X80116680Y-52019200D01*
X80162400Y-52026820D01*
X80200500Y-52034440D01*
X80241140Y-52042060D01*
X80269080Y-52047140D01*
X80281780Y-52049680D01*
X80284320Y-52054760D01*
X80294480Y-52075080D01*
X80309720Y-52105560D01*
X80324960Y-52141120D01*
X80340200Y-52179220D01*
X80352900Y-52214780D01*
X80363060Y-52240180D01*
X80368140Y-52255420D01*
X80363060Y-52265580D01*
X80347820Y-52288440D01*
X80324960Y-52321460D01*
X80299560Y-52359560D01*
X80271620Y-52400200D01*
X80248760Y-52433220D01*
X80233520Y-52458620D01*
X80225900Y-52468780D01*
X80230980Y-52476400D01*
X80246220Y-52494180D01*
X80274160Y-52524660D01*
X80319880Y-52570380D01*
X80327500Y-52575460D01*
X80360520Y-52611020D01*
X80391000Y-52636420D01*
X80411320Y-52656740D01*
X80421480Y-52661820D01*
X80421480Y-52661820D01*
G37*
X80421480Y-52661820D02*
X80431640Y-52656740D01*
X80454500Y-52641500D01*
X80487520Y-52621180D01*
X80528160Y-52593240D01*
X80566260Y-52567840D01*
X80599280Y-52544980D01*
X80622140Y-52529740D01*
X80632300Y-52524660D01*
X80637380Y-52527200D01*
X80655160Y-52537360D01*
X80683100Y-52550060D01*
X80698340Y-52557680D01*
X80723740Y-52570380D01*
X80736440Y-52572920D01*
X80738980Y-52567840D01*
X80749140Y-52550060D01*
X80761840Y-52517040D01*
X80782160Y-52473860D01*
X80802480Y-52423060D01*
X80825340Y-52367180D01*
X80848200Y-52311300D01*
X80871060Y-52257960D01*
X80891380Y-52209700D01*
X80906620Y-52171600D01*
X80916780Y-52143660D01*
X80921860Y-52133500D01*
X80919320Y-52130960D01*
X80906620Y-52118260D01*
X80886300Y-52103020D01*
X80838040Y-52062380D01*
X80792320Y-52003960D01*
X80761840Y-51937920D01*
X80754220Y-51864260D01*
X80761840Y-51798220D01*
X80787240Y-51734720D01*
X80832960Y-51673760D01*
X80888840Y-51630580D01*
X80954880Y-51602640D01*
X81026000Y-51595020D01*
X81094580Y-51602640D01*
X81160620Y-51628040D01*
X81221580Y-51673760D01*
X81244440Y-51701700D01*
X81280000Y-51762660D01*
X81300320Y-51823620D01*
X81300320Y-51838860D01*
X81297780Y-51909980D01*
X81277460Y-51978560D01*
X81241900Y-52036980D01*
X81188560Y-52087780D01*
X81183480Y-52092860D01*
X81158080Y-52110640D01*
X81142840Y-52120800D01*
X81130140Y-52130960D01*
X81219040Y-52346860D01*
X81234280Y-52382420D01*
X81259680Y-52440840D01*
X81280000Y-52491640D01*
X81297780Y-52532280D01*
X81310480Y-52557680D01*
X81315560Y-52570380D01*
X81315560Y-52570380D01*
X81323180Y-52570380D01*
X81338420Y-52565300D01*
X81368900Y-52550060D01*
X81389220Y-52539900D01*
X81412080Y-52529740D01*
X81422240Y-52524660D01*
X81432400Y-52529740D01*
X81452720Y-52544980D01*
X81485740Y-52565300D01*
X81523840Y-52590700D01*
X81559400Y-52616100D01*
X81594960Y-52638960D01*
X81617820Y-52654200D01*
X81630520Y-52661820D01*
X81633060Y-52661820D01*
X81643220Y-52654200D01*
X81663540Y-52638960D01*
X81691480Y-52611020D01*
X81732120Y-52570380D01*
X81739740Y-52565300D01*
X81772760Y-52529740D01*
X81800700Y-52499260D01*
X81821020Y-52478940D01*
X81826100Y-52471320D01*
X81826100Y-52471320D01*
X81821020Y-52458620D01*
X81805780Y-52433220D01*
X81782920Y-52400200D01*
X81754980Y-52359560D01*
X81683860Y-52255420D01*
X81724500Y-52158900D01*
X81734660Y-52128420D01*
X81749900Y-52092860D01*
X81762600Y-52067460D01*
X81767680Y-52054760D01*
X81777840Y-52052220D01*
X81805780Y-52044600D01*
X81843880Y-52036980D01*
X81889600Y-52029360D01*
X81935320Y-52019200D01*
X81973420Y-52011580D01*
X82003900Y-52006500D01*
X82016600Y-52003960D01*
X82019140Y-52001420D01*
X82021680Y-51996340D01*
X82024220Y-51983640D01*
X82024220Y-51958240D01*
X82024220Y-51920140D01*
X82024220Y-51864260D01*
X82024220Y-51859180D01*
X82024220Y-51805840D01*
X82024220Y-51765200D01*
X82021680Y-51739800D01*
X82019140Y-51729640D01*
X82019140Y-51729640D01*
X82006440Y-51724560D01*
X81978500Y-51719480D01*
X81940400Y-51711860D01*
X81892140Y-51701700D01*
X81889600Y-51701700D01*
X81841340Y-51694080D01*
X81803240Y-51683920D01*
X81775300Y-51678840D01*
X81762600Y-51673760D01*
X81760060Y-51671220D01*
X81749900Y-51653440D01*
X81737200Y-51622960D01*
X81721960Y-51587400D01*
X81706720Y-51551840D01*
X81691480Y-51516280D01*
X81683860Y-51493420D01*
X81681320Y-51480720D01*
X81681320Y-51480720D01*
X81688940Y-51470560D01*
X81704180Y-51445160D01*
X81727040Y-51412140D01*
X81754980Y-51371500D01*
X81757520Y-51366420D01*
X81785460Y-51328320D01*
X81805780Y-51292760D01*
X81821020Y-51269900D01*
X81826100Y-51259740D01*
X81826100Y-51257200D01*
X81818480Y-51247040D01*
X81798160Y-51224180D01*
X81767680Y-51193700D01*
X81732120Y-51158140D01*
X81721960Y-51147980D01*
X81683860Y-51109880D01*
X81655920Y-51084480D01*
X81638140Y-51071780D01*
X81630520Y-51066700D01*
X81630520Y-51069240D01*
X81617820Y-51074320D01*
X81592420Y-51092100D01*
X81559400Y-51114960D01*
X81518760Y-51142900D01*
X81516220Y-51145440D01*
X81475580Y-51170840D01*
X81442560Y-51193700D01*
X81419700Y-51208940D01*
X81409540Y-51216560D01*
X81407000Y-51216560D01*
X81391760Y-51211480D01*
X81361280Y-51201320D01*
X81328260Y-51188620D01*
X81290160Y-51173380D01*
X81257140Y-51158140D01*
X81231740Y-51147980D01*
X81219040Y-51140360D01*
X81219040Y-51140360D01*
X81213960Y-51125120D01*
X81208880Y-51094640D01*
X81198720Y-51054000D01*
X81191100Y-51005740D01*
X81188560Y-50998120D01*
X81180940Y-50949860D01*
X81173320Y-50911760D01*
X81165700Y-50883820D01*
X81163160Y-50871120D01*
X81158080Y-50871120D01*
X81132680Y-50868580D01*
X81097120Y-50868580D01*
X81053940Y-50868580D01*
X81010760Y-50868580D01*
X80967580Y-50868580D01*
X80929480Y-50871120D01*
X80904080Y-50871120D01*
X80891380Y-50873660D01*
X80891380Y-50876200D01*
X80886300Y-50888900D01*
X80881220Y-50919380D01*
X80871060Y-50960020D01*
X80863440Y-51010820D01*
X80860900Y-51018440D01*
X80853280Y-51066700D01*
X80843120Y-51104800D01*
X80838040Y-51132740D01*
X80835500Y-51142900D01*
X80830420Y-51145440D01*
X80812640Y-51153060D01*
X80779620Y-51165760D01*
X80738980Y-51183540D01*
X80647540Y-51219100D01*
X80535780Y-51142900D01*
X80525620Y-51135280D01*
X80484980Y-51107340D01*
X80451960Y-51087020D01*
X80429100Y-51071780D01*
X80418940Y-51066700D01*
X80418940Y-51066700D01*
X80408780Y-51076860D01*
X80385920Y-51097180D01*
X80355440Y-51127660D01*
X80319880Y-51160680D01*
X80294480Y-51188620D01*
X80264000Y-51219100D01*
X80243680Y-51239420D01*
X80233520Y-51254660D01*
X80228440Y-51262280D01*
X80230980Y-51267360D01*
X80236060Y-51280060D01*
X80253840Y-51302920D01*
X80276700Y-51338480D01*
X80304640Y-51376580D01*
X80327500Y-51412140D01*
X80350360Y-51447700D01*
X80365600Y-51475640D01*
X80373220Y-51488340D01*
X80370680Y-51493420D01*
X80363060Y-51516280D01*
X80350360Y-51549300D01*
X80332580Y-51589940D01*
X80294480Y-51678840D01*
X80236060Y-51689000D01*
X80200500Y-51696620D01*
X80149700Y-51704240D01*
X80103980Y-51714400D01*
X80030320Y-51729640D01*
X80027780Y-51996340D01*
X80037940Y-52001420D01*
X80050640Y-52006500D01*
X80076040Y-52011580D01*
X80116680Y-52019200D01*
X80162400Y-52026820D01*
X80200500Y-52034440D01*
X80241140Y-52042060D01*
X80269080Y-52047140D01*
X80281780Y-52049680D01*
X80284320Y-52054760D01*
X80294480Y-52075080D01*
X80309720Y-52105560D01*
X80324960Y-52141120D01*
X80340200Y-52179220D01*
X80352900Y-52214780D01*
X80363060Y-52240180D01*
X80368140Y-52255420D01*
X80363060Y-52265580D01*
X80347820Y-52288440D01*
X80324960Y-52321460D01*
X80299560Y-52359560D01*
X80271620Y-52400200D01*
X80248760Y-52433220D01*
X80233520Y-52458620D01*
X80225900Y-52468780D01*
X80230980Y-52476400D01*
X80246220Y-52494180D01*
X80274160Y-52524660D01*
X80319880Y-52570380D01*
X80327500Y-52575460D01*
X80360520Y-52611020D01*
X80391000Y-52636420D01*
X80411320Y-52656740D01*
X80421480Y-52661820D01*
D19*
X100330000Y-73152000D02*
X98044000Y-73152000D01*
X98044000Y-73152000D02*
X98044000Y-71882000D01*
X98044000Y-71882000D02*
X100330000Y-71882000D01*
X100330000Y-71882000D02*
X100330000Y-73152000D01*
X151765000Y-56642000D02*
X154051000Y-56642000D01*
X154051000Y-56642000D02*
X154051000Y-57912000D01*
X154051000Y-57912000D02*
X151765000Y-57912000D01*
X151765000Y-57912000D02*
X151765000Y-56642000D01*
X144399000Y-63373000D02*
X144399000Y-65659000D01*
X144399000Y-65659000D02*
X143129000Y-65659000D01*
X143129000Y-65659000D02*
X143129000Y-63373000D01*
X143129000Y-63373000D02*
X144399000Y-63373000D01*
X142621000Y-60198000D02*
X142621000Y-62484000D01*
X142621000Y-62484000D02*
X141351000Y-62484000D01*
X141351000Y-62484000D02*
X141351000Y-60198000D01*
X141351000Y-60198000D02*
X142621000Y-60198000D01*
X140843000Y-60198000D02*
X140843000Y-62484000D01*
X140843000Y-62484000D02*
X139573000Y-62484000D01*
X139573000Y-62484000D02*
X139573000Y-60198000D01*
X139573000Y-60198000D02*
X140843000Y-60198000D01*
X125399800Y-51054000D02*
X123774200Y-51054000D01*
X123774200Y-53797200D02*
X125399800Y-53797200D01*
X125399800Y-53797200D02*
X125399800Y-50596800D01*
X125399800Y-50596800D02*
X123774200Y-50596800D01*
X123774200Y-50596800D02*
X123774200Y-53797200D01*
X122986800Y-51054000D02*
X121361200Y-51054000D01*
X121361200Y-53797200D02*
X122986800Y-53797200D01*
X122986800Y-53797200D02*
X122986800Y-50596800D01*
X122986800Y-50596800D02*
X121361200Y-50596800D01*
X121361200Y-50596800D02*
X121361200Y-53797200D01*
D12*
X144602805Y-72608924D02*
X145240224Y-72608924D01*
X145315214Y-72571429D01*
X145352710Y-72533933D01*
X145390205Y-72458943D01*
X145390205Y-72308962D01*
X145352710Y-72233971D01*
X145315214Y-72196476D01*
X145240224Y-72158981D01*
X144602805Y-72158981D01*
X144602805Y-71409076D02*
X144602805Y-71784029D01*
X144977757Y-71821524D01*
X144940262Y-71784029D01*
X144902767Y-71709038D01*
X144902767Y-71521562D01*
X144940262Y-71446572D01*
X144977757Y-71409076D01*
X145052748Y-71371581D01*
X145240224Y-71371581D01*
X145315214Y-71409076D01*
X145352710Y-71446572D01*
X145390205Y-71521562D01*
X145390205Y-71709038D01*
X145352710Y-71784029D01*
X145315214Y-71821524D01*
X108840814Y-57633205D02*
X108578347Y-57258252D01*
X108390871Y-57633205D02*
X108390871Y-56845805D01*
X108690833Y-56845805D01*
X108765824Y-56883300D01*
X108803319Y-56920795D01*
X108840814Y-56995786D01*
X108840814Y-57108271D01*
X108803319Y-57183262D01*
X108765824Y-57220757D01*
X108690833Y-57258252D01*
X108390871Y-57258252D01*
X109590719Y-57633205D02*
X109140776Y-57633205D01*
X109365747Y-57633205D02*
X109365747Y-56845805D01*
X109290757Y-56958290D01*
X109215766Y-57033281D01*
X109140776Y-57070776D01*
X109965671Y-57633205D02*
X110115652Y-57633205D01*
X110190643Y-57595710D01*
X110228138Y-57558214D01*
X110303129Y-57445729D01*
X110340624Y-57295748D01*
X110340624Y-56995786D01*
X110303129Y-56920795D01*
X110265633Y-56883300D01*
X110190643Y-56845805D01*
X110040662Y-56845805D01*
X109965671Y-56883300D01*
X109928176Y-56920795D01*
X109890681Y-56995786D01*
X109890681Y-57183262D01*
X109928176Y-57258252D01*
X109965671Y-57295748D01*
X110040662Y-57333243D01*
X110190643Y-57333243D01*
X110265633Y-57295748D01*
X110303129Y-57258252D01*
X110340624Y-57183262D01*
X117883214Y-67695233D02*
X117920710Y-67732728D01*
X117958205Y-67845214D01*
X117958205Y-67920204D01*
X117920710Y-68032690D01*
X117845719Y-68107681D01*
X117770729Y-68145176D01*
X117620748Y-68182671D01*
X117508262Y-68182671D01*
X117358281Y-68145176D01*
X117283290Y-68107681D01*
X117208300Y-68032690D01*
X117170805Y-67920204D01*
X117170805Y-67845214D01*
X117208300Y-67732728D01*
X117245795Y-67695233D01*
X117958205Y-66945328D02*
X117958205Y-67395271D01*
X117958205Y-67170300D02*
X117170805Y-67170300D01*
X117283290Y-67245290D01*
X117358281Y-67320281D01*
X117395776Y-67395271D01*
X121407767Y-56542214D02*
X121370272Y-56579710D01*
X121257786Y-56617205D01*
X121182796Y-56617205D01*
X121070310Y-56579710D01*
X120995319Y-56504719D01*
X120957824Y-56429729D01*
X120920329Y-56279748D01*
X120920329Y-56167262D01*
X120957824Y-56017281D01*
X120995319Y-55942290D01*
X121070310Y-55867300D01*
X121182796Y-55829805D01*
X121257786Y-55829805D01*
X121370272Y-55867300D01*
X121407767Y-55904795D01*
X121707729Y-55904795D02*
X121745224Y-55867300D01*
X121820215Y-55829805D01*
X122007691Y-55829805D01*
X122082681Y-55867300D01*
X122120177Y-55904795D01*
X122157672Y-55979786D01*
X122157672Y-56054776D01*
X122120177Y-56167262D01*
X121670234Y-56617205D01*
X122157672Y-56617205D01*
X128456267Y-74080914D02*
X128418772Y-74118410D01*
X128306286Y-74155905D01*
X128231296Y-74155905D01*
X128118810Y-74118410D01*
X128043819Y-74043419D01*
X128006324Y-73968429D01*
X127968829Y-73818448D01*
X127968829Y-73705962D01*
X128006324Y-73555981D01*
X128043819Y-73480990D01*
X128118810Y-73406000D01*
X128231296Y-73368505D01*
X128306286Y-73368505D01*
X128418772Y-73406000D01*
X128456267Y-73443495D01*
X128718734Y-73368505D02*
X129206172Y-73368505D01*
X128943705Y-73668467D01*
X129056191Y-73668467D01*
X129131181Y-73705962D01*
X129168677Y-73743457D01*
X129206172Y-73818448D01*
X129206172Y-74005924D01*
X129168677Y-74080914D01*
X129131181Y-74118410D01*
X129056191Y-74155905D01*
X128831219Y-74155905D01*
X128756229Y-74118410D01*
X128718734Y-74080914D01*
X98291348Y-57506205D02*
X98291348Y-56718805D01*
X99116243Y-57431214D02*
X99078748Y-57468710D01*
X98966262Y-57506205D01*
X98891272Y-57506205D01*
X98778786Y-57468710D01*
X98703795Y-57393719D01*
X98666300Y-57318729D01*
X98628805Y-57168748D01*
X98628805Y-57056262D01*
X98666300Y-56906281D01*
X98703795Y-56831290D01*
X98778786Y-56756300D01*
X98891272Y-56718805D01*
X98966262Y-56718805D01*
X99078748Y-56756300D01*
X99116243Y-56793795D01*
X99866148Y-57506205D02*
X99416205Y-57506205D01*
X99641176Y-57506205D02*
X99641176Y-56718805D01*
X99566186Y-56831290D01*
X99491195Y-56906281D01*
X99416205Y-56943776D01*
X109550805Y-61343419D02*
X110338205Y-60818486D01*
X109550805Y-60818486D02*
X110338205Y-61343419D01*
X110338205Y-60106076D02*
X110338205Y-60556019D01*
X110338205Y-60331048D02*
X109550805Y-60331048D01*
X109663290Y-60406038D01*
X109738281Y-60481029D01*
X109775776Y-60556019D01*
X110517214Y-66425233D02*
X110554710Y-66462728D01*
X110592205Y-66575214D01*
X110592205Y-66650204D01*
X110554710Y-66762690D01*
X110479719Y-66837681D01*
X110404729Y-66875176D01*
X110254748Y-66912671D01*
X110142262Y-66912671D01*
X109992281Y-66875176D01*
X109917290Y-66837681D01*
X109842300Y-66762690D01*
X109804805Y-66650204D01*
X109804805Y-66575214D01*
X109842300Y-66462728D01*
X109879795Y-66425233D01*
X109804805Y-65750319D02*
X109804805Y-65900300D01*
X109842300Y-65975290D01*
X109879795Y-66012785D01*
X109992281Y-66087776D01*
X110142262Y-66125271D01*
X110442224Y-66125271D01*
X110517214Y-66087776D01*
X110554710Y-66050281D01*
X110592205Y-65975290D01*
X110592205Y-65825309D01*
X110554710Y-65750319D01*
X110517214Y-65712823D01*
X110442224Y-65675328D01*
X110254748Y-65675328D01*
X110179757Y-65712823D01*
X110142262Y-65750319D01*
X110104767Y-65825309D01*
X110104767Y-65975290D01*
X110142262Y-66050281D01*
X110179757Y-66087776D01*
X110254748Y-66125271D01*
X115343214Y-59567233D02*
X115380710Y-59604728D01*
X115418205Y-59717214D01*
X115418205Y-59792204D01*
X115380710Y-59904690D01*
X115305719Y-59979681D01*
X115230729Y-60017176D01*
X115080748Y-60054671D01*
X114968262Y-60054671D01*
X114818281Y-60017176D01*
X114743290Y-59979681D01*
X114668300Y-59904690D01*
X114630805Y-59792204D01*
X114630805Y-59717214D01*
X114668300Y-59604728D01*
X114705795Y-59567233D01*
X114630805Y-59304766D02*
X114630805Y-58779833D01*
X115418205Y-59117290D01*
X115343214Y-66933233D02*
X115380710Y-66970728D01*
X115418205Y-67083214D01*
X115418205Y-67158204D01*
X115380710Y-67270690D01*
X115305719Y-67345681D01*
X115230729Y-67383176D01*
X115080748Y-67420671D01*
X114968262Y-67420671D01*
X114818281Y-67383176D01*
X114743290Y-67345681D01*
X114668300Y-67270690D01*
X114630805Y-67158204D01*
X114630805Y-67083214D01*
X114668300Y-66970728D01*
X114705795Y-66933233D01*
X114968262Y-66483290D02*
X114930767Y-66558281D01*
X114893271Y-66595776D01*
X114818281Y-66633271D01*
X114780786Y-66633271D01*
X114705795Y-66595776D01*
X114668300Y-66558281D01*
X114630805Y-66483290D01*
X114630805Y-66333309D01*
X114668300Y-66258319D01*
X114705795Y-66220823D01*
X114780786Y-66183328D01*
X114818281Y-66183328D01*
X114893271Y-66220823D01*
X114930767Y-66258319D01*
X114968262Y-66333309D01*
X114968262Y-66483290D01*
X115005757Y-66558281D01*
X115043252Y-66595776D01*
X115118243Y-66633271D01*
X115268224Y-66633271D01*
X115343214Y-66595776D01*
X115380710Y-66558281D01*
X115418205Y-66483290D01*
X115418205Y-66333309D01*
X115380710Y-66258319D01*
X115343214Y-66220823D01*
X115268224Y-66183328D01*
X115118243Y-66183328D01*
X115043252Y-66220823D01*
X115005757Y-66258319D01*
X114968262Y-66333309D01*
D28*
X106468333Y-70956714D02*
X106468333Y-70194714D01*
X107484333Y-70956714D01*
X107484333Y-70194714D01*
X108331000Y-70557571D02*
X108923667Y-70557571D01*
X109177667Y-70956714D02*
X108331000Y-70956714D01*
X108331000Y-70194714D01*
X109177667Y-70194714D01*
X109685667Y-70194714D02*
X110701667Y-70194714D01*
X110193667Y-70956714D02*
X110193667Y-70194714D01*
D12*
X105088267Y-74206705D02*
X104825800Y-73831752D01*
X104638324Y-74206705D02*
X104638324Y-73419305D01*
X104938286Y-73419305D01*
X105013277Y-73456800D01*
X105050772Y-73494295D01*
X105088267Y-73569286D01*
X105088267Y-73681771D01*
X105050772Y-73756762D01*
X105013277Y-73794257D01*
X104938286Y-73831752D01*
X104638324Y-73831752D01*
X105838172Y-74206705D02*
X105388229Y-74206705D01*
X105613200Y-74206705D02*
X105613200Y-73419305D01*
X105538210Y-73531790D01*
X105463219Y-73606781D01*
X105388229Y-73644276D01*
X108560205Y-68203233D02*
X108185252Y-68465700D01*
X108560205Y-68653176D02*
X107772805Y-68653176D01*
X107772805Y-68353214D01*
X107810300Y-68278223D01*
X107847795Y-68240728D01*
X107922786Y-68203233D01*
X108035271Y-68203233D01*
X108110262Y-68240728D01*
X108147757Y-68278223D01*
X108185252Y-68353214D01*
X108185252Y-68653176D01*
X108035271Y-67528319D02*
X108560205Y-67528319D01*
X107735310Y-67715795D02*
X108297738Y-67903271D01*
X108297738Y-67415833D01*
X108687205Y-63123233D02*
X108312252Y-63385700D01*
X108687205Y-63573176D02*
X107899805Y-63573176D01*
X107899805Y-63273214D01*
X107937300Y-63198223D01*
X107974795Y-63160728D01*
X108049786Y-63123233D01*
X108162271Y-63123233D01*
X108237262Y-63160728D01*
X108274757Y-63198223D01*
X108312252Y-63273214D01*
X108312252Y-63573176D01*
X107899805Y-62448319D02*
X107899805Y-62598300D01*
X107937300Y-62673290D01*
X107974795Y-62710785D01*
X108087281Y-62785776D01*
X108237262Y-62823271D01*
X108537224Y-62823271D01*
X108612214Y-62785776D01*
X108649710Y-62748281D01*
X108687205Y-62673290D01*
X108687205Y-62523309D01*
X108649710Y-62448319D01*
X108612214Y-62410823D01*
X108537224Y-62373328D01*
X108349748Y-62373328D01*
X108274757Y-62410823D01*
X108237262Y-62448319D01*
X108199767Y-62523309D01*
X108199767Y-62673290D01*
X108237262Y-62748281D01*
X108274757Y-62785776D01*
X108349748Y-62823271D01*
X114136714Y-69092233D02*
X114174210Y-69129728D01*
X114211705Y-69242214D01*
X114211705Y-69317204D01*
X114174210Y-69429690D01*
X114099219Y-69504681D01*
X114024229Y-69542176D01*
X113874248Y-69579671D01*
X113761762Y-69579671D01*
X113611781Y-69542176D01*
X113536790Y-69504681D01*
X113461800Y-69429690D01*
X113424305Y-69317204D01*
X113424305Y-69242214D01*
X113461800Y-69129728D01*
X113499295Y-69092233D01*
X113424305Y-68379823D02*
X113424305Y-68754776D01*
X113799257Y-68792271D01*
X113761762Y-68754776D01*
X113724267Y-68679785D01*
X113724267Y-68492309D01*
X113761762Y-68417319D01*
X113799257Y-68379823D01*
X113874248Y-68342328D01*
X114061724Y-68342328D01*
X114136714Y-68379823D01*
X114174210Y-68417319D01*
X114211705Y-68492309D01*
X114211705Y-68679785D01*
X114174210Y-68754776D01*
X114136714Y-68792271D01*
X100960767Y-74131714D02*
X100923272Y-74169210D01*
X100810786Y-74206705D01*
X100735796Y-74206705D01*
X100623310Y-74169210D01*
X100548319Y-74094219D01*
X100510824Y-74019229D01*
X100473329Y-73869248D01*
X100473329Y-73756762D01*
X100510824Y-73606781D01*
X100548319Y-73531790D01*
X100623310Y-73456800D01*
X100735796Y-73419305D01*
X100810786Y-73419305D01*
X100923272Y-73456800D01*
X100960767Y-73494295D01*
X101335719Y-74206705D02*
X101485700Y-74206705D01*
X101560691Y-74169210D01*
X101598186Y-74131714D01*
X101673177Y-74019229D01*
X101710672Y-73869248D01*
X101710672Y-73569286D01*
X101673177Y-73494295D01*
X101635681Y-73456800D01*
X101560691Y-73419305D01*
X101410710Y-73419305D01*
X101335719Y-73456800D01*
X101298224Y-73494295D01*
X101260729Y-73569286D01*
X101260729Y-73756762D01*
X101298224Y-73831752D01*
X101335719Y-73869248D01*
X101410710Y-73906743D01*
X101560691Y-73906743D01*
X101635681Y-73869248D01*
X101673177Y-73831752D01*
X101710672Y-73756762D01*
X102617814Y-74131714D02*
X102580319Y-74169210D01*
X102467833Y-74206705D01*
X102392843Y-74206705D01*
X102280357Y-74169210D01*
X102205366Y-74094219D01*
X102167871Y-74019229D01*
X102130376Y-73869248D01*
X102130376Y-73756762D01*
X102167871Y-73606781D01*
X102205366Y-73531790D01*
X102280357Y-73456800D01*
X102392843Y-73419305D01*
X102467833Y-73419305D01*
X102580319Y-73456800D01*
X102617814Y-73494295D01*
X103367719Y-74206705D02*
X102917776Y-74206705D01*
X103142747Y-74206705D02*
X103142747Y-73419305D01*
X103067757Y-73531790D01*
X102992766Y-73606781D01*
X102917776Y-73644276D01*
X103855157Y-73419305D02*
X103930148Y-73419305D01*
X104005138Y-73456800D01*
X104042633Y-73494295D01*
X104080129Y-73569286D01*
X104117624Y-73719267D01*
X104117624Y-73906743D01*
X104080129Y-74056724D01*
X104042633Y-74131714D01*
X104005138Y-74169210D01*
X103930148Y-74206705D01*
X103855157Y-74206705D01*
X103780167Y-74169210D01*
X103742671Y-74131714D01*
X103705176Y-74056724D01*
X103667681Y-73906743D01*
X103667681Y-73719267D01*
X103705176Y-73569286D01*
X103742671Y-73494295D01*
X103780167Y-73456800D01*
X103855157Y-73419305D01*
X94489814Y-74385714D02*
X94452319Y-74423210D01*
X94339833Y-74460705D01*
X94264843Y-74460705D01*
X94152357Y-74423210D01*
X94077366Y-74348219D01*
X94039871Y-74273229D01*
X94002376Y-74123248D01*
X94002376Y-74010762D01*
X94039871Y-73860781D01*
X94077366Y-73785790D01*
X94152357Y-73710800D01*
X94264843Y-73673305D01*
X94339833Y-73673305D01*
X94452319Y-73710800D01*
X94489814Y-73748295D01*
X95239719Y-74460705D02*
X94789776Y-74460705D01*
X95014747Y-74460705D02*
X95014747Y-73673305D01*
X94939757Y-73785790D01*
X94864766Y-73860781D01*
X94789776Y-73898276D01*
X95989624Y-74460705D02*
X95539681Y-74460705D01*
X95764652Y-74460705D02*
X95764652Y-73673305D01*
X95689662Y-73785790D01*
X95614671Y-73860781D01*
X95539681Y-73898276D01*
X104268814Y-69686714D02*
X104231319Y-69724210D01*
X104118833Y-69761705D01*
X104043843Y-69761705D01*
X103931357Y-69724210D01*
X103856366Y-69649219D01*
X103818871Y-69574229D01*
X103781376Y-69424248D01*
X103781376Y-69311762D01*
X103818871Y-69161781D01*
X103856366Y-69086790D01*
X103931357Y-69011800D01*
X104043843Y-68974305D01*
X104118833Y-68974305D01*
X104231319Y-69011800D01*
X104268814Y-69049295D01*
X105018719Y-69761705D02*
X104568776Y-69761705D01*
X104793747Y-69761705D02*
X104793747Y-68974305D01*
X104718757Y-69086790D01*
X104643766Y-69161781D01*
X104568776Y-69199276D01*
X105318681Y-69049295D02*
X105356176Y-69011800D01*
X105431167Y-68974305D01*
X105618643Y-68974305D01*
X105693633Y-69011800D01*
X105731129Y-69049295D01*
X105768624Y-69124286D01*
X105768624Y-69199276D01*
X105731129Y-69311762D01*
X105281186Y-69761705D01*
X105768624Y-69761705D01*
X97182214Y-70737186D02*
X97219710Y-70774681D01*
X97257205Y-70887167D01*
X97257205Y-70962157D01*
X97219710Y-71074643D01*
X97144719Y-71149634D01*
X97069729Y-71187129D01*
X96919748Y-71224624D01*
X96807262Y-71224624D01*
X96657281Y-71187129D01*
X96582290Y-71149634D01*
X96507300Y-71074643D01*
X96469805Y-70962157D01*
X96469805Y-70887167D01*
X96507300Y-70774681D01*
X96544795Y-70737186D01*
X97257205Y-69987281D02*
X97257205Y-70437224D01*
X97257205Y-70212253D02*
X96469805Y-70212253D01*
X96582290Y-70287243D01*
X96657281Y-70362234D01*
X96694776Y-70437224D01*
X96469805Y-69724814D02*
X96469805Y-69237376D01*
X96769767Y-69499843D01*
X96769767Y-69387357D01*
X96807262Y-69312367D01*
X96844757Y-69274871D01*
X96919748Y-69237376D01*
X97107224Y-69237376D01*
X97182214Y-69274871D01*
X97219710Y-69312367D01*
X97257205Y-69387357D01*
X97257205Y-69612329D01*
X97219710Y-69687319D01*
X97182214Y-69724814D01*
X96102714Y-70737186D02*
X96140210Y-70774681D01*
X96177705Y-70887167D01*
X96177705Y-70962157D01*
X96140210Y-71074643D01*
X96065219Y-71149634D01*
X95990229Y-71187129D01*
X95840248Y-71224624D01*
X95727762Y-71224624D01*
X95577781Y-71187129D01*
X95502790Y-71149634D01*
X95427800Y-71074643D01*
X95390305Y-70962157D01*
X95390305Y-70887167D01*
X95427800Y-70774681D01*
X95465295Y-70737186D01*
X96177705Y-69987281D02*
X96177705Y-70437224D01*
X96177705Y-70212253D02*
X95390305Y-70212253D01*
X95502790Y-70287243D01*
X95577781Y-70362234D01*
X95615276Y-70437224D01*
X95652771Y-69312367D02*
X96177705Y-69312367D01*
X95352810Y-69499843D02*
X95915238Y-69687319D01*
X95915238Y-69199881D01*
X97055214Y-64260186D02*
X97092710Y-64297681D01*
X97130205Y-64410167D01*
X97130205Y-64485157D01*
X97092710Y-64597643D01*
X97017719Y-64672634D01*
X96942729Y-64710129D01*
X96792748Y-64747624D01*
X96680262Y-64747624D01*
X96530281Y-64710129D01*
X96455290Y-64672634D01*
X96380300Y-64597643D01*
X96342805Y-64485157D01*
X96342805Y-64410167D01*
X96380300Y-64297681D01*
X96417795Y-64260186D01*
X97130205Y-63510281D02*
X97130205Y-63960224D01*
X97130205Y-63735253D02*
X96342805Y-63735253D01*
X96455290Y-63810243D01*
X96530281Y-63885234D01*
X96567776Y-63960224D01*
X96342805Y-62797871D02*
X96342805Y-63172824D01*
X96717757Y-63210319D01*
X96680262Y-63172824D01*
X96642767Y-63097833D01*
X96642767Y-62910357D01*
X96680262Y-62835367D01*
X96717757Y-62797871D01*
X96792748Y-62760376D01*
X96980224Y-62760376D01*
X97055214Y-62797871D01*
X97092710Y-62835367D01*
X97130205Y-62910357D01*
X97130205Y-63097833D01*
X97092710Y-63172824D01*
X97055214Y-63210319D01*
X97182214Y-60958186D02*
X97219710Y-60995681D01*
X97257205Y-61108167D01*
X97257205Y-61183157D01*
X97219710Y-61295643D01*
X97144719Y-61370634D01*
X97069729Y-61408129D01*
X96919748Y-61445624D01*
X96807262Y-61445624D01*
X96657281Y-61408129D01*
X96582290Y-61370634D01*
X96507300Y-61295643D01*
X96469805Y-61183157D01*
X96469805Y-61108167D01*
X96507300Y-60995681D01*
X96544795Y-60958186D01*
X97257205Y-60208281D02*
X97257205Y-60658224D01*
X97257205Y-60433253D02*
X96469805Y-60433253D01*
X96582290Y-60508243D01*
X96657281Y-60583234D01*
X96694776Y-60658224D01*
X96469805Y-59533367D02*
X96469805Y-59683348D01*
X96507300Y-59758338D01*
X96544795Y-59795833D01*
X96657281Y-59870824D01*
X96807262Y-59908319D01*
X97107224Y-59908319D01*
X97182214Y-59870824D01*
X97219710Y-59833329D01*
X97257205Y-59758338D01*
X97257205Y-59608357D01*
X97219710Y-59533367D01*
X97182214Y-59495871D01*
X97107224Y-59458376D01*
X96919748Y-59458376D01*
X96844757Y-59495871D01*
X96807262Y-59533367D01*
X96769767Y-59608357D01*
X96769767Y-59758338D01*
X96807262Y-59833329D01*
X96844757Y-59870824D01*
X96919748Y-59908319D01*
X94959714Y-69975186D02*
X94997210Y-70012681D01*
X95034705Y-70125167D01*
X95034705Y-70200157D01*
X94997210Y-70312643D01*
X94922219Y-70387634D01*
X94847229Y-70425129D01*
X94697248Y-70462624D01*
X94584762Y-70462624D01*
X94434781Y-70425129D01*
X94359790Y-70387634D01*
X94284800Y-70312643D01*
X94247305Y-70200157D01*
X94247305Y-70125167D01*
X94284800Y-70012681D01*
X94322295Y-69975186D01*
X95034705Y-69225281D02*
X95034705Y-69675224D01*
X95034705Y-69450253D02*
X94247305Y-69450253D01*
X94359790Y-69525243D01*
X94434781Y-69600234D01*
X94472276Y-69675224D01*
X94247305Y-68962814D02*
X94247305Y-68437881D01*
X95034705Y-68775338D01*
X93955205Y-69219233D02*
X93580252Y-69481700D01*
X93955205Y-69669176D02*
X93167805Y-69669176D01*
X93167805Y-69369214D01*
X93205300Y-69294223D01*
X93242795Y-69256728D01*
X93317786Y-69219233D01*
X93430271Y-69219233D01*
X93505262Y-69256728D01*
X93542757Y-69294223D01*
X93580252Y-69369214D01*
X93580252Y-69669176D01*
X93167805Y-68956766D02*
X93167805Y-68431833D01*
X93955205Y-68769290D01*
X79249814Y-73179214D02*
X79212319Y-73216710D01*
X79099833Y-73254205D01*
X79024843Y-73254205D01*
X78912357Y-73216710D01*
X78837366Y-73141719D01*
X78799871Y-73066729D01*
X78762376Y-72916748D01*
X78762376Y-72804262D01*
X78799871Y-72654281D01*
X78837366Y-72579290D01*
X78912357Y-72504300D01*
X79024843Y-72466805D01*
X79099833Y-72466805D01*
X79212319Y-72504300D01*
X79249814Y-72541795D01*
X79999719Y-73254205D02*
X79549776Y-73254205D01*
X79774747Y-73254205D02*
X79774747Y-72466805D01*
X79699757Y-72579290D01*
X79624766Y-72654281D01*
X79549776Y-72691776D01*
X80449662Y-72804262D02*
X80374671Y-72766767D01*
X80337176Y-72729271D01*
X80299681Y-72654281D01*
X80299681Y-72616786D01*
X80337176Y-72541795D01*
X80374671Y-72504300D01*
X80449662Y-72466805D01*
X80599643Y-72466805D01*
X80674633Y-72504300D01*
X80712129Y-72541795D01*
X80749624Y-72616786D01*
X80749624Y-72654281D01*
X80712129Y-72729271D01*
X80674633Y-72766767D01*
X80599643Y-72804262D01*
X80449662Y-72804262D01*
X80374671Y-72841757D01*
X80337176Y-72879252D01*
X80299681Y-72954243D01*
X80299681Y-73104224D01*
X80337176Y-73179214D01*
X80374671Y-73216710D01*
X80449662Y-73254205D01*
X80599643Y-73254205D01*
X80674633Y-73216710D01*
X80712129Y-73179214D01*
X80749624Y-73104224D01*
X80749624Y-72954243D01*
X80712129Y-72879252D01*
X80674633Y-72841757D01*
X80599643Y-72804262D01*
X92584814Y-57621714D02*
X92547319Y-57659210D01*
X92434833Y-57696705D01*
X92359843Y-57696705D01*
X92247357Y-57659210D01*
X92172366Y-57584219D01*
X92134871Y-57509229D01*
X92097376Y-57359248D01*
X92097376Y-57246762D01*
X92134871Y-57096781D01*
X92172366Y-57021790D01*
X92247357Y-56946800D01*
X92359843Y-56909305D01*
X92434833Y-56909305D01*
X92547319Y-56946800D01*
X92584814Y-56984295D01*
X93334719Y-57696705D02*
X92884776Y-57696705D01*
X93109747Y-57696705D02*
X93109747Y-56909305D01*
X93034757Y-57021790D01*
X92959766Y-57096781D01*
X92884776Y-57134276D01*
X93709671Y-57696705D02*
X93859652Y-57696705D01*
X93934643Y-57659210D01*
X93972138Y-57621714D01*
X94047129Y-57509229D01*
X94084624Y-57359248D01*
X94084624Y-57059286D01*
X94047129Y-56984295D01*
X94009633Y-56946800D01*
X93934643Y-56909305D01*
X93784662Y-56909305D01*
X93709671Y-56946800D01*
X93672176Y-56984295D01*
X93634681Y-57059286D01*
X93634681Y-57246762D01*
X93672176Y-57321752D01*
X93709671Y-57359248D01*
X93784662Y-57396743D01*
X93934643Y-57396743D01*
X94009633Y-57359248D01*
X94047129Y-57321752D01*
X94084624Y-57246762D01*
X92584814Y-56605714D02*
X92547319Y-56643210D01*
X92434833Y-56680705D01*
X92359843Y-56680705D01*
X92247357Y-56643210D01*
X92172366Y-56568219D01*
X92134871Y-56493229D01*
X92097376Y-56343248D01*
X92097376Y-56230762D01*
X92134871Y-56080781D01*
X92172366Y-56005790D01*
X92247357Y-55930800D01*
X92359843Y-55893305D01*
X92434833Y-55893305D01*
X92547319Y-55930800D01*
X92584814Y-55968295D01*
X92884776Y-55968295D02*
X92922271Y-55930800D01*
X92997262Y-55893305D01*
X93184738Y-55893305D01*
X93259728Y-55930800D01*
X93297224Y-55968295D01*
X93334719Y-56043286D01*
X93334719Y-56118276D01*
X93297224Y-56230762D01*
X92847281Y-56680705D01*
X93334719Y-56680705D01*
X93822157Y-55893305D02*
X93897148Y-55893305D01*
X93972138Y-55930800D01*
X94009633Y-55968295D01*
X94047129Y-56043286D01*
X94084624Y-56193267D01*
X94084624Y-56380743D01*
X94047129Y-56530724D01*
X94009633Y-56605714D01*
X93972138Y-56643210D01*
X93897148Y-56680705D01*
X93822157Y-56680705D01*
X93747167Y-56643210D01*
X93709671Y-56605714D01*
X93672176Y-56530724D01*
X93634681Y-56380743D01*
X93634681Y-56193267D01*
X93672176Y-56043286D01*
X93709671Y-55968295D01*
X93747167Y-55930800D01*
X93822157Y-55893305D01*
X91124314Y-69242214D02*
X91086819Y-69279710D01*
X90974333Y-69317205D01*
X90899343Y-69317205D01*
X90786857Y-69279710D01*
X90711866Y-69204719D01*
X90674371Y-69129729D01*
X90636876Y-68979748D01*
X90636876Y-68867262D01*
X90674371Y-68717281D01*
X90711866Y-68642290D01*
X90786857Y-68567300D01*
X90899343Y-68529805D01*
X90974333Y-68529805D01*
X91086819Y-68567300D01*
X91124314Y-68604795D01*
X91424276Y-68604795D02*
X91461771Y-68567300D01*
X91536762Y-68529805D01*
X91724238Y-68529805D01*
X91799228Y-68567300D01*
X91836724Y-68604795D01*
X91874219Y-68679786D01*
X91874219Y-68754776D01*
X91836724Y-68867262D01*
X91386781Y-69317205D01*
X91874219Y-69317205D01*
X92624124Y-69317205D02*
X92174181Y-69317205D01*
X92399152Y-69317205D02*
X92399152Y-68529805D01*
X92324162Y-68642290D01*
X92249171Y-68717281D01*
X92174181Y-68754776D01*
X91467214Y-61212186D02*
X91504710Y-61249681D01*
X91542205Y-61362167D01*
X91542205Y-61437157D01*
X91504710Y-61549643D01*
X91429719Y-61624634D01*
X91354729Y-61662129D01*
X91204748Y-61699624D01*
X91092262Y-61699624D01*
X90942281Y-61662129D01*
X90867290Y-61624634D01*
X90792300Y-61549643D01*
X90754805Y-61437157D01*
X90754805Y-61362167D01*
X90792300Y-61249681D01*
X90829795Y-61212186D01*
X90829795Y-60912224D02*
X90792300Y-60874729D01*
X90754805Y-60799738D01*
X90754805Y-60612262D01*
X90792300Y-60537272D01*
X90829795Y-60499776D01*
X90904786Y-60462281D01*
X90979776Y-60462281D01*
X91092262Y-60499776D01*
X91542205Y-60949719D01*
X91542205Y-60462281D01*
X90829795Y-60162319D02*
X90792300Y-60124824D01*
X90754805Y-60049833D01*
X90754805Y-59862357D01*
X90792300Y-59787367D01*
X90829795Y-59749871D01*
X90904786Y-59712376D01*
X90979776Y-59712376D01*
X91092262Y-59749871D01*
X91542205Y-60199814D01*
X91542205Y-59712376D01*
X78893005Y-63047033D02*
X78518052Y-63309500D01*
X78893005Y-63496976D02*
X78105605Y-63496976D01*
X78105605Y-63197014D01*
X78143100Y-63122023D01*
X78180595Y-63084528D01*
X78255586Y-63047033D01*
X78368071Y-63047033D01*
X78443062Y-63084528D01*
X78480557Y-63122023D01*
X78518052Y-63197014D01*
X78518052Y-63496976D01*
X78105605Y-62784566D02*
X78105605Y-62297128D01*
X78405567Y-62559595D01*
X78405567Y-62447109D01*
X78443062Y-62372119D01*
X78480557Y-62334623D01*
X78555548Y-62297128D01*
X78743024Y-62297128D01*
X78818014Y-62334623D01*
X78855510Y-62372119D01*
X78893005Y-62447109D01*
X78893005Y-62672081D01*
X78855510Y-62747071D01*
X78818014Y-62784566D01*
X78842205Y-57979733D02*
X78467252Y-58242200D01*
X78842205Y-58429676D02*
X78054805Y-58429676D01*
X78054805Y-58129714D01*
X78092300Y-58054723D01*
X78129795Y-58017228D01*
X78204786Y-57979733D01*
X78317271Y-57979733D01*
X78392262Y-58017228D01*
X78429757Y-58054723D01*
X78467252Y-58129714D01*
X78467252Y-58429676D01*
X78392262Y-57529790D02*
X78354767Y-57604781D01*
X78317271Y-57642276D01*
X78242281Y-57679771D01*
X78204786Y-57679771D01*
X78129795Y-57642276D01*
X78092300Y-57604781D01*
X78054805Y-57529790D01*
X78054805Y-57379809D01*
X78092300Y-57304819D01*
X78129795Y-57267323D01*
X78204786Y-57229828D01*
X78242281Y-57229828D01*
X78317271Y-57267323D01*
X78354767Y-57304819D01*
X78392262Y-57379809D01*
X78392262Y-57529790D01*
X78429757Y-57604781D01*
X78467252Y-57642276D01*
X78542243Y-57679771D01*
X78692224Y-57679771D01*
X78767214Y-57642276D01*
X78804710Y-57604781D01*
X78842205Y-57529790D01*
X78842205Y-57379809D01*
X78804710Y-57304819D01*
X78767214Y-57267323D01*
X78692224Y-57229828D01*
X78542243Y-57229828D01*
X78467252Y-57267323D01*
X78429757Y-57304819D01*
X78392262Y-57379809D01*
X77643567Y-65456405D02*
X77381100Y-65081452D01*
X77193624Y-65456405D02*
X77193624Y-64669005D01*
X77493586Y-64669005D01*
X77568577Y-64706500D01*
X77606072Y-64743995D01*
X77643567Y-64818986D01*
X77643567Y-64931471D01*
X77606072Y-65006462D01*
X77568577Y-65043957D01*
X77493586Y-65081452D01*
X77193624Y-65081452D01*
X78018519Y-65456405D02*
X78168500Y-65456405D01*
X78243491Y-65418910D01*
X78280986Y-65381414D01*
X78355977Y-65268929D01*
X78393472Y-65118948D01*
X78393472Y-64818986D01*
X78355977Y-64743995D01*
X78318481Y-64706500D01*
X78243491Y-64669005D01*
X78093510Y-64669005D01*
X78018519Y-64706500D01*
X77981024Y-64743995D01*
X77943529Y-64818986D01*
X77943529Y-65006462D01*
X77981024Y-65081452D01*
X78018519Y-65118948D01*
X78093510Y-65156443D01*
X78243491Y-65156443D01*
X78318481Y-65118948D01*
X78355977Y-65081452D01*
X78393472Y-65006462D01*
X77369005Y-60500986D02*
X76994052Y-60763453D01*
X77369005Y-60950929D02*
X76581605Y-60950929D01*
X76581605Y-60650967D01*
X76619100Y-60575976D01*
X76656595Y-60538481D01*
X76731586Y-60500986D01*
X76844071Y-60500986D01*
X76919062Y-60538481D01*
X76956557Y-60575976D01*
X76994052Y-60650967D01*
X76994052Y-60950929D01*
X77369005Y-59751081D02*
X77369005Y-60201024D01*
X77369005Y-59976053D02*
X76581605Y-59976053D01*
X76694090Y-60051043D01*
X76769081Y-60126034D01*
X76806576Y-60201024D01*
X76581605Y-59263643D02*
X76581605Y-59188652D01*
X76619100Y-59113662D01*
X76656595Y-59076167D01*
X76731586Y-59038671D01*
X76881567Y-59001176D01*
X77069043Y-59001176D01*
X77219024Y-59038671D01*
X77294014Y-59076167D01*
X77331510Y-59113662D01*
X77369005Y-59188652D01*
X77369005Y-59263643D01*
X77331510Y-59338633D01*
X77294014Y-59376129D01*
X77219024Y-59413624D01*
X77069043Y-59451119D01*
X76881567Y-59451119D01*
X76731586Y-59413624D01*
X76656595Y-59376129D01*
X76619100Y-59338633D01*
X76581605Y-59263643D01*
X91124314Y-70396705D02*
X90861847Y-70021752D01*
X90674371Y-70396705D02*
X90674371Y-69609305D01*
X90974333Y-69609305D01*
X91049324Y-69646800D01*
X91086819Y-69684295D01*
X91124314Y-69759286D01*
X91124314Y-69871771D01*
X91086819Y-69946762D01*
X91049324Y-69984257D01*
X90974333Y-70021752D01*
X90674371Y-70021752D01*
X91874219Y-70396705D02*
X91424276Y-70396705D01*
X91649247Y-70396705D02*
X91649247Y-69609305D01*
X91574257Y-69721790D01*
X91499266Y-69796781D01*
X91424276Y-69834276D01*
X92624124Y-70396705D02*
X92174181Y-70396705D01*
X92399152Y-70396705D02*
X92399152Y-69609305D01*
X92324162Y-69721790D01*
X92249171Y-69796781D01*
X92174181Y-69834276D01*
X95912214Y-54229605D02*
X95649747Y-53854652D01*
X95462271Y-54229605D02*
X95462271Y-53442205D01*
X95762233Y-53442205D01*
X95837224Y-53479700D01*
X95874719Y-53517195D01*
X95912214Y-53592186D01*
X95912214Y-53704671D01*
X95874719Y-53779662D01*
X95837224Y-53817157D01*
X95762233Y-53854652D01*
X95462271Y-53854652D01*
X96662119Y-54229605D02*
X96212176Y-54229605D01*
X96437147Y-54229605D02*
X96437147Y-53442205D01*
X96362157Y-53554690D01*
X96287166Y-53629681D01*
X96212176Y-53667176D01*
X96962081Y-53517195D02*
X96999576Y-53479700D01*
X97074567Y-53442205D01*
X97262043Y-53442205D01*
X97337033Y-53479700D01*
X97374529Y-53517195D01*
X97412024Y-53592186D01*
X97412024Y-53667176D01*
X97374529Y-53779662D01*
X96924586Y-54229605D01*
X97412024Y-54229605D01*
X92584814Y-58776205D02*
X92322347Y-58401252D01*
X92134871Y-58776205D02*
X92134871Y-57988805D01*
X92434833Y-57988805D01*
X92509824Y-58026300D01*
X92547319Y-58063795D01*
X92584814Y-58138786D01*
X92584814Y-58251271D01*
X92547319Y-58326262D01*
X92509824Y-58363757D01*
X92434833Y-58401252D01*
X92134871Y-58401252D01*
X93334719Y-58776205D02*
X92884776Y-58776205D01*
X93109747Y-58776205D02*
X93109747Y-57988805D01*
X93034757Y-58101290D01*
X92959766Y-58176281D01*
X92884776Y-58213776D01*
X93597186Y-57988805D02*
X94084624Y-57988805D01*
X93822157Y-58288767D01*
X93934643Y-58288767D01*
X94009633Y-58326262D01*
X94047129Y-58363757D01*
X94084624Y-58438748D01*
X94084624Y-58626224D01*
X94047129Y-58701214D01*
X94009633Y-58738710D01*
X93934643Y-58776205D01*
X93709671Y-58776205D01*
X93634681Y-58738710D01*
X93597186Y-58701214D01*
X92584814Y-55601205D02*
X92322347Y-55226252D01*
X92134871Y-55601205D02*
X92134871Y-54813805D01*
X92434833Y-54813805D01*
X92509824Y-54851300D01*
X92547319Y-54888795D01*
X92584814Y-54963786D01*
X92584814Y-55076271D01*
X92547319Y-55151262D01*
X92509824Y-55188757D01*
X92434833Y-55226252D01*
X92134871Y-55226252D01*
X93334719Y-55601205D02*
X92884776Y-55601205D01*
X93109747Y-55601205D02*
X93109747Y-54813805D01*
X93034757Y-54926290D01*
X92959766Y-55001281D01*
X92884776Y-55038776D01*
X94009633Y-55076271D02*
X94009633Y-55601205D01*
X93822157Y-54776310D02*
X93634681Y-55338738D01*
X94122119Y-55338738D01*
X95912214Y-55398005D02*
X95649747Y-55023052D01*
X95462271Y-55398005D02*
X95462271Y-54610605D01*
X95762233Y-54610605D01*
X95837224Y-54648100D01*
X95874719Y-54685595D01*
X95912214Y-54760586D01*
X95912214Y-54873071D01*
X95874719Y-54948062D01*
X95837224Y-54985557D01*
X95762233Y-55023052D01*
X95462271Y-55023052D01*
X96662119Y-55398005D02*
X96212176Y-55398005D01*
X96437147Y-55398005D02*
X96437147Y-54610605D01*
X96362157Y-54723090D01*
X96287166Y-54798081D01*
X96212176Y-54835576D01*
X97374529Y-54610605D02*
X96999576Y-54610605D01*
X96962081Y-54985557D01*
X96999576Y-54948062D01*
X97074567Y-54910567D01*
X97262043Y-54910567D01*
X97337033Y-54948062D01*
X97374529Y-54985557D01*
X97412024Y-55060548D01*
X97412024Y-55248024D01*
X97374529Y-55323014D01*
X97337033Y-55360510D01*
X97262043Y-55398005D01*
X97074567Y-55398005D01*
X96999576Y-55360510D01*
X96962081Y-55323014D01*
D19*
X135616044Y-56085014D02*
X135616044Y-55323014D01*
X136414329Y-56012443D02*
X136378043Y-56048729D01*
X136269186Y-56085014D01*
X136196615Y-56085014D01*
X136087758Y-56048729D01*
X136015186Y-55976157D01*
X135978901Y-55903586D01*
X135942615Y-55758443D01*
X135942615Y-55649586D01*
X135978901Y-55504443D01*
X136015186Y-55431871D01*
X136087758Y-55359300D01*
X136196615Y-55323014D01*
X136269186Y-55323014D01*
X136378043Y-55359300D01*
X136414329Y-55395586D01*
X136668329Y-55323014D02*
X137140043Y-55323014D01*
X136886043Y-55613300D01*
X136994901Y-55613300D01*
X137067472Y-55649586D01*
X137103758Y-55685871D01*
X137140043Y-55758443D01*
X137140043Y-55939871D01*
X137103758Y-56012443D01*
X137067472Y-56048729D01*
X136994901Y-56085014D01*
X136777186Y-56085014D01*
X136704615Y-56048729D01*
X136668329Y-56012443D01*
D28*
X140631334Y-52124429D02*
X140885334Y-52160714D01*
X141308667Y-52160714D01*
X141478000Y-52124429D01*
X141562667Y-52088143D01*
X141647334Y-52015571D01*
X141647334Y-51943000D01*
X141562667Y-51870429D01*
X141478000Y-51834143D01*
X141308667Y-51797857D01*
X140970000Y-51761571D01*
X140800667Y-51725286D01*
X140716000Y-51689000D01*
X140631334Y-51616429D01*
X140631334Y-51543857D01*
X140716000Y-51471286D01*
X140800667Y-51435000D01*
X140970000Y-51398714D01*
X141393334Y-51398714D01*
X141647334Y-51435000D01*
X142748000Y-51797857D02*
X142748000Y-52160714D01*
X142155333Y-51398714D02*
X142748000Y-51797857D01*
X143340667Y-51398714D01*
X143848667Y-52124429D02*
X144102667Y-52160714D01*
X144526000Y-52160714D01*
X144695333Y-52124429D01*
X144780000Y-52088143D01*
X144864667Y-52015571D01*
X144864667Y-51943000D01*
X144780000Y-51870429D01*
X144695333Y-51834143D01*
X144526000Y-51797857D01*
X144187333Y-51761571D01*
X144018000Y-51725286D01*
X143933333Y-51689000D01*
X143848667Y-51616429D01*
X143848667Y-51543857D01*
X143933333Y-51471286D01*
X144018000Y-51435000D01*
X144187333Y-51398714D01*
X144610667Y-51398714D01*
X144864667Y-51435000D01*
X140716000Y-54954714D02*
X139869333Y-54954714D01*
X139869333Y-54192714D01*
X141647333Y-54192714D02*
X141986000Y-54192714D01*
X142155333Y-54229000D01*
X142324666Y-54301571D01*
X142409333Y-54446714D01*
X142409333Y-54700714D01*
X142324666Y-54845857D01*
X142155333Y-54918429D01*
X141986000Y-54954714D01*
X141647333Y-54954714D01*
X141478000Y-54918429D01*
X141308666Y-54845857D01*
X141224000Y-54700714D01*
X141224000Y-54446714D01*
X141308666Y-54301571D01*
X141478000Y-54229000D01*
X141647333Y-54192714D01*
X144187333Y-54882143D02*
X144102667Y-54918429D01*
X143848667Y-54954714D01*
X143679333Y-54954714D01*
X143425333Y-54918429D01*
X143256000Y-54845857D01*
X143171333Y-54773286D01*
X143086667Y-54628143D01*
X143086667Y-54519286D01*
X143171333Y-54374143D01*
X143256000Y-54301571D01*
X143425333Y-54229000D01*
X143679333Y-54192714D01*
X143848667Y-54192714D01*
X144102667Y-54229000D01*
X144187333Y-54265286D01*
X144949333Y-54954714D02*
X144949333Y-54192714D01*
X145965333Y-54954714D02*
X145203333Y-54519286D01*
X145965333Y-54192714D02*
X144949333Y-54628143D01*
X140099143Y-57839429D02*
X140316857Y-57875714D01*
X140679714Y-57875714D01*
X140824857Y-57839429D01*
X140897428Y-57803143D01*
X140970000Y-57730571D01*
X140970000Y-57658000D01*
X140897428Y-57585429D01*
X140824857Y-57549143D01*
X140679714Y-57512857D01*
X140389428Y-57476571D01*
X140244286Y-57440286D01*
X140171714Y-57404000D01*
X140099143Y-57331429D01*
X140099143Y-57258857D01*
X140171714Y-57186286D01*
X140244286Y-57150000D01*
X140389428Y-57113714D01*
X140752286Y-57113714D01*
X140970000Y-57150000D01*
X141913429Y-57512857D02*
X141913429Y-57875714D01*
X141405429Y-57113714D02*
X141913429Y-57512857D01*
X142421429Y-57113714D01*
X142929429Y-57875714D02*
X142929429Y-57113714D01*
X143800286Y-57875714D01*
X143800286Y-57113714D01*
X145396857Y-57803143D02*
X145324286Y-57839429D01*
X145106572Y-57875714D01*
X144961429Y-57875714D01*
X144743714Y-57839429D01*
X144598572Y-57766857D01*
X144526000Y-57694286D01*
X144453429Y-57549143D01*
X144453429Y-57440286D01*
X144526000Y-57295143D01*
X144598572Y-57222571D01*
X144743714Y-57150000D01*
X144961429Y-57113714D01*
X145106572Y-57113714D01*
X145324286Y-57150000D01*
X145396857Y-57186286D01*
D12*
X128779814Y-49378205D02*
X128517347Y-49003252D01*
X128329871Y-49378205D02*
X128329871Y-48590805D01*
X128629833Y-48590805D01*
X128704824Y-48628300D01*
X128742319Y-48665795D01*
X128779814Y-48740786D01*
X128779814Y-48853271D01*
X128742319Y-48928262D01*
X128704824Y-48965757D01*
X128629833Y-49003252D01*
X128329871Y-49003252D01*
X129529719Y-49378205D02*
X129079776Y-49378205D01*
X129304747Y-49378205D02*
X129304747Y-48590805D01*
X129229757Y-48703290D01*
X129154766Y-48778281D01*
X129079776Y-48815776D01*
X129979662Y-48928262D02*
X129904671Y-48890767D01*
X129867176Y-48853271D01*
X129829681Y-48778281D01*
X129829681Y-48740786D01*
X129867176Y-48665795D01*
X129904671Y-48628300D01*
X129979662Y-48590805D01*
X130129643Y-48590805D01*
X130204633Y-48628300D01*
X130242129Y-48665795D01*
X130279624Y-48740786D01*
X130279624Y-48778281D01*
X130242129Y-48853271D01*
X130204633Y-48890767D01*
X130129643Y-48928262D01*
X129979662Y-48928262D01*
X129904671Y-48965757D01*
X129867176Y-49003252D01*
X129829681Y-49078243D01*
X129829681Y-49228224D01*
X129867176Y-49303214D01*
X129904671Y-49340710D01*
X129979662Y-49378205D01*
X130129643Y-49378205D01*
X130204633Y-49340710D01*
X130242129Y-49303214D01*
X130279624Y-49228224D01*
X130279624Y-49078243D01*
X130242129Y-49003252D01*
X130204633Y-48965757D01*
X130129643Y-48928262D01*
X133960205Y-55116186D02*
X133585252Y-55378653D01*
X133960205Y-55566129D02*
X133172805Y-55566129D01*
X133172805Y-55266167D01*
X133210300Y-55191176D01*
X133247795Y-55153681D01*
X133322786Y-55116186D01*
X133435271Y-55116186D01*
X133510262Y-55153681D01*
X133547757Y-55191176D01*
X133585252Y-55266167D01*
X133585252Y-55566129D01*
X133247795Y-54816224D02*
X133210300Y-54778729D01*
X133172805Y-54703738D01*
X133172805Y-54516262D01*
X133210300Y-54441272D01*
X133247795Y-54403776D01*
X133322786Y-54366281D01*
X133397776Y-54366281D01*
X133510262Y-54403776D01*
X133960205Y-54853719D01*
X133960205Y-54366281D01*
X133960205Y-53616376D02*
X133960205Y-54066319D01*
X133960205Y-53841348D02*
X133172805Y-53841348D01*
X133285290Y-53916338D01*
X133360281Y-53991329D01*
X133397776Y-54066319D01*
X132690205Y-55116186D02*
X132315252Y-55378653D01*
X132690205Y-55566129D02*
X131902805Y-55566129D01*
X131902805Y-55266167D01*
X131940300Y-55191176D01*
X131977795Y-55153681D01*
X132052786Y-55116186D01*
X132165271Y-55116186D01*
X132240262Y-55153681D01*
X132277757Y-55191176D01*
X132315252Y-55266167D01*
X132315252Y-55566129D01*
X131977795Y-54816224D02*
X131940300Y-54778729D01*
X131902805Y-54703738D01*
X131902805Y-54516262D01*
X131940300Y-54441272D01*
X131977795Y-54403776D01*
X132052786Y-54366281D01*
X132127776Y-54366281D01*
X132240262Y-54403776D01*
X132690205Y-54853719D01*
X132690205Y-54366281D01*
X131977795Y-54066319D02*
X131940300Y-54028824D01*
X131902805Y-53953833D01*
X131902805Y-53766357D01*
X131940300Y-53691367D01*
X131977795Y-53653871D01*
X132052786Y-53616376D01*
X132127776Y-53616376D01*
X132240262Y-53653871D01*
X132690205Y-54103814D01*
X132690205Y-53616376D01*
X128779814Y-50394205D02*
X128517347Y-50019252D01*
X128329871Y-50394205D02*
X128329871Y-49606805D01*
X128629833Y-49606805D01*
X128704824Y-49644300D01*
X128742319Y-49681795D01*
X128779814Y-49756786D01*
X128779814Y-49869271D01*
X128742319Y-49944262D01*
X128704824Y-49981757D01*
X128629833Y-50019252D01*
X128329871Y-50019252D01*
X129529719Y-50394205D02*
X129079776Y-50394205D01*
X129304747Y-50394205D02*
X129304747Y-49606805D01*
X129229757Y-49719290D01*
X129154766Y-49794281D01*
X129079776Y-49831776D01*
X129792186Y-49606805D02*
X130317119Y-49606805D01*
X129979662Y-50394205D01*
X128779814Y-51410205D02*
X128517347Y-51035252D01*
X128329871Y-51410205D02*
X128329871Y-50622805D01*
X128629833Y-50622805D01*
X128704824Y-50660300D01*
X128742319Y-50697795D01*
X128779814Y-50772786D01*
X128779814Y-50885271D01*
X128742319Y-50960262D01*
X128704824Y-50997757D01*
X128629833Y-51035252D01*
X128329871Y-51035252D01*
X129079776Y-50697795D02*
X129117271Y-50660300D01*
X129192262Y-50622805D01*
X129379738Y-50622805D01*
X129454728Y-50660300D01*
X129492224Y-50697795D01*
X129529719Y-50772786D01*
X129529719Y-50847776D01*
X129492224Y-50960262D01*
X129042281Y-51410205D01*
X129529719Y-51410205D01*
X130017157Y-50622805D02*
X130092148Y-50622805D01*
X130167138Y-50660300D01*
X130204633Y-50697795D01*
X130242129Y-50772786D01*
X130279624Y-50922767D01*
X130279624Y-51110243D01*
X130242129Y-51260224D01*
X130204633Y-51335214D01*
X130167138Y-51372710D01*
X130092148Y-51410205D01*
X130017157Y-51410205D01*
X129942167Y-51372710D01*
X129904671Y-51335214D01*
X129867176Y-51260224D01*
X129829681Y-51110243D01*
X129829681Y-50922767D01*
X129867176Y-50772786D01*
X129904671Y-50697795D01*
X129942167Y-50660300D01*
X130017157Y-50622805D01*
X130912205Y-58680652D02*
X130124805Y-58680652D01*
X130837214Y-57855757D02*
X130874710Y-57893252D01*
X130912205Y-58005738D01*
X130912205Y-58080728D01*
X130874710Y-58193214D01*
X130799719Y-58268205D01*
X130724729Y-58305700D01*
X130574748Y-58343195D01*
X130462262Y-58343195D01*
X130312281Y-58305700D01*
X130237290Y-58268205D01*
X130162300Y-58193214D01*
X130124805Y-58080728D01*
X130124805Y-58005738D01*
X130162300Y-57893252D01*
X130199795Y-57855757D01*
X130199795Y-57555795D02*
X130162300Y-57518300D01*
X130124805Y-57443309D01*
X130124805Y-57255833D01*
X130162300Y-57180843D01*
X130199795Y-57143347D01*
X130274786Y-57105852D01*
X130349776Y-57105852D01*
X130462262Y-57143347D01*
X130912205Y-57593290D01*
X130912205Y-57105852D01*
X141124214Y-71118186D02*
X141161710Y-71155681D01*
X141199205Y-71268167D01*
X141199205Y-71343157D01*
X141161710Y-71455643D01*
X141086719Y-71530634D01*
X141011729Y-71568129D01*
X140861748Y-71605624D01*
X140749262Y-71605624D01*
X140599281Y-71568129D01*
X140524290Y-71530634D01*
X140449300Y-71455643D01*
X140411805Y-71343157D01*
X140411805Y-71268167D01*
X140449300Y-71155681D01*
X140486795Y-71118186D01*
X140486795Y-70818224D02*
X140449300Y-70780729D01*
X140411805Y-70705738D01*
X140411805Y-70518262D01*
X140449300Y-70443272D01*
X140486795Y-70405776D01*
X140561786Y-70368281D01*
X140636776Y-70368281D01*
X140749262Y-70405776D01*
X141199205Y-70855719D01*
X141199205Y-70368281D01*
X140411805Y-70105814D02*
X140411805Y-69618376D01*
X140711767Y-69880843D01*
X140711767Y-69768357D01*
X140749262Y-69693367D01*
X140786757Y-69655871D01*
X140861748Y-69618376D01*
X141049224Y-69618376D01*
X141124214Y-69655871D01*
X141161710Y-69693367D01*
X141199205Y-69768357D01*
X141199205Y-69993329D01*
X141161710Y-70068319D01*
X141124214Y-70105814D01*
X132869214Y-59567233D02*
X132906710Y-59604728D01*
X132944205Y-59717214D01*
X132944205Y-59792204D01*
X132906710Y-59904690D01*
X132831719Y-59979681D01*
X132756729Y-60017176D01*
X132606748Y-60054671D01*
X132494262Y-60054671D01*
X132344281Y-60017176D01*
X132269290Y-59979681D01*
X132194300Y-59904690D01*
X132156805Y-59792204D01*
X132156805Y-59717214D01*
X132194300Y-59604728D01*
X132231795Y-59567233D01*
X132419271Y-58892319D02*
X132944205Y-58892319D01*
X132119310Y-59079795D02*
X132681738Y-59267271D01*
X132681738Y-58779833D01*
X132712581Y-70815805D02*
X133237514Y-71603205D01*
X133237514Y-70815805D02*
X132712581Y-71603205D01*
X133499981Y-70890795D02*
X133537476Y-70853300D01*
X133612467Y-70815805D01*
X133799943Y-70815805D01*
X133874933Y-70853300D01*
X133912429Y-70890795D01*
X133949924Y-70965786D01*
X133949924Y-71040776D01*
X133912429Y-71153262D01*
X133462486Y-71603205D01*
X133949924Y-71603205D01*
X154433814Y-72671214D02*
X154396319Y-72708710D01*
X154283833Y-72746205D01*
X154208843Y-72746205D01*
X154096357Y-72708710D01*
X154021366Y-72633719D01*
X153983871Y-72558729D01*
X153946376Y-72408748D01*
X153946376Y-72296262D01*
X153983871Y-72146281D01*
X154021366Y-72071290D01*
X154096357Y-71996300D01*
X154208843Y-71958805D01*
X154283833Y-71958805D01*
X154396319Y-71996300D01*
X154433814Y-72033795D01*
X154733776Y-72033795D02*
X154771271Y-71996300D01*
X154846262Y-71958805D01*
X155033738Y-71958805D01*
X155108728Y-71996300D01*
X155146224Y-72033795D01*
X155183719Y-72108786D01*
X155183719Y-72183776D01*
X155146224Y-72296262D01*
X154696281Y-72746205D01*
X155183719Y-72746205D01*
X155896129Y-71958805D02*
X155521176Y-71958805D01*
X155483681Y-72333757D01*
X155521176Y-72296262D01*
X155596167Y-72258767D01*
X155783643Y-72258767D01*
X155858633Y-72296262D01*
X155896129Y-72333757D01*
X155933624Y-72408748D01*
X155933624Y-72596224D01*
X155896129Y-72671214D01*
X155858633Y-72708710D01*
X155783643Y-72746205D01*
X155596167Y-72746205D01*
X155521176Y-72708710D01*
X155483681Y-72671214D01*
D19*
X69868143Y-65042143D02*
X69831857Y-65078429D01*
X69723000Y-65114714D01*
X69650429Y-65114714D01*
X69541572Y-65078429D01*
X69469000Y-65005857D01*
X69432715Y-64933286D01*
X69396429Y-64788143D01*
X69396429Y-64679286D01*
X69432715Y-64534143D01*
X69469000Y-64461571D01*
X69541572Y-64389000D01*
X69650429Y-64352714D01*
X69723000Y-64352714D01*
X69831857Y-64389000D01*
X69868143Y-64425286D01*
X70158429Y-64425286D02*
X70194715Y-64389000D01*
X70267286Y-64352714D01*
X70448715Y-64352714D01*
X70521286Y-64389000D01*
X70557572Y-64425286D01*
X70593857Y-64497857D01*
X70593857Y-64570429D01*
X70557572Y-64679286D01*
X70122143Y-65114714D01*
X70593857Y-65114714D01*
X71029286Y-64679286D02*
X70956714Y-64643000D01*
X70920429Y-64606714D01*
X70884143Y-64534143D01*
X70884143Y-64497857D01*
X70920429Y-64425286D01*
X70956714Y-64389000D01*
X71029286Y-64352714D01*
X71174429Y-64352714D01*
X71247000Y-64389000D01*
X71283286Y-64425286D01*
X71319571Y-64497857D01*
X71319571Y-64534143D01*
X71283286Y-64606714D01*
X71247000Y-64643000D01*
X71174429Y-64679286D01*
X71029286Y-64679286D01*
X70956714Y-64715571D01*
X70920429Y-64751857D01*
X70884143Y-64824429D01*
X70884143Y-64969571D01*
X70920429Y-65042143D01*
X70956714Y-65078429D01*
X71029286Y-65114714D01*
X71174429Y-65114714D01*
X71247000Y-65078429D01*
X71283286Y-65042143D01*
X71319571Y-64969571D01*
X71319571Y-64824429D01*
X71283286Y-64751857D01*
X71247000Y-64715571D01*
X71174429Y-64679286D01*
D12*
X148871214Y-55370186D02*
X148908710Y-55407681D01*
X148946205Y-55520167D01*
X148946205Y-55595157D01*
X148908710Y-55707643D01*
X148833719Y-55782634D01*
X148758729Y-55820129D01*
X148608748Y-55857624D01*
X148496262Y-55857624D01*
X148346281Y-55820129D01*
X148271290Y-55782634D01*
X148196300Y-55707643D01*
X148158805Y-55595157D01*
X148158805Y-55520167D01*
X148196300Y-55407681D01*
X148233795Y-55370186D01*
X148158805Y-55107719D02*
X148158805Y-54620281D01*
X148458767Y-54882748D01*
X148458767Y-54770262D01*
X148496262Y-54695272D01*
X148533757Y-54657776D01*
X148608748Y-54620281D01*
X148796224Y-54620281D01*
X148871214Y-54657776D01*
X148908710Y-54695272D01*
X148946205Y-54770262D01*
X148946205Y-54995234D01*
X148908710Y-55070224D01*
X148871214Y-55107719D01*
X148158805Y-53907871D02*
X148158805Y-54282824D01*
X148533757Y-54320319D01*
X148496262Y-54282824D01*
X148458767Y-54207833D01*
X148458767Y-54020357D01*
X148496262Y-53945367D01*
X148533757Y-53907871D01*
X148608748Y-53870376D01*
X148796224Y-53870376D01*
X148871214Y-53907871D01*
X148908710Y-53945367D01*
X148946205Y-54020357D01*
X148946205Y-54207833D01*
X148908710Y-54282824D01*
X148871214Y-54320319D01*
D19*
X63844714Y-64497856D02*
X63082714Y-64497856D01*
X63772143Y-63699571D02*
X63808429Y-63735857D01*
X63844714Y-63844714D01*
X63844714Y-63917285D01*
X63808429Y-64026142D01*
X63735857Y-64098714D01*
X63663286Y-64134999D01*
X63518143Y-64171285D01*
X63409286Y-64171285D01*
X63264143Y-64134999D01*
X63191571Y-64098714D01*
X63119000Y-64026142D01*
X63082714Y-63917285D01*
X63082714Y-63844714D01*
X63119000Y-63735857D01*
X63155286Y-63699571D01*
X63336714Y-63046428D02*
X63844714Y-63046428D01*
X63046429Y-63227857D02*
X63590714Y-63409285D01*
X63590714Y-62937571D01*
D12*
X146914205Y-75061233D02*
X146539252Y-75323700D01*
X146914205Y-75511176D02*
X146126805Y-75511176D01*
X146126805Y-75211214D01*
X146164300Y-75136223D01*
X146201795Y-75098728D01*
X146276786Y-75061233D01*
X146389271Y-75061233D01*
X146464262Y-75098728D01*
X146501757Y-75136223D01*
X146539252Y-75211214D01*
X146539252Y-75511176D01*
X146201795Y-74761271D02*
X146164300Y-74723776D01*
X146126805Y-74648785D01*
X146126805Y-74461309D01*
X146164300Y-74386319D01*
X146201795Y-74348823D01*
X146276786Y-74311328D01*
X146351776Y-74311328D01*
X146464262Y-74348823D01*
X146914205Y-74798766D01*
X146914205Y-74311328D01*
X148692205Y-75061233D02*
X148317252Y-75323700D01*
X148692205Y-75511176D02*
X147904805Y-75511176D01*
X147904805Y-75211214D01*
X147942300Y-75136223D01*
X147979795Y-75098728D01*
X148054786Y-75061233D01*
X148167271Y-75061233D01*
X148242262Y-75098728D01*
X148279757Y-75136223D01*
X148317252Y-75211214D01*
X148317252Y-75511176D01*
X147904805Y-74348823D02*
X147904805Y-74723776D01*
X148279757Y-74761271D01*
X148242262Y-74723776D01*
X148204767Y-74648785D01*
X148204767Y-74461309D01*
X148242262Y-74386319D01*
X148279757Y-74348823D01*
X148354748Y-74311328D01*
X148542224Y-74311328D01*
X148617214Y-74348823D01*
X148654710Y-74386319D01*
X148692205Y-74461309D01*
X148692205Y-74648785D01*
X148654710Y-74723776D01*
X148617214Y-74761271D01*
X150216205Y-75944186D02*
X149841252Y-76206653D01*
X150216205Y-76394129D02*
X149428805Y-76394129D01*
X149428805Y-76094167D01*
X149466300Y-76019176D01*
X149503795Y-75981681D01*
X149578786Y-75944186D01*
X149691271Y-75944186D01*
X149766262Y-75981681D01*
X149803757Y-76019176D01*
X149841252Y-76094167D01*
X149841252Y-76394129D01*
X150216205Y-75194281D02*
X150216205Y-75644224D01*
X150216205Y-75419253D02*
X149428805Y-75419253D01*
X149541290Y-75494243D01*
X149616281Y-75569234D01*
X149653776Y-75644224D01*
X149428805Y-74519367D02*
X149428805Y-74669348D01*
X149466300Y-74744338D01*
X149503795Y-74781833D01*
X149616281Y-74856824D01*
X149766262Y-74894319D01*
X150066224Y-74894319D01*
X150141214Y-74856824D01*
X150178710Y-74819329D01*
X150216205Y-74744338D01*
X150216205Y-74594357D01*
X150178710Y-74519367D01*
X150141214Y-74481871D01*
X150066224Y-74444376D01*
X149878748Y-74444376D01*
X149803757Y-74481871D01*
X149766262Y-74519367D01*
X149728767Y-74594357D01*
X149728767Y-74744338D01*
X149766262Y-74819329D01*
X149803757Y-74856824D01*
X149878748Y-74894319D01*
X147067814Y-57760205D02*
X146805347Y-57385252D01*
X146617871Y-57760205D02*
X146617871Y-56972805D01*
X146917833Y-56972805D01*
X146992824Y-57010300D01*
X147030319Y-57047795D01*
X147067814Y-57122786D01*
X147067814Y-57235271D01*
X147030319Y-57310262D01*
X146992824Y-57347757D01*
X146917833Y-57385252D01*
X146617871Y-57385252D01*
X147367776Y-57047795D02*
X147405271Y-57010300D01*
X147480262Y-56972805D01*
X147667738Y-56972805D01*
X147742728Y-57010300D01*
X147780224Y-57047795D01*
X147817719Y-57122786D01*
X147817719Y-57197776D01*
X147780224Y-57310262D01*
X147330281Y-57760205D01*
X147817719Y-57760205D01*
X148080186Y-56972805D02*
X148567624Y-56972805D01*
X148305157Y-57272767D01*
X148417643Y-57272767D01*
X148492633Y-57310262D01*
X148530129Y-57347757D01*
X148567624Y-57422748D01*
X148567624Y-57610224D01*
X148530129Y-57685214D01*
X148492633Y-57722710D01*
X148417643Y-57760205D01*
X148192671Y-57760205D01*
X148117681Y-57722710D01*
X148080186Y-57685214D01*
D19*
X58256714Y-68307857D02*
X57893857Y-68561857D01*
X58256714Y-68743285D02*
X57494714Y-68743285D01*
X57494714Y-68453000D01*
X57531000Y-68380428D01*
X57567286Y-68344143D01*
X57639857Y-68307857D01*
X57748714Y-68307857D01*
X57821286Y-68344143D01*
X57857571Y-68380428D01*
X57893857Y-68453000D01*
X57893857Y-68743285D01*
X57567286Y-68017571D02*
X57531000Y-67981285D01*
X57494714Y-67908714D01*
X57494714Y-67727285D01*
X57531000Y-67654714D01*
X57567286Y-67618428D01*
X57639857Y-67582143D01*
X57712429Y-67582143D01*
X57821286Y-67618428D01*
X58256714Y-68053857D01*
X58256714Y-67582143D01*
X57748714Y-66929000D02*
X58256714Y-66929000D01*
X57458429Y-67110429D02*
X58002714Y-67291857D01*
X58002714Y-66820143D01*
X59708143Y-68416714D02*
X59454143Y-68053857D01*
X59272715Y-68416714D02*
X59272715Y-67654714D01*
X59563000Y-67654714D01*
X59635572Y-67691000D01*
X59671857Y-67727286D01*
X59708143Y-67799857D01*
X59708143Y-67908714D01*
X59671857Y-67981286D01*
X59635572Y-68017571D01*
X59563000Y-68053857D01*
X59272715Y-68053857D01*
X59998429Y-67727286D02*
X60034715Y-67691000D01*
X60107286Y-67654714D01*
X60288715Y-67654714D01*
X60361286Y-67691000D01*
X60397572Y-67727286D01*
X60433857Y-67799857D01*
X60433857Y-67872429D01*
X60397572Y-67981286D01*
X59962143Y-68416714D01*
X60433857Y-68416714D01*
X61123286Y-67654714D02*
X60760429Y-67654714D01*
X60724143Y-68017571D01*
X60760429Y-67981286D01*
X60833000Y-67945000D01*
X61014429Y-67945000D01*
X61087000Y-67981286D01*
X61123286Y-68017571D01*
X61159571Y-68090143D01*
X61159571Y-68271571D01*
X61123286Y-68344143D01*
X61087000Y-68380429D01*
X61014429Y-68416714D01*
X60833000Y-68416714D01*
X60760429Y-68380429D01*
X60724143Y-68344143D01*
D12*
X115280796Y-56214805D02*
X115280796Y-56852224D01*
X115318291Y-56927214D01*
X115355787Y-56964710D01*
X115430777Y-57002205D01*
X115580758Y-57002205D01*
X115655749Y-56964710D01*
X115693244Y-56927214D01*
X115730739Y-56852224D01*
X115730739Y-56214805D01*
X116068196Y-56289795D02*
X116105691Y-56252300D01*
X116180682Y-56214805D01*
X116368158Y-56214805D01*
X116443148Y-56252300D01*
X116480644Y-56289795D01*
X116518139Y-56364786D01*
X116518139Y-56439776D01*
X116480644Y-56552262D01*
X116030701Y-57002205D01*
X116518139Y-57002205D01*
D19*
X54374143Y-63264143D02*
X54337857Y-63300429D01*
X54229000Y-63336714D01*
X54156429Y-63336714D01*
X54047572Y-63300429D01*
X53975000Y-63227857D01*
X53938715Y-63155286D01*
X53902429Y-63010143D01*
X53902429Y-62901286D01*
X53938715Y-62756143D01*
X53975000Y-62683571D01*
X54047572Y-62611000D01*
X54156429Y-62574714D01*
X54229000Y-62574714D01*
X54337857Y-62611000D01*
X54374143Y-62647286D01*
X54628143Y-62574714D02*
X55099857Y-62574714D01*
X54845857Y-62865000D01*
X54954715Y-62865000D01*
X55027286Y-62901286D01*
X55063572Y-62937571D01*
X55099857Y-63010143D01*
X55099857Y-63191571D01*
X55063572Y-63264143D01*
X55027286Y-63300429D01*
X54954715Y-63336714D01*
X54737000Y-63336714D01*
X54664429Y-63300429D01*
X54628143Y-63264143D01*
X55571571Y-62574714D02*
X55644143Y-62574714D01*
X55716714Y-62611000D01*
X55753000Y-62647286D01*
X55789286Y-62719857D01*
X55825571Y-62865000D01*
X55825571Y-63046429D01*
X55789286Y-63191571D01*
X55753000Y-63264143D01*
X55716714Y-63300429D01*
X55644143Y-63336714D01*
X55571571Y-63336714D01*
X55499000Y-63300429D01*
X55462714Y-63264143D01*
X55426429Y-63191571D01*
X55390143Y-63046429D01*
X55390143Y-62865000D01*
X55426429Y-62719857D01*
X55462714Y-62647286D01*
X55499000Y-62611000D01*
X55571571Y-62574714D01*
X63082714Y-70085857D02*
X62719857Y-70339857D01*
X63082714Y-70521285D02*
X62320714Y-70521285D01*
X62320714Y-70231000D01*
X62357000Y-70158428D01*
X62393286Y-70122143D01*
X62465857Y-70085857D01*
X62574714Y-70085857D01*
X62647286Y-70122143D01*
X62683571Y-70158428D01*
X62719857Y-70231000D01*
X62719857Y-70521285D01*
X62393286Y-69795571D02*
X62357000Y-69759285D01*
X62320714Y-69686714D01*
X62320714Y-69505285D01*
X62357000Y-69432714D01*
X62393286Y-69396428D01*
X62465857Y-69360143D01*
X62538429Y-69360143D01*
X62647286Y-69396428D01*
X63082714Y-69831857D01*
X63082714Y-69360143D01*
X62320714Y-68707000D02*
X62320714Y-68852143D01*
X62357000Y-68924714D01*
X62393286Y-68961000D01*
X62502143Y-69033571D01*
X62647286Y-69069857D01*
X62937571Y-69069857D01*
X63010143Y-69033571D01*
X63046429Y-68997286D01*
X63082714Y-68924714D01*
X63082714Y-68779571D01*
X63046429Y-68707000D01*
X63010143Y-68670714D01*
X62937571Y-68634429D01*
X62756143Y-68634429D01*
X62683571Y-68670714D01*
X62647286Y-68707000D01*
X62611000Y-68779571D01*
X62611000Y-68924714D01*
X62647286Y-68997286D01*
X62683571Y-69033571D01*
X62756143Y-69069857D01*
D12*
X142267214Y-71118186D02*
X142304710Y-71155681D01*
X142342205Y-71268167D01*
X142342205Y-71343157D01*
X142304710Y-71455643D01*
X142229719Y-71530634D01*
X142154729Y-71568129D01*
X142004748Y-71605624D01*
X141892262Y-71605624D01*
X141742281Y-71568129D01*
X141667290Y-71530634D01*
X141592300Y-71455643D01*
X141554805Y-71343157D01*
X141554805Y-71268167D01*
X141592300Y-71155681D01*
X141629795Y-71118186D01*
X141554805Y-70855719D02*
X141554805Y-70368281D01*
X141854767Y-70630748D01*
X141854767Y-70518262D01*
X141892262Y-70443272D01*
X141929757Y-70405776D01*
X142004748Y-70368281D01*
X142192224Y-70368281D01*
X142267214Y-70405776D01*
X142304710Y-70443272D01*
X142342205Y-70518262D01*
X142342205Y-70743234D01*
X142304710Y-70818224D01*
X142267214Y-70855719D01*
X141554805Y-70105814D02*
X141554805Y-69618376D01*
X141854767Y-69880843D01*
X141854767Y-69768357D01*
X141892262Y-69693367D01*
X141929757Y-69655871D01*
X142004748Y-69618376D01*
X142192224Y-69618376D01*
X142267214Y-69655871D01*
X142304710Y-69693367D01*
X142342205Y-69768357D01*
X142342205Y-69993329D01*
X142304710Y-70068319D01*
X142267214Y-70105814D01*
X107779934Y-52834186D02*
X107817430Y-52871681D01*
X107854925Y-52984167D01*
X107854925Y-53059157D01*
X107817430Y-53171643D01*
X107742439Y-53246634D01*
X107667449Y-53284129D01*
X107517468Y-53321624D01*
X107404982Y-53321624D01*
X107255001Y-53284129D01*
X107180010Y-53246634D01*
X107105020Y-53171643D01*
X107067525Y-53059157D01*
X107067525Y-52984167D01*
X107105020Y-52871681D01*
X107142515Y-52834186D01*
X107142515Y-52534224D02*
X107105020Y-52496729D01*
X107067525Y-52421738D01*
X107067525Y-52234262D01*
X107105020Y-52159272D01*
X107142515Y-52121776D01*
X107217506Y-52084281D01*
X107292496Y-52084281D01*
X107404982Y-52121776D01*
X107854925Y-52571719D01*
X107854925Y-52084281D01*
X107329991Y-51409367D02*
X107854925Y-51409367D01*
X107030030Y-51596843D02*
X107592458Y-51784319D01*
X107592458Y-51296881D01*
D28*
X140377333Y-49239714D02*
X140377333Y-48477714D01*
X141054667Y-48477714D01*
X141224000Y-48514000D01*
X141308667Y-48550286D01*
X141393333Y-48622857D01*
X141393333Y-48731714D01*
X141308667Y-48804286D01*
X141224000Y-48840571D01*
X141054667Y-48876857D01*
X140377333Y-48876857D01*
X141986000Y-48477714D02*
X142409333Y-49239714D01*
X142748000Y-48695429D01*
X143086667Y-49239714D01*
X143510000Y-48477714D01*
X145203333Y-49239714D02*
X144610667Y-48876857D01*
X144187333Y-49239714D02*
X144187333Y-48477714D01*
X144864667Y-48477714D01*
X145034000Y-48514000D01*
X145118667Y-48550286D01*
X145203333Y-48622857D01*
X145203333Y-48731714D01*
X145118667Y-48804286D01*
X145034000Y-48840571D01*
X144864667Y-48876857D01*
X144187333Y-48876857D01*
D12*
X135637814Y-50521205D02*
X135375347Y-50146252D01*
X135187871Y-50521205D02*
X135187871Y-49733805D01*
X135487833Y-49733805D01*
X135562824Y-49771300D01*
X135600319Y-49808795D01*
X135637814Y-49883786D01*
X135637814Y-49996271D01*
X135600319Y-50071262D01*
X135562824Y-50108757D01*
X135487833Y-50146252D01*
X135187871Y-50146252D01*
X135937776Y-49808795D02*
X135975271Y-49771300D01*
X136050262Y-49733805D01*
X136237738Y-49733805D01*
X136312728Y-49771300D01*
X136350224Y-49808795D01*
X136387719Y-49883786D01*
X136387719Y-49958776D01*
X136350224Y-50071262D01*
X135900281Y-50521205D01*
X136387719Y-50521205D01*
X136650186Y-49733805D02*
X137175119Y-49733805D01*
X136837662Y-50521205D01*
D19*
X70049572Y-68670714D02*
X70049572Y-67908714D01*
X70231000Y-67908714D01*
X70339857Y-67945000D01*
X70412429Y-68017571D01*
X70448714Y-68090143D01*
X70485000Y-68235286D01*
X70485000Y-68344143D01*
X70448714Y-68489286D01*
X70412429Y-68561857D01*
X70339857Y-68634429D01*
X70231000Y-68670714D01*
X70049572Y-68670714D01*
X70739000Y-67908714D02*
X71210714Y-67908714D01*
X70956714Y-68199000D01*
X71065572Y-68199000D01*
X71138143Y-68235286D01*
X71174429Y-68271571D01*
X71210714Y-68344143D01*
X71210714Y-68525571D01*
X71174429Y-68598143D01*
X71138143Y-68634429D01*
X71065572Y-68670714D01*
X70847857Y-68670714D01*
X70775286Y-68634429D01*
X70739000Y-68598143D01*
X69795572Y-61812714D02*
X69795572Y-61050714D01*
X69977000Y-61050714D01*
X70085857Y-61087000D01*
X70158429Y-61159571D01*
X70194714Y-61232143D01*
X70231000Y-61377286D01*
X70231000Y-61486143D01*
X70194714Y-61631286D01*
X70158429Y-61703857D01*
X70085857Y-61776429D01*
X69977000Y-61812714D01*
X69795572Y-61812714D01*
X70884143Y-61304714D02*
X70884143Y-61812714D01*
X70702714Y-61014429D02*
X70521286Y-61558714D01*
X70993000Y-61558714D01*
X135817429Y-63082714D02*
X135817429Y-63699571D01*
X135853714Y-63772143D01*
X135890000Y-63808429D01*
X135962571Y-63844714D01*
X136107714Y-63844714D01*
X136180286Y-63808429D01*
X136216571Y-63772143D01*
X136252857Y-63699571D01*
X136252857Y-63082714D01*
X136543143Y-63082714D02*
X137014857Y-63082714D01*
X136760857Y-63373000D01*
X136869715Y-63373000D01*
X136942286Y-63409286D01*
X136978572Y-63445571D01*
X137014857Y-63518143D01*
X137014857Y-63699571D01*
X136978572Y-63772143D01*
X136942286Y-63808429D01*
X136869715Y-63844714D01*
X136652000Y-63844714D01*
X136579429Y-63808429D01*
X136543143Y-63772143D01*
X56769001Y-59526714D02*
X56406144Y-59526714D01*
X56406144Y-58764714D01*
X56950429Y-58764714D02*
X57422143Y-58764714D01*
X57168143Y-59055000D01*
X57277001Y-59055000D01*
X57349572Y-59091286D01*
X57385858Y-59127571D01*
X57422143Y-59200143D01*
X57422143Y-59381571D01*
X57385858Y-59454143D01*
X57349572Y-59490429D01*
X57277001Y-59526714D01*
X57059286Y-59526714D01*
X56986715Y-59490429D01*
X56950429Y-59454143D01*
D12*
X69623214Y-57402186D02*
X69660710Y-57439681D01*
X69698205Y-57552167D01*
X69698205Y-57627157D01*
X69660710Y-57739643D01*
X69585719Y-57814634D01*
X69510729Y-57852129D01*
X69360748Y-57889624D01*
X69248262Y-57889624D01*
X69098281Y-57852129D01*
X69023290Y-57814634D01*
X68948300Y-57739643D01*
X68910805Y-57627157D01*
X68910805Y-57552167D01*
X68948300Y-57439681D01*
X68985795Y-57402186D01*
X68910805Y-57139719D02*
X68910805Y-56652281D01*
X69210767Y-56914748D01*
X69210767Y-56802262D01*
X69248262Y-56727272D01*
X69285757Y-56689776D01*
X69360748Y-56652281D01*
X69548224Y-56652281D01*
X69623214Y-56689776D01*
X69660710Y-56727272D01*
X69698205Y-56802262D01*
X69698205Y-57027234D01*
X69660710Y-57102224D01*
X69623214Y-57139719D01*
X69698205Y-55902376D02*
X69698205Y-56352319D01*
X69698205Y-56127348D02*
X68910805Y-56127348D01*
X69023290Y-56202338D01*
X69098281Y-56277329D01*
X69135776Y-56352319D01*
X70639214Y-57402186D02*
X70676710Y-57439681D01*
X70714205Y-57552167D01*
X70714205Y-57627157D01*
X70676710Y-57739643D01*
X70601719Y-57814634D01*
X70526729Y-57852129D01*
X70376748Y-57889624D01*
X70264262Y-57889624D01*
X70114281Y-57852129D01*
X70039290Y-57814634D01*
X69964300Y-57739643D01*
X69926805Y-57627157D01*
X69926805Y-57552167D01*
X69964300Y-57439681D01*
X70001795Y-57402186D01*
X69926805Y-57139719D02*
X69926805Y-56652281D01*
X70226767Y-56914748D01*
X70226767Y-56802262D01*
X70264262Y-56727272D01*
X70301757Y-56689776D01*
X70376748Y-56652281D01*
X70564224Y-56652281D01*
X70639214Y-56689776D01*
X70676710Y-56727272D01*
X70714205Y-56802262D01*
X70714205Y-57027234D01*
X70676710Y-57102224D01*
X70639214Y-57139719D01*
X70001795Y-56352319D02*
X69964300Y-56314824D01*
X69926805Y-56239833D01*
X69926805Y-56052357D01*
X69964300Y-55977367D01*
X70001795Y-55939871D01*
X70076786Y-55902376D01*
X70151776Y-55902376D01*
X70264262Y-55939871D01*
X70714205Y-56389814D01*
X70714205Y-55902376D01*
X142775214Y-64260186D02*
X142812710Y-64297681D01*
X142850205Y-64410167D01*
X142850205Y-64485157D01*
X142812710Y-64597643D01*
X142737719Y-64672634D01*
X142662729Y-64710129D01*
X142512748Y-64747624D01*
X142400262Y-64747624D01*
X142250281Y-64710129D01*
X142175290Y-64672634D01*
X142100300Y-64597643D01*
X142062805Y-64485157D01*
X142062805Y-64410167D01*
X142100300Y-64297681D01*
X142137795Y-64260186D01*
X142137795Y-63960224D02*
X142100300Y-63922729D01*
X142062805Y-63847738D01*
X142062805Y-63660262D01*
X142100300Y-63585272D01*
X142137795Y-63547776D01*
X142212786Y-63510281D01*
X142287776Y-63510281D01*
X142400262Y-63547776D01*
X142850205Y-63997719D01*
X142850205Y-63510281D01*
X142850205Y-63135329D02*
X142850205Y-62985348D01*
X142812710Y-62910357D01*
X142775214Y-62872862D01*
X142662729Y-62797871D01*
X142512748Y-62760376D01*
X142212786Y-62760376D01*
X142137795Y-62797871D01*
X142100300Y-62835367D01*
X142062805Y-62910357D01*
X142062805Y-63060338D01*
X142100300Y-63135329D01*
X142137795Y-63172824D01*
X142212786Y-63210319D01*
X142400262Y-63210319D01*
X142475252Y-63172824D01*
X142512748Y-63135329D01*
X142550243Y-63060338D01*
X142550243Y-62910357D01*
X142512748Y-62835367D01*
X142475252Y-62797871D01*
X142400262Y-62760376D01*
D29*
X83195171Y-52069971D02*
X83172314Y-52093781D01*
X83103743Y-52117590D01*
X83058029Y-52117590D01*
X82989457Y-52093781D01*
X82943743Y-52046162D01*
X82920886Y-51998543D01*
X82898029Y-51903305D01*
X82898029Y-51831876D01*
X82920886Y-51736638D01*
X82943743Y-51689019D01*
X82989457Y-51641400D01*
X83058029Y-51617590D01*
X83103743Y-51617590D01*
X83172314Y-51641400D01*
X83195171Y-51665210D01*
X83675171Y-52069971D02*
X83652314Y-52093781D01*
X83583743Y-52117590D01*
X83538029Y-52117590D01*
X83469457Y-52093781D01*
X83423743Y-52046162D01*
X83400886Y-51998543D01*
X83378029Y-51903305D01*
X83378029Y-51831876D01*
X83400886Y-51736638D01*
X83423743Y-51689019D01*
X83469457Y-51641400D01*
X83538029Y-51617590D01*
X83583743Y-51617590D01*
X83652314Y-51641400D01*
X83675171Y-51665210D01*
D12*
X99055767Y-74270205D02*
X98680814Y-74270205D01*
X98680814Y-73482805D01*
X99730681Y-74270205D02*
X99280738Y-74270205D01*
X99505709Y-74270205D02*
X99505709Y-73482805D01*
X99430719Y-73595290D01*
X99355728Y-73670281D01*
X99280738Y-73707776D01*
X155570767Y-57633205D02*
X155195814Y-57633205D01*
X155195814Y-56845805D01*
X155795738Y-56920795D02*
X155833233Y-56883300D01*
X155908224Y-56845805D01*
X156095700Y-56845805D01*
X156170690Y-56883300D01*
X156208186Y-56920795D01*
X156245681Y-56995786D01*
X156245681Y-57070776D01*
X156208186Y-57183262D01*
X155758243Y-57633205D01*
X156245681Y-57633205D01*
X142850205Y-65790233D02*
X142850205Y-66165186D01*
X142062805Y-66165186D01*
X142325271Y-65190310D02*
X142850205Y-65190310D01*
X142025310Y-65377786D02*
X142587738Y-65565262D01*
X142587738Y-65077824D01*
X139066814Y-59792205D02*
X138804347Y-59417252D01*
X138616871Y-59792205D02*
X138616871Y-59004805D01*
X138916833Y-59004805D01*
X138991824Y-59042300D01*
X139029319Y-59079795D01*
X139066814Y-59154786D01*
X139066814Y-59267271D01*
X139029319Y-59342262D01*
X138991824Y-59379757D01*
X138916833Y-59417252D01*
X138616871Y-59417252D01*
X139366776Y-59079795D02*
X139404271Y-59042300D01*
X139479262Y-59004805D01*
X139666738Y-59004805D01*
X139741728Y-59042300D01*
X139779224Y-59079795D01*
X139816719Y-59154786D01*
X139816719Y-59229776D01*
X139779224Y-59342262D01*
X139329281Y-59792205D01*
X139816719Y-59792205D01*
X140266662Y-59342262D02*
X140191671Y-59304767D01*
X140154176Y-59267271D01*
X140116681Y-59192281D01*
X140116681Y-59154786D01*
X140154176Y-59079795D01*
X140191671Y-59042300D01*
X140266662Y-59004805D01*
X140416643Y-59004805D01*
X140491633Y-59042300D01*
X140529129Y-59079795D01*
X140566624Y-59154786D01*
X140566624Y-59192281D01*
X140529129Y-59267271D01*
X140491633Y-59304767D01*
X140416643Y-59342262D01*
X140266662Y-59342262D01*
X140191671Y-59379757D01*
X140154176Y-59417252D01*
X140116681Y-59492243D01*
X140116681Y-59642224D01*
X140154176Y-59717214D01*
X140191671Y-59754710D01*
X140266662Y-59792205D01*
X140416643Y-59792205D01*
X140491633Y-59754710D01*
X140529129Y-59717214D01*
X140566624Y-59642224D01*
X140566624Y-59492243D01*
X140529129Y-59417252D01*
X140491633Y-59379757D01*
X140416643Y-59342262D01*
X139219214Y-61974186D02*
X139256710Y-62011681D01*
X139294205Y-62124167D01*
X139294205Y-62199157D01*
X139256710Y-62311643D01*
X139181719Y-62386634D01*
X139106729Y-62424129D01*
X138956748Y-62461624D01*
X138844262Y-62461624D01*
X138694281Y-62424129D01*
X138619290Y-62386634D01*
X138544300Y-62311643D01*
X138506805Y-62199157D01*
X138506805Y-62124167D01*
X138544300Y-62011681D01*
X138581795Y-61974186D01*
X138506805Y-61711719D02*
X138506805Y-61224281D01*
X138806767Y-61486748D01*
X138806767Y-61374262D01*
X138844262Y-61299272D01*
X138881757Y-61261776D01*
X138956748Y-61224281D01*
X139144224Y-61224281D01*
X139219214Y-61261776D01*
X139256710Y-61299272D01*
X139294205Y-61374262D01*
X139294205Y-61599234D01*
X139256710Y-61674224D01*
X139219214Y-61711719D01*
X138769271Y-60549367D02*
X139294205Y-60549367D01*
X138469310Y-60736843D02*
X139031738Y-60924319D01*
X139031738Y-60436881D01*
X127662214Y-52703186D02*
X127699710Y-52740681D01*
X127737205Y-52853167D01*
X127737205Y-52928157D01*
X127699710Y-53040643D01*
X127624719Y-53115634D01*
X127549729Y-53153129D01*
X127399748Y-53190624D01*
X127287262Y-53190624D01*
X127137281Y-53153129D01*
X127062290Y-53115634D01*
X126987300Y-53040643D01*
X126949805Y-52928157D01*
X126949805Y-52853167D01*
X126987300Y-52740681D01*
X127024795Y-52703186D01*
X127024795Y-52403224D02*
X126987300Y-52365729D01*
X126949805Y-52290738D01*
X126949805Y-52103262D01*
X126987300Y-52028272D01*
X127024795Y-51990776D01*
X127099786Y-51953281D01*
X127174776Y-51953281D01*
X127287262Y-51990776D01*
X127737205Y-52440719D01*
X127737205Y-51953281D01*
X126949805Y-51278367D02*
X126949805Y-51428348D01*
X126987300Y-51503338D01*
X127024795Y-51540833D01*
X127137281Y-51615824D01*
X127287262Y-51653319D01*
X127587224Y-51653319D01*
X127662214Y-51615824D01*
X127699710Y-51578329D01*
X127737205Y-51503338D01*
X127737205Y-51353357D01*
X127699710Y-51278367D01*
X127662214Y-51240871D01*
X127587224Y-51203376D01*
X127399748Y-51203376D01*
X127324757Y-51240871D01*
X127287262Y-51278367D01*
X127249767Y-51353357D01*
X127249767Y-51503338D01*
X127287262Y-51578329D01*
X127324757Y-51615824D01*
X127399748Y-51653319D01*
X126519214Y-52703186D02*
X126556710Y-52740681D01*
X126594205Y-52853167D01*
X126594205Y-52928157D01*
X126556710Y-53040643D01*
X126481719Y-53115634D01*
X126406729Y-53153129D01*
X126256748Y-53190624D01*
X126144262Y-53190624D01*
X125994281Y-53153129D01*
X125919290Y-53115634D01*
X125844300Y-53040643D01*
X125806805Y-52928157D01*
X125806805Y-52853167D01*
X125844300Y-52740681D01*
X125881795Y-52703186D01*
X125881795Y-52403224D02*
X125844300Y-52365729D01*
X125806805Y-52290738D01*
X125806805Y-52103262D01*
X125844300Y-52028272D01*
X125881795Y-51990776D01*
X125956786Y-51953281D01*
X126031776Y-51953281D01*
X126144262Y-51990776D01*
X126594205Y-52440719D01*
X126594205Y-51953281D01*
X125806805Y-51690814D02*
X125806805Y-51165881D01*
X126594205Y-51503338D01*
%LPC*%
D30*
X158750000Y-60452000D03*
D31*
X158750000Y-57912000D03*
D32*
X163390000Y-54132000D03*
X159190000Y-54132000D03*
X159190000Y-51732000D03*
X163390000Y-51732000D03*
X161290000Y-55232000D03*
D33*
X161290000Y-52832000D03*
D32*
X161290000Y-50532000D03*
D34*
X150368000Y-60147000D03*
X151468000Y-60147000D03*
X152568000Y-60147000D03*
X153668000Y-60147000D03*
D35*
X154768000Y-60147000D03*
D34*
X149268000Y-60147000D03*
X148168000Y-60147000D03*
X147068000Y-60147000D03*
D35*
X145968000Y-60147000D03*
X145968000Y-69647000D03*
D34*
X147068000Y-69647000D03*
X148168000Y-69647000D03*
X149268000Y-69647000D03*
X150368000Y-69647000D03*
X151468000Y-69647000D03*
D35*
X152568000Y-69647000D03*
D34*
X153668000Y-69647000D03*
D35*
X154768000Y-69647000D03*
D30*
X67310000Y-74422000D03*
D31*
X64770000Y-74422000D03*
D30*
X67310000Y-50292000D03*
D31*
X64770000Y-50292000D03*
D36*
X124460000Y-73152000D03*
D37*
X124460000Y-75692000D03*
X121920000Y-73152000D03*
X121920000Y-75692000D03*
X119380000Y-73152000D03*
X119380000Y-75692000D03*
X116840000Y-73152000D03*
X116840000Y-75692000D03*
X114300000Y-73152000D03*
X114300000Y-75692000D03*
D36*
X143510000Y-74422000D03*
D37*
X140970000Y-74422000D03*
X138430000Y-74422000D03*
X135890000Y-74422000D03*
X133350000Y-74422000D03*
D38*
X107569000Y-57277000D03*
X106045000Y-57277000D03*
D39*
X117600000Y-66262000D03*
X117600000Y-64738000D03*
D38*
X122938000Y-56200000D03*
X124462000Y-56200000D03*
X129349500Y-72402700D03*
X127825500Y-72402700D03*
D40*
X98262440Y-61488320D03*
X98262440Y-61988700D03*
X98262440Y-62489080D03*
X98262440Y-62986920D03*
X98262440Y-63487300D03*
X98262440Y-59987180D03*
X98262440Y-60487560D03*
X98262440Y-60987940D03*
D41*
X99611180Y-66837560D03*
X100111560Y-66837560D03*
X100611940Y-66837560D03*
X101112320Y-66837560D03*
X101612700Y-66837560D03*
X102113080Y-66837560D03*
X102610920Y-66837560D03*
X103111300Y-66837560D03*
D40*
X106461560Y-65488820D03*
X106461560Y-64988440D03*
X106461560Y-64488060D03*
X106461560Y-63987680D03*
X106461560Y-63487300D03*
X106461560Y-62986920D03*
X106461560Y-62489080D03*
X106461560Y-61988700D03*
D41*
X105112820Y-58638440D03*
X104612440Y-58638440D03*
X104112060Y-58638440D03*
X103611680Y-58638440D03*
X103111300Y-58638440D03*
X102610920Y-58638440D03*
X102113080Y-58638440D03*
X101612700Y-58638440D03*
D40*
X98262440Y-63987680D03*
X98262440Y-64488060D03*
X98262440Y-64988440D03*
X98262440Y-65488820D03*
D41*
X103611680Y-66837560D03*
X104112060Y-66837560D03*
X104612440Y-66837560D03*
X105112820Y-66837560D03*
D40*
X106461560Y-61488320D03*
X106461560Y-60987940D03*
X106461560Y-60487560D03*
X106461560Y-59987180D03*
D41*
X101112320Y-58638440D03*
X100611940Y-58638440D03*
X100111560Y-58638440D03*
X99611180Y-58638440D03*
D42*
X112395000Y-64969000D03*
X112395000Y-61269000D03*
D39*
X110363000Y-69215000D03*
X110363000Y-67691000D03*
X115062000Y-60782200D03*
X115062000Y-62306200D03*
X115087400Y-65455800D03*
X115087400Y-63931800D03*
D43*
X109507020Y-72136000D03*
X107408980Y-72136000D03*
D39*
X104902000Y-70993000D03*
X104902000Y-72517000D03*
X106680000Y-67818000D03*
X106680000Y-69342000D03*
X109601000Y-62230000D03*
X109601000Y-63754000D03*
D44*
X88773000Y-66929000D03*
X88773000Y-65659000D03*
X88773000Y-64389000D03*
X88773000Y-63119000D03*
X88773000Y-61849000D03*
X88773000Y-60579000D03*
X88773000Y-59309000D03*
X88773000Y-58039000D03*
X79883000Y-58039000D03*
X79883000Y-59309000D03*
X79883000Y-60579000D03*
X79883000Y-61849000D03*
X79883000Y-63119000D03*
X79883000Y-64389000D03*
X79883000Y-65659000D03*
X79883000Y-66929000D03*
D45*
X112141000Y-67586860D03*
X112141000Y-70335140D03*
D39*
X101854000Y-72517000D03*
X101854000Y-70993000D03*
X103378000Y-72517000D03*
X103378000Y-70993000D03*
D46*
X96370140Y-72517000D03*
X93621860Y-72517000D03*
D38*
X101600000Y-69342000D03*
X103124000Y-69342000D03*
D39*
X100076000Y-70358000D03*
X100076000Y-68834000D03*
X98298000Y-70358000D03*
X98298000Y-68834000D03*
X95377000Y-64516000D03*
X95377000Y-62992000D03*
X95504000Y-59690000D03*
X95504000Y-61214000D03*
X96520000Y-67818000D03*
X96520000Y-66294000D03*
X94996000Y-66294000D03*
X94996000Y-67818000D03*
D47*
X82169000Y-71374000D03*
X86741000Y-71374000D03*
D38*
X93853000Y-62738000D03*
X92329000Y-62738000D03*
X93853000Y-61214000D03*
X92329000Y-61214000D03*
X92710000Y-66040000D03*
X91186000Y-66040000D03*
D39*
X90678000Y-64008000D03*
X90678000Y-62484000D03*
D48*
X73660000Y-71882000D03*
X73660000Y-69342000D03*
X73660000Y-66802000D03*
X73660000Y-64262000D03*
X73660000Y-61722000D03*
X73660000Y-59182000D03*
X73660000Y-56642000D03*
X73660000Y-54102000D03*
D39*
X77139800Y-62153800D03*
X77139800Y-63677800D03*
X77089000Y-58039000D03*
X77089000Y-56515000D03*
D38*
X78511400Y-66497200D03*
X76987400Y-66497200D03*
D39*
X78257400Y-59232800D03*
X78257400Y-60756800D03*
D38*
X92710000Y-67564000D03*
X91186000Y-67564000D03*
X95656400Y-56489600D03*
X97180400Y-56489600D03*
X92329000Y-64262000D03*
X93853000Y-64262000D03*
X93853000Y-59690000D03*
X92329000Y-59690000D03*
X95656400Y-58064400D03*
X97180400Y-58064400D03*
D49*
X137668000Y-58864500D03*
X137668000Y-56959500D03*
X135128000Y-58864500D03*
X137668000Y-57912000D03*
X135128000Y-56959500D03*
D43*
X143797020Y-52959000D03*
X141698980Y-52959000D03*
X143797020Y-55880000D03*
X141698980Y-55880000D03*
X143670020Y-58674000D03*
X141571980Y-58674000D03*
D38*
X128524000Y-52578000D03*
X130048000Y-52578000D03*
D39*
X133604000Y-56388000D03*
X133604000Y-57912000D03*
X132080000Y-56388000D03*
X132080000Y-57912000D03*
D38*
X128524000Y-54356000D03*
X130048000Y-54356000D03*
X128524000Y-56134000D03*
X130048000Y-56134000D03*
D50*
X131015000Y-64200000D03*
X131015000Y-63399900D03*
X131015000Y-62599800D03*
X131015000Y-61799700D03*
X131015000Y-60999600D03*
X131015000Y-60199500D03*
X131015000Y-65000100D03*
X131015000Y-65800200D03*
X131015000Y-66600300D03*
X131015000Y-67400400D03*
X131015000Y-68200500D03*
X119585000Y-64200000D03*
X119585000Y-63399900D03*
X119585000Y-62599800D03*
X119585000Y-61799700D03*
X119585000Y-60999600D03*
X119585000Y-60199500D03*
X119585000Y-65000100D03*
X119585000Y-65800200D03*
X119585000Y-66600300D03*
X119585000Y-67400400D03*
X119585000Y-68200500D03*
D51*
X125300000Y-58485000D03*
X125300000Y-69915000D03*
X124499900Y-58485000D03*
X124499900Y-69915000D03*
X123699800Y-69915000D03*
X123699800Y-58485000D03*
X122899700Y-58485000D03*
X122899700Y-69915000D03*
X122099600Y-69915000D03*
X122099600Y-58485000D03*
X121299500Y-58485000D03*
X121299500Y-69915000D03*
X126100100Y-69915000D03*
X126100100Y-58485000D03*
X126900200Y-58485000D03*
X126900200Y-69915000D03*
X127700300Y-69915000D03*
X127700300Y-58485000D03*
X128500400Y-58485000D03*
X128500400Y-69915000D03*
X129300500Y-69915000D03*
X129300500Y-58485000D03*
D39*
X141224000Y-67310000D03*
X141224000Y-68834000D03*
X133096000Y-62992000D03*
X133096000Y-61468000D03*
D52*
X138938000Y-64956000D03*
X136398000Y-64956000D03*
X133858000Y-64956000D03*
X133858000Y-69156000D03*
X136398000Y-69156000D03*
X138938000Y-69156000D03*
D53*
X152195000Y-53721000D03*
X155145000Y-53721000D03*
D54*
X153670000Y-55246000D03*
D38*
X153162000Y-72390000D03*
X151638000Y-72390000D03*
D55*
X64984000Y-64770000D03*
X68032000Y-64770000D03*
D39*
X150241000Y-55499000D03*
X150241000Y-53975000D03*
D56*
X62444000Y-62801500D03*
X62444000Y-63754000D03*
X62444000Y-64706500D03*
X59904000Y-64706500D03*
X59904000Y-63754000D03*
X59904000Y-62801500D03*
D39*
X146431000Y-73660000D03*
X146431000Y-72136000D03*
X148082000Y-73660000D03*
X148082000Y-72136000D03*
X149733000Y-73660000D03*
X149733000Y-72136000D03*
D38*
X149479000Y-57277000D03*
X151003000Y-57277000D03*
D39*
X57872000Y-64516000D03*
X57872000Y-66040000D03*
D38*
X59396000Y-66548000D03*
X60920000Y-66548000D03*
D57*
X119182720Y-52328000D03*
D58*
X112578720Y-52328000D03*
X112578720Y-54614000D03*
X112578720Y-50042000D03*
D38*
X56642000Y-62992000D03*
X58166000Y-62992000D03*
D39*
X62698000Y-66294000D03*
X62698000Y-67818000D03*
D45*
X143764000Y-69954140D03*
X143764000Y-67205860D03*
X109276720Y-50953860D03*
X109276720Y-53702140D03*
D43*
X143797020Y-50038000D03*
X141698980Y-50038000D03*
D38*
X137922000Y-50038000D03*
X139446000Y-50038000D03*
D59*
X65072260Y-68326000D03*
X68531740Y-68326000D03*
X64818260Y-61468000D03*
X68277740Y-61468000D03*
D56*
X135128000Y-62420500D03*
X135128000Y-61468000D03*
X135128000Y-60515500D03*
X137668000Y-60515500D03*
X137668000Y-61468000D03*
X137668000Y-62420500D03*
D60*
X60706000Y-60982000D03*
X60706000Y-57382000D03*
D61*
X55880000Y-71882000D03*
D62*
X65024000Y-55499000D03*
X65024000Y-58293000D03*
X67564000Y-55499000D03*
X67564000Y-58293000D03*
D39*
X143764000Y-62103000D03*
X143764000Y-60579000D03*
D38*
X99949000Y-72517000D03*
X98425000Y-72517000D03*
X152146000Y-57277000D03*
X153670000Y-57277000D03*
D39*
X143764000Y-63754000D03*
X143764000Y-65278000D03*
X141986000Y-60579000D03*
X141986000Y-62103000D03*
X140208000Y-60579000D03*
X140208000Y-62103000D03*
D32*
X51630000Y-54132000D03*
X47430000Y-54132000D03*
X47430000Y-51732000D03*
X51630000Y-51732000D03*
X49530000Y-55232000D03*
D33*
X49530000Y-52832000D03*
D32*
X49530000Y-50532000D03*
X51630000Y-73182000D03*
X47430000Y-73182000D03*
X47430000Y-70782000D03*
X51630000Y-70782000D03*
X49530000Y-74282000D03*
D33*
X49530000Y-71882000D03*
D32*
X49530000Y-69582000D03*
X163390000Y-73182000D03*
X159190000Y-73182000D03*
X159190000Y-70782000D03*
X163390000Y-70782000D03*
X161290000Y-74282000D03*
D33*
X161290000Y-71882000D03*
D32*
X161290000Y-69582000D03*
D45*
X124587000Y-50822860D03*
X124587000Y-53571140D03*
X122174000Y-50822860D03*
X122174000Y-53571140D03*
M02*
