G04 #@! TF.FileFunction,Copper,L2,Bot,Signal*
%FSLAX46Y46*%
G04 Gerber Fmt 4.6, Leading zero omitted, Abs format (unit mm)*
G04 Created by KiCad (PCBNEW 0.201503271001+5542~22~ubuntu14.04.1-product) date Sun 29 Mar 2015 17:31:28 NZDT*
%MOMM*%
G01*
G04 APERTURE LIST*
%ADD10C,0.150000*%
%ADD11C,0.300000*%
%ADD12C,1.000000*%
%ADD13C,6.600000*%
%ADD14R,2.032000X2.032000*%
%ADD15O,2.032000X2.032000*%
%ADD16R,1.727200X1.727200*%
%ADD17O,1.727200X1.727200*%
%ADD18O,3.302000X1.524000*%
%ADD19C,0.762000*%
%ADD20C,0.254000*%
%ADD21C,0.177800*%
G04 APERTURE END LIST*
D10*
D11*
X58428570Y-73821429D02*
X58357141Y-73750000D01*
X58214284Y-73678571D01*
X57857141Y-73678571D01*
X57714284Y-73750000D01*
X57642855Y-73821429D01*
X57571427Y-73964286D01*
X57571427Y-74107143D01*
X57642855Y-74321429D01*
X58499998Y-75178571D01*
X57571427Y-75178571D01*
X56642856Y-73678571D02*
X56499999Y-73678571D01*
X56357142Y-73750000D01*
X56285713Y-73821429D01*
X56214284Y-73964286D01*
X56142856Y-74250000D01*
X56142856Y-74607143D01*
X56214284Y-74892857D01*
X56285713Y-75035714D01*
X56357142Y-75107143D01*
X56499999Y-75178571D01*
X56642856Y-75178571D01*
X56785713Y-75107143D01*
X56857142Y-75035714D01*
X56928570Y-74892857D01*
X56999999Y-74607143D01*
X56999999Y-74250000D01*
X56928570Y-73964286D01*
X56857142Y-73821429D01*
X56785713Y-73750000D01*
X56642856Y-73678571D01*
X54714285Y-75178571D02*
X55571428Y-75178571D01*
X55142856Y-75178571D02*
X55142856Y-73678571D01*
X55285713Y-73892857D01*
X55428571Y-74035714D01*
X55571428Y-74107143D01*
X53357142Y-73678571D02*
X54071428Y-73678571D01*
X54142857Y-74392857D01*
X54071428Y-74321429D01*
X53928571Y-74250000D01*
X53571428Y-74250000D01*
X53428571Y-74321429D01*
X53357142Y-74392857D01*
X53285714Y-74535714D01*
X53285714Y-74892857D01*
X53357142Y-75035714D01*
X53428571Y-75107143D01*
X53571428Y-75178571D01*
X53928571Y-75178571D01*
X54071428Y-75107143D01*
X54142857Y-75035714D01*
X52357143Y-73678571D02*
X52214286Y-73678571D01*
X52071429Y-73750000D01*
X52000000Y-73821429D01*
X51928571Y-73964286D01*
X51857143Y-74250000D01*
X51857143Y-74607143D01*
X51928571Y-74892857D01*
X52000000Y-75035714D01*
X52071429Y-75107143D01*
X52214286Y-75178571D01*
X52357143Y-75178571D01*
X52500000Y-75107143D01*
X52571429Y-75035714D01*
X52642857Y-74892857D01*
X52714286Y-74607143D01*
X52714286Y-74250000D01*
X52642857Y-73964286D01*
X52571429Y-73821429D01*
X52500000Y-73750000D01*
X52357143Y-73678571D01*
X51357143Y-73678571D02*
X50428572Y-73678571D01*
X50928572Y-74250000D01*
X50714286Y-74250000D01*
X50571429Y-74321429D01*
X50500000Y-74392857D01*
X50428572Y-74535714D01*
X50428572Y-74892857D01*
X50500000Y-75035714D01*
X50571429Y-75107143D01*
X50714286Y-75178571D01*
X51142858Y-75178571D01*
X51285715Y-75107143D01*
X51357143Y-75035714D01*
X49857144Y-73821429D02*
X49785715Y-73750000D01*
X49642858Y-73678571D01*
X49285715Y-73678571D01*
X49142858Y-73750000D01*
X49071429Y-73821429D01*
X49000001Y-73964286D01*
X49000001Y-74107143D01*
X49071429Y-74321429D01*
X49928572Y-75178571D01*
X49000001Y-75178571D01*
X48285716Y-75178571D02*
X48000001Y-75178571D01*
X47857144Y-75107143D01*
X47785716Y-75035714D01*
X47642858Y-74821429D01*
X47571430Y-74535714D01*
X47571430Y-73964286D01*
X47642858Y-73821429D01*
X47714287Y-73750000D01*
X47857144Y-73678571D01*
X48142858Y-73678571D01*
X48285716Y-73750000D01*
X48357144Y-73821429D01*
X48428573Y-73964286D01*
X48428573Y-74321429D01*
X48357144Y-74464286D01*
X48285716Y-74535714D01*
X48142858Y-74607143D01*
X47857144Y-74607143D01*
X47714287Y-74535714D01*
X47642858Y-74464286D01*
X47571430Y-74321429D01*
D12*
X121480000Y-54132000D03*
X117280000Y-54132000D03*
X117280000Y-51732000D03*
X121480000Y-51732000D03*
X119380000Y-55232000D03*
D13*
X119380000Y-52832000D03*
D12*
X119380000Y-50532000D03*
D14*
X67310000Y-73660000D03*
D15*
X64770000Y-73660000D03*
D14*
X67310000Y-50800000D03*
D15*
X64770000Y-50800000D03*
D16*
X124460000Y-73152000D03*
D17*
X124460000Y-75692000D03*
X121920000Y-73152000D03*
X121920000Y-75692000D03*
X119380000Y-73152000D03*
X119380000Y-75692000D03*
X116840000Y-73152000D03*
X116840000Y-75692000D03*
X114300000Y-73152000D03*
X114300000Y-75692000D03*
D16*
X143002000Y-73914000D03*
D17*
X140462000Y-73914000D03*
X137922000Y-73914000D03*
X135382000Y-73914000D03*
X132842000Y-73914000D03*
D18*
X73787000Y-71390000D03*
X73787000Y-68850000D03*
X73787000Y-66310000D03*
X73787000Y-63770000D03*
X73787000Y-61230000D03*
X73787000Y-58690000D03*
X73787000Y-56150000D03*
X73787000Y-53610000D03*
D19*
X130048000Y-72644019D03*
X120802400Y-61798200D03*
X116403051Y-60484308D03*
X81330800Y-66903600D03*
X81407000Y-64363600D03*
X129540000Y-67310000D03*
X129540000Y-68326000D03*
X121036970Y-60234052D03*
X133858000Y-60198000D03*
X122010690Y-59944000D03*
X133604000Y-59182000D03*
X135763000Y-52451000D03*
X134747000Y-52451000D03*
X125476000Y-66547980D03*
X132403800Y-60694672D03*
X129480484Y-65218484D03*
X104457500Y-63182500D03*
X124460000Y-61468000D03*
X121412000Y-63754000D03*
X100329479Y-71246479D03*
X100606860Y-65552318D03*
X100027740Y-59923682D03*
X98298000Y-71247000D03*
X91567000Y-71501000D03*
X91567000Y-72517000D03*
X91567000Y-73533000D03*
X117200000Y-63900000D03*
X93472000Y-66040000D03*
X144526000Y-69596000D03*
X143510000Y-69596000D03*
X142494000Y-69596000D03*
X107188000Y-49530000D03*
X108204000Y-49530000D03*
X109220000Y-49530000D03*
X110236000Y-49530000D03*
X111252000Y-49530000D03*
X136652010Y-58420000D03*
X151638000Y-73914000D03*
X56388000Y-64516000D03*
X70104000Y-60452000D03*
X70104000Y-59690000D03*
X70104000Y-58928000D03*
X149860000Y-52832000D03*
X150622000Y-52832000D03*
X152146000Y-51562000D03*
X153670000Y-51562000D03*
X155194000Y-51562000D03*
X152654000Y-61976000D03*
X153670000Y-61976000D03*
X154686000Y-61976000D03*
X116840000Y-69850000D03*
X108712000Y-69342000D03*
X110998000Y-72136000D03*
X125476000Y-56642000D03*
X125476000Y-55753000D03*
X123698000Y-49276000D03*
X124460000Y-49276000D03*
X125222000Y-49276000D03*
X90424000Y-61976000D03*
X90170000Y-59309000D03*
X88519000Y-69596000D03*
X88519000Y-70612000D03*
X88519000Y-72390000D03*
X88519000Y-73406000D03*
X78648558Y-61849000D03*
X78232000Y-56845200D03*
D20*
X124460000Y-75692000D02*
X127000019Y-75692000D01*
X127000019Y-75692000D02*
X129667001Y-73025018D01*
X129667001Y-73025018D02*
X130048000Y-72644019D01*
D21*
X120802400Y-61798200D02*
X117716943Y-61798200D01*
X117716943Y-61798200D02*
X116784050Y-60865307D01*
X116784050Y-60865307D02*
X116403051Y-60484308D01*
X73787000Y-71390000D02*
X74279000Y-71390000D01*
X74279000Y-71390000D02*
X78765400Y-66903600D01*
X78765400Y-66903600D02*
X81330800Y-66903600D01*
X73787000Y-68850000D02*
X74676000Y-68850000D01*
X74676000Y-68850000D02*
X79162400Y-64363600D01*
X79162400Y-64363600D02*
X81407000Y-64363600D01*
D20*
X119380000Y-73152000D02*
X120650000Y-71882000D01*
X120650000Y-71882000D02*
X123190000Y-71882000D01*
X123190000Y-71882000D02*
X123951990Y-71120010D01*
X123951990Y-71120010D02*
X123951990Y-68326010D01*
X123951990Y-68326010D02*
X124968000Y-67310000D01*
X124968000Y-67310000D02*
X129540000Y-67310000D01*
X129540000Y-68326000D02*
X129001185Y-68326000D01*
X129001185Y-68326000D02*
X128524000Y-67848815D01*
X128524000Y-67848815D02*
X125191185Y-67848815D01*
X124460000Y-68580000D02*
X124460000Y-73152000D01*
X125191185Y-67848815D02*
X124460000Y-68580000D01*
X122427999Y-60706001D02*
X122936000Y-60198000D01*
X121508919Y-60706001D02*
X122427999Y-60706001D01*
X121036970Y-60234052D02*
X121508919Y-60706001D01*
X122936000Y-60198000D02*
X123443990Y-59690010D01*
X123443990Y-59690010D02*
X132842010Y-59690010D01*
X133350000Y-60198000D02*
X133858000Y-60198000D01*
X132842010Y-59690010D02*
X133350000Y-60198000D01*
X122772690Y-59182000D02*
X133604000Y-59182000D01*
X122010690Y-59944000D02*
X122772690Y-59182000D01*
X125222000Y-49276000D02*
X131572000Y-49276000D01*
X131572000Y-49276000D02*
X134747000Y-52451000D01*
X118110000Y-74422000D02*
X116840000Y-75692000D01*
X118516401Y-76555599D02*
X118364000Y-76708000D01*
X119380000Y-75692000D02*
X118516401Y-76555599D01*
X120243599Y-74828401D02*
X120243599Y-74574401D01*
X119837198Y-74422000D02*
X118364000Y-74422000D01*
X120243599Y-74828401D02*
X119837198Y-74422000D01*
X119380000Y-75692000D02*
X120243599Y-74828401D01*
X118110000Y-76962000D02*
X120650000Y-76962000D01*
X120650000Y-76962000D02*
X119380000Y-75692000D01*
X118110000Y-76962000D02*
X115620798Y-76962000D01*
X115620798Y-76962000D02*
X115595399Y-76936601D01*
X116840000Y-75692000D02*
X118110000Y-76962000D01*
X116840000Y-75692000D02*
X115595399Y-76936601D01*
X116840000Y-75438000D02*
X115839352Y-74437352D01*
X115839352Y-74437352D02*
X115570000Y-74168000D01*
X118110000Y-74422000D02*
X115854704Y-74422000D01*
X115854704Y-74422000D02*
X115839352Y-74437352D01*
X119380000Y-75692000D02*
X118110000Y-74422000D01*
X91567000Y-71501000D02*
X91567000Y-72517000D01*
X102087682Y-65552318D02*
X100606860Y-65552318D01*
X104457500Y-63182500D02*
X102087682Y-65552318D01*
X144526000Y-69596000D02*
X143510000Y-69596000D01*
D21*
X109220000Y-49530000D02*
X108204000Y-49530000D01*
X111252000Y-49530000D02*
X110236000Y-49530000D01*
D20*
X70104000Y-60452000D02*
X70104000Y-59690000D01*
X149860000Y-52832000D02*
X150622000Y-52832000D01*
X152146000Y-51562000D02*
X153670000Y-51562000D01*
X152654000Y-61976000D02*
X153670000Y-61976000D01*
X117200000Y-69490000D02*
X116840000Y-69850000D01*
X117200000Y-63900000D02*
X117200000Y-69490000D01*
X115570000Y-71120000D02*
X116840000Y-69850000D01*
X115570000Y-74168000D02*
X115570000Y-71120000D01*
X116840000Y-75692000D02*
X116840000Y-75438000D01*
X138938000Y-58420000D02*
X139136811Y-58420000D01*
X136652010Y-58420000D02*
X139136811Y-58420000D01*
X139954000Y-58420000D02*
X141097001Y-59563001D01*
X139136811Y-58420000D02*
X139954000Y-58420000D01*
X141097001Y-59563001D02*
X141478000Y-59563000D01*
X110236000Y-71120000D02*
X108712000Y-69596000D01*
X108712000Y-69596000D02*
X108712000Y-69342000D01*
X115595399Y-76936601D02*
X112242601Y-76936601D01*
X112242601Y-73888601D02*
X112242601Y-73126601D01*
X112242601Y-73126601D02*
X111632999Y-72516999D01*
X111632999Y-72516999D02*
X111252000Y-72136000D01*
X112242601Y-76936601D02*
X111252000Y-75946000D01*
X111252000Y-75946000D02*
X111252000Y-72674815D01*
X111252000Y-72674815D02*
X111252000Y-72136000D01*
X125476000Y-56642000D02*
X125476000Y-55753000D01*
X123698000Y-49276000D02*
X124460000Y-49276000D01*
D21*
X90170000Y-59309000D02*
X90170000Y-61722000D01*
X90170000Y-61722000D02*
X90424000Y-61976000D01*
D20*
X88519000Y-69596000D02*
X88519000Y-70612000D01*
X88519000Y-72390000D02*
X88519000Y-73406000D01*
D21*
X78232000Y-56845200D02*
X78648558Y-57261758D01*
X78648558Y-57261758D02*
X78648558Y-61849000D01*
D20*
G36*
X118854615Y-77069000D02*
X117365384Y-77069000D01*
X117728490Y-76898821D01*
X118110000Y-76480847D01*
X118491510Y-76898821D01*
X118854615Y-77069000D01*
X118854615Y-77069000D01*
G37*
X118854615Y-77069000D02*
X117365384Y-77069000D01*
X117728490Y-76898821D01*
X118110000Y-76480847D01*
X118491510Y-76898821D01*
X118854615Y-77069000D01*
G36*
X119527000Y-75819000D02*
X119507000Y-75819000D01*
X119507000Y-75839000D01*
X119253000Y-75839000D01*
X119253000Y-75819000D01*
X118173817Y-75819000D01*
X118046183Y-75819000D01*
X116967000Y-75819000D01*
X116967000Y-75839000D01*
X116713000Y-75839000D01*
X116713000Y-75819000D01*
X116693000Y-75819000D01*
X116693000Y-75565000D01*
X116713000Y-75565000D01*
X116713000Y-75545000D01*
X116967000Y-75545000D01*
X116967000Y-75565000D01*
X118046183Y-75565000D01*
X118173817Y-75565000D01*
X119253000Y-75565000D01*
X119253000Y-75545000D01*
X119507000Y-75545000D01*
X119507000Y-75565000D01*
X119527000Y-75565000D01*
X119527000Y-75819000D01*
X119527000Y-75819000D01*
G37*
X119527000Y-75819000D02*
X119507000Y-75819000D01*
X119507000Y-75839000D01*
X119253000Y-75839000D01*
X119253000Y-75819000D01*
X118173817Y-75819000D01*
X118046183Y-75819000D01*
X116967000Y-75819000D01*
X116967000Y-75839000D01*
X116713000Y-75839000D01*
X116713000Y-75819000D01*
X116693000Y-75819000D01*
X116693000Y-75565000D01*
X116713000Y-75565000D01*
X116713000Y-75545000D01*
X116967000Y-75545000D01*
X116967000Y-75565000D01*
X118046183Y-75565000D01*
X118173817Y-75565000D01*
X119253000Y-75565000D01*
X119253000Y-75545000D01*
X119507000Y-75545000D01*
X119507000Y-75565000D01*
X119527000Y-75565000D01*
X119527000Y-75819000D01*
G36*
X156569000Y-77069000D02*
X144254064Y-77069000D01*
X144254064Y-74777600D01*
X144254064Y-73050400D01*
X144225878Y-72905126D01*
X144142004Y-72777444D01*
X144015384Y-72691974D01*
X143865600Y-72661936D01*
X142138400Y-72661936D01*
X141993126Y-72690122D01*
X141865444Y-72773996D01*
X141779974Y-72900616D01*
X141749936Y-73050400D01*
X141749936Y-74777600D01*
X141778122Y-74922874D01*
X141861996Y-75050556D01*
X141988616Y-75136026D01*
X142138400Y-75166064D01*
X143865600Y-75166064D01*
X144010874Y-75137878D01*
X144138556Y-75054004D01*
X144224026Y-74927384D01*
X144254064Y-74777600D01*
X144254064Y-77069000D01*
X141730983Y-77069000D01*
X141730983Y-73914000D01*
X141636243Y-73437712D01*
X141366448Y-73033935D01*
X140962671Y-72764140D01*
X140486383Y-72669400D01*
X140437617Y-72669400D01*
X139961329Y-72764140D01*
X139557552Y-73033935D01*
X139287757Y-73437712D01*
X139193017Y-73914000D01*
X139287757Y-74390288D01*
X139557552Y-74794065D01*
X139961329Y-75063860D01*
X140437617Y-75158600D01*
X140486383Y-75158600D01*
X140962671Y-75063860D01*
X141366448Y-74794065D01*
X141636243Y-74390288D01*
X141730983Y-73914000D01*
X141730983Y-77069000D01*
X139190983Y-77069000D01*
X139190983Y-73914000D01*
X139096243Y-73437712D01*
X138826448Y-73033935D01*
X138422671Y-72764140D01*
X137946383Y-72669400D01*
X137897617Y-72669400D01*
X137421329Y-72764140D01*
X137017552Y-73033935D01*
X136747757Y-73437712D01*
X136653017Y-73914000D01*
X136747757Y-74390288D01*
X137017552Y-74794065D01*
X137421329Y-75063860D01*
X137897617Y-75158600D01*
X137946383Y-75158600D01*
X138422671Y-75063860D01*
X138826448Y-74794065D01*
X139096243Y-74390288D01*
X139190983Y-73914000D01*
X139190983Y-77069000D01*
X136650983Y-77069000D01*
X136650983Y-73914000D01*
X136556243Y-73437712D01*
X136286448Y-73033935D01*
X135882671Y-72764140D01*
X135406383Y-72669400D01*
X135357617Y-72669400D01*
X134881329Y-72764140D01*
X134620132Y-72938666D01*
X134620132Y-60047094D01*
X134504368Y-59766926D01*
X134290202Y-59552385D01*
X134277477Y-59547101D01*
X134365867Y-59334236D01*
X134366132Y-59031094D01*
X134250368Y-58750926D01*
X134036202Y-58536385D01*
X133756236Y-58420133D01*
X133453094Y-58419868D01*
X133172926Y-58535632D01*
X133034315Y-58674000D01*
X122772690Y-58674000D01*
X122578287Y-58712669D01*
X122413480Y-58822790D01*
X122054232Y-59182037D01*
X121859784Y-59181868D01*
X121579616Y-59297632D01*
X121365075Y-59511798D01*
X121353240Y-59540298D01*
X121189206Y-59472185D01*
X120886064Y-59471920D01*
X120605896Y-59587684D01*
X120391355Y-59801850D01*
X120275103Y-60081816D01*
X120274838Y-60384958D01*
X120390602Y-60665126D01*
X120604768Y-60879667D01*
X120884734Y-60995919D01*
X121080588Y-60996090D01*
X121149709Y-61065211D01*
X121314516Y-61175332D01*
X121508919Y-61214001D01*
X122427999Y-61214001D01*
X122622402Y-61175332D01*
X122787209Y-61065211D01*
X123295210Y-60557210D01*
X123654410Y-60198010D01*
X132631590Y-60198010D01*
X132990790Y-60557210D01*
X133155596Y-60667331D01*
X133155597Y-60667331D01*
X133187849Y-60673746D01*
X133273166Y-60690716D01*
X133273167Y-60690717D01*
X133425798Y-60843615D01*
X133705764Y-60959867D01*
X134008906Y-60960132D01*
X134289074Y-60844368D01*
X134503615Y-60630202D01*
X134619867Y-60350236D01*
X134620132Y-60047094D01*
X134620132Y-72938666D01*
X134477552Y-73033935D01*
X134232840Y-73400171D01*
X134124688Y-73139053D01*
X133730490Y-72707179D01*
X133201027Y-72459032D01*
X132969000Y-72579531D01*
X132969000Y-73787000D01*
X132989000Y-73787000D01*
X132989000Y-74041000D01*
X132969000Y-74041000D01*
X132969000Y-75248469D01*
X133201027Y-75368968D01*
X133730490Y-75120821D01*
X134124688Y-74688947D01*
X134232840Y-74427828D01*
X134477552Y-74794065D01*
X134881329Y-75063860D01*
X135357617Y-75158600D01*
X135406383Y-75158600D01*
X135882671Y-75063860D01*
X136286448Y-74794065D01*
X136556243Y-74390288D01*
X136650983Y-73914000D01*
X136650983Y-77069000D01*
X132715000Y-77069000D01*
X132715000Y-75248469D01*
X132715000Y-74041000D01*
X132715000Y-73787000D01*
X132715000Y-72579531D01*
X132482973Y-72459032D01*
X131953510Y-72707179D01*
X131559312Y-73139053D01*
X131387042Y-73554974D01*
X131508183Y-73787000D01*
X132715000Y-73787000D01*
X132715000Y-74041000D01*
X131508183Y-74041000D01*
X131387042Y-74273026D01*
X131559312Y-74688947D01*
X131953510Y-75120821D01*
X132482973Y-75368968D01*
X132715000Y-75248469D01*
X132715000Y-77069000D01*
X130810132Y-77069000D01*
X130810132Y-72493113D01*
X130694368Y-72212945D01*
X130480202Y-71998404D01*
X130200236Y-71882152D01*
X129897094Y-71881887D01*
X129616926Y-71997651D01*
X129402385Y-72211817D01*
X129286133Y-72491783D01*
X129285961Y-72687637D01*
X126789599Y-75184000D01*
X125613053Y-75184000D01*
X125364448Y-74811935D01*
X124960671Y-74542140D01*
X124484383Y-74447400D01*
X124435617Y-74447400D01*
X123959329Y-74542140D01*
X123555552Y-74811935D01*
X123285757Y-75215712D01*
X123191017Y-75692000D01*
X123285757Y-76168288D01*
X123555552Y-76572065D01*
X123959329Y-76841860D01*
X124435617Y-76936600D01*
X124484383Y-76936600D01*
X124960671Y-76841860D01*
X125364448Y-76572065D01*
X125613053Y-76200000D01*
X127000019Y-76200000D01*
X127194422Y-76161331D01*
X127359229Y-76051210D01*
X130004457Y-73405981D01*
X130198906Y-73406151D01*
X130479074Y-73290387D01*
X130693615Y-73076221D01*
X130809867Y-72796255D01*
X130810132Y-72493113D01*
X130810132Y-77069000D01*
X119905384Y-77069000D01*
X120268490Y-76898821D01*
X120662688Y-76466947D01*
X120770840Y-76205828D01*
X121015552Y-76572065D01*
X121419329Y-76841860D01*
X121895617Y-76936600D01*
X121944383Y-76936600D01*
X122420671Y-76841860D01*
X122824448Y-76572065D01*
X123094243Y-76168288D01*
X123188983Y-75692000D01*
X123094243Y-75215712D01*
X122824448Y-74811935D01*
X122420671Y-74542140D01*
X121944383Y-74447400D01*
X121895617Y-74447400D01*
X121419329Y-74542140D01*
X121015552Y-74811935D01*
X120770840Y-75178171D01*
X120662688Y-74917053D01*
X120268490Y-74485179D01*
X119878338Y-74302323D01*
X119880671Y-74301860D01*
X120284448Y-74032065D01*
X120554243Y-73628288D01*
X120648983Y-73152000D01*
X120557638Y-72692781D01*
X120860420Y-72390000D01*
X120936663Y-72390000D01*
X120745757Y-72675712D01*
X120651017Y-73152000D01*
X120745757Y-73628288D01*
X121015552Y-74032065D01*
X121419329Y-74301860D01*
X121895617Y-74396600D01*
X121944383Y-74396600D01*
X122420671Y-74301860D01*
X122824448Y-74032065D01*
X123094243Y-73628288D01*
X123188983Y-73152000D01*
X123094243Y-72675712D01*
X122903336Y-72390000D01*
X123190000Y-72390000D01*
X123207936Y-72386432D01*
X123207936Y-74015600D01*
X123236122Y-74160874D01*
X123319996Y-74288556D01*
X123446616Y-74374026D01*
X123596400Y-74404064D01*
X125323600Y-74404064D01*
X125468874Y-74375878D01*
X125596556Y-74292004D01*
X125682026Y-74165384D01*
X125712064Y-74015600D01*
X125712064Y-72288400D01*
X125683878Y-72143126D01*
X125600004Y-72015444D01*
X125473384Y-71929974D01*
X125323600Y-71899936D01*
X124968000Y-71899936D01*
X124968000Y-68790420D01*
X125401605Y-68356815D01*
X128313579Y-68356815D01*
X128641974Y-68685210D01*
X128641975Y-68685210D01*
X128752095Y-68758790D01*
X128806781Y-68795330D01*
X128806782Y-68795331D01*
X128962802Y-68826365D01*
X129107798Y-68971615D01*
X129387764Y-69087867D01*
X129690906Y-69088132D01*
X129971074Y-68972368D01*
X130185615Y-68758202D01*
X130301867Y-68478236D01*
X130302132Y-68175094D01*
X130186368Y-67894926D01*
X130109630Y-67818053D01*
X130185615Y-67742202D01*
X130301867Y-67462236D01*
X130302132Y-67159094D01*
X130186368Y-66878926D01*
X129972202Y-66664385D01*
X129692236Y-66548133D01*
X129389094Y-66547868D01*
X129108926Y-66663632D01*
X128970315Y-66802000D01*
X124968000Y-66802000D01*
X124773596Y-66840669D01*
X124608790Y-66950790D01*
X123592780Y-67966800D01*
X123482659Y-68131607D01*
X123443990Y-68326010D01*
X123443990Y-70909589D01*
X122979579Y-71374000D01*
X121564532Y-71374000D01*
X121564532Y-61647294D01*
X121448768Y-61367126D01*
X121234602Y-61152585D01*
X120954636Y-61036333D01*
X120651494Y-61036068D01*
X120371326Y-61151832D01*
X120194549Y-61328300D01*
X117911581Y-61328300D01*
X117164965Y-60581684D01*
X117165183Y-60333402D01*
X117049419Y-60053234D01*
X116835253Y-59838693D01*
X116555287Y-59722441D01*
X116252145Y-59722176D01*
X115971977Y-59837940D01*
X115757436Y-60052106D01*
X115641184Y-60332072D01*
X115640919Y-60635214D01*
X115756683Y-60915382D01*
X115970849Y-61129923D01*
X116250815Y-61246175D01*
X116500598Y-61246393D01*
X117384674Y-62130470D01*
X117537120Y-62232331D01*
X117716943Y-62268100D01*
X120194790Y-62268100D01*
X120370198Y-62443815D01*
X120650164Y-62560067D01*
X120953306Y-62560332D01*
X121233474Y-62444568D01*
X121448015Y-62230402D01*
X121564267Y-61950436D01*
X121564532Y-61647294D01*
X121564532Y-71374000D01*
X120650000Y-71374000D01*
X120487849Y-71406253D01*
X120455596Y-71412669D01*
X120290790Y-71522790D01*
X119822926Y-71990653D01*
X119404383Y-71907400D01*
X119355617Y-71907400D01*
X118879329Y-72002140D01*
X118475552Y-72271935D01*
X118205757Y-72675712D01*
X118111017Y-73152000D01*
X118205757Y-73628288D01*
X118475552Y-74032065D01*
X118879329Y-74301860D01*
X118881661Y-74302323D01*
X118491510Y-74485179D01*
X118110000Y-74903152D01*
X117728490Y-74485179D01*
X117338338Y-74302323D01*
X117340671Y-74301860D01*
X117744448Y-74032065D01*
X118014243Y-73628288D01*
X118108983Y-73152000D01*
X118014243Y-72675712D01*
X117744448Y-72271935D01*
X117340671Y-72002140D01*
X116864383Y-71907400D01*
X116815617Y-71907400D01*
X116339329Y-72002140D01*
X115935552Y-72271935D01*
X115665757Y-72675712D01*
X115571017Y-73152000D01*
X115665757Y-73628288D01*
X115935552Y-74032065D01*
X116339329Y-74301860D01*
X116341661Y-74302323D01*
X115951510Y-74485179D01*
X115568983Y-74904266D01*
X115568983Y-73152000D01*
X115474243Y-72675712D01*
X115204448Y-72271935D01*
X114800671Y-72002140D01*
X114324383Y-71907400D01*
X114275617Y-71907400D01*
X113799329Y-72002140D01*
X113395552Y-72271935D01*
X113125757Y-72675712D01*
X113031017Y-73152000D01*
X113125757Y-73628288D01*
X113395552Y-74032065D01*
X113799329Y-74301860D01*
X114275617Y-74396600D01*
X114324383Y-74396600D01*
X114800671Y-74301860D01*
X115204448Y-74032065D01*
X115474243Y-73628288D01*
X115568983Y-73152000D01*
X115568983Y-74904266D01*
X115557312Y-74917053D01*
X115449159Y-75178171D01*
X115204448Y-74811935D01*
X114800671Y-74542140D01*
X114324383Y-74447400D01*
X114275617Y-74447400D01*
X113799329Y-74542140D01*
X113395552Y-74811935D01*
X113125757Y-75215712D01*
X113031017Y-75692000D01*
X113125757Y-76168288D01*
X113395552Y-76572065D01*
X113799329Y-76841860D01*
X114275617Y-76936600D01*
X114324383Y-76936600D01*
X114800671Y-76841860D01*
X115204448Y-76572065D01*
X115449159Y-76205828D01*
X115557312Y-76466947D01*
X115951510Y-76898821D01*
X116314615Y-77069000D01*
X91186132Y-77069000D01*
X91186132Y-61825094D01*
X91070368Y-61544926D01*
X90856202Y-61330385D01*
X90639900Y-61240568D01*
X90639900Y-59916609D01*
X90815615Y-59741202D01*
X90931867Y-59461236D01*
X90932132Y-59158094D01*
X90816368Y-58877926D01*
X90602202Y-58663385D01*
X90322236Y-58547133D01*
X90019094Y-58546868D01*
X89738926Y-58662632D01*
X89524385Y-58876798D01*
X89408133Y-59156764D01*
X89407868Y-59459906D01*
X89523632Y-59740074D01*
X89700100Y-59916850D01*
X89700100Y-61722000D01*
X89701489Y-61728982D01*
X89701489Y-61728983D01*
X89662133Y-61823764D01*
X89661868Y-62126906D01*
X89777632Y-62407074D01*
X89991798Y-62621615D01*
X90271764Y-62737867D01*
X90574906Y-62738132D01*
X90855074Y-62622368D01*
X91069615Y-62408202D01*
X91185867Y-62128236D01*
X91186132Y-61825094D01*
X91186132Y-77069000D01*
X89281132Y-77069000D01*
X89281132Y-73255094D01*
X89165368Y-72974926D01*
X89088630Y-72898053D01*
X89164615Y-72822202D01*
X89280867Y-72542236D01*
X89281132Y-72239094D01*
X89281132Y-70461094D01*
X89165368Y-70180926D01*
X89088630Y-70104053D01*
X89164615Y-70028202D01*
X89280867Y-69748236D01*
X89281132Y-69445094D01*
X89165368Y-69164926D01*
X88951202Y-68950385D01*
X88671236Y-68834133D01*
X88368094Y-68833868D01*
X88087926Y-68949632D01*
X87873385Y-69163798D01*
X87757133Y-69443764D01*
X87756868Y-69746906D01*
X87872632Y-70027074D01*
X87949369Y-70103946D01*
X87873385Y-70179798D01*
X87757133Y-70459764D01*
X87756868Y-70762906D01*
X87872632Y-71043074D01*
X88086798Y-71257615D01*
X88366764Y-71373867D01*
X88669906Y-71374132D01*
X88950074Y-71258368D01*
X89164615Y-71044202D01*
X89280867Y-70764236D01*
X89281132Y-70461094D01*
X89281132Y-72239094D01*
X89165368Y-71958926D01*
X88951202Y-71744385D01*
X88671236Y-71628133D01*
X88368094Y-71627868D01*
X88087926Y-71743632D01*
X87873385Y-71957798D01*
X87757133Y-72237764D01*
X87756868Y-72540906D01*
X87872632Y-72821074D01*
X87949369Y-72897946D01*
X87873385Y-72973798D01*
X87757133Y-73253764D01*
X87756868Y-73556906D01*
X87872632Y-73837074D01*
X88086798Y-74051615D01*
X88366764Y-74167867D01*
X88669906Y-74168132D01*
X88950074Y-74052368D01*
X89164615Y-73838202D01*
X89280867Y-73558236D01*
X89281132Y-73255094D01*
X89281132Y-77069000D01*
X82169132Y-77069000D01*
X82169132Y-64212694D01*
X82053368Y-63932526D01*
X81839202Y-63717985D01*
X81559236Y-63601733D01*
X81256094Y-63601468D01*
X80975926Y-63717232D01*
X80799149Y-63893700D01*
X79410690Y-63893700D01*
X79410690Y-61698094D01*
X79294926Y-61417926D01*
X79118458Y-61241149D01*
X79118458Y-57261758D01*
X79082689Y-57081935D01*
X78993909Y-56949067D01*
X78994132Y-56694294D01*
X78878368Y-56414126D01*
X78664202Y-56199585D01*
X78384236Y-56083333D01*
X78081094Y-56083068D01*
X77800926Y-56198832D01*
X77586385Y-56412998D01*
X77470133Y-56692964D01*
X77469868Y-56996106D01*
X77585632Y-57276274D01*
X77799798Y-57490815D01*
X78079764Y-57607067D01*
X78178658Y-57607153D01*
X78178658Y-61241390D01*
X78002943Y-61416798D01*
X77886691Y-61696764D01*
X77886426Y-61999906D01*
X78002190Y-62280074D01*
X78216356Y-62494615D01*
X78496322Y-62610867D01*
X78799464Y-62611132D01*
X79079632Y-62495368D01*
X79294173Y-62281202D01*
X79410425Y-62001236D01*
X79410690Y-61698094D01*
X79410690Y-63893700D01*
X79162400Y-63893700D01*
X78982577Y-63929469D01*
X78830131Y-64031330D01*
X76030220Y-66831241D01*
X76030220Y-56493070D01*
X76030220Y-55806930D01*
X76015260Y-55732723D01*
X75753630Y-55251974D01*
X75327941Y-54907941D01*
X75233276Y-54880000D01*
X75327941Y-54852059D01*
X75753630Y-54508026D01*
X76015260Y-54027277D01*
X76030220Y-53953070D01*
X76030220Y-53266930D01*
X76015260Y-53192723D01*
X75753630Y-52711974D01*
X75327941Y-52367941D01*
X74803000Y-52213000D01*
X73914000Y-52213000D01*
X73914000Y-53483000D01*
X75907720Y-53483000D01*
X76030220Y-53266930D01*
X76030220Y-53953070D01*
X75907720Y-53737000D01*
X73914000Y-53737000D01*
X73914000Y-54753000D01*
X73914000Y-55007000D01*
X73914000Y-56023000D01*
X75907720Y-56023000D01*
X76030220Y-55806930D01*
X76030220Y-56493070D01*
X75907720Y-56277000D01*
X73914000Y-56277000D01*
X73914000Y-56297000D01*
X73660000Y-56297000D01*
X73660000Y-56277000D01*
X73660000Y-56023000D01*
X73660000Y-55007000D01*
X73660000Y-54753000D01*
X73660000Y-53737000D01*
X73660000Y-53483000D01*
X73660000Y-52213000D01*
X72771000Y-52213000D01*
X72246059Y-52367941D01*
X71820370Y-52711974D01*
X71558740Y-53192723D01*
X71543780Y-53266930D01*
X71666280Y-53483000D01*
X73660000Y-53483000D01*
X73660000Y-53737000D01*
X71666280Y-53737000D01*
X71543780Y-53953070D01*
X71558740Y-54027277D01*
X71820370Y-54508026D01*
X72246059Y-54852059D01*
X72340723Y-54880000D01*
X72246059Y-54907941D01*
X71820370Y-55251974D01*
X71558740Y-55732723D01*
X71543780Y-55806930D01*
X71666280Y-56023000D01*
X73660000Y-56023000D01*
X73660000Y-56277000D01*
X71666280Y-56277000D01*
X71543780Y-56493070D01*
X71558740Y-56567277D01*
X71820370Y-57048026D01*
X72246059Y-57392059D01*
X72771000Y-57547000D01*
X72858191Y-57547000D01*
X72420784Y-57634006D01*
X72049968Y-57881777D01*
X71802197Y-58252593D01*
X71715191Y-58690000D01*
X71802197Y-59127407D01*
X72049968Y-59498223D01*
X72420784Y-59745994D01*
X72858191Y-59833000D01*
X74715809Y-59833000D01*
X75153216Y-59745994D01*
X75524032Y-59498223D01*
X75771803Y-59127407D01*
X75858809Y-58690000D01*
X75771803Y-58252593D01*
X75524032Y-57881777D01*
X75153216Y-57634006D01*
X74715809Y-57547000D01*
X74803000Y-57547000D01*
X75327941Y-57392059D01*
X75753630Y-57048026D01*
X76015260Y-56567277D01*
X76030220Y-56493070D01*
X76030220Y-66831241D01*
X75858809Y-67002652D01*
X75858809Y-66310000D01*
X75858809Y-63770000D01*
X75858809Y-61230000D01*
X75771803Y-60792593D01*
X75524032Y-60421777D01*
X75153216Y-60174006D01*
X74715809Y-60087000D01*
X72858191Y-60087000D01*
X72420784Y-60174006D01*
X72049968Y-60421777D01*
X71802197Y-60792593D01*
X71715191Y-61230000D01*
X71802197Y-61667407D01*
X72049968Y-62038223D01*
X72420784Y-62285994D01*
X72858191Y-62373000D01*
X74715809Y-62373000D01*
X75153216Y-62285994D01*
X75524032Y-62038223D01*
X75771803Y-61667407D01*
X75858809Y-61230000D01*
X75858809Y-63770000D01*
X75771803Y-63332593D01*
X75524032Y-62961777D01*
X75153216Y-62714006D01*
X74715809Y-62627000D01*
X72858191Y-62627000D01*
X72420784Y-62714006D01*
X72049968Y-62961777D01*
X71802197Y-63332593D01*
X71715191Y-63770000D01*
X71802197Y-64207407D01*
X72049968Y-64578223D01*
X72420784Y-64825994D01*
X72858191Y-64913000D01*
X74715809Y-64913000D01*
X75153216Y-64825994D01*
X75524032Y-64578223D01*
X75771803Y-64207407D01*
X75858809Y-63770000D01*
X75858809Y-66310000D01*
X75771803Y-65872593D01*
X75524032Y-65501777D01*
X75153216Y-65254006D01*
X74715809Y-65167000D01*
X72858191Y-65167000D01*
X72420784Y-65254006D01*
X72049968Y-65501777D01*
X71802197Y-65872593D01*
X71715191Y-66310000D01*
X71802197Y-66747407D01*
X72049968Y-67118223D01*
X72420784Y-67365994D01*
X72858191Y-67453000D01*
X74715809Y-67453000D01*
X75153216Y-67365994D01*
X75524032Y-67118223D01*
X75771803Y-66747407D01*
X75858809Y-66310000D01*
X75858809Y-67002652D01*
X75081684Y-67779777D01*
X74715809Y-67707000D01*
X72858191Y-67707000D01*
X72420784Y-67794006D01*
X72049968Y-68041777D01*
X71802197Y-68412593D01*
X71715191Y-68850000D01*
X71802197Y-69287407D01*
X72049968Y-69658223D01*
X72420784Y-69905994D01*
X72858191Y-69993000D01*
X74715809Y-69993000D01*
X75084873Y-69919588D01*
X74750551Y-70253910D01*
X74715809Y-70247000D01*
X72858191Y-70247000D01*
X72420784Y-70334006D01*
X72049968Y-70581777D01*
X71802197Y-70952593D01*
X71715191Y-71390000D01*
X71802197Y-71827407D01*
X72049968Y-72198223D01*
X72420784Y-72445994D01*
X72858191Y-72533000D01*
X74715809Y-72533000D01*
X75153216Y-72445994D01*
X75524032Y-72198223D01*
X75771803Y-71827407D01*
X75858809Y-71390000D01*
X75771803Y-70952593D01*
X75615247Y-70718290D01*
X78960038Y-67373500D01*
X80723190Y-67373500D01*
X80898598Y-67549215D01*
X81178564Y-67665467D01*
X81481706Y-67665732D01*
X81761874Y-67549968D01*
X81976415Y-67335802D01*
X82092667Y-67055836D01*
X82092932Y-66752694D01*
X81977168Y-66472526D01*
X81763002Y-66257985D01*
X81483036Y-66141733D01*
X81179894Y-66141468D01*
X80899726Y-66257232D01*
X80722949Y-66433700D01*
X78765400Y-66433700D01*
X78585577Y-66469469D01*
X78433131Y-66571330D01*
X75785397Y-69219064D01*
X75858809Y-68850000D01*
X75772822Y-68417716D01*
X79357038Y-64833500D01*
X80799390Y-64833500D01*
X80974798Y-65009215D01*
X81254764Y-65125467D01*
X81557906Y-65125732D01*
X81838074Y-65009968D01*
X82052615Y-64795802D01*
X82168867Y-64515836D01*
X82169132Y-64212694D01*
X82169132Y-77069000D01*
X68714464Y-77069000D01*
X68714464Y-74676000D01*
X68714464Y-72644000D01*
X68714464Y-51816000D01*
X68714464Y-49784000D01*
X68686278Y-49638726D01*
X68602404Y-49511044D01*
X68475784Y-49425574D01*
X68326000Y-49395536D01*
X66294000Y-49395536D01*
X66148726Y-49423722D01*
X66021044Y-49507596D01*
X65935574Y-49634216D01*
X65928770Y-49668140D01*
X65738379Y-49462812D01*
X65152946Y-49194017D01*
X64897000Y-49312633D01*
X64897000Y-50673000D01*
X64917000Y-50673000D01*
X64917000Y-50927000D01*
X64897000Y-50927000D01*
X64897000Y-52287367D01*
X65152946Y-52405983D01*
X65738379Y-52137188D01*
X65928145Y-51932533D01*
X65933722Y-51961274D01*
X66017596Y-52088956D01*
X66144216Y-52174426D01*
X66294000Y-52204464D01*
X68326000Y-52204464D01*
X68471274Y-52176278D01*
X68598956Y-52092404D01*
X68684426Y-51965784D01*
X68714464Y-51816000D01*
X68714464Y-72644000D01*
X68686278Y-72498726D01*
X68602404Y-72371044D01*
X68475784Y-72285574D01*
X68326000Y-72255536D01*
X66294000Y-72255536D01*
X66148726Y-72283722D01*
X66021044Y-72367596D01*
X65935574Y-72494216D01*
X65928770Y-72528140D01*
X65738379Y-72322812D01*
X65152946Y-72054017D01*
X64897000Y-72172633D01*
X64897000Y-73533000D01*
X64917000Y-73533000D01*
X64917000Y-73787000D01*
X64897000Y-73787000D01*
X64897000Y-75147367D01*
X65152946Y-75265983D01*
X65738379Y-74997188D01*
X65928145Y-74792533D01*
X65933722Y-74821274D01*
X66017596Y-74948956D01*
X66144216Y-75034426D01*
X66294000Y-75064464D01*
X68326000Y-75064464D01*
X68471274Y-75036278D01*
X68598956Y-74952404D01*
X68684426Y-74825784D01*
X68714464Y-74676000D01*
X68714464Y-77069000D01*
X64643000Y-77069000D01*
X64643000Y-75147367D01*
X64643000Y-73787000D01*
X64643000Y-73533000D01*
X64643000Y-72172633D01*
X64643000Y-52287367D01*
X64643000Y-50927000D01*
X64643000Y-50673000D01*
X64643000Y-49312633D01*
X64387054Y-49194017D01*
X63801621Y-49462812D01*
X63363615Y-49935182D01*
X63164025Y-50417056D01*
X63283164Y-50673000D01*
X64643000Y-50673000D01*
X64643000Y-50927000D01*
X63283164Y-50927000D01*
X63164025Y-51182944D01*
X63363615Y-51664818D01*
X63801621Y-52137188D01*
X64387054Y-52405983D01*
X64643000Y-52287367D01*
X64643000Y-72172633D01*
X64387054Y-72054017D01*
X63801621Y-72322812D01*
X63363615Y-72795182D01*
X63164025Y-73277056D01*
X63283164Y-73533000D01*
X64643000Y-73533000D01*
X64643000Y-73787000D01*
X63283164Y-73787000D01*
X63164025Y-74042944D01*
X63363615Y-74524818D01*
X63801621Y-74997188D01*
X64387054Y-75265983D01*
X64643000Y-75147367D01*
X64643000Y-77069000D01*
X59245284Y-77069000D01*
X59245284Y-76081000D01*
X59245284Y-72619000D01*
X50427647Y-72619000D01*
X50427647Y-67500000D01*
X50427647Y-57500000D01*
X50360556Y-57162710D01*
X50169497Y-56876770D01*
X49883557Y-56685711D01*
X49546267Y-56618620D01*
X46453733Y-56618620D01*
X46116443Y-56685711D01*
X45830503Y-56876770D01*
X45639444Y-57162710D01*
X45572353Y-57500000D01*
X45639444Y-57837290D01*
X45830503Y-58123230D01*
X46116443Y-58314289D01*
X46453733Y-58381380D01*
X49546267Y-58381380D01*
X49883557Y-58314289D01*
X50169497Y-58123230D01*
X50360556Y-57837290D01*
X50427647Y-57500000D01*
X50427647Y-67500000D01*
X50360556Y-67162710D01*
X50169497Y-66876770D01*
X49883557Y-66685711D01*
X49546267Y-66618620D01*
X46453733Y-66618620D01*
X46116443Y-66685711D01*
X45830503Y-66876770D01*
X45639444Y-67162710D01*
X45572353Y-67500000D01*
X45639444Y-67837290D01*
X45830503Y-68123230D01*
X46116443Y-68314289D01*
X46453733Y-68381380D01*
X49546267Y-68381380D01*
X49883557Y-68314289D01*
X50169497Y-68123230D01*
X50360556Y-67837290D01*
X50427647Y-67500000D01*
X50427647Y-72619000D01*
X46754716Y-72619000D01*
X46754716Y-76081000D01*
X59245284Y-76081000D01*
X59245284Y-77069000D01*
X44431000Y-77069000D01*
X44431000Y-47931000D01*
X156569000Y-47931000D01*
X156569000Y-77069000D01*
X156569000Y-77069000D01*
G37*
X156569000Y-77069000D02*
X144254064Y-77069000D01*
X144254064Y-74777600D01*
X144254064Y-73050400D01*
X144225878Y-72905126D01*
X144142004Y-72777444D01*
X144015384Y-72691974D01*
X143865600Y-72661936D01*
X142138400Y-72661936D01*
X141993126Y-72690122D01*
X141865444Y-72773996D01*
X141779974Y-72900616D01*
X141749936Y-73050400D01*
X141749936Y-74777600D01*
X141778122Y-74922874D01*
X141861996Y-75050556D01*
X141988616Y-75136026D01*
X142138400Y-75166064D01*
X143865600Y-75166064D01*
X144010874Y-75137878D01*
X144138556Y-75054004D01*
X144224026Y-74927384D01*
X144254064Y-74777600D01*
X144254064Y-77069000D01*
X141730983Y-77069000D01*
X141730983Y-73914000D01*
X141636243Y-73437712D01*
X141366448Y-73033935D01*
X140962671Y-72764140D01*
X140486383Y-72669400D01*
X140437617Y-72669400D01*
X139961329Y-72764140D01*
X139557552Y-73033935D01*
X139287757Y-73437712D01*
X139193017Y-73914000D01*
X139287757Y-74390288D01*
X139557552Y-74794065D01*
X139961329Y-75063860D01*
X140437617Y-75158600D01*
X140486383Y-75158600D01*
X140962671Y-75063860D01*
X141366448Y-74794065D01*
X141636243Y-74390288D01*
X141730983Y-73914000D01*
X141730983Y-77069000D01*
X139190983Y-77069000D01*
X139190983Y-73914000D01*
X139096243Y-73437712D01*
X138826448Y-73033935D01*
X138422671Y-72764140D01*
X137946383Y-72669400D01*
X137897617Y-72669400D01*
X137421329Y-72764140D01*
X137017552Y-73033935D01*
X136747757Y-73437712D01*
X136653017Y-73914000D01*
X136747757Y-74390288D01*
X137017552Y-74794065D01*
X137421329Y-75063860D01*
X137897617Y-75158600D01*
X137946383Y-75158600D01*
X138422671Y-75063860D01*
X138826448Y-74794065D01*
X139096243Y-74390288D01*
X139190983Y-73914000D01*
X139190983Y-77069000D01*
X136650983Y-77069000D01*
X136650983Y-73914000D01*
X136556243Y-73437712D01*
X136286448Y-73033935D01*
X135882671Y-72764140D01*
X135406383Y-72669400D01*
X135357617Y-72669400D01*
X134881329Y-72764140D01*
X134620132Y-72938666D01*
X134620132Y-60047094D01*
X134504368Y-59766926D01*
X134290202Y-59552385D01*
X134277477Y-59547101D01*
X134365867Y-59334236D01*
X134366132Y-59031094D01*
X134250368Y-58750926D01*
X134036202Y-58536385D01*
X133756236Y-58420133D01*
X133453094Y-58419868D01*
X133172926Y-58535632D01*
X133034315Y-58674000D01*
X122772690Y-58674000D01*
X122578287Y-58712669D01*
X122413480Y-58822790D01*
X122054232Y-59182037D01*
X121859784Y-59181868D01*
X121579616Y-59297632D01*
X121365075Y-59511798D01*
X121353240Y-59540298D01*
X121189206Y-59472185D01*
X120886064Y-59471920D01*
X120605896Y-59587684D01*
X120391355Y-59801850D01*
X120275103Y-60081816D01*
X120274838Y-60384958D01*
X120390602Y-60665126D01*
X120604768Y-60879667D01*
X120884734Y-60995919D01*
X121080588Y-60996090D01*
X121149709Y-61065211D01*
X121314516Y-61175332D01*
X121508919Y-61214001D01*
X122427999Y-61214001D01*
X122622402Y-61175332D01*
X122787209Y-61065211D01*
X123295210Y-60557210D01*
X123654410Y-60198010D01*
X132631590Y-60198010D01*
X132990790Y-60557210D01*
X133155596Y-60667331D01*
X133155597Y-60667331D01*
X133187849Y-60673746D01*
X133273166Y-60690716D01*
X133273167Y-60690717D01*
X133425798Y-60843615D01*
X133705764Y-60959867D01*
X134008906Y-60960132D01*
X134289074Y-60844368D01*
X134503615Y-60630202D01*
X134619867Y-60350236D01*
X134620132Y-60047094D01*
X134620132Y-72938666D01*
X134477552Y-73033935D01*
X134232840Y-73400171D01*
X134124688Y-73139053D01*
X133730490Y-72707179D01*
X133201027Y-72459032D01*
X132969000Y-72579531D01*
X132969000Y-73787000D01*
X132989000Y-73787000D01*
X132989000Y-74041000D01*
X132969000Y-74041000D01*
X132969000Y-75248469D01*
X133201027Y-75368968D01*
X133730490Y-75120821D01*
X134124688Y-74688947D01*
X134232840Y-74427828D01*
X134477552Y-74794065D01*
X134881329Y-75063860D01*
X135357617Y-75158600D01*
X135406383Y-75158600D01*
X135882671Y-75063860D01*
X136286448Y-74794065D01*
X136556243Y-74390288D01*
X136650983Y-73914000D01*
X136650983Y-77069000D01*
X132715000Y-77069000D01*
X132715000Y-75248469D01*
X132715000Y-74041000D01*
X132715000Y-73787000D01*
X132715000Y-72579531D01*
X132482973Y-72459032D01*
X131953510Y-72707179D01*
X131559312Y-73139053D01*
X131387042Y-73554974D01*
X131508183Y-73787000D01*
X132715000Y-73787000D01*
X132715000Y-74041000D01*
X131508183Y-74041000D01*
X131387042Y-74273026D01*
X131559312Y-74688947D01*
X131953510Y-75120821D01*
X132482973Y-75368968D01*
X132715000Y-75248469D01*
X132715000Y-77069000D01*
X130810132Y-77069000D01*
X130810132Y-72493113D01*
X130694368Y-72212945D01*
X130480202Y-71998404D01*
X130200236Y-71882152D01*
X129897094Y-71881887D01*
X129616926Y-71997651D01*
X129402385Y-72211817D01*
X129286133Y-72491783D01*
X129285961Y-72687637D01*
X126789599Y-75184000D01*
X125613053Y-75184000D01*
X125364448Y-74811935D01*
X124960671Y-74542140D01*
X124484383Y-74447400D01*
X124435617Y-74447400D01*
X123959329Y-74542140D01*
X123555552Y-74811935D01*
X123285757Y-75215712D01*
X123191017Y-75692000D01*
X123285757Y-76168288D01*
X123555552Y-76572065D01*
X123959329Y-76841860D01*
X124435617Y-76936600D01*
X124484383Y-76936600D01*
X124960671Y-76841860D01*
X125364448Y-76572065D01*
X125613053Y-76200000D01*
X127000019Y-76200000D01*
X127194422Y-76161331D01*
X127359229Y-76051210D01*
X130004457Y-73405981D01*
X130198906Y-73406151D01*
X130479074Y-73290387D01*
X130693615Y-73076221D01*
X130809867Y-72796255D01*
X130810132Y-72493113D01*
X130810132Y-77069000D01*
X119905384Y-77069000D01*
X120268490Y-76898821D01*
X120662688Y-76466947D01*
X120770840Y-76205828D01*
X121015552Y-76572065D01*
X121419329Y-76841860D01*
X121895617Y-76936600D01*
X121944383Y-76936600D01*
X122420671Y-76841860D01*
X122824448Y-76572065D01*
X123094243Y-76168288D01*
X123188983Y-75692000D01*
X123094243Y-75215712D01*
X122824448Y-74811935D01*
X122420671Y-74542140D01*
X121944383Y-74447400D01*
X121895617Y-74447400D01*
X121419329Y-74542140D01*
X121015552Y-74811935D01*
X120770840Y-75178171D01*
X120662688Y-74917053D01*
X120268490Y-74485179D01*
X119878338Y-74302323D01*
X119880671Y-74301860D01*
X120284448Y-74032065D01*
X120554243Y-73628288D01*
X120648983Y-73152000D01*
X120557638Y-72692781D01*
X120860420Y-72390000D01*
X120936663Y-72390000D01*
X120745757Y-72675712D01*
X120651017Y-73152000D01*
X120745757Y-73628288D01*
X121015552Y-74032065D01*
X121419329Y-74301860D01*
X121895617Y-74396600D01*
X121944383Y-74396600D01*
X122420671Y-74301860D01*
X122824448Y-74032065D01*
X123094243Y-73628288D01*
X123188983Y-73152000D01*
X123094243Y-72675712D01*
X122903336Y-72390000D01*
X123190000Y-72390000D01*
X123207936Y-72386432D01*
X123207936Y-74015600D01*
X123236122Y-74160874D01*
X123319996Y-74288556D01*
X123446616Y-74374026D01*
X123596400Y-74404064D01*
X125323600Y-74404064D01*
X125468874Y-74375878D01*
X125596556Y-74292004D01*
X125682026Y-74165384D01*
X125712064Y-74015600D01*
X125712064Y-72288400D01*
X125683878Y-72143126D01*
X125600004Y-72015444D01*
X125473384Y-71929974D01*
X125323600Y-71899936D01*
X124968000Y-71899936D01*
X124968000Y-68790420D01*
X125401605Y-68356815D01*
X128313579Y-68356815D01*
X128641974Y-68685210D01*
X128641975Y-68685210D01*
X128752095Y-68758790D01*
X128806781Y-68795330D01*
X128806782Y-68795331D01*
X128962802Y-68826365D01*
X129107798Y-68971615D01*
X129387764Y-69087867D01*
X129690906Y-69088132D01*
X129971074Y-68972368D01*
X130185615Y-68758202D01*
X130301867Y-68478236D01*
X130302132Y-68175094D01*
X130186368Y-67894926D01*
X130109630Y-67818053D01*
X130185615Y-67742202D01*
X130301867Y-67462236D01*
X130302132Y-67159094D01*
X130186368Y-66878926D01*
X129972202Y-66664385D01*
X129692236Y-66548133D01*
X129389094Y-66547868D01*
X129108926Y-66663632D01*
X128970315Y-66802000D01*
X124968000Y-66802000D01*
X124773596Y-66840669D01*
X124608790Y-66950790D01*
X123592780Y-67966800D01*
X123482659Y-68131607D01*
X123443990Y-68326010D01*
X123443990Y-70909589D01*
X122979579Y-71374000D01*
X121564532Y-71374000D01*
X121564532Y-61647294D01*
X121448768Y-61367126D01*
X121234602Y-61152585D01*
X120954636Y-61036333D01*
X120651494Y-61036068D01*
X120371326Y-61151832D01*
X120194549Y-61328300D01*
X117911581Y-61328300D01*
X117164965Y-60581684D01*
X117165183Y-60333402D01*
X117049419Y-60053234D01*
X116835253Y-59838693D01*
X116555287Y-59722441D01*
X116252145Y-59722176D01*
X115971977Y-59837940D01*
X115757436Y-60052106D01*
X115641184Y-60332072D01*
X115640919Y-60635214D01*
X115756683Y-60915382D01*
X115970849Y-61129923D01*
X116250815Y-61246175D01*
X116500598Y-61246393D01*
X117384674Y-62130470D01*
X117537120Y-62232331D01*
X117716943Y-62268100D01*
X120194790Y-62268100D01*
X120370198Y-62443815D01*
X120650164Y-62560067D01*
X120953306Y-62560332D01*
X121233474Y-62444568D01*
X121448015Y-62230402D01*
X121564267Y-61950436D01*
X121564532Y-61647294D01*
X121564532Y-71374000D01*
X120650000Y-71374000D01*
X120487849Y-71406253D01*
X120455596Y-71412669D01*
X120290790Y-71522790D01*
X119822926Y-71990653D01*
X119404383Y-71907400D01*
X119355617Y-71907400D01*
X118879329Y-72002140D01*
X118475552Y-72271935D01*
X118205757Y-72675712D01*
X118111017Y-73152000D01*
X118205757Y-73628288D01*
X118475552Y-74032065D01*
X118879329Y-74301860D01*
X118881661Y-74302323D01*
X118491510Y-74485179D01*
X118110000Y-74903152D01*
X117728490Y-74485179D01*
X117338338Y-74302323D01*
X117340671Y-74301860D01*
X117744448Y-74032065D01*
X118014243Y-73628288D01*
X118108983Y-73152000D01*
X118014243Y-72675712D01*
X117744448Y-72271935D01*
X117340671Y-72002140D01*
X116864383Y-71907400D01*
X116815617Y-71907400D01*
X116339329Y-72002140D01*
X115935552Y-72271935D01*
X115665757Y-72675712D01*
X115571017Y-73152000D01*
X115665757Y-73628288D01*
X115935552Y-74032065D01*
X116339329Y-74301860D01*
X116341661Y-74302323D01*
X115951510Y-74485179D01*
X115568983Y-74904266D01*
X115568983Y-73152000D01*
X115474243Y-72675712D01*
X115204448Y-72271935D01*
X114800671Y-72002140D01*
X114324383Y-71907400D01*
X114275617Y-71907400D01*
X113799329Y-72002140D01*
X113395552Y-72271935D01*
X113125757Y-72675712D01*
X113031017Y-73152000D01*
X113125757Y-73628288D01*
X113395552Y-74032065D01*
X113799329Y-74301860D01*
X114275617Y-74396600D01*
X114324383Y-74396600D01*
X114800671Y-74301860D01*
X115204448Y-74032065D01*
X115474243Y-73628288D01*
X115568983Y-73152000D01*
X115568983Y-74904266D01*
X115557312Y-74917053D01*
X115449159Y-75178171D01*
X115204448Y-74811935D01*
X114800671Y-74542140D01*
X114324383Y-74447400D01*
X114275617Y-74447400D01*
X113799329Y-74542140D01*
X113395552Y-74811935D01*
X113125757Y-75215712D01*
X113031017Y-75692000D01*
X113125757Y-76168288D01*
X113395552Y-76572065D01*
X113799329Y-76841860D01*
X114275617Y-76936600D01*
X114324383Y-76936600D01*
X114800671Y-76841860D01*
X115204448Y-76572065D01*
X115449159Y-76205828D01*
X115557312Y-76466947D01*
X115951510Y-76898821D01*
X116314615Y-77069000D01*
X91186132Y-77069000D01*
X91186132Y-61825094D01*
X91070368Y-61544926D01*
X90856202Y-61330385D01*
X90639900Y-61240568D01*
X90639900Y-59916609D01*
X90815615Y-59741202D01*
X90931867Y-59461236D01*
X90932132Y-59158094D01*
X90816368Y-58877926D01*
X90602202Y-58663385D01*
X90322236Y-58547133D01*
X90019094Y-58546868D01*
X89738926Y-58662632D01*
X89524385Y-58876798D01*
X89408133Y-59156764D01*
X89407868Y-59459906D01*
X89523632Y-59740074D01*
X89700100Y-59916850D01*
X89700100Y-61722000D01*
X89701489Y-61728982D01*
X89701489Y-61728983D01*
X89662133Y-61823764D01*
X89661868Y-62126906D01*
X89777632Y-62407074D01*
X89991798Y-62621615D01*
X90271764Y-62737867D01*
X90574906Y-62738132D01*
X90855074Y-62622368D01*
X91069615Y-62408202D01*
X91185867Y-62128236D01*
X91186132Y-61825094D01*
X91186132Y-77069000D01*
X89281132Y-77069000D01*
X89281132Y-73255094D01*
X89165368Y-72974926D01*
X89088630Y-72898053D01*
X89164615Y-72822202D01*
X89280867Y-72542236D01*
X89281132Y-72239094D01*
X89281132Y-70461094D01*
X89165368Y-70180926D01*
X89088630Y-70104053D01*
X89164615Y-70028202D01*
X89280867Y-69748236D01*
X89281132Y-69445094D01*
X89165368Y-69164926D01*
X88951202Y-68950385D01*
X88671236Y-68834133D01*
X88368094Y-68833868D01*
X88087926Y-68949632D01*
X87873385Y-69163798D01*
X87757133Y-69443764D01*
X87756868Y-69746906D01*
X87872632Y-70027074D01*
X87949369Y-70103946D01*
X87873385Y-70179798D01*
X87757133Y-70459764D01*
X87756868Y-70762906D01*
X87872632Y-71043074D01*
X88086798Y-71257615D01*
X88366764Y-71373867D01*
X88669906Y-71374132D01*
X88950074Y-71258368D01*
X89164615Y-71044202D01*
X89280867Y-70764236D01*
X89281132Y-70461094D01*
X89281132Y-72239094D01*
X89165368Y-71958926D01*
X88951202Y-71744385D01*
X88671236Y-71628133D01*
X88368094Y-71627868D01*
X88087926Y-71743632D01*
X87873385Y-71957798D01*
X87757133Y-72237764D01*
X87756868Y-72540906D01*
X87872632Y-72821074D01*
X87949369Y-72897946D01*
X87873385Y-72973798D01*
X87757133Y-73253764D01*
X87756868Y-73556906D01*
X87872632Y-73837074D01*
X88086798Y-74051615D01*
X88366764Y-74167867D01*
X88669906Y-74168132D01*
X88950074Y-74052368D01*
X89164615Y-73838202D01*
X89280867Y-73558236D01*
X89281132Y-73255094D01*
X89281132Y-77069000D01*
X82169132Y-77069000D01*
X82169132Y-64212694D01*
X82053368Y-63932526D01*
X81839202Y-63717985D01*
X81559236Y-63601733D01*
X81256094Y-63601468D01*
X80975926Y-63717232D01*
X80799149Y-63893700D01*
X79410690Y-63893700D01*
X79410690Y-61698094D01*
X79294926Y-61417926D01*
X79118458Y-61241149D01*
X79118458Y-57261758D01*
X79082689Y-57081935D01*
X78993909Y-56949067D01*
X78994132Y-56694294D01*
X78878368Y-56414126D01*
X78664202Y-56199585D01*
X78384236Y-56083333D01*
X78081094Y-56083068D01*
X77800926Y-56198832D01*
X77586385Y-56412998D01*
X77470133Y-56692964D01*
X77469868Y-56996106D01*
X77585632Y-57276274D01*
X77799798Y-57490815D01*
X78079764Y-57607067D01*
X78178658Y-57607153D01*
X78178658Y-61241390D01*
X78002943Y-61416798D01*
X77886691Y-61696764D01*
X77886426Y-61999906D01*
X78002190Y-62280074D01*
X78216356Y-62494615D01*
X78496322Y-62610867D01*
X78799464Y-62611132D01*
X79079632Y-62495368D01*
X79294173Y-62281202D01*
X79410425Y-62001236D01*
X79410690Y-61698094D01*
X79410690Y-63893700D01*
X79162400Y-63893700D01*
X78982577Y-63929469D01*
X78830131Y-64031330D01*
X76030220Y-66831241D01*
X76030220Y-56493070D01*
X76030220Y-55806930D01*
X76015260Y-55732723D01*
X75753630Y-55251974D01*
X75327941Y-54907941D01*
X75233276Y-54880000D01*
X75327941Y-54852059D01*
X75753630Y-54508026D01*
X76015260Y-54027277D01*
X76030220Y-53953070D01*
X76030220Y-53266930D01*
X76015260Y-53192723D01*
X75753630Y-52711974D01*
X75327941Y-52367941D01*
X74803000Y-52213000D01*
X73914000Y-52213000D01*
X73914000Y-53483000D01*
X75907720Y-53483000D01*
X76030220Y-53266930D01*
X76030220Y-53953070D01*
X75907720Y-53737000D01*
X73914000Y-53737000D01*
X73914000Y-54753000D01*
X73914000Y-55007000D01*
X73914000Y-56023000D01*
X75907720Y-56023000D01*
X76030220Y-55806930D01*
X76030220Y-56493070D01*
X75907720Y-56277000D01*
X73914000Y-56277000D01*
X73914000Y-56297000D01*
X73660000Y-56297000D01*
X73660000Y-56277000D01*
X73660000Y-56023000D01*
X73660000Y-55007000D01*
X73660000Y-54753000D01*
X73660000Y-53737000D01*
X73660000Y-53483000D01*
X73660000Y-52213000D01*
X72771000Y-52213000D01*
X72246059Y-52367941D01*
X71820370Y-52711974D01*
X71558740Y-53192723D01*
X71543780Y-53266930D01*
X71666280Y-53483000D01*
X73660000Y-53483000D01*
X73660000Y-53737000D01*
X71666280Y-53737000D01*
X71543780Y-53953070D01*
X71558740Y-54027277D01*
X71820370Y-54508026D01*
X72246059Y-54852059D01*
X72340723Y-54880000D01*
X72246059Y-54907941D01*
X71820370Y-55251974D01*
X71558740Y-55732723D01*
X71543780Y-55806930D01*
X71666280Y-56023000D01*
X73660000Y-56023000D01*
X73660000Y-56277000D01*
X71666280Y-56277000D01*
X71543780Y-56493070D01*
X71558740Y-56567277D01*
X71820370Y-57048026D01*
X72246059Y-57392059D01*
X72771000Y-57547000D01*
X72858191Y-57547000D01*
X72420784Y-57634006D01*
X72049968Y-57881777D01*
X71802197Y-58252593D01*
X71715191Y-58690000D01*
X71802197Y-59127407D01*
X72049968Y-59498223D01*
X72420784Y-59745994D01*
X72858191Y-59833000D01*
X74715809Y-59833000D01*
X75153216Y-59745994D01*
X75524032Y-59498223D01*
X75771803Y-59127407D01*
X75858809Y-58690000D01*
X75771803Y-58252593D01*
X75524032Y-57881777D01*
X75153216Y-57634006D01*
X74715809Y-57547000D01*
X74803000Y-57547000D01*
X75327941Y-57392059D01*
X75753630Y-57048026D01*
X76015260Y-56567277D01*
X76030220Y-56493070D01*
X76030220Y-66831241D01*
X75858809Y-67002652D01*
X75858809Y-66310000D01*
X75858809Y-63770000D01*
X75858809Y-61230000D01*
X75771803Y-60792593D01*
X75524032Y-60421777D01*
X75153216Y-60174006D01*
X74715809Y-60087000D01*
X72858191Y-60087000D01*
X72420784Y-60174006D01*
X72049968Y-60421777D01*
X71802197Y-60792593D01*
X71715191Y-61230000D01*
X71802197Y-61667407D01*
X72049968Y-62038223D01*
X72420784Y-62285994D01*
X72858191Y-62373000D01*
X74715809Y-62373000D01*
X75153216Y-62285994D01*
X75524032Y-62038223D01*
X75771803Y-61667407D01*
X75858809Y-61230000D01*
X75858809Y-63770000D01*
X75771803Y-63332593D01*
X75524032Y-62961777D01*
X75153216Y-62714006D01*
X74715809Y-62627000D01*
X72858191Y-62627000D01*
X72420784Y-62714006D01*
X72049968Y-62961777D01*
X71802197Y-63332593D01*
X71715191Y-63770000D01*
X71802197Y-64207407D01*
X72049968Y-64578223D01*
X72420784Y-64825994D01*
X72858191Y-64913000D01*
X74715809Y-64913000D01*
X75153216Y-64825994D01*
X75524032Y-64578223D01*
X75771803Y-64207407D01*
X75858809Y-63770000D01*
X75858809Y-66310000D01*
X75771803Y-65872593D01*
X75524032Y-65501777D01*
X75153216Y-65254006D01*
X74715809Y-65167000D01*
X72858191Y-65167000D01*
X72420784Y-65254006D01*
X72049968Y-65501777D01*
X71802197Y-65872593D01*
X71715191Y-66310000D01*
X71802197Y-66747407D01*
X72049968Y-67118223D01*
X72420784Y-67365994D01*
X72858191Y-67453000D01*
X74715809Y-67453000D01*
X75153216Y-67365994D01*
X75524032Y-67118223D01*
X75771803Y-66747407D01*
X75858809Y-66310000D01*
X75858809Y-67002652D01*
X75081684Y-67779777D01*
X74715809Y-67707000D01*
X72858191Y-67707000D01*
X72420784Y-67794006D01*
X72049968Y-68041777D01*
X71802197Y-68412593D01*
X71715191Y-68850000D01*
X71802197Y-69287407D01*
X72049968Y-69658223D01*
X72420784Y-69905994D01*
X72858191Y-69993000D01*
X74715809Y-69993000D01*
X75084873Y-69919588D01*
X74750551Y-70253910D01*
X74715809Y-70247000D01*
X72858191Y-70247000D01*
X72420784Y-70334006D01*
X72049968Y-70581777D01*
X71802197Y-70952593D01*
X71715191Y-71390000D01*
X71802197Y-71827407D01*
X72049968Y-72198223D01*
X72420784Y-72445994D01*
X72858191Y-72533000D01*
X74715809Y-72533000D01*
X75153216Y-72445994D01*
X75524032Y-72198223D01*
X75771803Y-71827407D01*
X75858809Y-71390000D01*
X75771803Y-70952593D01*
X75615247Y-70718290D01*
X78960038Y-67373500D01*
X80723190Y-67373500D01*
X80898598Y-67549215D01*
X81178564Y-67665467D01*
X81481706Y-67665732D01*
X81761874Y-67549968D01*
X81976415Y-67335802D01*
X82092667Y-67055836D01*
X82092932Y-66752694D01*
X81977168Y-66472526D01*
X81763002Y-66257985D01*
X81483036Y-66141733D01*
X81179894Y-66141468D01*
X80899726Y-66257232D01*
X80722949Y-66433700D01*
X78765400Y-66433700D01*
X78585577Y-66469469D01*
X78433131Y-66571330D01*
X75785397Y-69219064D01*
X75858809Y-68850000D01*
X75772822Y-68417716D01*
X79357038Y-64833500D01*
X80799390Y-64833500D01*
X80974798Y-65009215D01*
X81254764Y-65125467D01*
X81557906Y-65125732D01*
X81838074Y-65009968D01*
X82052615Y-64795802D01*
X82168867Y-64515836D01*
X82169132Y-64212694D01*
X82169132Y-77069000D01*
X68714464Y-77069000D01*
X68714464Y-74676000D01*
X68714464Y-72644000D01*
X68714464Y-51816000D01*
X68714464Y-49784000D01*
X68686278Y-49638726D01*
X68602404Y-49511044D01*
X68475784Y-49425574D01*
X68326000Y-49395536D01*
X66294000Y-49395536D01*
X66148726Y-49423722D01*
X66021044Y-49507596D01*
X65935574Y-49634216D01*
X65928770Y-49668140D01*
X65738379Y-49462812D01*
X65152946Y-49194017D01*
X64897000Y-49312633D01*
X64897000Y-50673000D01*
X64917000Y-50673000D01*
X64917000Y-50927000D01*
X64897000Y-50927000D01*
X64897000Y-52287367D01*
X65152946Y-52405983D01*
X65738379Y-52137188D01*
X65928145Y-51932533D01*
X65933722Y-51961274D01*
X66017596Y-52088956D01*
X66144216Y-52174426D01*
X66294000Y-52204464D01*
X68326000Y-52204464D01*
X68471274Y-52176278D01*
X68598956Y-52092404D01*
X68684426Y-51965784D01*
X68714464Y-51816000D01*
X68714464Y-72644000D01*
X68686278Y-72498726D01*
X68602404Y-72371044D01*
X68475784Y-72285574D01*
X68326000Y-72255536D01*
X66294000Y-72255536D01*
X66148726Y-72283722D01*
X66021044Y-72367596D01*
X65935574Y-72494216D01*
X65928770Y-72528140D01*
X65738379Y-72322812D01*
X65152946Y-72054017D01*
X64897000Y-72172633D01*
X64897000Y-73533000D01*
X64917000Y-73533000D01*
X64917000Y-73787000D01*
X64897000Y-73787000D01*
X64897000Y-75147367D01*
X65152946Y-75265983D01*
X65738379Y-74997188D01*
X65928145Y-74792533D01*
X65933722Y-74821274D01*
X66017596Y-74948956D01*
X66144216Y-75034426D01*
X66294000Y-75064464D01*
X68326000Y-75064464D01*
X68471274Y-75036278D01*
X68598956Y-74952404D01*
X68684426Y-74825784D01*
X68714464Y-74676000D01*
X68714464Y-77069000D01*
X64643000Y-77069000D01*
X64643000Y-75147367D01*
X64643000Y-73787000D01*
X64643000Y-73533000D01*
X64643000Y-72172633D01*
X64643000Y-52287367D01*
X64643000Y-50927000D01*
X64643000Y-50673000D01*
X64643000Y-49312633D01*
X64387054Y-49194017D01*
X63801621Y-49462812D01*
X63363615Y-49935182D01*
X63164025Y-50417056D01*
X63283164Y-50673000D01*
X64643000Y-50673000D01*
X64643000Y-50927000D01*
X63283164Y-50927000D01*
X63164025Y-51182944D01*
X63363615Y-51664818D01*
X63801621Y-52137188D01*
X64387054Y-52405983D01*
X64643000Y-52287367D01*
X64643000Y-72172633D01*
X64387054Y-72054017D01*
X63801621Y-72322812D01*
X63363615Y-72795182D01*
X63164025Y-73277056D01*
X63283164Y-73533000D01*
X64643000Y-73533000D01*
X64643000Y-73787000D01*
X63283164Y-73787000D01*
X63164025Y-74042944D01*
X63363615Y-74524818D01*
X63801621Y-74997188D01*
X64387054Y-75265983D01*
X64643000Y-75147367D01*
X64643000Y-77069000D01*
X59245284Y-77069000D01*
X59245284Y-76081000D01*
X59245284Y-72619000D01*
X50427647Y-72619000D01*
X50427647Y-67500000D01*
X50427647Y-57500000D01*
X50360556Y-57162710D01*
X50169497Y-56876770D01*
X49883557Y-56685711D01*
X49546267Y-56618620D01*
X46453733Y-56618620D01*
X46116443Y-56685711D01*
X45830503Y-56876770D01*
X45639444Y-57162710D01*
X45572353Y-57500000D01*
X45639444Y-57837290D01*
X45830503Y-58123230D01*
X46116443Y-58314289D01*
X46453733Y-58381380D01*
X49546267Y-58381380D01*
X49883557Y-58314289D01*
X50169497Y-58123230D01*
X50360556Y-57837290D01*
X50427647Y-57500000D01*
X50427647Y-67500000D01*
X50360556Y-67162710D01*
X50169497Y-66876770D01*
X49883557Y-66685711D01*
X49546267Y-66618620D01*
X46453733Y-66618620D01*
X46116443Y-66685711D01*
X45830503Y-66876770D01*
X45639444Y-67162710D01*
X45572353Y-67500000D01*
X45639444Y-67837290D01*
X45830503Y-68123230D01*
X46116443Y-68314289D01*
X46453733Y-68381380D01*
X49546267Y-68381380D01*
X49883557Y-68314289D01*
X50169497Y-68123230D01*
X50360556Y-67837290D01*
X50427647Y-67500000D01*
X50427647Y-72619000D01*
X46754716Y-72619000D01*
X46754716Y-76081000D01*
X59245284Y-76081000D01*
X59245284Y-77069000D01*
X44431000Y-77069000D01*
X44431000Y-47931000D01*
X156569000Y-47931000D01*
X156569000Y-77069000D01*
M02*
