G04 #@! TF.FileFunction,Soldermask,Top*
%FSLAX46Y46*%
G04 Gerber Fmt 4.6, Leading zero omitted, Abs format (unit mm)*
G04 Created by KiCad (PCBNEW 0.201411071246+5256~19~ubuntu14.04.1-product) date Sun 09 Nov 2014 14:56:43 NZDT*
%MOMM*%
G01*
G04 APERTURE LIST*
%ADD10C,0.150000*%
%ADD11R,7.498080X2.997200*%
%ADD12R,1.400000X1.200000*%
%ADD13R,0.280000X1.400000*%
%ADD14R,1.143000X0.635000*%
%ADD15R,1.800000X0.800000*%
%ADD16R,0.635000X1.143000*%
%ADD17R,1.524000X1.524000*%
%ADD18C,1.524000*%
%ADD19R,1.300480X0.299720*%
%ADD20R,0.299720X1.300480*%
%ADD21R,2.537160X1.837160*%
%ADD22R,1.198880X1.198880*%
%ADD23R,0.635000X1.016000*%
%ADD24R,1.198880X0.599440*%
%ADD25R,1.501140X1.950720*%
%ADD26R,1.950720X1.501140*%
%ADD27R,1.397000X3.810000*%
%ADD28O,3.302000X1.524000*%
%ADD29R,0.762000X0.508000*%
%ADD30R,2.199640X1.800860*%
%ADD31O,5.000000X2.199640*%
%ADD32R,1.000000X2.000000*%
%ADD33R,1.524000X0.406400*%
%ADD34R,0.406400X1.524000*%
%ADD35R,1.524000X2.199640*%
%ADD36O,1.524000X2.199640*%
%ADD37R,1.600200X3.599180*%
%ADD38R,1.000760X0.899160*%
%ADD39R,2.600960X1.600200*%
%ADD40R,0.599440X1.998980*%
%ADD41R,1.800860X2.199640*%
G04 APERTURE END LIST*
D10*
D11*
X51054000Y-57617360D03*
X51054000Y-52618640D03*
D12*
X135820000Y-64582000D03*
X133420000Y-64582000D03*
X133420000Y-66482000D03*
X135820000Y-66482000D03*
D13*
X136382000Y-58058000D03*
X135882000Y-58058000D03*
X135382000Y-58058000D03*
X134882000Y-58058000D03*
X134382000Y-58058000D03*
X134382000Y-62338000D03*
X134882000Y-62338000D03*
X135382000Y-62338000D03*
X135882000Y-62338000D03*
X136382000Y-62338000D03*
D14*
X102108000Y-55118000D03*
X102108000Y-56642000D03*
D15*
X157892000Y-71008000D03*
X157892000Y-69908000D03*
X157892000Y-68808000D03*
X157892000Y-67708000D03*
X157892000Y-66608000D03*
X157892000Y-65508000D03*
X157892000Y-64408000D03*
X157892000Y-61408000D03*
X157892000Y-60308000D03*
X157892000Y-59208000D03*
X157892000Y-58108000D03*
X157892000Y-57008000D03*
X145892000Y-57008000D03*
X145892000Y-58108000D03*
X145892000Y-59208000D03*
X145892000Y-60308000D03*
X145892000Y-61408000D03*
X145892000Y-64408000D03*
X145892000Y-65508000D03*
X145892000Y-66608000D03*
X145892000Y-67708000D03*
X145892000Y-68808000D03*
X145892000Y-69908000D03*
X145892000Y-71008000D03*
D14*
X117600000Y-66262000D03*
X117600000Y-64738000D03*
D16*
X122938000Y-56200000D03*
X124462000Y-56200000D03*
X129349500Y-72402700D03*
X127825500Y-72402700D03*
D17*
X141478000Y-66802000D03*
D18*
X138938000Y-66802000D03*
X141478000Y-64262000D03*
X138938000Y-64262000D03*
X141478000Y-61722000D03*
X138938000Y-61722000D03*
D19*
X98262440Y-61488320D03*
X98262440Y-61988700D03*
X98262440Y-62489080D03*
X98262440Y-62986920D03*
X98262440Y-63487300D03*
X98262440Y-59987180D03*
X98262440Y-60487560D03*
X98262440Y-60987940D03*
D20*
X99611180Y-66837560D03*
X100111560Y-66837560D03*
X100611940Y-66837560D03*
X101112320Y-66837560D03*
X101612700Y-66837560D03*
X102113080Y-66837560D03*
X102610920Y-66837560D03*
X103111300Y-66837560D03*
D19*
X106461560Y-65488820D03*
X106461560Y-64988440D03*
X106461560Y-64488060D03*
X106461560Y-63987680D03*
X106461560Y-63487300D03*
X106461560Y-62986920D03*
X106461560Y-62489080D03*
X106461560Y-61988700D03*
D20*
X105112820Y-58638440D03*
X104612440Y-58638440D03*
X104112060Y-58638440D03*
X103611680Y-58638440D03*
X103111300Y-58638440D03*
X102610920Y-58638440D03*
X102113080Y-58638440D03*
X101612700Y-58638440D03*
D19*
X98262440Y-63987680D03*
X98262440Y-64488060D03*
X98262440Y-64988440D03*
X98262440Y-65488820D03*
D20*
X103611680Y-66837560D03*
X104112060Y-66837560D03*
X104612440Y-66837560D03*
X105112820Y-66837560D03*
D19*
X106461560Y-61488320D03*
X106461560Y-60987940D03*
X106461560Y-60487560D03*
X106461560Y-59987180D03*
D20*
X101112320Y-58638440D03*
X100611940Y-58638440D03*
X100111560Y-58638440D03*
X99611180Y-58638440D03*
D21*
X112395000Y-64969000D03*
X112395000Y-61269000D03*
D14*
X110363000Y-69215000D03*
X110363000Y-67691000D03*
X115062000Y-60782200D03*
X115062000Y-62306200D03*
X115087400Y-65455800D03*
X115087400Y-63931800D03*
D22*
X106680000Y-70391020D03*
X106680000Y-68292980D03*
D14*
X104902000Y-70993000D03*
X104902000Y-72517000D03*
X106680000Y-71755000D03*
X106680000Y-73279000D03*
X109601000Y-62230000D03*
X109601000Y-63754000D03*
D23*
X98549460Y-72517000D03*
X99824540Y-72517000D03*
D24*
X88773000Y-66929000D03*
X88773000Y-65659000D03*
X88773000Y-64389000D03*
X88773000Y-63119000D03*
X88773000Y-61849000D03*
X88773000Y-60579000D03*
X88773000Y-59309000D03*
X88773000Y-58039000D03*
X79883000Y-58039000D03*
X79883000Y-59309000D03*
X79883000Y-60579000D03*
X79883000Y-61849000D03*
X79883000Y-63119000D03*
X79883000Y-64389000D03*
X79883000Y-65659000D03*
X79883000Y-66929000D03*
D25*
X112141000Y-67586860D03*
X112141000Y-70335140D03*
D14*
X101854000Y-72517000D03*
X101854000Y-70993000D03*
X103378000Y-72517000D03*
X103378000Y-70993000D03*
D26*
X96370140Y-72517000D03*
X93621860Y-72517000D03*
D16*
X101600000Y-69342000D03*
X103124000Y-69342000D03*
D14*
X100076000Y-70358000D03*
X100076000Y-68834000D03*
X98298000Y-70358000D03*
X98298000Y-68834000D03*
X95377000Y-64516000D03*
X95377000Y-62992000D03*
X95504000Y-59690000D03*
X95504000Y-61214000D03*
X96520000Y-67818000D03*
X96520000Y-66294000D03*
X94996000Y-66294000D03*
X94996000Y-67818000D03*
D27*
X82169000Y-71374000D03*
X86741000Y-71374000D03*
D16*
X93853000Y-62738000D03*
X92329000Y-62738000D03*
X93853000Y-61214000D03*
X92329000Y-61214000D03*
X92710000Y-66040000D03*
X91186000Y-66040000D03*
D14*
X90678000Y-64008000D03*
X90678000Y-62484000D03*
D28*
X73787000Y-71390000D03*
X73787000Y-68850000D03*
X73787000Y-66310000D03*
X73787000Y-63770000D03*
X73787000Y-61230000D03*
X73787000Y-58690000D03*
X73787000Y-56150000D03*
X73787000Y-53610000D03*
D14*
X77139800Y-62153800D03*
X77139800Y-63677800D03*
X77089000Y-58039000D03*
X77089000Y-56515000D03*
D16*
X78511400Y-66497200D03*
X76987400Y-66497200D03*
D14*
X78257400Y-59232800D03*
X78257400Y-60756800D03*
D16*
X92710000Y-67564000D03*
X91186000Y-67564000D03*
X95656400Y-56489600D03*
X97180400Y-56489600D03*
X92329000Y-64262000D03*
X93853000Y-64262000D03*
X93853000Y-59690000D03*
X92329000Y-59690000D03*
X95656400Y-58064400D03*
X97180400Y-58064400D03*
D29*
X121070000Y-56152500D03*
X121070000Y-54247500D03*
X118530000Y-56152500D03*
X121070000Y-55200000D03*
X118530000Y-54247500D03*
D30*
X69088000Y-68808600D03*
X69088000Y-64795400D03*
D31*
X35000000Y-57500000D03*
X35000000Y-67500000D03*
D14*
X143256000Y-69596000D03*
X143256000Y-71120000D03*
D25*
X126238000Y-53235860D03*
X126238000Y-55984140D03*
D26*
X140566140Y-71120000D03*
X137817860Y-71120000D03*
D32*
X162743000Y-58108000D03*
X169743000Y-58108000D03*
D22*
X114554000Y-52798980D03*
X114554000Y-54897020D03*
X135128000Y-52798980D03*
X135128000Y-54897020D03*
X132334000Y-52798980D03*
X132334000Y-54897020D03*
D16*
X110236000Y-54610000D03*
X111760000Y-54610000D03*
X122938000Y-54400000D03*
X124462000Y-54400000D03*
D14*
X116600000Y-55962000D03*
X116600000Y-54438000D03*
D16*
X128270000Y-53086000D03*
X129794000Y-53086000D03*
X128270000Y-54610000D03*
X129794000Y-54610000D03*
D33*
X131015000Y-64200000D03*
X131015000Y-63399900D03*
X131015000Y-62599800D03*
X131015000Y-61799700D03*
X131015000Y-60999600D03*
X131015000Y-60199500D03*
X131015000Y-65000100D03*
X131015000Y-65800200D03*
X131015000Y-66600300D03*
X131015000Y-67400400D03*
X131015000Y-68200500D03*
X119585000Y-64200000D03*
X119585000Y-63399900D03*
X119585000Y-62599800D03*
X119585000Y-61799700D03*
X119585000Y-60999600D03*
X119585000Y-60199500D03*
X119585000Y-65000100D03*
X119585000Y-65800200D03*
X119585000Y-66600300D03*
X119585000Y-67400400D03*
X119585000Y-68200500D03*
D34*
X125300000Y-58485000D03*
X125300000Y-69915000D03*
X124499900Y-58485000D03*
X124499900Y-69915000D03*
X123699800Y-69915000D03*
X123699800Y-58485000D03*
X122899700Y-58485000D03*
X122899700Y-69915000D03*
X122099600Y-69915000D03*
X122099600Y-58485000D03*
X121299500Y-58485000D03*
X121299500Y-69915000D03*
X126100100Y-69915000D03*
X126100100Y-58485000D03*
X126900200Y-58485000D03*
X126900200Y-69915000D03*
X127700300Y-69915000D03*
X127700300Y-58485000D03*
X128500400Y-58485000D03*
X128500400Y-69915000D03*
X129300500Y-69915000D03*
X129300500Y-58485000D03*
D16*
X134620000Y-68072000D03*
X136144000Y-68072000D03*
D35*
X125680000Y-73500000D03*
D36*
X123140000Y-73500000D03*
X120600000Y-73500000D03*
X118060000Y-73500000D03*
X115520000Y-73500000D03*
D37*
X55372000Y-62781180D03*
X55372000Y-68282820D03*
X67564000Y-61424820D03*
X67564000Y-55923180D03*
X59690000Y-61424820D03*
X59690000Y-55923180D03*
X63246000Y-62781180D03*
X63246000Y-68282820D03*
D38*
X45212000Y-68696840D03*
X45212000Y-67193160D03*
D39*
X44218860Y-58674000D03*
X40617140Y-58674000D03*
D40*
X46609000Y-70866000D03*
X47879000Y-70866000D03*
X49149000Y-70866000D03*
X50419000Y-70866000D03*
X50419000Y-65278000D03*
X49149000Y-65278000D03*
X47879000Y-65278000D03*
X46609000Y-65278000D03*
D41*
X50520600Y-61722000D03*
X46507400Y-61722000D03*
D39*
X44218860Y-53594000D03*
X40617140Y-53594000D03*
D16*
X53340000Y-72898000D03*
X51816000Y-72898000D03*
X50546000Y-72898000D03*
X49022000Y-72898000D03*
D14*
X132842000Y-63271400D03*
X132842000Y-61747400D03*
M02*
